<?xml version="1.0" encoding="UTF-8" standalone="no"?>
<!-- Created with Inkscape (http://www.inkscape.org/) -->

<svg
   xmlns:ns0="http://www.iki.fi/pav/software/textext/"
   xmlns:dc="http://purl.org/dc/elements/1.1/"
   xmlns:cc="http://creativecommons.org/ns#"
   xmlns:rdf="http://www.w3.org/1999/02/22-rdf-syntax-ns#"
   xmlns:svg="http://www.w3.org/2000/svg"
   xmlns="http://www.w3.org/2000/svg"
   xmlns:xlink="http://www.w3.org/1999/xlink"
   xmlns:sodipodi="http://sodipodi.sourceforge.net/DTD/sodipodi-0.dtd"
   xmlns:inkscape="http://www.inkscape.org/namespaces/inkscape"
   width="635.20203"
   height="566.55139"
   id="svg2"
   version="1.1"
   inkscape:version="0.48.3.1 r9886"
   sodipodi:docname="abstractroadmap.svg">
  <sodipodi:namedview
     id="base"
     pagecolor="#ffffff"
     bordercolor="#666666"
     borderopacity="1.0"
     inkscape:pageopacity="0.0"
     inkscape:pageshadow="2"
     inkscape:zoom="1.0726772"
     inkscape:cx="322.14613"
     inkscape:cy="283.27568"
     inkscape:document-units="px"
     inkscape:current-layer="layer1"
     showgrid="false"
     inkscape:window-width="1317"
     inkscape:window-height="744"
     inkscape:window-x="49"
     inkscape:window-y="24"
     inkscape:window-maximized="1"
     fit-margin-top="5"
     fit-margin-left="5"
     fit-margin-right="5"
     fit-margin-bottom="5" />
  <defs
     id="defs4" />
  <metadata
     id="metadata7">
    <rdf:RDF>
      <cc:Work
         rdf:about="">
        <dc:format>image/svg+xml</dc:format>
        <dc:type
           rdf:resource="http://purl.org/dc/dcmitype/StillImage" />
        <dc:title />
      </cc:Work>
    </rdf:RDF>
  </metadata>
  <g
     inkscape:label="Layer 1"
     inkscape:groupmode="layer"
     id="layer1"
     transform="translate(-52.73571,12.375406)">
    <text
       xml:space="preserve"
       style="font-size:28px;font-style:normal;font-variant:normal;font-weight:normal;font-stretch:normal;line-height:125%;letter-spacing:0px;word-spacing:0px;fill:#000000;fill-opacity:1;stroke:none;font-family:HelveticaNeue;-inkscape-font-specification:HelveticaNeue"
       x="348.58844"
       y="305.83841"
       id="text2985"
       sodipodi:linespacing="125%"><tspan
         sodipodi:role="line"
         x="352.47125"
         y="305.83841"
         id="tspan2989"
         style="text-align:center;text-anchor:middle">gene expression </tspan><tspan
         sodipodi:role="line"
         x="352.47125"
         y="340.83841"
         id="tspan3017"
         style="text-align:center;text-anchor:middle">pattern </tspan><tspan
         sodipodi:role="line"
         x="348.58844"
         y="375.83841"
         id="tspan3020"
         style="text-align:center;text-anchor:middle">(phenotype<tspan
   style="font-size:65.00091553%;text-align:center;text-anchor:middle;baseline-shift:sub"
   id="tspan3015">i</tspan>)</tspan></text>
    <text
       sodipodi:linespacing="125%"
       id="text2993"
       y="513.70312"
       x="348.61646"
       style="font-size:28px;font-style:normal;font-variant:normal;font-weight:normal;font-stretch:normal;line-height:125%;letter-spacing:0px;word-spacing:0px;fill:#000000;fill-opacity:1;stroke:none;font-family:HelveticaNeue;-inkscape-font-specification:HelveticaNeue"
       xml:space="preserve"><tspan
         id="tspan2995"
         y="513.70312"
         x="352.49927"
         sodipodi:role="line"
         style="text-align:center;text-anchor:middle">allowed/viable </tspan><tspan
         y="548.70312"
         x="348.61646"
         sodipodi:role="line"
         id="tspan3023"
         style="text-align:center;text-anchor:middle">interactions</tspan></text>
    <text
       xml:space="preserve"
       style="font-size:28px;font-style:normal;font-variant:normal;font-weight:normal;font-stretch:normal;line-height:125%;letter-spacing:0px;word-spacing:0px;fill:#000000;fill-opacity:1;stroke:none;font-family:HelveticaNeue;-inkscape-font-specification:HelveticaNeue"
       x="148.1768"
       y="139.87158"
       id="text2997"
       sodipodi:linespacing="125%"><tspan
         sodipodi:role="line"
         x="148.1768"
         y="139.87158"
         id="tspan2999"
         style="text-align:center;text-anchor:middle">macroscopic</tspan><tspan
         sodipodi:role="line"
         x="148.1768"
         y="174.87158"
         id="tspan3001"
         style="text-align:center;text-anchor:middle">phenotypes<tspan
   style="font-size:65.00091553%;baseline-shift:sub"
   id="tspan3876">i+1</tspan></tspan></text>
    <text
       sodipodi:linespacing="125%"
       id="text3003"
       y="12.616594"
       x="536.71777"
       style="font-size:28px;font-style:normal;font-variant:normal;font-weight:normal;font-stretch:normal;line-height:125%;letter-spacing:0px;word-spacing:0px;fill:#000000;fill-opacity:1;stroke:none;font-family:HelveticaNeue;-inkscape-font-specification:HelveticaNeue"
       xml:space="preserve"><tspan
         style="text-align:center;text-anchor:middle"
         id="tspan3007"
         y="12.616594"
         x="536.71777"
         sodipodi:role="line">probabilities of</tspan><tspan
         style="text-align:center;text-anchor:middle"
         y="47.616592"
         x="536.71777"
         sodipodi:role="line"
         id="tspan3011">collections of expression</tspan><tspan
         style="text-align:center;text-anchor:middle"
         y="82.616592"
         x="536.71777"
         sodipodi:role="line"
         id="tspan3013">states</tspan></text>
    <g
       id="g3192"
       ns0:preamble=""
       ns0:text="$(\\sigma-\\hbox{alg, incl.})$"
       transform="matrix(3.6554224,0,0,3.6554224,-366.7627,-145.844)">
      <defs
         id="defs3194">
        <g
           id="g3196">
          <symbol
             id="textext-e54b853a-0"
             overflow="visible"
             style="overflow:visible">
            <path
               id="path3199"
               d="m 3.296875,2.390625 c 0,-0.03125 0,-0.046875 -0.171875,-0.21875 C 1.890625,0.921875 1.5625,-0.96875 1.5625,-2.5 c 0,-1.734375 0.375,-3.46875 1.609375,-4.703125 0.125,-0.125 0.125,-0.140625 0.125,-0.171875 0,-0.078125 -0.03125,-0.109375 -0.09375,-0.109375 -0.109375,0 -1,0.6875 -1.59375,1.953125 -0.5,1.09375 -0.625,2.203125 -0.625,3.03125 0,0.78125 0.109375,1.984375 0.65625,3.125 C 2.25,1.84375 3.09375,2.5 3.203125,2.5 c 0.0625,0 0.09375,-0.03125 0.09375,-0.109375 z m 0,0"
               style="stroke:none"
               inkscape:connector-curvature="0" />
          </symbol>
          <symbol
             id="textext-e54b853a-1"
             overflow="visible"
             style="overflow:visible">
            <path
               id="path3202"
               d="m 3.3125,-0.75 c 0.046875,0.390625 0.3125,0.8125 0.78125,0.8125 0.21875,0 0.828125,-0.140625 0.828125,-0.953125 l 0,-0.5625 -0.25,0 0,0.5625 c 0,0.578125 -0.25,0.640625 -0.359375,0.640625 -0.328125,0 -0.375,-0.453125 -0.375,-0.5 l 0,-1.984375 c 0,-0.421875 0,-0.8125 -0.359375,-1.1875 C 3.1875,-4.3125 2.6875,-4.46875 2.21875,-4.46875 c -0.828125,0 -1.515625,0.46875 -1.515625,1.125 0,0.296875 0.203125,0.46875 0.46875,0.46875 0.28125,0 0.453125,-0.203125 0.453125,-0.453125 0,-0.125 -0.046875,-0.453125 -0.515625,-0.453125 C 1.390625,-4.140625 1.875,-4.25 2.1875,-4.25 c 0.5,0 1.0625,0.390625 1.0625,1.28125 l 0,0.359375 c -0.515625,0.03125 -1.203125,0.0625 -1.828125,0.359375 -0.75,0.34375 -1,0.859375 -1,1.296875 0,0.8125 0.96875,1.0625 1.59375,1.0625 0.65625,0 1.109375,-0.40625 1.296875,-0.859375 z M 3.25,-2.390625 l 0,1 c 0,0.9375 -0.71875,1.28125 -1.171875,1.28125 -0.484375,0 -0.890625,-0.34375 -0.890625,-0.84375 0,-0.546875 0.421875,-1.375 2.0625,-1.4375 z m 0,0"
               style="stroke:none"
               inkscape:connector-curvature="0" />
          </symbol>
          <symbol
             id="textext-e54b853a-2"
             overflow="visible"
             style="overflow:visible">
            <path
               id="path3205"
               d="m 1.765625,-6.921875 -1.4375,0.109375 0,0.3125 c 0.703125,0 0.78125,0.0625 0.78125,0.5625 l 0,5.1875 c 0,0.4375 -0.109375,0.4375 -0.78125,0.4375 l 0,0.3125 C 0.65625,-0.015625 1.1875,-0.03125 1.4375,-0.03125 c 0.25,0 0.734375,0.015625 1.109375,0.03125 l 0,-0.3125 c -0.671875,0 -0.78125,0 -0.78125,-0.4375 z m 0,0"
               style="stroke:none"
               inkscape:connector-curvature="0" />
          </symbol>
          <symbol
             id="textext-e54b853a-3"
             overflow="visible"
             style="overflow:visible">
            <path
               id="path3208"
               d="m 2.21875,-1.71875 c -0.875,0 -0.875,-1 -0.875,-1.21875 0,-0.265625 0.015625,-0.59375 0.15625,-0.84375 0.078125,-0.109375 0.3125,-0.390625 0.71875,-0.390625 0.859375,0 0.859375,0.984375 0.859375,1.21875 0,0.265625 0,0.59375 -0.15625,0.84375 C 2.84375,-2 2.609375,-1.71875 2.21875,-1.71875 z M 1.0625,-1.328125 c 0,-0.03125 0,-0.265625 0.15625,-0.46875 0.390625,0.28125 0.8125,0.3125 1,0.3125 0.921875,0 1.609375,-0.6875 1.609375,-1.453125 0,-0.375 -0.15625,-0.734375 -0.40625,-0.96875 C 3.78125,-4.25 4.140625,-4.296875 4.3125,-4.296875 c 0.03125,0 0.078125,0 0.109375,0.015625 C 4.3125,-4.25 4.25,-4.140625 4.25,-4.015625 c 0,0.171875 0.140625,0.28125 0.296875,0.28125 0.09375,0 0.28125,-0.0625 0.28125,-0.296875 0,-0.171875 -0.109375,-0.484375 -0.5,-0.484375 -0.203125,0 -0.640625,0.0625 -1.0625,0.46875 C 2.84375,-4.375 2.4375,-4.40625 2.21875,-4.40625 c -0.9375,0 -1.625,0.6875 -1.625,1.453125 0,0.4375 0.21875,0.8125 0.46875,1.03125 -0.125,0.140625 -0.3125,0.46875 -0.3125,0.828125 0,0.3125 0.140625,0.6875 0.453125,0.890625 -0.609375,0.15625 -0.921875,0.59375 -0.921875,0.984375 0,0.71875 0.984375,1.265625 2.203125,1.265625 1.171875,0 2.203125,-0.5 2.203125,-1.28125 0,-0.34375 -0.125,-0.859375 -0.640625,-1.140625 -0.53125,-0.265625 -1.109375,-0.265625 -1.71875,-0.265625 -0.25,0 -0.671875,0 -0.75,-0.015625 C 1.265625,-0.703125 1.0625,-1 1.0625,-1.328125 z M 2.5,1.828125 c -1.015625,0 -1.703125,-0.515625 -1.703125,-1.046875 0,-0.453125 0.375,-0.828125 0.8125,-0.84375 l 0.59375,0 c 0.859375,0 1.96875,0 1.96875,0.84375 0,0.546875 -0.703125,1.046875 -1.671875,1.046875 z m 0,0"
               style="stroke:none"
               inkscape:connector-curvature="0" />
          </symbol>
          <symbol
             id="textext-e54b853a-4"
             overflow="visible"
             style="overflow:visible">
            <path
               id="path3211"
               d="m 2.03125,-0.015625 c 0,-0.625 -0.25,-1.046875 -0.640625,-1.046875 -0.359375,0 -0.53125,0.28125 -0.53125,0.53125 0,0.265625 0.171875,0.53125 0.53125,0.53125 0.15625,0 0.28125,-0.0625 0.375,-0.140625 L 1.78125,-0.15625 c 0.015625,0 0.015625,0 0.015625,0.140625 0,0.640625 -0.265625,1.25 -0.703125,1.71875 -0.0625,0.0625 -0.078125,0.078125 -0.078125,0.109375 0,0.078125 0.046875,0.109375 0.09375,0.109375 0.125,0 0.921875,-0.78125 0.921875,-1.9375 z m 0,0"
               style="stroke:none"
               inkscape:connector-curvature="0" />
          </symbol>
          <symbol
             id="textext-e54b853a-5"
             overflow="visible"
             style="overflow:visible">
            <path
               id="path3214"
               d="M 1.765625,-4.40625 0.375,-4.296875 l 0,0.3125 c 0.640625,0 0.734375,0.0625 0.734375,0.546875 l 0,2.6875 c 0,0.4375 -0.109375,0.4375 -0.78125,0.4375 l 0,0.3125 C 0.640625,-0.015625 1.1875,-0.03125 1.421875,-0.03125 1.78125,-0.03125 2.125,-0.015625 2.46875,0 l 0,-0.3125 c -0.671875,0 -0.703125,-0.046875 -0.703125,-0.4375 z m 0.03125,-1.734375 c 0,-0.3125 -0.234375,-0.53125 -0.515625,-0.53125 -0.3125,0 -0.53125,0.265625 -0.53125,0.53125 0,0.265625 0.21875,0.53125 0.53125,0.53125 0.28125,0 0.515625,-0.21875 0.515625,-0.53125 z m 0,0"
               style="stroke:none"
               inkscape:connector-curvature="0" />
          </symbol>
          <symbol
             id="textext-e54b853a-6"
             overflow="visible"
             style="overflow:visible">
            <path
               id="path3217"
               d="m 1.09375,-3.421875 0,2.671875 c 0,0.4375 -0.109375,0.4375 -0.78125,0.4375 l 0,0.3125 c 0.359375,-0.015625 0.859375,-0.03125 1.140625,-0.03125 0.25,0 0.765625,0.015625 1.109375,0.03125 l 0,-0.3125 c -0.671875,0 -0.78125,0 -0.78125,-0.4375 l 0,-1.84375 C 1.78125,-3.625 2.5,-4.1875 3.125,-4.1875 c 0.640625,0 0.75,0.53125 0.75,1.109375 l 0,2.328125 c 0,0.4375 -0.109375,0.4375 -0.78125,0.4375 l 0,0.3125 c 0.34375,-0.015625 0.859375,-0.03125 1.125,-0.03125 0.25,0 0.78125,0.015625 1.109375,0.03125 l 0,-0.3125 c -0.515625,0 -0.765625,0 -0.765625,-0.296875 l 0,-1.90625 c 0,-0.859375 0,-1.15625 -0.3125,-1.515625 -0.140625,-0.171875 -0.46875,-0.375 -1.046875,-0.375 C 2.46875,-4.40625 2,-3.984375 1.71875,-3.359375 l 0,-1.046875 -1.40625,0.109375 0,0.3125 c 0.703125,0 0.78125,0.0625 0.78125,0.5625 z m 0,0"
               style="stroke:none"
               inkscape:connector-curvature="0" />
          </symbol>
          <symbol
             id="textext-e54b853a-7"
             overflow="visible"
             style="overflow:visible">
            <path
               id="path3220"
               d="m 1.171875,-2.171875 c 0,-1.625 0.8125,-2.046875 1.34375,-2.046875 0.09375,0 0.71875,0.015625 1.0625,0.375 -0.40625,0.03125 -0.46875,0.328125 -0.46875,0.453125 0,0.265625 0.1875,0.453125 0.453125,0.453125 0.265625,0 0.46875,-0.15625 0.46875,-0.46875 0,-0.671875 -0.765625,-1.0625 -1.53125,-1.0625 -1.25,0 -2.15625,1.078125 -2.15625,2.3125 0,1.28125 0.984375,2.265625 2.140625,2.265625 1.328125,0 1.65625,-1.203125 1.65625,-1.296875 0,-0.09375 -0.109375,-0.09375 -0.140625,-0.09375 -0.078125,0 -0.109375,0.03125 -0.125,0.09375 -0.28125,0.921875 -0.9375,1.046875 -1.296875,1.046875 -0.53125,0 -1.40625,-0.421875 -1.40625,-2.03125 z m 0,0"
               style="stroke:none"
               inkscape:connector-curvature="0" />
          </symbol>
          <symbol
             id="textext-e54b853a-8"
             overflow="visible"
             style="overflow:visible">
            <path
               id="path3223"
               d="m 1.90625,-0.53125 c 0,-0.28125 -0.234375,-0.53125 -0.515625,-0.53125 -0.296875,0 -0.53125,0.25 -0.53125,0.53125 C 0.859375,-0.234375 1.09375,0 1.390625,0 1.671875,0 1.90625,-0.234375 1.90625,-0.53125 z m 0,0"
               style="stroke:none"
               inkscape:connector-curvature="0" />
          </symbol>
          <symbol
             id="textext-e54b853a-9"
             overflow="visible"
             style="overflow:visible">
            <path
               id="path3226"
               d="m 2.875,-2.5 c 0,-0.765625 -0.109375,-1.96875 -0.65625,-3.109375 -0.59375,-1.21875 -1.453125,-1.875 -1.546875,-1.875 -0.0625,0 -0.109375,0.046875 -0.109375,0.109375 0,0.03125 0,0.046875 0.1875,0.234375 0.984375,0.984375 1.546875,2.5625 1.546875,4.640625 0,1.71875 -0.359375,3.46875 -1.59375,4.71875 C 0.5625,2.34375 0.5625,2.359375 0.5625,2.390625 0.5625,2.453125 0.609375,2.5 0.671875,2.5 0.765625,2.5 1.671875,1.8125 2.25,0.546875 2.765625,-0.546875 2.875,-1.65625 2.875,-2.5 z m 0,0"
               style="stroke:none"
               inkscape:connector-curvature="0" />
          </symbol>
          <symbol
             id="textext-e54b853a-10"
             overflow="visible"
             style="overflow:visible">
            <path
               id="path3229"
               d="m 5.15625,-3.71875 c 0.140625,0 0.5,0 0.5,-0.34375 0,-0.234375 -0.21875,-0.234375 -0.390625,-0.234375 l -2.28125,0 c -1.5,0 -2.609375,1.640625 -2.609375,2.828125 0,0.875 0.59375,1.578125 1.5,1.578125 1.171875,0 2.5,-1.203125 2.5,-2.734375 0,-0.171875 0,-0.65625 -0.3125,-1.09375 z M 1.890625,-0.109375 C 1.390625,-0.109375 1,-0.46875 1,-1.1875 c 0,-0.296875 0.109375,-1.109375 0.46875,-1.703125 0.421875,-0.6875 1.015625,-0.828125 1.359375,-0.828125 0.828125,0 0.90625,0.65625 0.90625,0.96875 0,0.46875 -0.203125,1.28125 -0.53125,1.796875 -0.390625,0.578125 -0.9375,0.84375 -1.3125,0.84375 z m 0,0"
               style="stroke:none"
               inkscape:connector-curvature="0" />
          </symbol>
          <symbol
             id="textext-e54b853a-11"
             overflow="visible"
             style="overflow:visible">
            <path
               id="path3232"
               d="m 6.5625,-2.296875 c 0.171875,0 0.359375,0 0.359375,-0.203125 0,-0.1875 -0.1875,-0.1875 -0.359375,-0.1875 l -5.390625,0 c -0.171875,0 -0.34375,0 -0.34375,0.1875 0,0.203125 0.171875,0.203125 0.34375,0.203125 z m 0,0"
               style="stroke:none"
               inkscape:connector-curvature="0" />
          </symbol>
        </g>
      </defs>
      <g
         id="textext-e54b853a-12">
        <g
           id="g3235"
           style="fill:#000000;fill-opacity:1">
          <use
             id="use3237"
             y="134.765"
             x="223.43201"
             xlink:href="#textext-e54b853a-0"
             width="744.09448"
             height="1052.3622" />
        </g>
        <g
           id="g3239"
           style="fill:#000000;fill-opacity:1">
          <use
             id="use3241"
             y="134.765"
             x="227.306"
             xlink:href="#textext-e54b853a-10"
             width="744.09448"
             height="1052.3622" />
        </g>
        <g
           id="g3243"
           style="fill:#000000;fill-opacity:1">
          <use
             id="use3245"
             y="134.765"
             x="235.571"
             xlink:href="#textext-e54b853a-11"
             width="744.09448"
             height="1052.3622" />
        </g>
        <g
           id="g3247"
           style="fill:#000000;fill-opacity:1">
          <use
             id="use3249"
             y="134.765"
             x="245.533"
             xlink:href="#textext-e54b853a-1"
             width="744.09448"
             height="1052.3622" />
          <use
             id="use3251"
             y="134.765"
             x="250.5143"
             xlink:href="#textext-e54b853a-2"
             width="744.09448"
             height="1052.3622" />
          <use
             id="use3253"
             y="134.765"
             x="253.28191"
             xlink:href="#textext-e54b853a-3"
             width="744.09448"
             height="1052.3622" />
          <use
             id="use3255"
             y="134.765"
             x="258.26321"
             xlink:href="#textext-e54b853a-4"
             width="744.09448"
             height="1052.3622" />
        </g>
        <g
           id="g3257"
           style="fill:#000000;fill-opacity:1">
          <use
             id="use3259"
             y="134.765"
             x="264.34836"
             xlink:href="#textext-e54b853a-5"
             width="744.09448"
             height="1052.3622" />
          <use
             id="use3261"
             y="134.765"
             x="267.11597"
             xlink:href="#textext-e54b853a-6"
             width="744.09448"
             height="1052.3622" />
          <use
             id="use3263"
             y="134.765"
             x="272.65118"
             xlink:href="#textext-e54b853a-7"
             width="744.09448"
             height="1052.3622" />
          <use
             id="use3265"
             y="134.765"
             x="277.07858"
             xlink:href="#textext-e54b853a-2"
             width="744.09448"
             height="1052.3622" />
          <use
             id="use3267"
             y="134.765"
             x="279.84619"
             xlink:href="#textext-e54b853a-8"
             width="744.09448"
             height="1052.3622" />
          <use
             id="use3269"
             y="134.765"
             x="282.6138"
             xlink:href="#textext-e54b853a-9"
             width="744.09448"
             height="1052.3622" />
        </g>
      </g>
    </g>
    <g
       id="g3657"
       ns0:preamble=""
       ns0:text="$(\\hbox{Prob., marg.})$"
       transform="matrix(3.4663333,0,0,3.4663333,-344.15951,-335.74567)">
      <defs
         id="defs3659">
        <g
           id="g3661">
          <symbol
             id="textext-8f42791c-0"
             overflow="visible"
             style="overflow:visible">
            <path
               id="path3664"
               d="m 3.296875,2.390625 c 0,-0.03125 0,-0.046875 -0.171875,-0.21875 C 1.890625,0.921875 1.5625,-0.96875 1.5625,-2.5 c 0,-1.734375 0.375,-3.46875 1.609375,-4.703125 0.125,-0.125 0.125,-0.140625 0.125,-0.171875 0,-0.078125 -0.03125,-0.109375 -0.09375,-0.109375 -0.109375,0 -1,0.6875 -1.59375,1.953125 -0.5,1.09375 -0.625,2.203125 -0.625,3.03125 0,0.78125 0.109375,1.984375 0.65625,3.125 C 2.25,1.84375 3.09375,2.5 3.203125,2.5 c 0.0625,0 0.09375,-0.03125 0.09375,-0.109375 z m 0,0"
               style="stroke:none"
               inkscape:connector-curvature="0" />
          </symbol>
          <symbol
             id="textext-8f42791c-1"
             overflow="visible"
             style="overflow:visible">
            <path
               id="path3667"
               d="m 2.265625,-3.15625 1.6875,0 c 1.1875,0 2.265625,-0.796875 2.265625,-1.796875 C 6.21875,-5.9375 5.234375,-6.8125 3.875,-6.8125 l -3.53125,0 0,0.3125 0.25,0 c 0.765625,0 0.78125,0.109375 0.78125,0.46875 l 0,5.25 c 0,0.359375 -0.015625,0.46875 -0.78125,0.46875 l -0.25,0 0,0.3125 c 0.359375,-0.03125 1.09375,-0.03125 1.46875,-0.03125 0.375,0 1.125,0 1.484375,0.03125 l 0,-0.3125 -0.25,0 c -0.765625,0 -0.78125,-0.109375 -0.78125,-0.46875 z m -0.03125,-0.25 0,-2.6875 C 2.234375,-6.4375 2.25,-6.5 2.71875,-6.5 l 0.890625,0 c 1.578125,0 1.578125,1.0625 1.578125,1.546875 0,0.46875 0,1.546875 -1.578125,1.546875 z m 0,0"
               style="stroke:none"
               inkscape:connector-curvature="0" />
          </symbol>
          <symbol
             id="textext-8f42791c-2"
             overflow="visible"
             style="overflow:visible">
            <path
               id="path3670"
               d="m 1.671875,-3.3125 0,-1.09375 -1.390625,0.109375 0,0.3125 c 0.703125,0 0.78125,0.0625 0.78125,0.5625 l 0,2.671875 c 0,0.4375 -0.109375,0.4375 -0.78125,0.4375 l 0,0.3125 c 0.390625,-0.015625 0.859375,-0.03125 1.140625,-0.03125 0.390625,0 0.859375,0 1.265625,0.03125 l 0,-0.3125 -0.21875,0 c -0.734375,0 -0.75,-0.109375 -0.75,-0.46875 l 0,-1.53125 c 0,-0.984375 0.421875,-1.875 1.171875,-1.875 0.0625,0 0.09375,0 0.109375,0.015625 -0.03125,0 -0.234375,0.125 -0.234375,0.390625 0,0.265625 0.21875,0.421875 0.4375,0.421875 0.171875,0 0.421875,-0.125 0.421875,-0.4375 0,-0.3125 -0.3125,-0.609375 -0.734375,-0.609375 -0.734375,0 -1.09375,0.671875 -1.21875,1.09375 z m 0,0"
               style="stroke:none"
               inkscape:connector-curvature="0" />
          </symbol>
          <symbol
             id="textext-8f42791c-3"
             overflow="visible"
             style="overflow:visible">
            <path
               id="path3673"
               d="M 4.6875,-2.140625 C 4.6875,-3.40625 3.703125,-4.46875 2.5,-4.46875 c -1.25,0 -2.21875,1.09375 -2.21875,2.328125 0,1.296875 1.03125,2.25 2.203125,2.25 1.203125,0 2.203125,-0.984375 2.203125,-2.25 z m -2.1875,2 c -0.4375,0 -0.875,-0.203125 -1.140625,-0.671875 -0.25,-0.4375 -0.25,-1.046875 -0.25,-1.40625 0,-0.390625 0,-0.921875 0.234375,-1.359375 C 1.609375,-4.03125 2.078125,-4.25 2.484375,-4.25 c 0.4375,0 0.859375,0.21875 1.125,0.65625 0.265625,0.421875 0.265625,1 0.265625,1.375 0,0.359375 0,0.90625 -0.21875,1.34375 C 3.421875,-0.421875 2.984375,-0.140625 2.5,-0.140625 z m 0,0"
               style="stroke:none"
               inkscape:connector-curvature="0" />
          </symbol>
          <symbol
             id="textext-8f42791c-4"
             overflow="visible"
             style="overflow:visible">
            <path
               id="path3676"
               d="m 1.71875,-3.765625 0,-3.15625 -1.4375,0.109375 0,0.3125 c 0.703125,0 0.78125,0.0625 0.78125,0.5625 l 0,5.9375 0.25,0 c 0,-0.015625 0.078125,-0.15625 0.359375,-0.625 0.140625,0.234375 0.5625,0.734375 1.296875,0.734375 1.1875,0 2.21875,-0.984375 2.21875,-2.265625 0,-1.265625 -0.96875,-2.25 -2.109375,-2.25 -0.78125,0 -1.203125,0.46875 -1.359375,0.640625 z m 0.03125,2.625 0,-2.046875 c 0,-0.1875 0,-0.203125 0.109375,-0.359375 C 2.25,-4.109375 2.796875,-4.1875 3.03125,-4.1875 c 0.453125,0 0.8125,0.265625 1.046875,0.640625 0.265625,0.40625 0.28125,0.96875 0.28125,1.390625 0,0.359375 -0.015625,0.953125 -0.296875,1.40625 -0.21875,0.3125 -0.59375,0.640625 -1.125,0.640625 -0.453125,0 -0.8125,-0.234375 -1.046875,-0.609375 C 1.75,-0.921875 1.75,-0.953125 1.75,-1.140625 z m 0,0"
               style="stroke:none"
               inkscape:connector-curvature="0" />
          </symbol>
          <symbol
             id="textext-8f42791c-5"
             overflow="visible"
             style="overflow:visible">
            <path
               id="path3679"
               d="m 1.90625,-0.53125 c 0,-0.28125 -0.234375,-0.53125 -0.515625,-0.53125 -0.296875,0 -0.53125,0.25 -0.53125,0.53125 C 0.859375,-0.234375 1.09375,0 1.390625,0 1.671875,0 1.90625,-0.234375 1.90625,-0.53125 z m 0,0"
               style="stroke:none"
               inkscape:connector-curvature="0" />
          </symbol>
          <symbol
             id="textext-8f42791c-6"
             overflow="visible"
             style="overflow:visible">
            <path
               id="path3682"
               d="m 2.03125,-0.015625 c 0,-0.625 -0.25,-1.046875 -0.640625,-1.046875 -0.359375,0 -0.53125,0.28125 -0.53125,0.53125 0,0.265625 0.171875,0.53125 0.53125,0.53125 0.15625,0 0.28125,-0.0625 0.375,-0.140625 L 1.78125,-0.15625 c 0.015625,0 0.015625,0 0.015625,0.140625 0,0.640625 -0.265625,1.25 -0.703125,1.71875 -0.0625,0.0625 -0.078125,0.078125 -0.078125,0.109375 0,0.078125 0.046875,0.109375 0.09375,0.109375 0.125,0 0.921875,-0.78125 0.921875,-1.9375 z m 0,0"
               style="stroke:none"
               inkscape:connector-curvature="0" />
          </symbol>
          <symbol
             id="textext-8f42791c-7"
             overflow="visible"
             style="overflow:visible">
            <path
               id="path3685"
               d="m 1.09375,-3.421875 0,2.671875 c 0,0.4375 -0.109375,0.4375 -0.78125,0.4375 l 0,0.3125 c 0.359375,-0.015625 0.859375,-0.03125 1.140625,-0.03125 0.25,0 0.765625,0.015625 1.109375,0.03125 l 0,-0.3125 c -0.671875,0 -0.78125,0 -0.78125,-0.4375 l 0,-1.84375 C 1.78125,-3.625 2.5,-4.1875 3.125,-4.1875 c 0.640625,0 0.75,0.53125 0.75,1.109375 l 0,2.328125 c 0,0.4375 -0.109375,0.4375 -0.78125,0.4375 l 0,0.3125 c 0.34375,-0.015625 0.859375,-0.03125 1.125,-0.03125 0.25,0 0.78125,0.015625 1.109375,0.03125 l 0,-0.3125 c -0.65625,0 -0.765625,0 -0.765625,-0.4375 l 0,-1.84375 c 0,-1.03125 0.703125,-1.59375 1.34375,-1.59375 0.625,0 0.734375,0.53125 0.734375,1.109375 l 0,2.328125 c 0,0.4375 -0.109375,0.4375 -0.78125,0.4375 l 0,0.3125 c 0.34375,-0.015625 0.859375,-0.03125 1.125,-0.03125 0.265625,0 0.78125,0.015625 1.125,0.03125 l 0,-0.3125 c -0.515625,0 -0.765625,0 -0.78125,-0.296875 l 0,-1.90625 c 0,-0.859375 0,-1.15625 -0.3125,-1.515625 -0.140625,-0.171875 -0.46875,-0.375 -1.046875,-0.375 -0.828125,0 -1.28125,0.59375 -1.4375,0.984375 C 4.390625,-4.296875 3.65625,-4.40625 3.203125,-4.40625 2.46875,-4.40625 2,-3.984375 1.71875,-3.359375 l 0,-1.046875 -1.40625,0.109375 0,0.3125 c 0.703125,0 0.78125,0.0625 0.78125,0.5625 z m 0,0"
               style="stroke:none"
               inkscape:connector-curvature="0" />
          </symbol>
          <symbol
             id="textext-8f42791c-8"
             overflow="visible"
             style="overflow:visible">
            <path
               id="path3688"
               d="m 3.3125,-0.75 c 0.046875,0.390625 0.3125,0.8125 0.78125,0.8125 0.21875,0 0.828125,-0.140625 0.828125,-0.953125 l 0,-0.5625 -0.25,0 0,0.5625 c 0,0.578125 -0.25,0.640625 -0.359375,0.640625 -0.328125,0 -0.375,-0.453125 -0.375,-0.5 l 0,-1.984375 c 0,-0.421875 0,-0.8125 -0.359375,-1.1875 C 3.1875,-4.3125 2.6875,-4.46875 2.21875,-4.46875 c -0.828125,0 -1.515625,0.46875 -1.515625,1.125 0,0.296875 0.203125,0.46875 0.46875,0.46875 0.28125,0 0.453125,-0.203125 0.453125,-0.453125 0,-0.125 -0.046875,-0.453125 -0.515625,-0.453125 C 1.390625,-4.140625 1.875,-4.25 2.1875,-4.25 c 0.5,0 1.0625,0.390625 1.0625,1.28125 l 0,0.359375 c -0.515625,0.03125 -1.203125,0.0625 -1.828125,0.359375 -0.75,0.34375 -1,0.859375 -1,1.296875 0,0.8125 0.96875,1.0625 1.59375,1.0625 0.65625,0 1.109375,-0.40625 1.296875,-0.859375 z M 3.25,-2.390625 l 0,1 c 0,0.9375 -0.71875,1.28125 -1.171875,1.28125 -0.484375,0 -0.890625,-0.34375 -0.890625,-0.84375 0,-0.546875 0.421875,-1.375 2.0625,-1.4375 z m 0,0"
               style="stroke:none"
               inkscape:connector-curvature="0" />
          </symbol>
          <symbol
             id="textext-8f42791c-9"
             overflow="visible"
             style="overflow:visible">
            <path
               id="path3691"
               d="m 2.21875,-1.71875 c -0.875,0 -0.875,-1 -0.875,-1.21875 0,-0.265625 0.015625,-0.59375 0.15625,-0.84375 0.078125,-0.109375 0.3125,-0.390625 0.71875,-0.390625 0.859375,0 0.859375,0.984375 0.859375,1.21875 0,0.265625 0,0.59375 -0.15625,0.84375 C 2.84375,-2 2.609375,-1.71875 2.21875,-1.71875 z M 1.0625,-1.328125 c 0,-0.03125 0,-0.265625 0.15625,-0.46875 0.390625,0.28125 0.8125,0.3125 1,0.3125 0.921875,0 1.609375,-0.6875 1.609375,-1.453125 0,-0.375 -0.15625,-0.734375 -0.40625,-0.96875 C 3.78125,-4.25 4.140625,-4.296875 4.3125,-4.296875 c 0.03125,0 0.078125,0 0.109375,0.015625 C 4.3125,-4.25 4.25,-4.140625 4.25,-4.015625 c 0,0.171875 0.140625,0.28125 0.296875,0.28125 0.09375,0 0.28125,-0.0625 0.28125,-0.296875 0,-0.171875 -0.109375,-0.484375 -0.5,-0.484375 -0.203125,0 -0.640625,0.0625 -1.0625,0.46875 C 2.84375,-4.375 2.4375,-4.40625 2.21875,-4.40625 c -0.9375,0 -1.625,0.6875 -1.625,1.453125 0,0.4375 0.21875,0.8125 0.46875,1.03125 -0.125,0.140625 -0.3125,0.46875 -0.3125,0.828125 0,0.3125 0.140625,0.6875 0.453125,0.890625 -0.609375,0.15625 -0.921875,0.59375 -0.921875,0.984375 0,0.71875 0.984375,1.265625 2.203125,1.265625 1.171875,0 2.203125,-0.5 2.203125,-1.28125 0,-0.34375 -0.125,-0.859375 -0.640625,-1.140625 -0.53125,-0.265625 -1.109375,-0.265625 -1.71875,-0.265625 -0.25,0 -0.671875,0 -0.75,-0.015625 C 1.265625,-0.703125 1.0625,-1 1.0625,-1.328125 z M 2.5,1.828125 c -1.015625,0 -1.703125,-0.515625 -1.703125,-1.046875 0,-0.453125 0.375,-0.828125 0.8125,-0.84375 l 0.59375,0 c 0.859375,0 1.96875,0 1.96875,0.84375 0,0.546875 -0.703125,1.046875 -1.671875,1.046875 z m 0,0"
               style="stroke:none"
               inkscape:connector-curvature="0" />
          </symbol>
          <symbol
             id="textext-8f42791c-10"
             overflow="visible"
             style="overflow:visible">
            <path
               id="path3694"
               d="m 2.875,-2.5 c 0,-0.765625 -0.109375,-1.96875 -0.65625,-3.109375 -0.59375,-1.21875 -1.453125,-1.875 -1.546875,-1.875 -0.0625,0 -0.109375,0.046875 -0.109375,0.109375 0,0.03125 0,0.046875 0.1875,0.234375 0.984375,0.984375 1.546875,2.5625 1.546875,4.640625 0,1.71875 -0.359375,3.46875 -1.59375,4.71875 C 0.5625,2.34375 0.5625,2.359375 0.5625,2.390625 0.5625,2.453125 0.609375,2.5 0.671875,2.5 0.765625,2.5 1.671875,1.8125 2.25,0.546875 2.765625,-0.546875 2.875,-1.65625 2.875,-2.5 z m 0,0"
               style="stroke:none"
               inkscape:connector-curvature="0" />
          </symbol>
        </g>
      </defs>
      <g
         id="textext-8f42791c-11">
        <g
           id="g3697"
           style="fill:#000000;fill-opacity:1">
          <use
             id="use3699"
             y="134.765"
             x="223.43201"
             xlink:href="#textext-8f42791c-0"
             width="744.09448"
             height="1052.3622" />
          <use
             id="use3701"
             y="134.765"
             x="227.30646"
             xlink:href="#textext-8f42791c-1"
             width="744.09448"
             height="1052.3622" />
          <use
             id="use3703"
             y="134.765"
             x="234.08701"
             xlink:href="#textext-8f42791c-2"
             width="744.09448"
             height="1052.3622" />
          <use
             id="use3705"
             y="134.765"
             x="237.98935"
             xlink:href="#textext-8f42791c-3"
             width="744.09448"
             height="1052.3622" />
          <use
             id="use3707"
             y="134.765"
             x="242.97066"
             xlink:href="#textext-8f42791c-4"
             width="744.09448"
             height="1052.3622" />
          <use
             id="use3709"
             y="134.765"
             x="248.50587"
             xlink:href="#textext-8f42791c-5"
             width="744.09448"
             height="1052.3622" />
          <use
             id="use3711"
             y="134.765"
             x="251.27348"
             xlink:href="#textext-8f42791c-6"
             width="744.09448"
             height="1052.3622" />
        </g>
        <g
           id="g3713"
           style="fill:#000000;fill-opacity:1">
          <use
             id="use3715"
             y="134.765"
             x="257.35864"
             xlink:href="#textext-8f42791c-7"
             width="744.09448"
             height="1052.3622" />
          <use
             id="use3717"
             y="134.765"
             x="265.66046"
             xlink:href="#textext-8f42791c-8"
             width="744.09448"
             height="1052.3622" />
          <use
             id="use3719"
             y="134.765"
             x="270.64178"
             xlink:href="#textext-8f42791c-2"
             width="744.09448"
             height="1052.3622" />
          <use
             id="use3721"
             y="134.765"
             x="274.54413"
             xlink:href="#textext-8f42791c-9"
             width="744.09448"
             height="1052.3622" />
          <use
             id="use3723"
             y="134.765"
             x="279.52542"
             xlink:href="#textext-8f42791c-5"
             width="744.09448"
             height="1052.3622" />
          <use
             id="use3725"
             y="134.765"
             x="282.29303"
             xlink:href="#textext-8f42791c-10"
             width="744.09448"
             height="1052.3622" />
        </g>
      </g>
    </g>
    <path
       style="fill:none;stroke:#000000;stroke-width:1px;stroke-linecap:butt;stroke-linejoin:miter;stroke-opacity:1"
       d="m 431.7015,480.14047 0,-89.90028"
       id="path3868"
       inkscape:connector-curvature="0" />
    <path
       style="fill:none;stroke:#000000;stroke-width:1px;stroke-linecap:butt;stroke-linejoin:miter;stroke-opacity:1"
       d="M 400.47972,275.66139 234.78115,194.57486"
       id="path3870"
       inkscape:connector-curvature="0" />
    <path
       style="fill:none;stroke:#000000;stroke-width:1px;stroke-linecap:butt;stroke-linejoin:miter;stroke-opacity:1"
       d="M 442.78574,275.66139 580.28029,173.42185"
       id="path3872"
       inkscape:connector-curvature="0" />
    <path
       inkscape:connector-curvature="0"
       id="path3874"
       d="M 234.78574,153.66139 372.28029,51.421847"
       style="fill:none;stroke:#000000;stroke-width:1px;stroke-linecap:butt;stroke-linejoin:miter;stroke-opacity:1" />
    <g
       ns0:text="$(\\mathcal{U},\\subset)$"
       ns0:preamble=""
       transform="matrix(4.4736636,0,0,4.4736636,-553.81293,-64.901423)"
       id="g3241">
      <defs
         id="defs3243">
        <g
           id="g3245">
          <symbol
             overflow="visible"
             id="textext-d1b67aeb-0">
            <path
               style="stroke:none;"
               d="M 3.296875 2.390625 C 3.296875 2.359375 3.296875 2.34375 3.125 2.171875 C 1.890625 0.921875 1.5625 -0.96875 1.5625 -2.5 C 1.5625 -4.234375 1.9375 -5.96875 3.171875 -7.203125 C 3.296875 -7.328125 3.296875 -7.34375 3.296875 -7.375 C 3.296875 -7.453125 3.265625 -7.484375 3.203125 -7.484375 C 3.09375 -7.484375 2.203125 -6.796875 1.609375 -5.53125 C 1.109375 -4.4375 0.984375 -3.328125 0.984375 -2.5 C 0.984375 -1.71875 1.09375 -0.515625 1.640625 0.625 C 2.25 1.84375 3.09375 2.5 3.203125 2.5 C 3.265625 2.5 3.296875 2.46875 3.296875 2.390625 Z M 3.296875 2.390625 "
               id="path3248" />
          </symbol>
          <symbol
             overflow="visible"
             id="textext-d1b67aeb-1">
            <path
               style="stroke:none;"
               d="M 2.875 -2.5 C 2.875 -3.265625 2.765625 -4.46875 2.21875 -5.609375 C 1.625 -6.828125 0.765625 -7.484375 0.671875 -7.484375 C 0.609375 -7.484375 0.5625 -7.4375 0.5625 -7.375 C 0.5625 -7.34375 0.5625 -7.328125 0.75 -7.140625 C 1.734375 -6.15625 2.296875 -4.578125 2.296875 -2.5 C 2.296875 -0.78125 1.9375 0.96875 0.703125 2.21875 C 0.5625 2.34375 0.5625 2.359375 0.5625 2.390625 C 0.5625 2.453125 0.609375 2.5 0.671875 2.5 C 0.765625 2.5 1.671875 1.8125 2.25 0.546875 C 2.765625 -0.546875 2.875 -1.65625 2.875 -2.5 Z M 2.875 -2.5 "
               id="path3251" />
          </symbol>
          <symbol
             overflow="visible"
             id="textext-d1b67aeb-2">
            <path
               style="stroke:none;"
               d="M 4.921875 -2.953125 C 4.6875 -2.109375 4.34375 -0.875 4.34375 -0.109375 C 4.34375 0.15625 4.5 0.28125 4.75 0.28125 C 5.140625 0.28125 5.890625 -0.15625 5.890625 -0.34375 C 5.890625 -0.40625 5.84375 -0.421875 5.796875 -0.421875 C 5.671875 -0.421875 5.5 -0.328125 5.390625 -0.265625 C 5.25 -0.296875 5.1875 -0.390625 5.1875 -0.53125 C 5.1875 -1.75 6.3125 -5.234375 6.609375 -5.96875 C 6.734375 -6.25 6.859375 -6.65625 6.859375 -6.734375 C 6.859375 -6.8125 6.796875 -6.8125 6.765625 -6.8125 C 6.546875 -6.8125 6.09375 -6.546875 6.015625 -6.34375 C 5.890625 -6 5.875 -5.953125 5.75 -5.578125 C 5.421875 -4.640625 4.4375 -2.984375 3.453125 -1.828125 C 3.140625 -1.484375 2.15625 -0.328125 1.453125 -0.328125 C 0.984375 -0.328125 0.671875 -0.734375 0.671875 -1.390625 C 0.671875 -2.09375 1.0625 -2.984375 1.671875 -4.359375 C 2.03125 -5.171875 2.328125 -5.875 2.328125 -6.328125 C 2.328125 -6.796875 2 -6.8125 1.828125 -6.8125 C 1.0625 -6.8125 0.09375 -6.1875 0.09375 -5.984375 C 0.09375 -5.921875 0.171875 -5.921875 0.203125 -5.921875 C 0.328125 -5.921875 0.515625 -6 0.671875 -6.109375 C 0.734375 -6.15625 0.890625 -6.265625 1.171875 -6.265625 C 1.390625 -6.265625 1.46875 -6.125 1.46875 -5.90625 C 1.46875 -5.46875 1.109375 -4.640625 0.703125 -3.6875 C 0.046875 -2.1875 -0.171875 -1.5625 -0.171875 -0.984375 C -0.171875 -0.3125 0.09375 0.21875 0.796875 0.21875 C 1.421875 0.21875 2.328125 -0.1875 3.34375 -1.140625 C 4.03125 -1.78125 4.46875 -2.375 4.90625 -2.953125 Z M 4.921875 -2.953125 "
               id="path3254" />
          </symbol>
          <symbol
             overflow="visible"
             id="textext-d1b67aeb-3">
            <path
               style="stroke:none;"
               d="M 6.5625 -4.984375 C 6.734375 -4.984375 6.921875 -4.984375 6.921875 -5.1875 C 6.921875 -5.390625 6.734375 -5.390625 6.5625 -5.390625 L 3.890625 -5.390625 C 2.1875 -5.390625 0.828125 -4.09375 0.828125 -2.5 C 0.828125 -0.890625 2.1875 0.40625 3.890625 0.40625 L 6.5625 0.40625 C 6.734375 0.40625 6.921875 0.40625 6.921875 0.203125 C 6.921875 0 6.734375 0 6.5625 0 L 3.90625 0 C 2.359375 0 1.21875 -1.15625 1.21875 -2.5 C 1.21875 -3.828125 2.359375 -4.984375 3.90625 -4.984375 Z M 6.5625 -4.984375 "
               id="path3257" />
          </symbol>
          <symbol
             overflow="visible"
             id="textext-d1b67aeb-4">
            <path
               style="stroke:none;"
               d="M 2.03125 -0.015625 C 2.03125 -0.671875 1.78125 -1.0625 1.390625 -1.0625 C 1.0625 -1.0625 0.859375 -0.8125 0.859375 -0.53125 C 0.859375 -0.265625 1.0625 0 1.390625 0 C 1.5 0 1.640625 -0.046875 1.734375 -0.125 C 1.765625 -0.15625 1.78125 -0.15625 1.78125 -0.15625 C 1.796875 -0.15625 1.796875 -0.15625 1.796875 -0.015625 C 1.796875 0.734375 1.453125 1.328125 1.125 1.65625 C 1.015625 1.765625 1.015625 1.78125 1.015625 1.8125 C 1.015625 1.890625 1.0625 1.921875 1.109375 1.921875 C 1.21875 1.921875 2.03125 1.15625 2.03125 -0.015625 Z M 2.03125 -0.015625 "
               id="path3260" />
          </symbol>
        </g>
      </defs>
      <g
         id="textext-d1b67aeb-5">
        <g
           style="fill:rgb(0%,0%,0%);fill-opacity:1;"
           id="g3263">
          <use
             xlink:href="#textext-d1b67aeb-0"
             x="223.432"
             y="134.765"
             id="use3266" />
        </g>
        <g
           style="fill:rgb(0%,0%,0%);fill-opacity:1;"
           id="g3268">
          <use
             xlink:href="#textext-d1b67aeb-2"
             x="227.306"
             y="134.765"
             id="use3270" />
        </g>
        <g
           style="fill:rgb(0%,0%,0%);fill-opacity:1;"
           id="g3272">
          <use
             xlink:href="#textext-d1b67aeb-4"
             x="234.531"
             y="134.765"
             id="use3274" />
        </g>
        <g
           style="fill:rgb(0%,0%,0%);fill-opacity:1;"
           id="g3276">
          <use
             xlink:href="#textext-d1b67aeb-3"
             x="238.959"
             y="134.765"
             id="use3278" />
        </g>
        <g
           style="fill:rgb(0%,0%,0%);fill-opacity:1;"
           id="g3280">
          <use
             xlink:href="#textext-d1b67aeb-1"
             x="246.707"
             y="134.765"
             id="use3282" />
        </g>
      </g>
    </g>
    <g
       id="g3926"
       transform="matrix(4.4736636,0,0,4.4736636,-553.81293,-154.90142)"
       ns0:preamble=""
       ns0:text="$\\mathcal{E}$">
      <defs
         id="defs3928">
        <g
           id="g3930">
          <symbol
             id="textext-08553f51-0"
             overflow="visible"
             style="overflow:visible">
            <path
               id="path3933"
               d="m 2.375,-3.625 c -1.984375,1.078125 -2.09375,2.375 -2.09375,2.609375 0,0.75 0.734375,1.234375 1.6875,1.234375 1.65625,0 3,-1.578125 3,-1.78125 0,-0.0625 -0.046875,-0.078125 -0.109375,-0.078125 -0.109375,0 -0.5,0.140625 -0.71875,0.4375 -0.21875,0.296875 -0.625,0.875 -1.515625,0.875 -0.71875,0 -1.5,-0.375 -1.5,-1.125 0,-0.484375 0.5625,-1.953125 2.140625,-2.015625 0.46875,-0.015625 0.8125,-0.375 0.8125,-0.484375 0,-0.046875 -0.046875,-0.0625 -0.09375,-0.0625 -1.40625,-0.0625 -1.6875,-0.75 -1.6875,-1.140625 0,-0.234375 0.140625,-1.328125 1.546875,-1.328125 0.1875,0 0.9375,0.03125 0.9375,0.546875 0,0.171875 -0.078125,0.3125 -0.109375,0.359375 -0.03125,0.03125 -0.0625,0.078125 -0.0625,0.109375 0,0.078125 0.078125,0.078125 0.109375,0.078125 0.296875,0 0.90625,-0.390625 0.90625,-0.953125 0,-0.59375 -0.6875,-0.6875 -1.125,-0.6875 -1.359375,0 -3.046875,1.078125 -3.046875,2.296875 0,0.59375 0.4375,0.953125 0.921875,1.109375 z m 0,0"
               style="stroke:none"
               inkscape:connector-curvature="0" />
          </symbol>
        </g>
      </defs>
      <g
         id="textext-08553f51-1">
        <g
           id="g3936"
           style="fill:#000000;fill-opacity:1">
          <use
             id="use3938"
             y="134.765"
             x="223.43201"
             xlink:href="#textext-08553f51-0"
             width="635.20203"
             height="566.55139" />
        </g>
      </g>
    </g>
    <g
       ns0:text="$\\mathcal{D}$"
       ns0:preamble=""
       transform="matrix(4.4736636,0,0,4.4736636,-475.50419,-352.53777)"
       id="g4258">
      <defs
         id="defs4260">
        <g
           id="g4262">
          <symbol
             overflow="visible"
             id="textext-8d44dbe2-0">
            <path
               style="stroke:none;"
               d="M 2.03125 0 C 4.359375 0 7.640625 -1.78125 7.640625 -4.5 C 7.640625 -5.390625 7.21875 -5.9375 6.734375 -6.25 C 5.875 -6.8125 4.953125 -6.8125 4 -6.8125 C 3.15625 -6.8125 2.5625 -6.8125 1.71875 -6.453125 C 0.40625 -5.859375 0.203125 -5.03125 0.203125 -4.953125 C 0.203125 -4.890625 0.25 -4.875 0.3125 -4.875 C 0.46875 -4.875 0.703125 -5.015625 0.78125 -5.0625 C 0.984375 -5.203125 1.015625 -5.265625 1.078125 -5.453125 C 1.21875 -5.859375 1.5 -6.203125 2.75 -6.265625 C 2.59375 -4.171875 2.078125 -2.265625 1.390625 -0.53125 C 1.015625 -0.40625 0.78125 -0.171875 0.78125 -0.0625 C 0.78125 -0.015625 0.78125 0 1 0 Z M 2.078125 -0.546875 C 3.21875 -3.328125 3.421875 -5.0625 3.5625 -6.265625 C 4.234375 -6.265625 6.78125 -6.265625 6.78125 -4.0625 C 6.78125 -2.109375 5.03125 -0.546875 2.625 -0.546875 Z M 2.078125 -0.546875 "
               id="path4265" />
          </symbol>
        </g>
      </defs>
      <g
         id="textext-8d44dbe2-1">
        <g
           style="fill:rgb(0%,0%,0%);fill-opacity:1;"
           id="g4268">
          <use
             xlink:href="#textext-8d44dbe2-0"
             x="223.432"
             y="134.765"
             id="use4270" />
        </g>
      </g>
    </g>
    <g
       id="g4582"
       transform="matrix(4.4681002,0,0,4.4681002,-934.13066,-378.67558)"
       ns0:preamble=""
       ns0:text="$(\\phi,incl.)$">
      <defs
         id="defs4584">
        <g
           id="g4586">
          <symbol
             id="textext-74c0e3d1-0"
             overflow="visible"
             style="overflow:visible">
            <path
               id="path4589"
               d="m 3.296875,2.390625 c 0,-0.03125 0,-0.046875 -0.171875,-0.21875 C 1.890625,0.921875 1.5625,-0.96875 1.5625,-2.5 c 0,-1.734375 0.375,-3.46875 1.609375,-4.703125 0.125,-0.125 0.125,-0.140625 0.125,-0.171875 0,-0.078125 -0.03125,-0.109375 -0.09375,-0.109375 -0.109375,0 -1,0.6875 -1.59375,1.953125 -0.5,1.09375 -0.625,2.203125 -0.625,3.03125 0,0.78125 0.109375,1.984375 0.65625,3.125 C 2.25,1.84375 3.09375,2.5 3.203125,2.5 c 0.0625,0 0.09375,-0.03125 0.09375,-0.109375 z m 0,0"
               style="stroke:none"
               inkscape:connector-curvature="0" />
          </symbol>
          <symbol
             id="textext-74c0e3d1-1"
             overflow="visible"
             style="overflow:visible">
            <path
               id="path4592"
               d="m 2.875,-2.5 c 0,-0.765625 -0.109375,-1.96875 -0.65625,-3.109375 -0.59375,-1.21875 -1.453125,-1.875 -1.546875,-1.875 -0.0625,0 -0.109375,0.046875 -0.109375,0.109375 0,0.03125 0,0.046875 0.1875,0.234375 0.984375,0.984375 1.546875,2.5625 1.546875,4.640625 0,1.71875 -0.359375,3.46875 -1.59375,4.71875 C 0.5625,2.34375 0.5625,2.359375 0.5625,2.390625 0.5625,2.453125 0.609375,2.5 0.671875,2.5 0.765625,2.5 1.671875,1.8125 2.25,0.546875 2.765625,-0.546875 2.875,-1.65625 2.875,-2.5 z m 0,0"
               style="stroke:none"
               inkscape:connector-curvature="0" />
          </symbol>
          <symbol
             id="textext-74c0e3d1-2"
             overflow="visible"
             style="overflow:visible">
            <path
               id="path4595"
               d="m 4.359375,-6.671875 c 0,-0.03125 0.03125,-0.140625 0.03125,-0.140625 0,-0.015625 0,-0.109375 -0.125,-0.109375 -0.09375,0 -0.109375,0.03125 -0.15625,0.203125 L 3.53125,-4.421875 c -1.578125,0.0625 -3.046875,1.375 -3.046875,2.734375 0,0.953125 0.703125,1.734375 1.921875,1.8125 C 2.328125,0.421875 2.25,0.75 2.171875,1.0625 c -0.125,0.46875 -0.21875,0.84375 -0.21875,0.875 0,0.09375 0.078125,0.109375 0.125,0.109375 C 2.125,2.046875 2.140625,2.03125 2.171875,2 2.1875,1.984375 2.25,1.75 2.28125,1.609375 L 2.65625,0.125 c 1.609375,-0.0625 3.0625,-1.40625 3.0625,-2.734375 0,-0.796875 -0.53125,-1.703125 -1.921875,-1.8125 z m -1.90625,6.578125 c -0.59375,-0.03125 -1.3125,-0.390625 -1.3125,-1.375 0,-1.203125 0.859375,-2.59375 2.34375,-2.734375 z m 1.28125,-4.109375 c 0.765625,0.046875 1.328125,0.5 1.328125,1.375 0,1.1875 -0.859375,2.609375 -2.34375,2.734375 z m 0,0"
               style="stroke:none"
               inkscape:connector-curvature="0" />
          </symbol>
          <symbol
             id="textext-74c0e3d1-3"
             overflow="visible"
             style="overflow:visible">
            <path
               id="path4598"
               d="m 2.03125,-0.015625 c 0,-0.65625 -0.25,-1.046875 -0.640625,-1.046875 -0.328125,0 -0.53125,0.25 -0.53125,0.53125 C 0.859375,-0.265625 1.0625,0 1.390625,0 1.5,0 1.640625,-0.046875 1.734375,-0.125 1.765625,-0.15625 1.78125,-0.15625 1.78125,-0.15625 c 0.015625,0 0.015625,0 0.015625,0.140625 0,0.75 -0.34375,1.34375 -0.671875,1.671875 -0.109375,0.109375 -0.109375,0.125 -0.109375,0.15625 0,0.078125 0.046875,0.109375 0.09375,0.109375 0.109375,0 0.921875,-0.765625 0.921875,-1.9375 z m 0,0"
               style="stroke:none"
               inkscape:connector-curvature="0" />
          </symbol>
          <symbol
             id="textext-74c0e3d1-4"
             overflow="visible"
             style="overflow:visible">
            <path
               id="path4601"
               d="m 2.828125,-6.234375 c 0,-0.203125 -0.140625,-0.359375 -0.359375,-0.359375 -0.28125,0 -0.546875,0.265625 -0.546875,0.53125 0,0.1875 0.140625,0.359375 0.375,0.359375 0.234375,0 0.53125,-0.234375 0.53125,-0.53125 z m -0.75,3.75 c 0.109375,-0.28125 0.109375,-0.3125 0.21875,-0.578125 0.078125,-0.203125 0.125,-0.34375 0.125,-0.53125 0,-0.4375 -0.3125,-0.8125 -0.8125,-0.8125 -0.9375,0 -1.3125,1.453125 -1.3125,1.53125 0,0.109375 0.09375,0.109375 0.109375,0.109375 0.109375,0 0.109375,-0.03125 0.15625,-0.1875 0.28125,-0.9375 0.671875,-1.234375 1.015625,-1.234375 0.078125,0 0.25,0 0.25,0.3125 0,0.21875 -0.078125,0.421875 -0.109375,0.53125 -0.078125,0.25 -0.53125,1.40625 -0.6875,1.84375 -0.109375,0.25 -0.234375,0.578125 -0.234375,0.796875 0,0.46875 0.34375,0.8125 0.8125,0.8125 0.9375,0 1.3125,-1.4375 1.3125,-1.53125 0,-0.109375 -0.09375,-0.109375 -0.125,-0.109375 -0.09375,0 -0.09375,0.03125 -0.140625,0.1875 -0.1875,0.625 -0.515625,1.234375 -1.015625,1.234375 -0.171875,0 -0.25,-0.09375 -0.25,-0.328125 0,-0.25 0.0625,-0.390625 0.296875,-1 z m 0,0"
               style="stroke:none"
               inkscape:connector-curvature="0" />
          </symbol>
          <symbol
             id="textext-74c0e3d1-5"
             overflow="visible"
             style="overflow:visible">
            <path
               id="path4604"
               d="m 0.875,-0.59375 c -0.03125,0.15625 -0.09375,0.390625 -0.09375,0.4375 0,0.171875 0.140625,0.265625 0.296875,0.265625 0.125,0 0.296875,-0.078125 0.375,-0.28125 0,-0.015625 0.125,-0.484375 0.1875,-0.734375 l 0.21875,-0.890625 C 1.90625,-2.03125 1.96875,-2.25 2.03125,-2.46875 c 0.03125,-0.171875 0.109375,-0.46875 0.125,-0.5 0.140625,-0.3125 0.671875,-1.21875 1.625,-1.21875 0.453125,0 0.53125,0.375 0.53125,0.703125 0,0.609375 -0.484375,1.890625 -0.640625,2.3125 C 3.578125,-0.9375 3.5625,-0.8125 3.5625,-0.703125 c 0,0.46875 0.359375,0.8125 0.828125,0.8125 0.9375,0 1.296875,-1.453125 1.296875,-1.53125 0,-0.109375 -0.078125,-0.109375 -0.109375,-0.109375 -0.109375,0 -0.109375,0.03125 -0.15625,0.1875 -0.203125,0.671875 -0.53125,1.234375 -1.015625,1.234375 -0.171875,0 -0.234375,-0.09375 -0.234375,-0.328125 0,-0.25 0.078125,-0.484375 0.171875,-0.703125 0.1875,-0.53125 0.609375,-1.625 0.609375,-2.203125 0,-0.65625 -0.421875,-1.0625 -1.140625,-1.0625 -0.90625,0 -1.390625,0.640625 -1.5625,0.875 -0.046875,-0.5625 -0.453125,-0.875 -0.921875,-0.875 -0.453125,0 -0.640625,0.390625 -0.734375,0.5625 C 0.421875,-3.5 0.296875,-2.90625 0.296875,-2.875 c 0,0.109375 0.09375,0.109375 0.109375,0.109375 0.109375,0 0.109375,-0.015625 0.171875,-0.234375 0.171875,-0.703125 0.375,-1.1875 0.734375,-1.1875 0.1875,0 0.296875,0.125 0.296875,0.453125 0,0.21875 -0.03125,0.328125 -0.15625,0.84375 z m 0,0"
               style="stroke:none"
               inkscape:connector-curvature="0" />
          </symbol>
          <symbol
             id="textext-74c0e3d1-6"
             overflow="visible"
             style="overflow:visible">
            <path
               id="path4607"
               d="m 3.953125,-3.78125 c -0.171875,0 -0.296875,0 -0.4375,0.125 -0.171875,0.15625 -0.1875,0.328125 -0.1875,0.390625 0,0.25 0.1875,0.359375 0.375,0.359375 0.28125,0 0.546875,-0.25 0.546875,-0.640625 0,-0.484375 -0.46875,-0.859375 -1.171875,-0.859375 -1.34375,0 -2.671875,1.421875 -2.671875,2.828125 0,0.90625 0.578125,1.6875 1.625,1.6875 1.421875,0 2.25,-1.0625 2.25,-1.171875 0,-0.0625 -0.046875,-0.140625 -0.109375,-0.140625 -0.0625,0 -0.078125,0.03125 -0.140625,0.109375 -0.78125,0.984375 -1.875,0.984375 -1.984375,0.984375 -0.625,0 -0.90625,-0.484375 -0.90625,-1.09375 0,-0.40625 0.203125,-1.375 0.546875,-1.984375 0.3125,-0.578125 0.859375,-1 1.40625,-1 0.328125,0 0.71875,0.125 0.859375,0.40625 z m 0,0"
               style="stroke:none"
               inkscape:connector-curvature="0" />
          </symbol>
          <symbol
             id="textext-74c0e3d1-7"
             overflow="visible"
             style="overflow:visible">
            <path
               id="path4610"
               d="m 2.578125,-6.8125 c 0,0 0,-0.109375 -0.140625,-0.109375 -0.21875,0 -0.953125,0.078125 -1.21875,0.109375 -0.078125,0 -0.1875,0.015625 -0.1875,0.203125 0,0.109375 0.109375,0.109375 0.25,0.109375 0.484375,0 0.5,0.09375 0.5,0.171875 L 1.75,-6.125 0.484375,-1.140625 C 0.453125,-1.03125 0.4375,-0.96875 0.4375,-0.8125 c 0,0.578125 0.4375,0.921875 0.90625,0.921875 0.328125,0 0.578125,-0.203125 0.75,-0.5625 0.171875,-0.375 0.296875,-0.953125 0.296875,-0.96875 0,-0.109375 -0.09375,-0.109375 -0.125,-0.109375 -0.09375,0 -0.109375,0.046875 -0.125,0.1875 C 1.96875,-0.703125 1.78125,-0.109375 1.375,-0.109375 c -0.296875,0 -0.296875,-0.3125 -0.296875,-0.453125 0,-0.25 0.015625,-0.296875 0.0625,-0.484375 z m 0,0"
               style="stroke:none"
               inkscape:connector-curvature="0" />
          </symbol>
          <symbol
             id="textext-74c0e3d1-8"
             overflow="visible"
             style="overflow:visible">
            <path
               id="path4613"
               d="m 1.90625,-0.53125 c 0,-0.28125 -0.234375,-0.53125 -0.515625,-0.53125 -0.296875,0 -0.53125,0.25 -0.53125,0.53125 C 0.859375,-0.234375 1.09375,0 1.390625,0 1.671875,0 1.90625,-0.234375 1.90625,-0.53125 z m 0,0"
               style="stroke:none"
               inkscape:connector-curvature="0" />
          </symbol>
        </g>
      </defs>
      <g
         id="textext-74c0e3d1-9">
        <g
           id="g4616"
           style="fill:#000000;fill-opacity:1">
          <use
             id="use4618"
             y="134.765"
             x="223.43201"
             xlink:href="#textext-74c0e3d1-0"
             width="635.20203"
             height="566.55139" />
        </g>
        <g
           id="g4620"
           style="fill:#000000;fill-opacity:1">
          <use
             id="use4622"
             y="134.765"
             x="227.306"
             xlink:href="#textext-74c0e3d1-2"
             width="635.20203"
             height="566.55139" />
          <use
             id="use4624"
             y="134.765"
             x="233.24171"
             xlink:href="#textext-74c0e3d1-3"
             width="635.20203"
             height="566.55139" />
        </g>
        <g
           id="g4626"
           style="fill:#000000;fill-opacity:1">
          <use
             id="use4628"
             y="134.765"
             x="237.67308"
             xlink:href="#textext-74c0e3d1-4"
             width="635.20203"
             height="566.55139" />
          <use
             id="use4630"
             y="134.765"
             x="241.10519"
             xlink:href="#textext-74c0e3d1-5"
             width="635.20203"
             height="566.55139" />
          <use
             id="use4632"
             y="134.765"
             x="247.08475"
             xlink:href="#textext-74c0e3d1-6"
             width="635.20203"
             height="566.55139" />
          <use
             id="use4634"
             y="134.765"
             x="251.39656"
             xlink:href="#textext-74c0e3d1-7"
             width="635.20203"
             height="566.55139" />
        </g>
        <g
           id="g4636"
           style="fill:#000000;fill-opacity:1">
          <use
             id="use4638"
             y="134.765"
             x="254.55869"
             xlink:href="#textext-74c0e3d1-8"
             width="635.20203"
             height="566.55139" />
        </g>
        <g
           id="g4640"
           style="fill:#000000;fill-opacity:1">
          <use
             id="use4642"
             y="134.765"
             x="257.32999"
             xlink:href="#textext-74c0e3d1-1"
             width="635.20203"
             height="566.55139" />
        </g>
      </g>
    </g>
  </g>
</svg>
