<?xml version="1.0" encoding="UTF-8" standalone="no"?>
<!-- Created with Inkscape (http://www.inkscape.org/) -->

<svg
   xmlns:ns0="http://www.iki.fi/pav/software/textext/"
   xmlns:dc="http://purl.org/dc/elements/1.1/"
   xmlns:cc="http://creativecommons.org/ns#"
   xmlns:rdf="http://www.w3.org/1999/02/22-rdf-syntax-ns#"
   xmlns:svg="http://www.w3.org/2000/svg"
   xmlns="http://www.w3.org/2000/svg"
   xmlns:xlink="http://www.w3.org/1999/xlink"
   xmlns:sodipodi="http://sodipodi.sourceforge.net/DTD/sodipodi-0.dtd"
   xmlns:inkscape="http://www.inkscape.org/namespaces/inkscape"
   width="716.03778"
   height="566.55139"
   id="svg2"
   version="1.1"
   inkscape:version="0.48.3.1 r9886"
   sodipodi:docname="abstractroadmap.svg">
  <sodipodi:namedview
     id="base"
     pagecolor="#ffffff"
     bordercolor="#666666"
     borderopacity="1.0"
     inkscape:pageopacity="0.0"
     inkscape:pageshadow="2"
     inkscape:zoom="1"
     inkscape:cx="398.43676"
     inkscape:cy="283.27572"
     inkscape:document-units="px"
     inkscape:current-layer="layer1"
     showgrid="false"
     inkscape:window-width="1317"
     inkscape:window-height="744"
     inkscape:window-x="49"
     inkscape:window-y="24"
     inkscape:window-maximized="1"
     fit-margin-top="5"
     fit-margin-left="5"
     fit-margin-right="5"
     fit-margin-bottom="5" />
  <defs
     id="defs4" />
  <metadata
     id="metadata7">
    <rdf:RDF>
      <cc:Work
         rdf:about="">
        <dc:format>image/svg+xml</dc:format>
        <dc:type
           rdf:resource="http://purl.org/dc/dcmitype/StillImage" />
        <dc:title></dc:title>
      </cc:Work>
    </rdf:RDF>
  </metadata>
  <g
     inkscape:label="Layer 1"
     inkscape:groupmode="layer"
     id="layer1"
     transform="translate(28.10004,12.375406)">
    <text
       xml:space="preserve"
       style="font-size:28px;font-style:normal;font-variant:normal;font-weight:normal;font-stretch:normal;line-height:125%;letter-spacing:0px;word-spacing:0px;fill:#000000;fill-opacity:1;stroke:none;font-family:HelveticaNeue;-inkscape-font-specification:HelveticaNeue"
       x="356.58844"
       y="303.83841"
       id="text2985"
       sodipodi:linespacing="125%"><tspan
         sodipodi:role="line"
         x="360.47125"
         y="303.83841"
         id="tspan3017"
         style="text-align:center;text-anchor:middle">microscopic </tspan><tspan
         sodipodi:role="line"
         x="356.58844"
         y="338.83841"
         id="tspan3020"
         style="text-align:center;text-anchor:middle">phenotype<tspan
   style="font-size:65.00091553%;text-align:center;text-anchor:middle;baseline-shift:sub"
   id="tspan3015">i</tspan></tspan></text>
    <text
       sodipodi:linespacing="125%"
       id="text2993"
       y="513.70312"
       x="348.61646"
       style="font-size:28px;font-style:normal;font-variant:normal;font-weight:normal;font-stretch:normal;line-height:125%;letter-spacing:0px;word-spacing:0px;fill:#000000;fill-opacity:1;stroke:none;font-family:HelveticaNeue;-inkscape-font-specification:HelveticaNeue"
       xml:space="preserve"><tspan
         id="tspan2995"
         y="513.70312"
         x="352.49927"
         sodipodi:role="line"
         style="text-align:center;text-anchor:middle">allowed/viable </tspan><tspan
         y="548.70312"
         x="348.61646"
         sodipodi:role="line"
         id="tspan3023"
         style="text-align:center;text-anchor:middle">interactions</tspan></text>
    <text
       xml:space="preserve"
       style="font-size:28px;font-style:normal;font-variant:normal;font-weight:normal;font-stretch:normal;line-height:125%;letter-spacing:0px;word-spacing:0px;fill:#000000;fill-opacity:1;stroke:none;font-family:HelveticaNeue;-inkscape-font-specification:HelveticaNeue"
       x="148.1768"
       y="139.87158"
       id="text2997"
       sodipodi:linespacing="125%"><tspan
         sodipodi:role="line"
         x="148.1768"
         y="139.87158"
         id="tspan2999"
         style="text-align:center;text-anchor:middle">macroscopic</tspan><tspan
         sodipodi:role="line"
         x="148.1768"
         y="174.87158"
         id="tspan3001"
         style="text-align:center;text-anchor:middle">phenotype<tspan
   style="font-size:65.00091553%;baseline-shift:sub"
   id="tspan3876">i+1</tspan></tspan></text>
    <text
       sodipodi:linespacing="125%"
       id="text3003"
       y="12.616594"
       x="536.71777"
       style="font-size:28px;font-style:normal;font-variant:normal;font-weight:normal;font-stretch:normal;line-height:125%;letter-spacing:0px;word-spacing:0px;fill:#000000;fill-opacity:1;stroke:none;font-family:HelveticaNeue;-inkscape-font-specification:HelveticaNeue"
       xml:space="preserve"><tspan
         style="text-align:center;text-anchor:middle"
         id="tspan3007"
         y="12.616594"
         x="536.71777"
         sodipodi:role="line">probabilities of</tspan><tspan
         style="text-align:center;text-anchor:middle"
         y="47.616592"
         x="536.71777"
         sodipodi:role="line"
         id="tspan3011">collections of expression</tspan><tspan
         style="text-align:center;text-anchor:middle"
         y="82.616592"
         x="536.71777"
         sodipodi:role="line"
         id="tspan3013">states</tspan></text>
    <path
       style="fill:none;stroke:#000000;stroke-width:1px;stroke-linecap:butt;stroke-linejoin:miter;stroke-opacity:1"
       d="m 431.7015,480.14047 0,-89.90028"
       id="path3868"
       inkscape:connector-curvature="0" />
    <path
       style="fill:none;stroke:#000000;stroke-width:1px;stroke-linecap:butt;stroke-linejoin:miter;stroke-opacity:1"
       d="M 400.47972,275.66139 234.78115,194.57486"
       id="path3870"
       inkscape:connector-curvature="0" />
    <path
       style="fill:none;stroke:#000000;stroke-width:1px;stroke-linecap:butt;stroke-linejoin:miter;stroke-opacity:1"
       d="M 442.78574,275.66139 580.28029,173.42185"
       id="path3872"
       inkscape:connector-curvature="0" />
    <path
       inkscape:connector-curvature="0"
       id="path3874"
       d="M 234.78574,153.66139 372.28029,51.421847"
       style="fill:none;stroke:#000000;stroke-width:1px;stroke-linecap:butt;stroke-linejoin:miter;stroke-opacity:1" />
    <g
       ns0:text="$(\\mathcal{U},\\subset)$"
       ns0:preamble=""
       transform="matrix(4.4736636,0,0,4.4736636,-553.81293,-64.901423)"
       id="g3241">
      <defs
         id="defs3243">
        <g
           id="g3245">
          <symbol
             style="overflow:visible"
             overflow="visible"
             id="textext-d1b67aeb-0">
            <path
               inkscape:connector-curvature="0"
               style="stroke:none"
               d="m 3.296875,2.390625 c 0,-0.03125 0,-0.046875 -0.171875,-0.21875 C 1.890625,0.921875 1.5625,-0.96875 1.5625,-2.5 c 0,-1.734375 0.375,-3.46875 1.609375,-4.703125 0.125,-0.125 0.125,-0.140625 0.125,-0.171875 0,-0.078125 -0.03125,-0.109375 -0.09375,-0.109375 -0.109375,0 -1,0.6875 -1.59375,1.953125 -0.5,1.09375 -0.625,2.203125 -0.625,3.03125 0,0.78125 0.109375,1.984375 0.65625,3.125 C 2.25,1.84375 3.09375,2.5 3.203125,2.5 c 0.0625,0 0.09375,-0.03125 0.09375,-0.109375 z m 0,0"
               id="path3248" />
          </symbol>
          <symbol
             style="overflow:visible"
             overflow="visible"
             id="textext-d1b67aeb-1">
            <path
               inkscape:connector-curvature="0"
               style="stroke:none"
               d="m 2.875,-2.5 c 0,-0.765625 -0.109375,-1.96875 -0.65625,-3.109375 -0.59375,-1.21875 -1.453125,-1.875 -1.546875,-1.875 -0.0625,0 -0.109375,0.046875 -0.109375,0.109375 0,0.03125 0,0.046875 0.1875,0.234375 0.984375,0.984375 1.546875,2.5625 1.546875,4.640625 0,1.71875 -0.359375,3.46875 -1.59375,4.71875 C 0.5625,2.34375 0.5625,2.359375 0.5625,2.390625 0.5625,2.453125 0.609375,2.5 0.671875,2.5 0.765625,2.5 1.671875,1.8125 2.25,0.546875 2.765625,-0.546875 2.875,-1.65625 2.875,-2.5 z m 0,0"
               id="path3251" />
          </symbol>
          <symbol
             style="overflow:visible"
             overflow="visible"
             id="textext-d1b67aeb-2">
            <path
               inkscape:connector-curvature="0"
               style="stroke:none"
               d="M 4.921875,-2.953125 C 4.6875,-2.109375 4.34375,-0.875 4.34375,-0.109375 4.34375,0.15625 4.5,0.28125 4.75,0.28125 c 0.390625,0 1.140625,-0.4375 1.140625,-0.625 0,-0.0625 -0.046875,-0.078125 -0.09375,-0.078125 -0.125,0 -0.296875,0.09375 -0.40625,0.15625 C 5.25,-0.296875 5.1875,-0.390625 5.1875,-0.53125 c 0,-1.21875 1.125,-4.703125 1.421875,-5.4375 0.125,-0.28125 0.25,-0.6875 0.25,-0.765625 0,-0.078125 -0.0625,-0.078125 -0.09375,-0.078125 -0.21875,0 -0.671875,0.265625 -0.75,0.46875 C 5.890625,-6 5.875,-5.953125 5.75,-5.578125 c -0.328125,0.9375 -1.3125,2.59375 -2.296875,3.75 -0.3125,0.34375 -1.296875,1.5 -2,1.5 -0.46875,0 -0.78125,-0.40625 -0.78125,-1.0625 0,-0.703125 0.390625,-1.59375 1,-2.96875 0.359375,-0.8125 0.65625,-1.515625 0.65625,-1.96875 0,-0.46875 -0.328125,-0.484375 -0.5,-0.484375 -0.765625,0 -1.734375,0.625 -1.734375,0.828125 0,0.0625 0.078125,0.0625 0.109375,0.0625 0.125,0 0.3125,-0.078125 0.46875,-0.1875 0.0625,-0.046875 0.21875,-0.15625 0.5,-0.15625 0.21875,0 0.296875,0.140625 0.296875,0.359375 0,0.4375 -0.359375,1.265625 -0.765625,2.21875 -0.65625,1.5 -0.875,2.125 -0.875,2.703125 0,0.671875 0.265625,1.203125 0.96875,1.203125 0.625,0 1.53125,-0.40625 2.546875,-1.359375 0.6875,-0.640625 1.125,-1.234375 1.5625,-1.8125 z m 0,0"
               id="path3254" />
          </symbol>
          <symbol
             style="overflow:visible"
             overflow="visible"
             id="textext-d1b67aeb-3">
            <path
               inkscape:connector-curvature="0"
               style="stroke:none"
               d="m 6.5625,-4.984375 c 0.171875,0 0.359375,0 0.359375,-0.203125 0,-0.203125 -0.1875,-0.203125 -0.359375,-0.203125 l -2.671875,0 c -1.703125,0 -3.0625,1.296875 -3.0625,2.890625 0,1.609375 1.359375,2.90625 3.0625,2.90625 l 2.671875,0 c 0.171875,0 0.359375,0 0.359375,-0.203125 C 6.921875,0 6.734375,0 6.5625,0 L 3.90625,0 c -1.546875,0 -2.6875,-1.15625 -2.6875,-2.5 0,-1.328125 1.140625,-2.484375 2.6875,-2.484375 z m 0,0"
               id="path3257" />
          </symbol>
          <symbol
             style="overflow:visible"
             overflow="visible"
             id="textext-d1b67aeb-4">
            <path
               inkscape:connector-curvature="0"
               style="stroke:none"
               d="m 2.03125,-0.015625 c 0,-0.65625 -0.25,-1.046875 -0.640625,-1.046875 -0.328125,0 -0.53125,0.25 -0.53125,0.53125 C 0.859375,-0.265625 1.0625,0 1.390625,0 1.5,0 1.640625,-0.046875 1.734375,-0.125 1.765625,-0.15625 1.78125,-0.15625 1.78125,-0.15625 c 0.015625,0 0.015625,0 0.015625,0.140625 0,0.75 -0.34375,1.34375 -0.671875,1.671875 -0.109375,0.109375 -0.109375,0.125 -0.109375,0.15625 0,0.078125 0.046875,0.109375 0.09375,0.109375 0.109375,0 0.921875,-0.765625 0.921875,-1.9375 z m 0,0"
               id="path3260" />
          </symbol>
        </g>
      </defs>
      <g
         id="textext-d1b67aeb-5">
        <g
           style="fill:#000000;fill-opacity:1"
           id="g3263">
          <use
             height="566.55139"
             width="635.20203"
             xlink:href="#textext-d1b67aeb-0"
             x="223.43201"
             y="134.765"
             id="use3266" />
        </g>
        <g
           style="fill:#000000;fill-opacity:1"
           id="g3268">
          <use
             height="566.55139"
             width="635.20203"
             xlink:href="#textext-d1b67aeb-2"
             x="227.306"
             y="134.765"
             id="use3270" />
        </g>
        <g
           style="fill:#000000;fill-opacity:1"
           id="g3272">
          <use
             height="566.55139"
             width="635.20203"
             xlink:href="#textext-d1b67aeb-4"
             x="234.53101"
             y="134.765"
             id="use3274" />
        </g>
        <g
           style="fill:#000000;fill-opacity:1"
           id="g3276">
          <use
             height="566.55139"
             width="635.20203"
             xlink:href="#textext-d1b67aeb-3"
             x="238.959"
             y="134.765"
             id="use3278" />
        </g>
        <g
           style="fill:#000000;fill-opacity:1"
           id="g3280">
          <use
             height="566.55139"
             width="635.20203"
             xlink:href="#textext-d1b67aeb-1"
             x="246.707"
             y="134.765"
             id="use3282" />
        </g>
      </g>
    </g>
    <g
       ns0:text="$(Meas,\\hbox{incl.})$"
       ns0:preamble=""
       transform="matrix(3.6554224,0,0,3.6554224,-378.7627,-147.844)"
       id="g3326">
      <defs
         id="defs3328">
        <g
           id="g3330">
          <symbol
             style="overflow:visible"
             overflow="visible"
             id="textext-d535d025-0">
            <path
               inkscape:connector-curvature="0"
               style="stroke:none"
               d="m 3.296875,2.390625 c 0,-0.03125 0,-0.046875 -0.171875,-0.21875 C 1.890625,0.921875 1.5625,-0.96875 1.5625,-2.5 c 0,-1.734375 0.375,-3.46875 1.609375,-4.703125 0.125,-0.125 0.125,-0.140625 0.125,-0.171875 0,-0.078125 -0.03125,-0.109375 -0.09375,-0.109375 -0.109375,0 -1,0.6875 -1.59375,1.953125 -0.5,1.09375 -0.625,2.203125 -0.625,3.03125 0,0.78125 0.109375,1.984375 0.65625,3.125 C 2.25,1.84375 3.09375,2.5 3.203125,2.5 c 0.0625,0 0.09375,-0.03125 0.09375,-0.109375 z m 0,0"
               id="path3333" />
          </symbol>
          <symbol
             style="overflow:visible"
             overflow="visible"
             id="textext-d535d025-1">
            <path
               inkscape:connector-curvature="0"
               style="stroke:none"
               d="M 1.765625,-4.40625 0.375,-4.296875 l 0,0.3125 c 0.640625,0 0.734375,0.0625 0.734375,0.546875 l 0,2.6875 c 0,0.4375 -0.109375,0.4375 -0.78125,0.4375 l 0,0.3125 C 0.640625,-0.015625 1.1875,-0.03125 1.421875,-0.03125 1.78125,-0.03125 2.125,-0.015625 2.46875,0 l 0,-0.3125 c -0.671875,0 -0.703125,-0.046875 -0.703125,-0.4375 z m 0.03125,-1.734375 c 0,-0.3125 -0.234375,-0.53125 -0.515625,-0.53125 -0.3125,0 -0.53125,0.265625 -0.53125,0.53125 0,0.265625 0.21875,0.53125 0.53125,0.53125 0.28125,0 0.515625,-0.21875 0.515625,-0.53125 z m 0,0"
               id="path3336" />
          </symbol>
          <symbol
             style="overflow:visible"
             overflow="visible"
             id="textext-d535d025-2">
            <path
               inkscape:connector-curvature="0"
               style="stroke:none"
               d="m 1.09375,-3.421875 0,2.671875 c 0,0.4375 -0.109375,0.4375 -0.78125,0.4375 l 0,0.3125 c 0.359375,-0.015625 0.859375,-0.03125 1.140625,-0.03125 0.25,0 0.765625,0.015625 1.109375,0.03125 l 0,-0.3125 c -0.671875,0 -0.78125,0 -0.78125,-0.4375 l 0,-1.84375 C 1.78125,-3.625 2.5,-4.1875 3.125,-4.1875 c 0.640625,0 0.75,0.53125 0.75,1.109375 l 0,2.328125 c 0,0.4375 -0.109375,0.4375 -0.78125,0.4375 l 0,0.3125 c 0.34375,-0.015625 0.859375,-0.03125 1.125,-0.03125 0.25,0 0.78125,0.015625 1.109375,0.03125 l 0,-0.3125 c -0.515625,0 -0.765625,0 -0.765625,-0.296875 l 0,-1.90625 c 0,-0.859375 0,-1.15625 -0.3125,-1.515625 -0.140625,-0.171875 -0.46875,-0.375 -1.046875,-0.375 C 2.46875,-4.40625 2,-3.984375 1.71875,-3.359375 l 0,-1.046875 -1.40625,0.109375 0,0.3125 c 0.703125,0 0.78125,0.0625 0.78125,0.5625 z m 0,0"
               id="path3339" />
          </symbol>
          <symbol
             style="overflow:visible"
             overflow="visible"
             id="textext-d535d025-3">
            <path
               inkscape:connector-curvature="0"
               style="stroke:none"
               d="m 1.171875,-2.171875 c 0,-1.625 0.8125,-2.046875 1.34375,-2.046875 0.09375,0 0.71875,0.015625 1.0625,0.375 -0.40625,0.03125 -0.46875,0.328125 -0.46875,0.453125 0,0.265625 0.1875,0.453125 0.453125,0.453125 0.265625,0 0.46875,-0.15625 0.46875,-0.46875 0,-0.671875 -0.765625,-1.0625 -1.53125,-1.0625 -1.25,0 -2.15625,1.078125 -2.15625,2.3125 0,1.28125 0.984375,2.265625 2.140625,2.265625 1.328125,0 1.65625,-1.203125 1.65625,-1.296875 0,-0.09375 -0.109375,-0.09375 -0.140625,-0.09375 -0.078125,0 -0.109375,0.03125 -0.125,0.09375 -0.28125,0.921875 -0.9375,1.046875 -1.296875,1.046875 -0.53125,0 -1.40625,-0.421875 -1.40625,-2.03125 z m 0,0"
               id="path3342" />
          </symbol>
          <symbol
             style="overflow:visible"
             overflow="visible"
             id="textext-d535d025-4">
            <path
               inkscape:connector-curvature="0"
               style="stroke:none"
               d="m 1.765625,-6.921875 -1.4375,0.109375 0,0.3125 c 0.703125,0 0.78125,0.0625 0.78125,0.5625 l 0,5.1875 c 0,0.4375 -0.109375,0.4375 -0.78125,0.4375 l 0,0.3125 C 0.65625,-0.015625 1.1875,-0.03125 1.4375,-0.03125 c 0.25,0 0.734375,0.015625 1.109375,0.03125 l 0,-0.3125 c -0.671875,0 -0.78125,0 -0.78125,-0.4375 z m 0,0"
               id="path3345" />
          </symbol>
          <symbol
             style="overflow:visible"
             overflow="visible"
             id="textext-d535d025-5">
            <path
               inkscape:connector-curvature="0"
               style="stroke:none"
               d="m 1.90625,-0.53125 c 0,-0.28125 -0.234375,-0.53125 -0.515625,-0.53125 -0.296875,0 -0.53125,0.25 -0.53125,0.53125 C 0.859375,-0.234375 1.09375,0 1.390625,0 1.671875,0 1.90625,-0.234375 1.90625,-0.53125 z m 0,0"
               id="path3348" />
          </symbol>
          <symbol
             style="overflow:visible"
             overflow="visible"
             id="textext-d535d025-6">
            <path
               inkscape:connector-curvature="0"
               style="stroke:none"
               d="m 2.875,-2.5 c 0,-0.765625 -0.109375,-1.96875 -0.65625,-3.109375 -0.59375,-1.21875 -1.453125,-1.875 -1.546875,-1.875 -0.0625,0 -0.109375,0.046875 -0.109375,0.109375 0,0.03125 0,0.046875 0.1875,0.234375 0.984375,0.984375 1.546875,2.5625 1.546875,4.640625 0,1.71875 -0.359375,3.46875 -1.59375,4.71875 C 0.5625,2.34375 0.5625,2.359375 0.5625,2.390625 0.5625,2.453125 0.609375,2.5 0.671875,2.5 0.765625,2.5 1.671875,1.8125 2.25,0.546875 2.765625,-0.546875 2.875,-1.65625 2.875,-2.5 z m 0,0"
               id="path3351" />
          </symbol>
          <symbol
             style="overflow:visible"
             overflow="visible"
             id="textext-d535d025-7">
            <path
               inkscape:connector-curvature="0"
               style="stroke:none"
               d="M 9.234375,-6.046875 C 9.328125,-6.40625 9.34375,-6.5 10.09375,-6.5 c 0.21875,0 0.3125,0 0.3125,-0.203125 0,-0.109375 -0.09375,-0.109375 -0.265625,-0.109375 l -1.3125,0 c -0.265625,0 -0.28125,0 -0.390625,0.1875 L 4.796875,-0.9375 4.015625,-6.578125 C 3.984375,-6.8125 3.96875,-6.8125 3.703125,-6.8125 l -1.359375,0 c -0.1875,0 -0.296875,0 -0.296875,0.1875 0,0.125 0.09375,0.125 0.28125,0.125 0.140625,0 0.3125,0.015625 0.4375,0.015625 0.15625,0.03125 0.21875,0.046875 0.21875,0.171875 0,0.03125 -0.015625,0.0625 -0.046875,0.1875 l -1.265625,5.0625 c -0.09375,0.40625 -0.265625,0.71875 -1.078125,0.75 -0.046875,0 -0.171875,0.015625 -0.171875,0.1875 0,0.09375 0.0625,0.125 0.140625,0.125 0.3125,0 0.65625,-0.03125 1,-0.03125 C 1.890625,-0.03125 2.25,0 2.578125,0 c 0.046875,0 0.1875,0 0.1875,-0.203125 0,-0.109375 -0.109375,-0.109375 -0.1875,-0.109375 -0.5625,0 -0.671875,-0.203125 -0.671875,-0.4375 0,-0.0625 0,-0.125 0.03125,-0.234375 l 1.359375,-5.421875 0.015625,0 0.859375,6.171875 C 4.1875,-0.109375 4.203125,0 4.3125,0 4.421875,0 4.484375,-0.109375 4.53125,-0.171875 l 4.03125,-6.3125 0.015625,0 -1.4375,5.703125 c -0.09375,0.390625 -0.109375,0.46875 -0.90625,0.46875 -0.15625,0 -0.265625,0 -0.265625,0.1875 C 5.96875,0 6.078125,0 6.109375,0 6.390625,0 7.0625,-0.03125 7.34375,-0.03125 7.75,-0.03125 8.1875,0 8.59375,0 8.65625,0 8.78125,0 8.78125,-0.203125 8.78125,-0.3125 8.6875,-0.3125 8.5,-0.3125 c -0.359375,0 -0.640625,0 -0.640625,-0.171875 0,-0.046875 0,-0.0625 0.046875,-0.25 z m 0,0"
               id="path3354" />
          </symbol>
          <symbol
             style="overflow:visible"
             overflow="visible"
             id="textext-d535d025-8">
            <path
               inkscape:connector-curvature="0"
               style="stroke:none"
               d="m 1.859375,-2.296875 c 0.296875,0 1.03125,-0.03125 1.53125,-0.234375 0.703125,-0.296875 0.75,-0.890625 0.75,-1.03125 0,-0.4375 -0.375,-0.84375 -1.0625,-0.84375 -1.109375,0 -2.625,0.96875 -2.625,2.71875 0,1.015625 0.59375,1.796875 1.578125,1.796875 1.421875,0 2.25,-1.0625 2.25,-1.171875 0,-0.0625 -0.046875,-0.140625 -0.109375,-0.140625 -0.0625,0 -0.078125,0.03125 -0.140625,0.109375 -0.78125,0.984375 -1.875,0.984375 -1.984375,0.984375 -0.78125,0 -0.875,-0.84375 -0.875,-1.15625 0,-0.125 0.015625,-0.421875 0.15625,-1.03125 z m -0.46875,-0.21875 C 1.78125,-4.03125 2.8125,-4.1875 3.078125,-4.1875 c 0.453125,0 0.734375,0.296875 0.734375,0.625 0,1.046875 -1.59375,1.046875 -2.015625,1.046875 z m 0,0"
               id="path3357" />
          </symbol>
          <symbol
             style="overflow:visible"
             overflow="visible"
             id="textext-d535d025-9">
            <path
               inkscape:connector-curvature="0"
               style="stroke:none"
               d="M 3.71875,-3.765625 C 3.53125,-4.140625 3.25,-4.40625 2.796875,-4.40625 c -1.15625,0 -2.390625,1.46875 -2.390625,2.921875 0,0.9375 0.546875,1.59375 1.3125,1.59375 0.203125,0 0.703125,-0.046875 1.296875,-0.75 0.078125,0.421875 0.4375,0.75 0.90625,0.75 0.359375,0 0.578125,-0.234375 0.75,-0.546875 0.15625,-0.359375 0.296875,-0.96875 0.296875,-0.984375 0,-0.109375 -0.09375,-0.109375 -0.125,-0.109375 -0.09375,0 -0.109375,0.046875 -0.140625,0.1875 -0.171875,0.640625 -0.34375,1.234375 -0.75,1.234375 -0.28125,0 -0.296875,-0.265625 -0.296875,-0.453125 0,-0.21875 0.015625,-0.3125 0.125,-0.75 C 3.890625,-1.71875 3.90625,-1.828125 4,-2.203125 L 4.359375,-3.59375 c 0.0625,-0.28125 0.0625,-0.296875 0.0625,-0.34375 0,-0.171875 -0.109375,-0.265625 -0.28125,-0.265625 -0.25,0 -0.390625,0.21875 -0.421875,0.4375 z M 3.078125,-1.1875 C 3.015625,-1 3.015625,-0.984375 2.875,-0.8125 2.4375,-0.265625 2.03125,-0.109375 1.75,-0.109375 c -0.5,0 -0.640625,-0.546875 -0.640625,-0.9375 0,-0.5 0.3125,-1.71875 0.546875,-2.1875 0.3125,-0.578125 0.75,-0.953125 1.15625,-0.953125 0.640625,0 0.78125,0.8125 0.78125,0.875 0,0.0625 -0.015625,0.125 -0.03125,0.171875 z m 0,0"
               id="path3360" />
          </symbol>
          <symbol
             style="overflow:visible"
             overflow="visible"
             id="textext-d535d025-10">
            <path
               inkscape:connector-curvature="0"
               style="stroke:none"
               d="M 3.890625,-3.734375 C 3.625,-3.71875 3.421875,-3.5 3.421875,-3.28125 c 0,0.140625 0.09375,0.296875 0.3125,0.296875 0.21875,0 0.453125,-0.171875 0.453125,-0.5625 C 4.1875,-4 3.765625,-4.40625 3,-4.40625 c -1.3125,0 -1.6875,1.015625 -1.6875,1.453125 0,0.78125 0.734375,0.921875 1.03125,0.984375 0.515625,0.109375 1.03125,0.21875 1.03125,0.765625 0,0.25 -0.21875,1.09375 -1.421875,1.09375 -0.140625,0 -0.90625,0 -1.140625,-0.53125 0.390625,0.046875 0.640625,-0.25 0.640625,-0.53125 0,-0.21875 -0.171875,-0.34375 -0.375,-0.34375 -0.265625,0 -0.5625,0.203125 -0.5625,0.65625 0,0.5625 0.578125,0.96875 1.421875,0.96875 1.625,0 2.015625,-1.203125 2.015625,-1.65625 0,-0.359375 -0.1875,-0.609375 -0.3125,-0.71875 -0.265625,-0.28125 -0.5625,-0.34375 -1,-0.421875 -0.359375,-0.078125 -0.75,-0.15625 -0.75,-0.609375 C 1.890625,-3.578125 2.125,-4.1875 3,-4.1875 c 0.25,0 0.75,0.078125 0.890625,0.453125 z m 0,0"
               id="path3363" />
          </symbol>
          <symbol
             style="overflow:visible"
             overflow="visible"
             id="textext-d535d025-11">
            <path
               inkscape:connector-curvature="0"
               style="stroke:none"
               d="m 2.03125,-0.015625 c 0,-0.65625 -0.25,-1.046875 -0.640625,-1.046875 -0.328125,0 -0.53125,0.25 -0.53125,0.53125 C 0.859375,-0.265625 1.0625,0 1.390625,0 1.5,0 1.640625,-0.046875 1.734375,-0.125 1.765625,-0.15625 1.78125,-0.15625 1.78125,-0.15625 c 0.015625,0 0.015625,0 0.015625,0.140625 0,0.75 -0.34375,1.34375 -0.671875,1.671875 -0.109375,0.109375 -0.109375,0.125 -0.109375,0.15625 0,0.078125 0.046875,0.109375 0.09375,0.109375 0.109375,0 0.921875,-0.765625 0.921875,-1.9375 z m 0,0"
               id="path3366" />
          </symbol>
        </g>
      </defs>
      <g
         id="textext-d535d025-12">
        <g
           style="fill:#000000;fill-opacity:1"
           id="g3369">
          <use
             height="566.55139"
             width="635.20203"
             xlink:href="#textext-d535d025-0"
             x="223.43201"
             y="134.765"
             id="use3371" />
        </g>
        <g
           style="fill:#000000;fill-opacity:1"
           id="g3373">
          <use
             height="566.55139"
             width="635.20203"
             xlink:href="#textext-d535d025-7"
             x="227.306"
             y="134.765"
             id="use3375" />
        </g>
        <g
           style="fill:#000000;fill-opacity:1"
           id="g3377">
          <use
             height="566.55139"
             width="635.20203"
             xlink:href="#textext-d535d025-8"
             x="238.05664"
             y="134.765"
             id="use3379" />
          <use
             height="566.55139"
             width="635.20203"
             xlink:href="#textext-d535d025-9"
             x="242.69522"
             y="134.765"
             id="use3381" />
          <use
             height="566.55139"
             width="635.20203"
             xlink:href="#textext-d535d025-10"
             x="247.96146"
             y="134.765"
             id="use3383" />
          <use
             height="566.55139"
             width="635.20203"
             xlink:href="#textext-d535d025-11"
             x="252.63193"
             y="134.765"
             id="use3385" />
        </g>
        <g
           style="fill:#000000;fill-opacity:1"
           id="g3387">
          <use
             height="566.55139"
             width="635.20203"
             xlink:href="#textext-d535d025-1"
             x="257.061"
             y="134.765"
             id="use3389" />
          <use
             height="566.55139"
             width="635.20203"
             xlink:href="#textext-d535d025-2"
             x="259.82861"
             y="134.765"
             id="use3391" />
          <use
             height="566.55139"
             width="635.20203"
             xlink:href="#textext-d535d025-3"
             x="265.36383"
             y="134.765"
             id="use3393" />
          <use
             height="566.55139"
             width="635.20203"
             xlink:href="#textext-d535d025-4"
             x="269.7912"
             y="134.765"
             id="use3395" />
          <use
             height="566.55139"
             width="635.20203"
             xlink:href="#textext-d535d025-5"
             x="272.55881"
             y="134.765"
             id="use3397" />
          <use
             height="566.55139"
             width="635.20203"
             xlink:href="#textext-d535d025-6"
             x="275.32642"
             y="134.765"
             id="use3399" />
        </g>
      </g>
    </g>
    <g
       ns0:text="$\\mathcal{E}_i$"
       ns0:preamble=""
       transform="matrix(4.4736636,0,0,4.4736636,-553.81293,-154.90142)"
       id="g4151">
      <defs
         id="defs4153">
        <g
           id="g4155">
          <symbol
             style="overflow:visible"
             overflow="visible"
             id="textext-e9e16d53-0">
            <path
               inkscape:connector-curvature="0"
               style="stroke:none"
               d="m 2.375,-3.625 c -1.984375,1.078125 -2.09375,2.375 -2.09375,2.609375 0,0.75 0.734375,1.234375 1.6875,1.234375 1.65625,0 3,-1.578125 3,-1.78125 0,-0.0625 -0.046875,-0.078125 -0.109375,-0.078125 -0.109375,0 -0.5,0.140625 -0.71875,0.4375 -0.21875,0.296875 -0.625,0.875 -1.515625,0.875 -0.71875,0 -1.5,-0.375 -1.5,-1.125 0,-0.484375 0.5625,-1.953125 2.140625,-2.015625 0.46875,-0.015625 0.8125,-0.375 0.8125,-0.484375 0,-0.046875 -0.046875,-0.0625 -0.09375,-0.0625 -1.40625,-0.0625 -1.6875,-0.75 -1.6875,-1.140625 0,-0.234375 0.140625,-1.328125 1.546875,-1.328125 0.1875,0 0.9375,0.03125 0.9375,0.546875 0,0.171875 -0.078125,0.3125 -0.109375,0.359375 -0.03125,0.03125 -0.0625,0.078125 -0.0625,0.109375 0,0.078125 0.078125,0.078125 0.109375,0.078125 0.296875,0 0.90625,-0.390625 0.90625,-0.953125 0,-0.59375 -0.6875,-0.6875 -1.125,-0.6875 -1.359375,0 -3.046875,1.078125 -3.046875,2.296875 0,0.59375 0.4375,0.953125 0.921875,1.109375 z m 0,0"
               id="path4158" />
          </symbol>
          <symbol
             style="overflow:visible"
             overflow="visible"
             id="textext-e9e16d53-1">
            <path
               inkscape:connector-curvature="0"
               style="stroke:none"
               d="m 2.265625,-4.359375 c 0,-0.109375 -0.09375,-0.265625 -0.28125,-0.265625 -0.1875,0 -0.390625,0.1875 -0.390625,0.390625 0,0.109375 0.078125,0.265625 0.28125,0.265625 0.1875,0 0.390625,-0.203125 0.390625,-0.390625 z M 0.84375,-0.8125 c -0.03125,0.09375 -0.0625,0.171875 -0.0625,0.296875 0,0.328125 0.265625,0.578125 0.65625,0.578125 0.6875,0 1,-0.953125 1,-1.0625 0,-0.09375 -0.09375,-0.09375 -0.109375,-0.09375 -0.09375,0 -0.109375,0.046875 -0.140625,0.125 -0.15625,0.5625 -0.453125,0.84375 -0.734375,0.84375 -0.140625,0 -0.171875,-0.09375 -0.171875,-0.25 0,-0.15625 0.046875,-0.28125 0.109375,-0.4375 C 1.46875,-1 1.546875,-1.1875 1.609375,-1.375 1.671875,-1.546875 1.9375,-2.171875 1.953125,-2.265625 1.984375,-2.328125 2,-2.40625 2,-2.484375 2,-2.8125 1.71875,-3.078125 1.34375,-3.078125 0.640625,-3.078125 0.328125,-2.125 0.328125,-2 c 0,0.078125 0.09375,0.078125 0.125,0.078125 0.09375,0 0.09375,-0.03125 0.125,-0.109375 C 0.75,-2.625 1.0625,-2.875 1.3125,-2.875 c 0.109375,0 0.171875,0.046875 0.171875,0.234375 0,0.171875 -0.03125,0.265625 -0.203125,0.703125 z m 0,0"
               id="path4161" />
          </symbol>
        </g>
      </defs>
      <g
         id="textext-e9e16d53-2">
        <g
           style="fill:#000000;fill-opacity:1"
           id="g4164">
          <use
             height="566.55139"
             width="635.20203"
             xlink:href="#textext-e9e16d53-0"
             x="223.43201"
             y="134.765"
             id="use4166" />
        </g>
        <g
           style="fill:#000000;fill-opacity:1"
           id="g4168">
          <use
             height="566.55139"
             width="635.20203"
             xlink:href="#textext-e9e16d53-1"
             x="228.69"
             y="136.259"
             id="use4170" />
        </g>
      </g>
    </g>
    <g
       ns0:text="$\\Omega_i$"
       ns0:preamble=""
       transform="matrix(4.4736636,0,0,4.4736636,-748.81293,-348.90142)"
       id="g4983">
      <defs
         id="defs4985">
        <g
           id="g4987">
          <symbol
             style="overflow:visible"
             overflow="visible"
             id="textext-96f9d785-0">
            <path
               inkscape:connector-curvature="0"
               style="stroke:none"
               d="m 6.75,-1.609375 -0.25,0 c -0.046875,0.25 -0.09375,0.484375 -0.1875,0.71875 -0.046875,0.15625 -0.078125,0.25 -0.65625,0.25 l -0.796875,0 C 5,-1.203125 5.296875,-1.6875 5.75,-2.34375 c 0.46875,-0.703125 0.875,-1.390625 0.875,-2.1875 0,-1.375 -1.34375,-2.5 -3.03125,-2.5 -1.703125,0 -3.03125,1.140625 -3.03125,2.5 0,0.796875 0.40625,1.484375 0.875,2.1875 0.4375,0.65625 0.75,1.140625 0.890625,1.703125 l -0.796875,0 C 0.953125,-0.640625 0.921875,-0.734375 0.875,-0.875 0.78125,-1.109375 0.734375,-1.359375 0.6875,-1.609375 l -0.25,0 L 0.765625,0 2.359375,0 c 0.21875,0 0.25,0 0.25,-0.203125 0,-0.703125 -0.3125,-1.578125 -0.53125,-2.21875 -0.21875,-0.578125 -0.5,-1.359375 -0.5,-2.109375 0,-1.59375 1.109375,-2.28125 2.015625,-2.28125 0.953125,0 2.015625,0.71875 2.015625,2.28125 0,0.75 -0.28125,1.5 -0.5625,2.3125 -0.15625,0.421875 -0.46875,1.328125 -0.46875,2.015625 C 4.578125,0 4.609375,0 4.828125,0 l 1.59375,0 z m 0,0"
               id="path4990" />
          </symbol>
          <symbol
             style="overflow:visible"
             overflow="visible"
             id="textext-96f9d785-1">
            <path
               inkscape:connector-curvature="0"
               style="stroke:none"
               d="m 2.265625,-4.359375 c 0,-0.109375 -0.09375,-0.265625 -0.28125,-0.265625 -0.1875,0 -0.390625,0.1875 -0.390625,0.390625 0,0.109375 0.078125,0.265625 0.28125,0.265625 0.1875,0 0.390625,-0.203125 0.390625,-0.390625 z M 0.84375,-0.8125 c -0.03125,0.09375 -0.0625,0.171875 -0.0625,0.296875 0,0.328125 0.265625,0.578125 0.65625,0.578125 0.6875,0 1,-0.953125 1,-1.0625 0,-0.09375 -0.09375,-0.09375 -0.109375,-0.09375 -0.09375,0 -0.109375,0.046875 -0.140625,0.125 -0.15625,0.5625 -0.453125,0.84375 -0.734375,0.84375 -0.140625,0 -0.171875,-0.09375 -0.171875,-0.25 0,-0.15625 0.046875,-0.28125 0.109375,-0.4375 C 1.46875,-1 1.546875,-1.1875 1.609375,-1.375 1.671875,-1.546875 1.9375,-2.171875 1.953125,-2.265625 1.984375,-2.328125 2,-2.40625 2,-2.484375 2,-2.8125 1.71875,-3.078125 1.34375,-3.078125 0.640625,-3.078125 0.328125,-2.125 0.328125,-2 c 0,0.078125 0.09375,0.078125 0.125,0.078125 0.09375,0 0.09375,-0.03125 0.125,-0.109375 C 0.75,-2.625 1.0625,-2.875 1.3125,-2.875 c 0.109375,0 0.171875,0.046875 0.171875,0.234375 0,0.171875 -0.03125,0.265625 -0.203125,0.703125 z m 0,0"
               id="path4993" />
          </symbol>
        </g>
      </defs>
      <g
         id="textext-96f9d785-2">
        <g
           style="fill:#000000;fill-opacity:1"
           id="g4996">
          <use
             height="566.55139"
             width="635.20203"
             xlink:href="#textext-96f9d785-0"
             x="223.43201"
             y="134.765"
             id="use4998" />
        </g>
        <g
           style="fill:#000000;fill-opacity:1"
           id="g5000">
          <use
             height="566.55139"
             width="635.20203"
             xlink:href="#textext-96f9d785-1"
             x="230.627"
             y="136.259"
             id="use5002" />
        </g>
      </g>
    </g>
    <path
       transform="translate(52.73571,-12.375406)"
       inkscape:connector-curvature="0"
       id="path5202"
       d="m 210,493.55139 -120,-231"
       style="fill:none;stroke:#000000;stroke-width:1px;stroke-linecap:butt;stroke-linejoin:miter;stroke-opacity:1" />
    <g
       id="g5429"
       transform="matrix(4.4736636,0,0,4.4736636,-892.81293,-230.90142)"
       ns0:preamble=""
       ns0:text="$\\mathcal{E}_{i+1}$">
      <defs
         id="defs5431">
        <g
           id="g5433">
          <symbol
             id="textext-7d354721-0"
             overflow="visible"
             style="overflow:visible">
            <path
               id="path5436"
               d="m 2.375,-3.625 c -1.984375,1.078125 -2.09375,2.375 -2.09375,2.609375 0,0.75 0.734375,1.234375 1.6875,1.234375 1.65625,0 3,-1.578125 3,-1.78125 0,-0.0625 -0.046875,-0.078125 -0.109375,-0.078125 -0.109375,0 -0.5,0.140625 -0.71875,0.4375 -0.21875,0.296875 -0.625,0.875 -1.515625,0.875 -0.71875,0 -1.5,-0.375 -1.5,-1.125 0,-0.484375 0.5625,-1.953125 2.140625,-2.015625 0.46875,-0.015625 0.8125,-0.375 0.8125,-0.484375 0,-0.046875 -0.046875,-0.0625 -0.09375,-0.0625 -1.40625,-0.0625 -1.6875,-0.75 -1.6875,-1.140625 0,-0.234375 0.140625,-1.328125 1.546875,-1.328125 0.1875,0 0.9375,0.03125 0.9375,0.546875 0,0.171875 -0.078125,0.3125 -0.109375,0.359375 -0.03125,0.03125 -0.0625,0.078125 -0.0625,0.109375 0,0.078125 0.078125,0.078125 0.109375,0.078125 0.296875,0 0.90625,-0.390625 0.90625,-0.953125 0,-0.59375 -0.6875,-0.6875 -1.125,-0.6875 -1.359375,0 -3.046875,1.078125 -3.046875,2.296875 0,0.59375 0.4375,0.953125 0.921875,1.109375 z m 0,0"
               style="stroke:none"
               inkscape:connector-curvature="0" />
          </symbol>
          <symbol
             id="textext-7d354721-1"
             overflow="visible"
             style="overflow:visible">
            <path
               id="path5439"
               d="m 2.265625,-4.359375 c 0,-0.109375 -0.09375,-0.265625 -0.28125,-0.265625 -0.1875,0 -0.390625,0.1875 -0.390625,0.390625 0,0.109375 0.078125,0.265625 0.28125,0.265625 0.1875,0 0.390625,-0.203125 0.390625,-0.390625 z M 0.84375,-0.8125 c -0.03125,0.09375 -0.0625,0.171875 -0.0625,0.296875 0,0.328125 0.265625,0.578125 0.65625,0.578125 0.6875,0 1,-0.953125 1,-1.0625 0,-0.09375 -0.09375,-0.09375 -0.109375,-0.09375 -0.09375,0 -0.109375,0.046875 -0.140625,0.125 -0.15625,0.5625 -0.453125,0.84375 -0.734375,0.84375 -0.140625,0 -0.171875,-0.09375 -0.171875,-0.25 0,-0.15625 0.046875,-0.28125 0.109375,-0.4375 C 1.46875,-1 1.546875,-1.1875 1.609375,-1.375 1.671875,-1.546875 1.9375,-2.171875 1.953125,-2.265625 1.984375,-2.328125 2,-2.40625 2,-2.484375 2,-2.8125 1.71875,-3.078125 1.34375,-3.078125 0.640625,-3.078125 0.328125,-2.125 0.328125,-2 c 0,0.078125 0.09375,0.078125 0.125,0.078125 0.09375,0 0.09375,-0.03125 0.125,-0.109375 C 0.75,-2.625 1.0625,-2.875 1.3125,-2.875 c 0.109375,0 0.171875,0.046875 0.171875,0.234375 0,0.171875 -0.03125,0.265625 -0.203125,0.703125 z m 0,0"
               style="stroke:none"
               inkscape:connector-curvature="0" />
          </symbol>
          <symbol
             id="textext-7d354721-2"
             overflow="visible"
             style="overflow:visible">
            <path
               id="path5442"
               d="m 3.21875,-1.578125 2.140625,0 c 0.09375,0 0.25,0 0.25,-0.15625 0,-0.1875 -0.15625,-0.1875 -0.25,-0.1875 l -2.140625,0 0,-2.140625 c 0,-0.078125 0,-0.25 -0.15625,-0.25 -0.171875,0 -0.171875,0.15625 -0.171875,0.25 l 0,2.140625 -2.140625,0 c -0.09375,0 -0.265625,0 -0.265625,0.171875 0,0.171875 0.15625,0.171875 0.265625,0.171875 l 2.140625,0 0,2.140625 c 0,0.09375 0,0.265625 0.15625,0.265625 0.171875,0 0.171875,-0.171875 0.171875,-0.265625 z m 0,0"
               style="stroke:none"
               inkscape:connector-curvature="0" />
          </symbol>
          <symbol
             id="textext-7d354721-3"
             overflow="visible"
             style="overflow:visible">
            <path
               id="path5445"
               d="m 2.328125,-4.4375 c 0,-0.1875 0,-0.1875 -0.203125,-0.1875 -0.453125,0.4375 -1.078125,0.4375 -1.359375,0.4375 l 0,0.25 c 0.15625,0 0.625,0 1,-0.1875 l 0,3.546875 c 0,0.234375 0,0.328125 -0.6875,0.328125 l -0.265625,0 0,0.25 c 0.125,0 0.984375,-0.03125 1.234375,-0.03125 0.21875,0 1.09375,0.03125 1.25,0.03125 l 0,-0.25 -0.265625,0 c -0.703125,0 -0.703125,-0.09375 -0.703125,-0.328125 z m 0,0"
               style="stroke:none"
               inkscape:connector-curvature="0" />
          </symbol>
        </g>
      </defs>
      <g
         id="textext-7d354721-4">
        <g
           id="g5448"
           style="fill:#000000;fill-opacity:1">
          <use
             id="use5450"
             y="134.765"
             x="223.43201"
             xlink:href="#textext-7d354721-0"
             width="635.20203"
             height="566.55139" />
        </g>
        <g
           id="g5452"
           style="fill:#000000;fill-opacity:1">
          <use
             id="use5454"
             y="136.259"
             x="228.69"
             xlink:href="#textext-7d354721-1"
             width="635.20203"
             height="566.55139" />
        </g>
        <g
           id="g5456"
           style="fill:#000000;fill-opacity:1">
          <use
             id="use5458"
             y="136.259"
             x="231.509"
             xlink:href="#textext-7d354721-2"
             width="635.20203"
             height="566.55139" />
          <use
             id="use5460"
             y="136.259"
             x="237.62503"
             xlink:href="#textext-7d354721-3"
             width="635.20203"
             height="566.55139" />
        </g>
      </g>
    </g>
    <g
       ns0:text="$(\\phi_{i+1},\\hbox{incl.})$"
       ns0:preamble=""
       transform="matrix(3.3663788,0,0,3.3663788,-686.88632,-238.44779)"
       id="g5866">
      <defs
         id="defs5868">
        <g
           id="g5870">
          <symbol
             style="overflow:visible"
             overflow="visible"
             id="textext-fc4681e5-0">
            <path
               inkscape:connector-curvature="0"
               style="stroke:none"
               d="m 3.296875,2.390625 c 0,-0.03125 0,-0.046875 -0.171875,-0.21875 C 1.890625,0.921875 1.5625,-0.96875 1.5625,-2.5 c 0,-1.734375 0.375,-3.46875 1.609375,-4.703125 0.125,-0.125 0.125,-0.140625 0.125,-0.171875 0,-0.078125 -0.03125,-0.109375 -0.09375,-0.109375 -0.109375,0 -1,0.6875 -1.59375,1.953125 -0.5,1.09375 -0.625,2.203125 -0.625,3.03125 0,0.78125 0.109375,1.984375 0.65625,3.125 C 2.25,1.84375 3.09375,2.5 3.203125,2.5 c 0.0625,0 0.09375,-0.03125 0.09375,-0.109375 z m 0,0"
               id="path5873" />
          </symbol>
          <symbol
             style="overflow:visible"
             overflow="visible"
             id="textext-fc4681e5-1">
            <path
               inkscape:connector-curvature="0"
               style="stroke:none"
               d="M 1.765625,-4.40625 0.375,-4.296875 l 0,0.3125 c 0.640625,0 0.734375,0.0625 0.734375,0.546875 l 0,2.6875 c 0,0.4375 -0.109375,0.4375 -0.78125,0.4375 l 0,0.3125 C 0.640625,-0.015625 1.1875,-0.03125 1.421875,-0.03125 1.78125,-0.03125 2.125,-0.015625 2.46875,0 l 0,-0.3125 c -0.671875,0 -0.703125,-0.046875 -0.703125,-0.4375 z m 0.03125,-1.734375 c 0,-0.3125 -0.234375,-0.53125 -0.515625,-0.53125 -0.3125,0 -0.53125,0.265625 -0.53125,0.53125 0,0.265625 0.21875,0.53125 0.53125,0.53125 0.28125,0 0.515625,-0.21875 0.515625,-0.53125 z m 0,0"
               id="path5876" />
          </symbol>
          <symbol
             style="overflow:visible"
             overflow="visible"
             id="textext-fc4681e5-2">
            <path
               inkscape:connector-curvature="0"
               style="stroke:none"
               d="m 1.09375,-3.421875 0,2.671875 c 0,0.4375 -0.109375,0.4375 -0.78125,0.4375 l 0,0.3125 c 0.359375,-0.015625 0.859375,-0.03125 1.140625,-0.03125 0.25,0 0.765625,0.015625 1.109375,0.03125 l 0,-0.3125 c -0.671875,0 -0.78125,0 -0.78125,-0.4375 l 0,-1.84375 C 1.78125,-3.625 2.5,-4.1875 3.125,-4.1875 c 0.640625,0 0.75,0.53125 0.75,1.109375 l 0,2.328125 c 0,0.4375 -0.109375,0.4375 -0.78125,0.4375 l 0,0.3125 c 0.34375,-0.015625 0.859375,-0.03125 1.125,-0.03125 0.25,0 0.78125,0.015625 1.109375,0.03125 l 0,-0.3125 c -0.515625,0 -0.765625,0 -0.765625,-0.296875 l 0,-1.90625 c 0,-0.859375 0,-1.15625 -0.3125,-1.515625 -0.140625,-0.171875 -0.46875,-0.375 -1.046875,-0.375 C 2.46875,-4.40625 2,-3.984375 1.71875,-3.359375 l 0,-1.046875 -1.40625,0.109375 0,0.3125 c 0.703125,0 0.78125,0.0625 0.78125,0.5625 z m 0,0"
               id="path5879" />
          </symbol>
          <symbol
             style="overflow:visible"
             overflow="visible"
             id="textext-fc4681e5-3">
            <path
               inkscape:connector-curvature="0"
               style="stroke:none"
               d="m 1.171875,-2.171875 c 0,-1.625 0.8125,-2.046875 1.34375,-2.046875 0.09375,0 0.71875,0.015625 1.0625,0.375 -0.40625,0.03125 -0.46875,0.328125 -0.46875,0.453125 0,0.265625 0.1875,0.453125 0.453125,0.453125 0.265625,0 0.46875,-0.15625 0.46875,-0.46875 0,-0.671875 -0.765625,-1.0625 -1.53125,-1.0625 -1.25,0 -2.15625,1.078125 -2.15625,2.3125 0,1.28125 0.984375,2.265625 2.140625,2.265625 1.328125,0 1.65625,-1.203125 1.65625,-1.296875 0,-0.09375 -0.109375,-0.09375 -0.140625,-0.09375 -0.078125,0 -0.109375,0.03125 -0.125,0.09375 -0.28125,0.921875 -0.9375,1.046875 -1.296875,1.046875 -0.53125,0 -1.40625,-0.421875 -1.40625,-2.03125 z m 0,0"
               id="path5882" />
          </symbol>
          <symbol
             style="overflow:visible"
             overflow="visible"
             id="textext-fc4681e5-4">
            <path
               inkscape:connector-curvature="0"
               style="stroke:none"
               d="m 1.765625,-6.921875 -1.4375,0.109375 0,0.3125 c 0.703125,0 0.78125,0.0625 0.78125,0.5625 l 0,5.1875 c 0,0.4375 -0.109375,0.4375 -0.78125,0.4375 l 0,0.3125 C 0.65625,-0.015625 1.1875,-0.03125 1.4375,-0.03125 c 0.25,0 0.734375,0.015625 1.109375,0.03125 l 0,-0.3125 c -0.671875,0 -0.78125,0 -0.78125,-0.4375 z m 0,0"
               id="path5885" />
          </symbol>
          <symbol
             style="overflow:visible"
             overflow="visible"
             id="textext-fc4681e5-5">
            <path
               inkscape:connector-curvature="0"
               style="stroke:none"
               d="m 1.90625,-0.53125 c 0,-0.28125 -0.234375,-0.53125 -0.515625,-0.53125 -0.296875,0 -0.53125,0.25 -0.53125,0.53125 C 0.859375,-0.234375 1.09375,0 1.390625,0 1.671875,0 1.90625,-0.234375 1.90625,-0.53125 z m 0,0"
               id="path5888" />
          </symbol>
          <symbol
             style="overflow:visible"
             overflow="visible"
             id="textext-fc4681e5-6">
            <path
               inkscape:connector-curvature="0"
               style="stroke:none"
               d="m 2.875,-2.5 c 0,-0.765625 -0.109375,-1.96875 -0.65625,-3.109375 -0.59375,-1.21875 -1.453125,-1.875 -1.546875,-1.875 -0.0625,0 -0.109375,0.046875 -0.109375,0.109375 0,0.03125 0,0.046875 0.1875,0.234375 0.984375,0.984375 1.546875,2.5625 1.546875,4.640625 0,1.71875 -0.359375,3.46875 -1.59375,4.71875 C 0.5625,2.34375 0.5625,2.359375 0.5625,2.390625 0.5625,2.453125 0.609375,2.5 0.671875,2.5 0.765625,2.5 1.671875,1.8125 2.25,0.546875 2.765625,-0.546875 2.875,-1.65625 2.875,-2.5 z m 0,0"
               id="path5891" />
          </symbol>
          <symbol
             style="overflow:visible"
             overflow="visible"
             id="textext-fc4681e5-7">
            <path
               inkscape:connector-curvature="0"
               style="stroke:none"
               d="m 4.359375,-6.671875 c 0,-0.03125 0.03125,-0.140625 0.03125,-0.140625 0,-0.015625 0,-0.109375 -0.125,-0.109375 -0.09375,0 -0.109375,0.03125 -0.15625,0.203125 L 3.53125,-4.421875 c -1.578125,0.0625 -3.046875,1.375 -3.046875,2.734375 0,0.953125 0.703125,1.734375 1.921875,1.8125 C 2.328125,0.421875 2.25,0.75 2.171875,1.0625 c -0.125,0.46875 -0.21875,0.84375 -0.21875,0.875 0,0.09375 0.078125,0.109375 0.125,0.109375 C 2.125,2.046875 2.140625,2.03125 2.171875,2 2.1875,1.984375 2.25,1.75 2.28125,1.609375 L 2.65625,0.125 c 1.609375,-0.0625 3.0625,-1.40625 3.0625,-2.734375 0,-0.796875 -0.53125,-1.703125 -1.921875,-1.8125 z m -1.90625,6.578125 c -0.59375,-0.03125 -1.3125,-0.390625 -1.3125,-1.375 0,-1.203125 0.859375,-2.59375 2.34375,-2.734375 z m 1.28125,-4.109375 c 0.765625,0.046875 1.328125,0.5 1.328125,1.375 0,1.1875 -0.859375,2.609375 -2.34375,2.734375 z m 0,0"
               id="path5894" />
          </symbol>
          <symbol
             style="overflow:visible"
             overflow="visible"
             id="textext-fc4681e5-8">
            <path
               inkscape:connector-curvature="0"
               style="stroke:none"
               d="m 2.03125,-0.015625 c 0,-0.65625 -0.25,-1.046875 -0.640625,-1.046875 -0.328125,0 -0.53125,0.25 -0.53125,0.53125 C 0.859375,-0.265625 1.0625,0 1.390625,0 1.5,0 1.640625,-0.046875 1.734375,-0.125 1.765625,-0.15625 1.78125,-0.15625 1.78125,-0.15625 c 0.015625,0 0.015625,0 0.015625,0.140625 0,0.75 -0.34375,1.34375 -0.671875,1.671875 -0.109375,0.109375 -0.109375,0.125 -0.109375,0.15625 0,0.078125 0.046875,0.109375 0.09375,0.109375 0.109375,0 0.921875,-0.765625 0.921875,-1.9375 z m 0,0"
               id="path5897" />
          </symbol>
          <symbol
             style="overflow:visible"
             overflow="visible"
             id="textext-fc4681e5-9">
            <path
               inkscape:connector-curvature="0"
               style="stroke:none"
               d="m 2.265625,-4.359375 c 0,-0.109375 -0.09375,-0.265625 -0.28125,-0.265625 -0.1875,0 -0.390625,0.1875 -0.390625,0.390625 0,0.109375 0.078125,0.265625 0.28125,0.265625 0.1875,0 0.390625,-0.203125 0.390625,-0.390625 z M 0.84375,-0.8125 c -0.03125,0.09375 -0.0625,0.171875 -0.0625,0.296875 0,0.328125 0.265625,0.578125 0.65625,0.578125 0.6875,0 1,-0.953125 1,-1.0625 0,-0.09375 -0.09375,-0.09375 -0.109375,-0.09375 -0.09375,0 -0.109375,0.046875 -0.140625,0.125 -0.15625,0.5625 -0.453125,0.84375 -0.734375,0.84375 -0.140625,0 -0.171875,-0.09375 -0.171875,-0.25 0,-0.15625 0.046875,-0.28125 0.109375,-0.4375 C 1.46875,-1 1.546875,-1.1875 1.609375,-1.375 1.671875,-1.546875 1.9375,-2.171875 1.953125,-2.265625 1.984375,-2.328125 2,-2.40625 2,-2.484375 2,-2.8125 1.71875,-3.078125 1.34375,-3.078125 0.640625,-3.078125 0.328125,-2.125 0.328125,-2 c 0,0.078125 0.09375,0.078125 0.125,0.078125 0.09375,0 0.09375,-0.03125 0.125,-0.109375 C 0.75,-2.625 1.0625,-2.875 1.3125,-2.875 c 0.109375,0 0.171875,0.046875 0.171875,0.234375 0,0.171875 -0.03125,0.265625 -0.203125,0.703125 z m 0,0"
               id="path5900" />
          </symbol>
          <symbol
             style="overflow:visible"
             overflow="visible"
             id="textext-fc4681e5-10">
            <path
               inkscape:connector-curvature="0"
               style="stroke:none"
               d="m 3.21875,-1.578125 2.140625,0 c 0.09375,0 0.25,0 0.25,-0.15625 0,-0.1875 -0.15625,-0.1875 -0.25,-0.1875 l -2.140625,0 0,-2.140625 c 0,-0.078125 0,-0.25 -0.15625,-0.25 -0.171875,0 -0.171875,0.15625 -0.171875,0.25 l 0,2.140625 -2.140625,0 c -0.09375,0 -0.265625,0 -0.265625,0.171875 0,0.171875 0.15625,0.171875 0.265625,0.171875 l 2.140625,0 0,2.140625 c 0,0.09375 0,0.265625 0.15625,0.265625 0.171875,0 0.171875,-0.171875 0.171875,-0.265625 z m 0,0"
               id="path5903" />
          </symbol>
          <symbol
             style="overflow:visible"
             overflow="visible"
             id="textext-fc4681e5-11">
            <path
               inkscape:connector-curvature="0"
               style="stroke:none"
               d="m 2.328125,-4.4375 c 0,-0.1875 0,-0.1875 -0.203125,-0.1875 -0.453125,0.4375 -1.078125,0.4375 -1.359375,0.4375 l 0,0.25 c 0.15625,0 0.625,0 1,-0.1875 l 0,3.546875 c 0,0.234375 0,0.328125 -0.6875,0.328125 l -0.265625,0 0,0.25 c 0.125,0 0.984375,-0.03125 1.234375,-0.03125 0.21875,0 1.09375,0.03125 1.25,0.03125 l 0,-0.25 -0.265625,0 c -0.703125,0 -0.703125,-0.09375 -0.703125,-0.328125 z m 0,0"
               id="path5906" />
          </symbol>
        </g>
      </defs>
      <g
         id="textext-fc4681e5-12">
        <g
           style="fill:#000000;fill-opacity:1"
           id="g5909">
          <use
             height="566.55139"
             width="635.20203"
             xlink:href="#textext-fc4681e5-0"
             x="223.43201"
             y="134.765"
             id="use5911" />
        </g>
        <g
           style="fill:#000000;fill-opacity:1"
           id="g5913">
          <use
             height="566.55139"
             width="635.20203"
             xlink:href="#textext-fc4681e5-7"
             x="227.306"
             y="134.765"
             id="use5915" />
        </g>
        <g
           style="fill:#000000;fill-opacity:1"
           id="g5917">
          <use
             height="566.55139"
             width="635.20203"
             xlink:href="#textext-fc4681e5-9"
             x="233.243"
             y="136.259"
             id="use5919" />
        </g>
        <g
           style="fill:#000000;fill-opacity:1"
           id="g5921">
          <use
             height="566.55139"
             width="635.20203"
             xlink:href="#textext-fc4681e5-10"
             x="236.061"
             y="136.259"
             id="use5923" />
          <use
             height="566.55139"
             width="635.20203"
             xlink:href="#textext-fc4681e5-11"
             x="242.17702"
             y="136.259"
             id="use5925" />
        </g>
        <g
           style="fill:#000000;fill-opacity:1"
           id="g5927">
          <use
             height="566.55139"
             width="635.20203"
             xlink:href="#textext-fc4681e5-8"
             x="246.647"
             y="134.765"
             id="use5929" />
        </g>
        <g
           style="fill:#000000;fill-opacity:1"
           id="g5931">
          <use
             height="566.55139"
             width="635.20203"
             xlink:href="#textext-fc4681e5-1"
             x="251.07401"
             y="134.765"
             id="use5933" />
          <use
             height="566.55139"
             width="635.20203"
             xlink:href="#textext-fc4681e5-2"
             x="253.84161"
             y="134.765"
             id="use5935" />
          <use
             height="566.55139"
             width="635.20203"
             xlink:href="#textext-fc4681e5-3"
             x="259.37683"
             y="134.765"
             id="use5937" />
          <use
             height="566.55139"
             width="635.20203"
             xlink:href="#textext-fc4681e5-4"
             x="263.8042"
             y="134.765"
             id="use5939" />
          <use
             height="566.55139"
             width="635.20203"
             xlink:href="#textext-fc4681e5-5"
             x="266.57181"
             y="134.765"
             id="use5941" />
          <use
             height="566.55139"
             width="635.20203"
             xlink:href="#textext-fc4681e5-6"
             x="269.33942"
             y="134.765"
             id="use5943" />
        </g>
      </g>
    </g>
    <g
       id="g6366"
       transform="matrix(3.4663333,0,0,3.4663333,-344.15951,-335.74567)"
       ns0:preamble=""
       ns0:text="$(Prob\\hbox{, marg.})$">
      <defs
         id="defs6368">
        <g
           id="g6370">
          <symbol
             style="overflow:visible"
             id="textext-4024e339-0"
             overflow="visible">
            <path
               inkscape:connector-curvature="0"
               id="path6373"
               d="m 3.296875,2.390625 c 0,-0.03125 0,-0.046875 -0.171875,-0.21875 C 1.890625,0.921875 1.5625,-0.96875 1.5625,-2.5 c 0,-1.734375 0.375,-3.46875 1.609375,-4.703125 0.125,-0.125 0.125,-0.140625 0.125,-0.171875 0,-0.078125 -0.03125,-0.109375 -0.09375,-0.109375 -0.109375,0 -1,0.6875 -1.59375,1.953125 -0.5,1.09375 -0.625,2.203125 -0.625,3.03125 0,0.78125 0.109375,1.984375 0.65625,3.125 C 2.25,1.84375 3.09375,2.5 3.203125,2.5 c 0.0625,0 0.09375,-0.03125 0.09375,-0.109375 z m 0,0"
               style="stroke:none" />
          </symbol>
          <symbol
             style="overflow:visible"
             id="textext-4024e339-1"
             overflow="visible">
            <path
               inkscape:connector-curvature="0"
               id="path6376"
               d="m 2.03125,-0.015625 c 0,-0.625 -0.25,-1.046875 -0.640625,-1.046875 -0.359375,0 -0.53125,0.28125 -0.53125,0.53125 0,0.265625 0.171875,0.53125 0.53125,0.53125 0.15625,0 0.28125,-0.0625 0.375,-0.140625 L 1.78125,-0.15625 c 0.015625,0 0.015625,0 0.015625,0.140625 0,0.640625 -0.265625,1.25 -0.703125,1.71875 -0.0625,0.0625 -0.078125,0.078125 -0.078125,0.109375 0,0.078125 0.046875,0.109375 0.09375,0.109375 0.125,0 0.921875,-0.78125 0.921875,-1.9375 z m 0,0"
               style="stroke:none" />
          </symbol>
          <symbol
             style="overflow:visible"
             id="textext-4024e339-2"
             overflow="visible">
            <path
               inkscape:connector-curvature="0"
               id="path6379"
               d="m 1.09375,-3.421875 0,2.671875 c 0,0.4375 -0.109375,0.4375 -0.78125,0.4375 l 0,0.3125 c 0.359375,-0.015625 0.859375,-0.03125 1.140625,-0.03125 0.25,0 0.765625,0.015625 1.109375,0.03125 l 0,-0.3125 c -0.671875,0 -0.78125,0 -0.78125,-0.4375 l 0,-1.84375 C 1.78125,-3.625 2.5,-4.1875 3.125,-4.1875 c 0.640625,0 0.75,0.53125 0.75,1.109375 l 0,2.328125 c 0,0.4375 -0.109375,0.4375 -0.78125,0.4375 l 0,0.3125 c 0.34375,-0.015625 0.859375,-0.03125 1.125,-0.03125 0.25,0 0.78125,0.015625 1.109375,0.03125 l 0,-0.3125 c -0.65625,0 -0.765625,0 -0.765625,-0.4375 l 0,-1.84375 c 0,-1.03125 0.703125,-1.59375 1.34375,-1.59375 0.625,0 0.734375,0.53125 0.734375,1.109375 l 0,2.328125 c 0,0.4375 -0.109375,0.4375 -0.78125,0.4375 l 0,0.3125 c 0.34375,-0.015625 0.859375,-0.03125 1.125,-0.03125 0.265625,0 0.78125,0.015625 1.125,0.03125 l 0,-0.3125 c -0.515625,0 -0.765625,0 -0.78125,-0.296875 l 0,-1.90625 c 0,-0.859375 0,-1.15625 -0.3125,-1.515625 -0.140625,-0.171875 -0.46875,-0.375 -1.046875,-0.375 -0.828125,0 -1.28125,0.59375 -1.4375,0.984375 C 4.390625,-4.296875 3.65625,-4.40625 3.203125,-4.40625 2.46875,-4.40625 2,-3.984375 1.71875,-3.359375 l 0,-1.046875 -1.40625,0.109375 0,0.3125 c 0.703125,0 0.78125,0.0625 0.78125,0.5625 z m 0,0"
               style="stroke:none" />
          </symbol>
          <symbol
             style="overflow:visible"
             id="textext-4024e339-3"
             overflow="visible">
            <path
               inkscape:connector-curvature="0"
               id="path6382"
               d="m 3.3125,-0.75 c 0.046875,0.390625 0.3125,0.8125 0.78125,0.8125 0.21875,0 0.828125,-0.140625 0.828125,-0.953125 l 0,-0.5625 -0.25,0 0,0.5625 c 0,0.578125 -0.25,0.640625 -0.359375,0.640625 -0.328125,0 -0.375,-0.453125 -0.375,-0.5 l 0,-1.984375 c 0,-0.421875 0,-0.8125 -0.359375,-1.1875 C 3.1875,-4.3125 2.6875,-4.46875 2.21875,-4.46875 c -0.828125,0 -1.515625,0.46875 -1.515625,1.125 0,0.296875 0.203125,0.46875 0.46875,0.46875 0.28125,0 0.453125,-0.203125 0.453125,-0.453125 0,-0.125 -0.046875,-0.453125 -0.515625,-0.453125 C 1.390625,-4.140625 1.875,-4.25 2.1875,-4.25 c 0.5,0 1.0625,0.390625 1.0625,1.28125 l 0,0.359375 c -0.515625,0.03125 -1.203125,0.0625 -1.828125,0.359375 -0.75,0.34375 -1,0.859375 -1,1.296875 0,0.8125 0.96875,1.0625 1.59375,1.0625 0.65625,0 1.109375,-0.40625 1.296875,-0.859375 z M 3.25,-2.390625 l 0,1 c 0,0.9375 -0.71875,1.28125 -1.171875,1.28125 -0.484375,0 -0.890625,-0.34375 -0.890625,-0.84375 0,-0.546875 0.421875,-1.375 2.0625,-1.4375 z m 0,0"
               style="stroke:none" />
          </symbol>
          <symbol
             style="overflow:visible"
             id="textext-4024e339-4"
             overflow="visible">
            <path
               inkscape:connector-curvature="0"
               id="path6385"
               d="m 1.671875,-3.3125 0,-1.09375 -1.390625,0.109375 0,0.3125 c 0.703125,0 0.78125,0.0625 0.78125,0.5625 l 0,2.671875 c 0,0.4375 -0.109375,0.4375 -0.78125,0.4375 l 0,0.3125 c 0.390625,-0.015625 0.859375,-0.03125 1.140625,-0.03125 0.390625,0 0.859375,0 1.265625,0.03125 l 0,-0.3125 -0.21875,0 c -0.734375,0 -0.75,-0.109375 -0.75,-0.46875 l 0,-1.53125 c 0,-0.984375 0.421875,-1.875 1.171875,-1.875 0.0625,0 0.09375,0 0.109375,0.015625 -0.03125,0 -0.234375,0.125 -0.234375,0.390625 0,0.265625 0.21875,0.421875 0.4375,0.421875 0.171875,0 0.421875,-0.125 0.421875,-0.4375 0,-0.3125 -0.3125,-0.609375 -0.734375,-0.609375 -0.734375,0 -1.09375,0.671875 -1.21875,1.09375 z m 0,0"
               style="stroke:none" />
          </symbol>
          <symbol
             style="overflow:visible"
             id="textext-4024e339-5"
             overflow="visible">
            <path
               inkscape:connector-curvature="0"
               id="path6388"
               d="m 2.21875,-1.71875 c -0.875,0 -0.875,-1 -0.875,-1.21875 0,-0.265625 0.015625,-0.59375 0.15625,-0.84375 0.078125,-0.109375 0.3125,-0.390625 0.71875,-0.390625 0.859375,0 0.859375,0.984375 0.859375,1.21875 0,0.265625 0,0.59375 -0.15625,0.84375 C 2.84375,-2 2.609375,-1.71875 2.21875,-1.71875 z M 1.0625,-1.328125 c 0,-0.03125 0,-0.265625 0.15625,-0.46875 0.390625,0.28125 0.8125,0.3125 1,0.3125 0.921875,0 1.609375,-0.6875 1.609375,-1.453125 0,-0.375 -0.15625,-0.734375 -0.40625,-0.96875 C 3.78125,-4.25 4.140625,-4.296875 4.3125,-4.296875 c 0.03125,0 0.078125,0 0.109375,0.015625 C 4.3125,-4.25 4.25,-4.140625 4.25,-4.015625 c 0,0.171875 0.140625,0.28125 0.296875,0.28125 0.09375,0 0.28125,-0.0625 0.28125,-0.296875 0,-0.171875 -0.109375,-0.484375 -0.5,-0.484375 -0.203125,0 -0.640625,0.0625 -1.0625,0.46875 C 2.84375,-4.375 2.4375,-4.40625 2.21875,-4.40625 c -0.9375,0 -1.625,0.6875 -1.625,1.453125 0,0.4375 0.21875,0.8125 0.46875,1.03125 -0.125,0.140625 -0.3125,0.46875 -0.3125,0.828125 0,0.3125 0.140625,0.6875 0.453125,0.890625 -0.609375,0.15625 -0.921875,0.59375 -0.921875,0.984375 0,0.71875 0.984375,1.265625 2.203125,1.265625 1.171875,0 2.203125,-0.5 2.203125,-1.28125 0,-0.34375 -0.125,-0.859375 -0.640625,-1.140625 -0.53125,-0.265625 -1.109375,-0.265625 -1.71875,-0.265625 -0.25,0 -0.671875,0 -0.75,-0.015625 C 1.265625,-0.703125 1.0625,-1 1.0625,-1.328125 z M 2.5,1.828125 c -1.015625,0 -1.703125,-0.515625 -1.703125,-1.046875 0,-0.453125 0.375,-0.828125 0.8125,-0.84375 l 0.59375,0 c 0.859375,0 1.96875,0 1.96875,0.84375 0,0.546875 -0.703125,1.046875 -1.671875,1.046875 z m 0,0"
               style="stroke:none" />
          </symbol>
          <symbol
             style="overflow:visible"
             id="textext-4024e339-6"
             overflow="visible">
            <path
               inkscape:connector-curvature="0"
               id="path6391"
               d="m 1.90625,-0.53125 c 0,-0.28125 -0.234375,-0.53125 -0.515625,-0.53125 -0.296875,0 -0.53125,0.25 -0.53125,0.53125 C 0.859375,-0.234375 1.09375,0 1.390625,0 1.671875,0 1.90625,-0.234375 1.90625,-0.53125 z m 0,0"
               style="stroke:none" />
          </symbol>
          <symbol
             style="overflow:visible"
             id="textext-4024e339-7"
             overflow="visible">
            <path
               inkscape:connector-curvature="0"
               id="path6394"
               d="m 2.875,-2.5 c 0,-0.765625 -0.109375,-1.96875 -0.65625,-3.109375 -0.59375,-1.21875 -1.453125,-1.875 -1.546875,-1.875 -0.0625,0 -0.109375,0.046875 -0.109375,0.109375 0,0.03125 0,0.046875 0.1875,0.234375 0.984375,0.984375 1.546875,2.5625 1.546875,4.640625 0,1.71875 -0.359375,3.46875 -1.59375,4.71875 C 0.5625,2.34375 0.5625,2.359375 0.5625,2.390625 0.5625,2.453125 0.609375,2.5 0.671875,2.5 0.765625,2.5 1.671875,1.8125 2.25,0.546875 2.765625,-0.546875 2.875,-1.65625 2.875,-2.5 z m 0,0"
               style="stroke:none" />
          </symbol>
          <symbol
             style="overflow:visible"
             id="textext-4024e339-8"
             overflow="visible">
            <path
               inkscape:connector-curvature="0"
               id="path6397"
               d="m 3.015625,-3.15625 1.703125,0 c 1.40625,0 2.796875,-1.03125 2.796875,-2.140625 0,-0.78125 -0.65625,-1.515625 -1.96875,-1.515625 l -3.21875,0 c -0.1875,0 -0.296875,0 -0.296875,0.1875 0,0.125 0.078125,0.125 0.28125,0.125 0.125,0 0.3125,0.015625 0.421875,0.015625 0.171875,0.03125 0.21875,0.046875 0.21875,0.171875 0,0.03125 0,0.0625 -0.03125,0.1875 l -1.34375,5.34375 c -0.09375,0.390625 -0.109375,0.46875 -0.90625,0.46875 -0.15625,0 -0.265625,0 -0.265625,0.1875 C 0.40625,0 0.515625,0 0.546875,0 0.828125,0 1.53125,-0.03125 1.8125,-0.03125 c 0.21875,0 0.4375,0.015625 0.640625,0.015625 0.21875,0 0.4375,0.015625 0.640625,0.015625 0.078125,0 0.203125,0 0.203125,-0.203125 0,-0.109375 -0.09375,-0.109375 -0.28125,-0.109375 -0.359375,0 -0.640625,0 -0.640625,-0.171875 0,-0.0625 0.015625,-0.109375 0.03125,-0.171875 z M 3.734375,-6.125 C 3.828125,-6.46875 3.84375,-6.5 4.28125,-6.5 l 0.953125,0 c 0.828125,0 1.359375,0.265625 1.359375,0.953125 0,0.390625 -0.203125,1.25 -0.59375,1.609375 -0.5,0.453125 -1.09375,0.53125 -1.53125,0.53125 l -1.40625,0 z m 0,0"
               style="stroke:none" />
          </symbol>
          <symbol
             style="overflow:visible"
             id="textext-4024e339-9"
             overflow="visible">
            <path
               inkscape:connector-curvature="0"
               id="path6400"
               d="m 0.875,-0.59375 c -0.03125,0.15625 -0.09375,0.390625 -0.09375,0.4375 0,0.171875 0.140625,0.265625 0.296875,0.265625 0.125,0 0.296875,-0.078125 0.375,-0.28125 C 1.46875,-0.203125 1.796875,-1.5625 1.84375,-1.75 c 0.078125,-0.328125 0.265625,-1.015625 0.3125,-1.296875 0.046875,-0.125 0.328125,-0.59375 0.5625,-0.8125 0.078125,-0.0625 0.375,-0.328125 0.796875,-0.328125 0.265625,0 0.40625,0.125 0.421875,0.125 -0.296875,0.046875 -0.515625,0.28125 -0.515625,0.546875 0,0.15625 0.109375,0.34375 0.375,0.34375 0.265625,0 0.546875,-0.234375 0.546875,-0.59375 0,-0.34375 -0.3125,-0.640625 -0.828125,-0.640625 C 2.875,-4.40625 2.4375,-3.921875 2.25,-3.640625 2.15625,-4.09375 1.796875,-4.40625 1.328125,-4.40625 0.875,-4.40625 0.6875,-4.015625 0.59375,-3.84375 0.421875,-3.5 0.296875,-2.90625 0.296875,-2.875 c 0,0.109375 0.09375,0.109375 0.109375,0.109375 0.109375,0 0.109375,-0.015625 0.171875,-0.234375 0.171875,-0.703125 0.375,-1.1875 0.734375,-1.1875 0.15625,0 0.296875,0.078125 0.296875,0.453125 0,0.21875 -0.03125,0.328125 -0.15625,0.84375 z m 0,0"
               style="stroke:none" />
          </symbol>
          <symbol
             style="overflow:visible"
             id="textext-4024e339-10"
             overflow="visible">
            <path
               inkscape:connector-curvature="0"
               id="path6403"
               d="m 4.671875,-2.71875 c 0,-1.046875 -0.6875,-1.6875 -1.59375,-1.6875 -1.328125,0 -2.671875,1.421875 -2.671875,2.828125 0,0.984375 0.671875,1.6875 1.59375,1.6875 1.328125,0 2.671875,-1.375 2.671875,-2.828125 z m -2.65625,2.609375 c -0.4375,0 -0.875,-0.3125 -0.875,-1.09375 0,-0.484375 0.265625,-1.5625 0.578125,-2.0625 0.5,-0.765625 1.078125,-0.921875 1.359375,-0.921875 0.578125,0 0.875,0.484375 0.875,1.078125 0,0.390625 -0.203125,1.4375 -0.578125,2.078125 -0.359375,0.578125 -0.90625,0.921875 -1.359375,0.921875 z m 0,0"
               style="stroke:none" />
          </symbol>
          <symbol
             style="overflow:visible"
             id="textext-4024e339-11"
             overflow="visible">
            <path
               inkscape:connector-curvature="0"
               id="path6406"
               d="m 2.375,-6.8125 c 0,0 0,-0.109375 -0.125,-0.109375 -0.21875,0 -0.953125,0.078125 -1.21875,0.109375 -0.078125,0 -0.1875,0.015625 -0.1875,0.1875 0,0.125 0.09375,0.125 0.25,0.125 0.46875,0 0.484375,0.0625 0.484375,0.171875 0,0.0625 -0.078125,0.40625 -0.125,0.609375 l -0.828125,3.25 c -0.109375,0.5 -0.15625,0.671875 -0.15625,1.015625 0,0.9375 0.53125,1.5625 1.265625,1.5625 1.171875,0 2.40625,-1.484375 2.40625,-2.921875 0,-0.90625 -0.53125,-1.59375 -1.328125,-1.59375 -0.453125,0 -0.875,0.296875 -1.171875,0.59375 z M 1.453125,-3.046875 C 1.5,-3.265625 1.5,-3.28125 1.59375,-3.390625 2.078125,-4.03125 2.53125,-4.1875 2.796875,-4.1875 c 0.359375,0 0.625,0.296875 0.625,0.9375 0,0.59375 -0.328125,1.734375 -0.515625,2.109375 -0.328125,0.671875 -0.78125,1.03125 -1.171875,1.03125 -0.34375,0 -0.671875,-0.265625 -0.671875,-1 0,-0.203125 0,-0.390625 0.15625,-1.015625 z m 0,0"
               style="stroke:none" />
          </symbol>
        </g>
      </defs>
      <g
         id="textext-4024e339-12">
        <g
           id="g6409"
           style="fill:#000000;fill-opacity:1">
          <use
             height="566.55139"
             width="635.20203"
             id="use6411"
             y="134.765"
             x="223.43201"
             xlink:href="#textext-4024e339-0" />
        </g>
        <g
           id="g6413"
           style="fill:#000000;fill-opacity:1">
          <use
             height="566.55139"
             width="635.20203"
             id="use6415"
             y="134.765"
             x="227.306"
             xlink:href="#textext-4024e339-8" />
        </g>
        <g
           id="g6417"
           style="fill:#000000;fill-opacity:1">
          <use
             height="566.55139"
             width="635.20203"
             id="use6419"
             y="134.765"
             x="235.08679"
             xlink:href="#textext-4024e339-9" />
        </g>
        <g
           id="g6421"
           style="fill:#000000;fill-opacity:1">
          <use
             height="566.55139"
             width="635.20203"
             id="use6423"
             y="134.765"
             x="239.86087"
             xlink:href="#textext-4024e339-10" />
          <use
             height="566.55139"
             width="635.20203"
             id="use6425"
             y="134.765"
             x="244.68974"
             xlink:href="#textext-4024e339-11" />
        </g>
        <g
           id="g6427"
           style="fill:#000000;fill-opacity:1">
          <use
             height="566.55139"
             width="635.20203"
             id="use6429"
             y="134.765"
             x="248.963"
             xlink:href="#textext-4024e339-1" />
        </g>
        <g
           id="g6431"
           style="fill:#000000;fill-opacity:1">
          <use
             height="566.55139"
             width="635.20203"
             id="use6433"
             y="134.765"
             x="255.04816"
             xlink:href="#textext-4024e339-2" />
          <use
             height="566.55139"
             width="635.20203"
             id="use6435"
             y="134.765"
             x="263.35001"
             xlink:href="#textext-4024e339-3" />
          <use
             height="566.55139"
             width="635.20203"
             id="use6437"
             y="134.765"
             x="268.3313"
             xlink:href="#textext-4024e339-4" />
          <use
             height="566.55139"
             width="635.20203"
             id="use6439"
             y="134.765"
             x="272.23364"
             xlink:href="#textext-4024e339-5" />
          <use
             height="566.55139"
             width="635.20203"
             id="use6441"
             y="134.765"
             x="277.21494"
             xlink:href="#textext-4024e339-6" />
          <use
             height="566.55139"
             width="635.20203"
             id="use6443"
             y="134.765"
             x="279.98254"
             xlink:href="#textext-4024e339-7" />
        </g>
      </g>
    </g>
    <g
       ns0:text="$\\mathcal{D}_i$"
       ns0:preamble=""
       transform="matrix(4.4736636,0,0,4.4736636,-475.50419,-352.53777)"
       id="g6909">
      <defs
         id="defs6911">
        <g
           id="g6913">
          <symbol
             style="overflow:visible"
             overflow="visible"
             id="textext-fe16b5d4-0">
            <path
               inkscape:connector-curvature="0"
               style="stroke:none"
               d="m 2.03125,0 c 2.328125,0 5.609375,-1.78125 5.609375,-4.5 0,-0.890625 -0.421875,-1.4375 -0.90625,-1.75 C 5.875,-6.8125 4.953125,-6.8125 4,-6.8125 c -0.84375,0 -1.4375,0 -2.28125,0.359375 -1.3125,0.59375 -1.515625,1.421875 -1.515625,1.5 0,0.0625 0.046875,0.078125 0.109375,0.078125 0.15625,0 0.390625,-0.140625 0.46875,-0.1875 0.203125,-0.140625 0.234375,-0.203125 0.296875,-0.390625 0.140625,-0.40625 0.421875,-0.75 1.671875,-0.8125 -0.15625,2.09375 -0.671875,4 -1.359375,5.734375 -0.375,0.125 -0.609375,0.359375 -0.609375,0.46875 C 0.78125,-0.015625 0.78125,0 1,0 z m 0.046875,-0.546875 c 1.140625,-2.78125 1.34375,-4.515625 1.484375,-5.71875 0.671875,0 3.21875,0 3.21875,2.203125 0,1.953125 -1.75,3.515625 -4.15625,3.515625 z m 0,0"
               id="path6916" />
          </symbol>
          <symbol
             style="overflow:visible"
             overflow="visible"
             id="textext-fe16b5d4-1">
            <path
               inkscape:connector-curvature="0"
               style="stroke:none"
               d="m 2.265625,-4.359375 c 0,-0.109375 -0.09375,-0.265625 -0.28125,-0.265625 -0.1875,0 -0.390625,0.1875 -0.390625,0.390625 0,0.109375 0.078125,0.265625 0.28125,0.265625 0.1875,0 0.390625,-0.203125 0.390625,-0.390625 z M 0.84375,-0.8125 c -0.03125,0.09375 -0.0625,0.171875 -0.0625,0.296875 0,0.328125 0.265625,0.578125 0.65625,0.578125 0.6875,0 1,-0.953125 1,-1.0625 0,-0.09375 -0.09375,-0.09375 -0.109375,-0.09375 -0.09375,0 -0.109375,0.046875 -0.140625,0.125 -0.15625,0.5625 -0.453125,0.84375 -0.734375,0.84375 -0.140625,0 -0.171875,-0.09375 -0.171875,-0.25 0,-0.15625 0.046875,-0.28125 0.109375,-0.4375 C 1.46875,-1 1.546875,-1.1875 1.609375,-1.375 1.671875,-1.546875 1.9375,-2.171875 1.953125,-2.265625 1.984375,-2.328125 2,-2.40625 2,-2.484375 2,-2.8125 1.71875,-3.078125 1.34375,-3.078125 0.640625,-3.078125 0.328125,-2.125 0.328125,-2 c 0,0.078125 0.09375,0.078125 0.125,0.078125 0.09375,0 0.09375,-0.03125 0.125,-0.109375 C 0.75,-2.625 1.0625,-2.875 1.3125,-2.875 c 0.109375,0 0.171875,0.046875 0.171875,0.234375 0,0.171875 -0.03125,0.265625 -0.203125,0.703125 z m 0,0"
               id="path6919" />
          </symbol>
        </g>
      </defs>
      <g
         id="textext-fe16b5d4-2">
        <g
           style="fill:#000000;fill-opacity:1"
           id="g6922">
          <use
             height="566.55139"
             width="635.20203"
             xlink:href="#textext-fe16b5d4-0"
             x="223.43201"
             y="134.765"
             id="use6924" />
        </g>
        <g
           style="fill:#000000;fill-opacity:1"
           id="g6926">
          <use
             height="566.55139"
             width="635.20203"
             xlink:href="#textext-fe16b5d4-1"
             x="231.117"
             y="136.259"
             id="use6928" />
        </g>
      </g>
    </g>
    <g
       id="g7434"
       transform="matrix(4.4736636,0,0,4.4736636,-768.50419,-527.53777)"
       ns0:preamble=""
       ns0:text="$\\mathcal{D}_{i+1}$">
      <defs
         id="defs7436">
        <g
           id="g7438">
          <symbol
             id="textext-618c504c-0"
             overflow="visible"
             style="overflow:visible">
            <path
               id="path7441"
               d="m 2.03125,0 c 2.328125,0 5.609375,-1.78125 5.609375,-4.5 0,-0.890625 -0.421875,-1.4375 -0.90625,-1.75 C 5.875,-6.8125 4.953125,-6.8125 4,-6.8125 c -0.84375,0 -1.4375,0 -2.28125,0.359375 -1.3125,0.59375 -1.515625,1.421875 -1.515625,1.5 0,0.0625 0.046875,0.078125 0.109375,0.078125 0.15625,0 0.390625,-0.140625 0.46875,-0.1875 0.203125,-0.140625 0.234375,-0.203125 0.296875,-0.390625 0.140625,-0.40625 0.421875,-0.75 1.671875,-0.8125 -0.15625,2.09375 -0.671875,4 -1.359375,5.734375 -0.375,0.125 -0.609375,0.359375 -0.609375,0.46875 C 0.78125,-0.015625 0.78125,0 1,0 z m 0.046875,-0.546875 c 1.140625,-2.78125 1.34375,-4.515625 1.484375,-5.71875 0.671875,0 3.21875,0 3.21875,2.203125 0,1.953125 -1.75,3.515625 -4.15625,3.515625 z m 0,0"
               style="stroke:none"
               inkscape:connector-curvature="0" />
          </symbol>
          <symbol
             id="textext-618c504c-1"
             overflow="visible"
             style="overflow:visible">
            <path
               id="path7444"
               d="m 2.265625,-4.359375 c 0,-0.109375 -0.09375,-0.265625 -0.28125,-0.265625 -0.1875,0 -0.390625,0.1875 -0.390625,0.390625 0,0.109375 0.078125,0.265625 0.28125,0.265625 0.1875,0 0.390625,-0.203125 0.390625,-0.390625 z M 0.84375,-0.8125 c -0.03125,0.09375 -0.0625,0.171875 -0.0625,0.296875 0,0.328125 0.265625,0.578125 0.65625,0.578125 0.6875,0 1,-0.953125 1,-1.0625 0,-0.09375 -0.09375,-0.09375 -0.109375,-0.09375 -0.09375,0 -0.109375,0.046875 -0.140625,0.125 -0.15625,0.5625 -0.453125,0.84375 -0.734375,0.84375 -0.140625,0 -0.171875,-0.09375 -0.171875,-0.25 0,-0.15625 0.046875,-0.28125 0.109375,-0.4375 C 1.46875,-1 1.546875,-1.1875 1.609375,-1.375 1.671875,-1.546875 1.9375,-2.171875 1.953125,-2.265625 1.984375,-2.328125 2,-2.40625 2,-2.484375 2,-2.8125 1.71875,-3.078125 1.34375,-3.078125 0.640625,-3.078125 0.328125,-2.125 0.328125,-2 c 0,0.078125 0.09375,0.078125 0.125,0.078125 0.09375,0 0.09375,-0.03125 0.125,-0.109375 C 0.75,-2.625 1.0625,-2.875 1.3125,-2.875 c 0.109375,0 0.171875,0.046875 0.171875,0.234375 0,0.171875 -0.03125,0.265625 -0.203125,0.703125 z m 0,0"
               style="stroke:none"
               inkscape:connector-curvature="0" />
          </symbol>
          <symbol
             id="textext-618c504c-2"
             overflow="visible"
             style="overflow:visible">
            <path
               id="path7447"
               d="m 3.21875,-1.578125 2.140625,0 c 0.09375,0 0.25,0 0.25,-0.15625 0,-0.1875 -0.15625,-0.1875 -0.25,-0.1875 l -2.140625,0 0,-2.140625 c 0,-0.078125 0,-0.25 -0.15625,-0.25 -0.171875,0 -0.171875,0.15625 -0.171875,0.25 l 0,2.140625 -2.140625,0 c -0.09375,0 -0.265625,0 -0.265625,0.171875 0,0.171875 0.15625,0.171875 0.265625,0.171875 l 2.140625,0 0,2.140625 c 0,0.09375 0,0.265625 0.15625,0.265625 0.171875,0 0.171875,-0.171875 0.171875,-0.265625 z m 0,0"
               style="stroke:none"
               inkscape:connector-curvature="0" />
          </symbol>
          <symbol
             id="textext-618c504c-3"
             overflow="visible"
             style="overflow:visible">
            <path
               id="path7450"
               d="m 2.328125,-4.4375 c 0,-0.1875 0,-0.1875 -0.203125,-0.1875 -0.453125,0.4375 -1.078125,0.4375 -1.359375,0.4375 l 0,0.25 c 0.15625,0 0.625,0 1,-0.1875 l 0,3.546875 c 0,0.234375 0,0.328125 -0.6875,0.328125 l -0.265625,0 0,0.25 c 0.125,0 0.984375,-0.03125 1.234375,-0.03125 0.21875,0 1.09375,0.03125 1.25,0.03125 l 0,-0.25 -0.265625,0 c -0.703125,0 -0.703125,-0.09375 -0.703125,-0.328125 z m 0,0"
               style="stroke:none"
               inkscape:connector-curvature="0" />
          </symbol>
        </g>
      </defs>
      <g
         id="textext-618c504c-4">
        <g
           id="g7453"
           style="fill:#000000;fill-opacity:1">
          <use
             id="use7455"
             y="134.765"
             x="223.43201"
             xlink:href="#textext-618c504c-0"
             width="635.20203"
             height="566.55139" />
        </g>
        <g
           id="g7457"
           style="fill:#000000;fill-opacity:1">
          <use
             id="use7459"
             y="136.259"
             x="231.117"
             xlink:href="#textext-618c504c-1"
             width="635.20203"
             height="566.55139" />
        </g>
        <g
           id="g7461"
           style="fill:#000000;fill-opacity:1">
          <use
             id="use7463"
             y="136.259"
             x="233.936"
             xlink:href="#textext-618c504c-2"
             width="635.20203"
             height="566.55139" />
          <use
             id="use7465"
             y="136.259"
             x="240.05202"
             xlink:href="#textext-618c504c-3"
             width="635.20203"
             height="566.55139" />
        </g>
      </g>
    </g>
    <g
       ns0:text="$\\cdots$"
       ns0:preamble=""
       transform="matrix(7.4030667,0,0,7.4030667,-1683.5441,-686.4848)"
       id="g8023">
      <defs
         id="defs8025">
        <g
           id="g8027">
          <symbol
             style="overflow:visible"
             overflow="visible"
             id="textext-fbf03e71-0">
            <path
               inkscape:connector-curvature="0"
               style="stroke:none"
               d="m 1.90625,-2.5 c 0,-0.28125 -0.234375,-0.515625 -0.515625,-0.515625 -0.296875,0 -0.53125,0.234375 -0.53125,0.515625 0,0.296875 0.234375,0.53125 0.53125,0.53125 0.28125,0 0.515625,-0.234375 0.515625,-0.53125 z m 0,0"
               id="path8030" />
          </symbol>
        </g>
      </defs>
      <g
         id="textext-fbf03e71-1">
        <g
           style="fill:#000000;fill-opacity:1"
           id="g8033">
          <use
             height="566.55139"
             width="635.20203"
             xlink:href="#textext-fbf03e71-0"
             x="223.43201"
             y="134.765"
             id="use8035" />
        </g>
        <g
           style="fill:#000000;fill-opacity:1"
           id="g8037">
          <use
             height="566.55139"
             width="635.20203"
             xlink:href="#textext-fbf03e71-0"
             x="227.86336"
             y="134.765"
             id="use8039" />
        </g>
        <g
           style="fill:#000000;fill-opacity:1"
           id="g8041">
          <use
             height="566.55139"
             width="635.20203"
             xlink:href="#textext-fbf03e71-0"
             x="232.28476"
             y="134.765"
             id="use8043" />
        </g>
      </g>
    </g>
    <g
       id="g8771"
       transform="matrix(3.3663788,0,0,3.3663788,-462.02374,-77.104404)"
       ns0:preamble=""
       ns0:text="$(\\phi_{i},\\hbox{incl.})$">
      <defs
         id="defs8773">
        <g
           id="g8775">
          <symbol
             id="textext-9e068b2b-0"
             overflow="visible"
             style="overflow:visible">
            <path
               id="path8778"
               d="m 3.296875,2.390625 c 0,-0.03125 0,-0.046875 -0.171875,-0.21875 C 1.890625,0.921875 1.5625,-0.96875 1.5625,-2.5 c 0,-1.734375 0.375,-3.46875 1.609375,-4.703125 0.125,-0.125 0.125,-0.140625 0.125,-0.171875 0,-0.078125 -0.03125,-0.109375 -0.09375,-0.109375 -0.109375,0 -1,0.6875 -1.59375,1.953125 -0.5,1.09375 -0.625,2.203125 -0.625,3.03125 0,0.78125 0.109375,1.984375 0.65625,3.125 C 2.25,1.84375 3.09375,2.5 3.203125,2.5 c 0.0625,0 0.09375,-0.03125 0.09375,-0.109375 z m 0,0"
               style="stroke:none"
               inkscape:connector-curvature="0" />
          </symbol>
          <symbol
             id="textext-9e068b2b-1"
             overflow="visible"
             style="overflow:visible">
            <path
               id="path8781"
               d="M 1.765625,-4.40625 0.375,-4.296875 l 0,0.3125 c 0.640625,0 0.734375,0.0625 0.734375,0.546875 l 0,2.6875 c 0,0.4375 -0.109375,0.4375 -0.78125,0.4375 l 0,0.3125 C 0.640625,-0.015625 1.1875,-0.03125 1.421875,-0.03125 1.78125,-0.03125 2.125,-0.015625 2.46875,0 l 0,-0.3125 c -0.671875,0 -0.703125,-0.046875 -0.703125,-0.4375 z m 0.03125,-1.734375 c 0,-0.3125 -0.234375,-0.53125 -0.515625,-0.53125 -0.3125,0 -0.53125,0.265625 -0.53125,0.53125 0,0.265625 0.21875,0.53125 0.53125,0.53125 0.28125,0 0.515625,-0.21875 0.515625,-0.53125 z m 0,0"
               style="stroke:none"
               inkscape:connector-curvature="0" />
          </symbol>
          <symbol
             id="textext-9e068b2b-2"
             overflow="visible"
             style="overflow:visible">
            <path
               id="path8784"
               d="m 1.09375,-3.421875 0,2.671875 c 0,0.4375 -0.109375,0.4375 -0.78125,0.4375 l 0,0.3125 c 0.359375,-0.015625 0.859375,-0.03125 1.140625,-0.03125 0.25,0 0.765625,0.015625 1.109375,0.03125 l 0,-0.3125 c -0.671875,0 -0.78125,0 -0.78125,-0.4375 l 0,-1.84375 C 1.78125,-3.625 2.5,-4.1875 3.125,-4.1875 c 0.640625,0 0.75,0.53125 0.75,1.109375 l 0,2.328125 c 0,0.4375 -0.109375,0.4375 -0.78125,0.4375 l 0,0.3125 c 0.34375,-0.015625 0.859375,-0.03125 1.125,-0.03125 0.25,0 0.78125,0.015625 1.109375,0.03125 l 0,-0.3125 c -0.515625,0 -0.765625,0 -0.765625,-0.296875 l 0,-1.90625 c 0,-0.859375 0,-1.15625 -0.3125,-1.515625 -0.140625,-0.171875 -0.46875,-0.375 -1.046875,-0.375 C 2.46875,-4.40625 2,-3.984375 1.71875,-3.359375 l 0,-1.046875 -1.40625,0.109375 0,0.3125 c 0.703125,0 0.78125,0.0625 0.78125,0.5625 z m 0,0"
               style="stroke:none"
               inkscape:connector-curvature="0" />
          </symbol>
          <symbol
             id="textext-9e068b2b-3"
             overflow="visible"
             style="overflow:visible">
            <path
               id="path8787"
               d="m 1.171875,-2.171875 c 0,-1.625 0.8125,-2.046875 1.34375,-2.046875 0.09375,0 0.71875,0.015625 1.0625,0.375 -0.40625,0.03125 -0.46875,0.328125 -0.46875,0.453125 0,0.265625 0.1875,0.453125 0.453125,0.453125 0.265625,0 0.46875,-0.15625 0.46875,-0.46875 0,-0.671875 -0.765625,-1.0625 -1.53125,-1.0625 -1.25,0 -2.15625,1.078125 -2.15625,2.3125 0,1.28125 0.984375,2.265625 2.140625,2.265625 1.328125,0 1.65625,-1.203125 1.65625,-1.296875 0,-0.09375 -0.109375,-0.09375 -0.140625,-0.09375 -0.078125,0 -0.109375,0.03125 -0.125,0.09375 -0.28125,0.921875 -0.9375,1.046875 -1.296875,1.046875 -0.53125,0 -1.40625,-0.421875 -1.40625,-2.03125 z m 0,0"
               style="stroke:none"
               inkscape:connector-curvature="0" />
          </symbol>
          <symbol
             id="textext-9e068b2b-4"
             overflow="visible"
             style="overflow:visible">
            <path
               id="path8790"
               d="m 1.765625,-6.921875 -1.4375,0.109375 0,0.3125 c 0.703125,0 0.78125,0.0625 0.78125,0.5625 l 0,5.1875 c 0,0.4375 -0.109375,0.4375 -0.78125,0.4375 l 0,0.3125 C 0.65625,-0.015625 1.1875,-0.03125 1.4375,-0.03125 c 0.25,0 0.734375,0.015625 1.109375,0.03125 l 0,-0.3125 c -0.671875,0 -0.78125,0 -0.78125,-0.4375 z m 0,0"
               style="stroke:none"
               inkscape:connector-curvature="0" />
          </symbol>
          <symbol
             id="textext-9e068b2b-5"
             overflow="visible"
             style="overflow:visible">
            <path
               id="path8793"
               d="m 1.90625,-0.53125 c 0,-0.28125 -0.234375,-0.53125 -0.515625,-0.53125 -0.296875,0 -0.53125,0.25 -0.53125,0.53125 C 0.859375,-0.234375 1.09375,0 1.390625,0 1.671875,0 1.90625,-0.234375 1.90625,-0.53125 z m 0,0"
               style="stroke:none"
               inkscape:connector-curvature="0" />
          </symbol>
          <symbol
             id="textext-9e068b2b-6"
             overflow="visible"
             style="overflow:visible">
            <path
               id="path8796"
               d="m 2.875,-2.5 c 0,-0.765625 -0.109375,-1.96875 -0.65625,-3.109375 -0.59375,-1.21875 -1.453125,-1.875 -1.546875,-1.875 -0.0625,0 -0.109375,0.046875 -0.109375,0.109375 0,0.03125 0,0.046875 0.1875,0.234375 0.984375,0.984375 1.546875,2.5625 1.546875,4.640625 0,1.71875 -0.359375,3.46875 -1.59375,4.71875 C 0.5625,2.34375 0.5625,2.359375 0.5625,2.390625 0.5625,2.453125 0.609375,2.5 0.671875,2.5 0.765625,2.5 1.671875,1.8125 2.25,0.546875 2.765625,-0.546875 2.875,-1.65625 2.875,-2.5 z m 0,0"
               style="stroke:none"
               inkscape:connector-curvature="0" />
          </symbol>
          <symbol
             id="textext-9e068b2b-7"
             overflow="visible"
             style="overflow:visible">
            <path
               id="path8799"
               d="m 4.359375,-6.671875 c 0,-0.03125 0.03125,-0.140625 0.03125,-0.140625 0,-0.015625 0,-0.109375 -0.125,-0.109375 -0.09375,0 -0.109375,0.03125 -0.15625,0.203125 L 3.53125,-4.421875 c -1.578125,0.0625 -3.046875,1.375 -3.046875,2.734375 0,0.953125 0.703125,1.734375 1.921875,1.8125 C 2.328125,0.421875 2.25,0.75 2.171875,1.0625 c -0.125,0.46875 -0.21875,0.84375 -0.21875,0.875 0,0.09375 0.078125,0.109375 0.125,0.109375 C 2.125,2.046875 2.140625,2.03125 2.171875,2 2.1875,1.984375 2.25,1.75 2.28125,1.609375 L 2.65625,0.125 c 1.609375,-0.0625 3.0625,-1.40625 3.0625,-2.734375 0,-0.796875 -0.53125,-1.703125 -1.921875,-1.8125 z m -1.90625,6.578125 c -0.59375,-0.03125 -1.3125,-0.390625 -1.3125,-1.375 0,-1.203125 0.859375,-2.59375 2.34375,-2.734375 z m 1.28125,-4.109375 c 0.765625,0.046875 1.328125,0.5 1.328125,1.375 0,1.1875 -0.859375,2.609375 -2.34375,2.734375 z m 0,0"
               style="stroke:none"
               inkscape:connector-curvature="0" />
          </symbol>
          <symbol
             id="textext-9e068b2b-8"
             overflow="visible"
             style="overflow:visible">
            <path
               id="path8802"
               d="m 2.03125,-0.015625 c 0,-0.65625 -0.25,-1.046875 -0.640625,-1.046875 -0.328125,0 -0.53125,0.25 -0.53125,0.53125 C 0.859375,-0.265625 1.0625,0 1.390625,0 1.5,0 1.640625,-0.046875 1.734375,-0.125 1.765625,-0.15625 1.78125,-0.15625 1.78125,-0.15625 c 0.015625,0 0.015625,0 0.015625,0.140625 0,0.75 -0.34375,1.34375 -0.671875,1.671875 -0.109375,0.109375 -0.109375,0.125 -0.109375,0.15625 0,0.078125 0.046875,0.109375 0.09375,0.109375 0.109375,0 0.921875,-0.765625 0.921875,-1.9375 z m 0,0"
               style="stroke:none"
               inkscape:connector-curvature="0" />
          </symbol>
          <symbol
             id="textext-9e068b2b-9"
             overflow="visible"
             style="overflow:visible">
            <path
               id="path8805"
               d="m 2.265625,-4.359375 c 0,-0.109375 -0.09375,-0.265625 -0.28125,-0.265625 -0.1875,0 -0.390625,0.1875 -0.390625,0.390625 0,0.109375 0.078125,0.265625 0.28125,0.265625 0.1875,0 0.390625,-0.203125 0.390625,-0.390625 z M 0.84375,-0.8125 c -0.03125,0.09375 -0.0625,0.171875 -0.0625,0.296875 0,0.328125 0.265625,0.578125 0.65625,0.578125 0.6875,0 1,-0.953125 1,-1.0625 0,-0.09375 -0.09375,-0.09375 -0.109375,-0.09375 -0.09375,0 -0.109375,0.046875 -0.140625,0.125 -0.15625,0.5625 -0.453125,0.84375 -0.734375,0.84375 -0.140625,0 -0.171875,-0.09375 -0.171875,-0.25 0,-0.15625 0.046875,-0.28125 0.109375,-0.4375 C 1.46875,-1 1.546875,-1.1875 1.609375,-1.375 1.671875,-1.546875 1.9375,-2.171875 1.953125,-2.265625 1.984375,-2.328125 2,-2.40625 2,-2.484375 2,-2.8125 1.71875,-3.078125 1.34375,-3.078125 0.640625,-3.078125 0.328125,-2.125 0.328125,-2 c 0,0.078125 0.09375,0.078125 0.125,0.078125 0.09375,0 0.09375,-0.03125 0.125,-0.109375 C 0.75,-2.625 1.0625,-2.875 1.3125,-2.875 c 0.109375,0 0.171875,0.046875 0.171875,0.234375 0,0.171875 -0.03125,0.265625 -0.203125,0.703125 z m 0,0"
               style="stroke:none"
               inkscape:connector-curvature="0" />
          </symbol>
        </g>
      </defs>
      <g
         id="textext-9e068b2b-10">
        <g
           id="g8808"
           style="fill:#000000;fill-opacity:1">
          <use
             id="use8810"
             y="134.765"
             x="223.43201"
             xlink:href="#textext-9e068b2b-0"
             width="716.03778"
             height="566.55139" />
        </g>
        <g
           id="g8812"
           style="fill:#000000;fill-opacity:1">
          <use
             id="use8814"
             y="134.765"
             x="227.306"
             xlink:href="#textext-9e068b2b-7"
             width="716.03778"
             height="566.55139" />
        </g>
        <g
           id="g8816"
           style="fill:#000000;fill-opacity:1">
          <use
             id="use8818"
             y="136.259"
             x="233.243"
             xlink:href="#textext-9e068b2b-9"
             width="716.03778"
             height="566.55139" />
        </g>
        <g
           id="g8820"
           style="fill:#000000;fill-opacity:1">
          <use
             id="use8822"
             y="134.765"
             x="236.55901"
             xlink:href="#textext-9e068b2b-8"
             width="716.03778"
             height="566.55139" />
        </g>
        <g
           id="g8824"
           style="fill:#000000;fill-opacity:1">
          <use
             id="use8826"
             y="134.765"
             x="240.987"
             xlink:href="#textext-9e068b2b-1"
             width="716.03778"
             height="566.55139" />
          <use
             id="use8828"
             y="134.765"
             x="243.75461"
             xlink:href="#textext-9e068b2b-2"
             width="716.03778"
             height="566.55139" />
          <use
             id="use8830"
             y="134.765"
             x="249.28983"
             xlink:href="#textext-9e068b2b-3"
             width="716.03778"
             height="566.55139" />
          <use
             id="use8832"
             y="134.765"
             x="253.71721"
             xlink:href="#textext-9e068b2b-4"
             width="716.03778"
             height="566.55139" />
          <use
             id="use8834"
             y="134.765"
             x="256.48483"
             xlink:href="#textext-9e068b2b-5"
             width="716.03778"
             height="566.55139" />
          <use
             id="use8836"
             y="134.765"
             x="259.25244"
             xlink:href="#textext-9e068b2b-6"
             width="716.03778"
             height="566.55139" />
        </g>
      </g>
    </g>
  </g>
</svg>
