<?xml version="1.0" encoding="UTF-8" standalone="no"?>
<!-- Created with Inkscape (http://www.inkscape.org/) -->

<svg
   xmlns:ns0="http://www.iki.fi/pav/software/textext/"
   xmlns:dc="http://purl.org/dc/elements/1.1/"
   xmlns:cc="http://creativecommons.org/ns#"
   xmlns:rdf="http://www.w3.org/1999/02/22-rdf-syntax-ns#"
   xmlns:svg="http://www.w3.org/2000/svg"
   xmlns="http://www.w3.org/2000/svg"
   xmlns:xlink="http://www.w3.org/1999/xlink"
   xmlns:sodipodi="http://sodipodi.sourceforge.net/DTD/sodipodi-0.dtd"
   xmlns:inkscape="http://www.inkscape.org/namespaces/inkscape"
   width="932.17743"
   height="1185.3512"
   id="svg2"
   version="1.1"
   inkscape:version="0.48.3.1 r9886"
   sodipodi:docname="condmargprobspaces.svg">
  <sodipodi:namedview
     id="base"
     pagecolor="#ffffff"
     bordercolor="#666666"
     borderopacity="1.0"
     inkscape:pageopacity="0.0"
     inkscape:pageshadow="2"
     inkscape:zoom="0.5036482"
     inkscape:cx="466.08871"
     inkscape:cy="592.6756"
     inkscape:document-units="px"
     inkscape:current-layer="layer1"
     showgrid="false"
     fit-margin-top="10"
     fit-margin-left="10"
     fit-margin-right="10"
     fit-margin-bottom="10"
     inkscape:window-width="1317"
     inkscape:window-height="744"
     inkscape:window-x="49"
     inkscape:window-y="24"
     inkscape:window-maximized="1" />
  <defs
     id="defs4" />
  <metadata
     id="metadata7">
    <rdf:RDF>
      <cc:Work
         rdf:about="">
        <dc:format>image/svg+xml</dc:format>
        <dc:type
           rdf:resource="http://purl.org/dc/dcmitype/StillImage" />
        <dc:title></dc:title>
      </cc:Work>
    </rdf:RDF>
  </metadata>
  <g
     transform="translate(84.442462,-139.4577)"
     id="layer1"
     inkscape:groupmode="layer"
     inkscape:label="Layer 1">
    <rect
       transform="matrix(0.71382006,-0.70032915,0.70032915,0.71382006,0,0)"
       ry="7.3128428"
       y="376.93384"
       x="-29.119179"
       height="202.953"
       width="200.67741"
       id="rect2985"
       style="fill:none;stroke:#95a5a6;stroke-width:5;stroke-miterlimit:4;stroke-dasharray:none;stroke-opacity:1" />
    <path
       transform="translate(2.4844971,-0.836089)"
       d="m 481.23095,741.23669 c 0,54.03149 -43.80118,97.83267 -97.83267,97.83267 -54.03148,0 -97.83266,-43.80118 -97.83266,-97.83267 0,-54.03148 43.80118,-97.83266 97.83266,-97.83266 54.03149,0 97.83267,43.80118 97.83267,97.83266 z"
       sodipodi:ry="97.832664"
       sodipodi:rx="97.832664"
       sodipodi:cy="741.23669"
       sodipodi:cx="383.39828"
       id="path3755"
       style="fill:none;stroke:#000000;stroke-width:5;stroke-miterlimit:4;stroke-opacity:1;stroke-dasharray:none;stroke-dashoffset:0"
       sodipodi:type="arc" />
    <rect
       style="fill:none;stroke:#bdc3c7;stroke-width:5;stroke-miterlimit:4;stroke-dasharray:none;stroke-opacity:1;fill-opacity:1"
       id="rect3757"
       width="200.67741"
       height="202.953"
       x="-1101.7681"
       y="-73.484215"
       ry="7.3128428"
       transform="matrix(-0.00168008,-0.99999859,0.99999859,-0.00168008,0,0)" />
    <rect
       style="fill:none;stroke:#000000;stroke-width:3.19314098;stroke-miterlimit:4;stroke-dasharray:none"
       id="rect3761"
       width="128.15825"
       height="129.61151"
       x="-397.98483"
       y="401.70807"
       ry="4.6701875"
       transform="matrix(0.70455554,-0.70964885,0.70964885,0.70455554,0,0)" />
    <rect
       style="fill:none;stroke:#000000;stroke-width:3.19314098;stroke-miterlimit:4;stroke-dasharray:none"
       id="rect3765"
       width="128.15825"
       height="129.61151"
       x="-1308.9413"
       y="328.97018"
       ry="4.6701875"
       transform="matrix(0.00953951,-0.9999545,0.9999545,0.00953951,0,0)" />
    <g
       ns0:text="$\\hookrightarrow$"
       ns0:preamble=""
       transform="matrix(13.253452,-12.2614,12.2614,13.253452,-4437.2089,1899.9089)"
       id="g3823">
      <defs
         id="defs3825">
        <g
           id="g3827">
          <symbol
             style="overflow:visible"
             overflow="visible"
             id="textext-0fb94195-0">
            <path
               inkscape:connector-curvature="0"
               style="stroke:none"
               d="m 2.21875,-2.5 c 0,-0.078125 -0.0625,-0.1875 -0.203125,-0.1875 -0.84375,-0.046875 -1.0625,-0.46875 -1.0625,-0.765625 0,-0.375 0.3125,-0.75 1.046875,-0.78125 0.21875,0 0.21875,-0.1875 0.21875,-0.1875 0,-0.203125 -0.203125,-0.203125 -0.25,-0.203125 -0.609375,0 -1.421875,0.375 -1.421875,1.171875 0,0.78125 0.8125,1.15625 1.421875,1.15625 0.046875,0 0.25,0 0.25,-0.203125 z m 0,0"
               id="path3830" />
          </symbol>
          <symbol
             style="overflow:visible"
             overflow="visible"
             id="textext-0fb94195-1">
            <path
               inkscape:connector-curvature="0"
               style="stroke:none"
               d="M 8.3125,-2.296875 C 7.765625,-1.875 7.5,-1.46875 7.421875,-1.328125 c -0.453125,0.6875 -0.53125,1.3125 -0.53125,1.3125 0,0.125 0.125,0.125 0.203125,0.125 C 7.25,0.109375 7.265625,0.09375 7.3125,-0.09375 7.53125,-1.0625 8.125,-1.90625 9.25,-2.359375 9.375,-2.40625 9.40625,-2.421875 9.40625,-2.5 c 0,-0.0625 -0.0625,-0.09375 -0.078125,-0.109375 C 8.875,-2.765625 7.671875,-3.265625 7.296875,-4.9375 7.265625,-5.0625 7.25,-5.09375 7.09375,-5.09375 c -0.078125,0 -0.203125,0 -0.203125,0.125 0,0.015625 0.09375,0.640625 0.5,1.3125 0.203125,0.296875 0.5,0.640625 0.921875,0.96875 l -7.40625,0 c -0.171875,0 -0.359375,0 -0.359375,0.1875 0,0.203125 0.1875,0.203125 0.359375,0.203125 z m 0,0"
               id="path3833" />
          </symbol>
        </g>
      </defs>
      <g
         id="textext-0fb94195-2">
        <g
           style="fill:#000000;fill-opacity:1"
           id="g3836">
          <use
             height="949.49646"
             width="1071.1116"
             xlink:href="#textext-0fb94195-0"
             x="223.43201"
             y="134.765"
             id="use3838" />
        </g>
        <g
           style="fill:#000000;fill-opacity:1"
           id="g3840">
          <use
             height="949.49646"
             width="1071.1116"
             xlink:href="#textext-0fb94195-1"
             x="224.539"
             y="134.765"
             id="use3842" />
        </g>
      </g>
    </g>
    <g
       id="g3914"
       transform="matrix(0,-22.269566,22.353662,0,-2921.4329,5860.2245)"
       ns0:preamble="/home/cameron/projects/sep/fig/inkscapepreamble.tex"
       ns0:text="$\\twoheadrightarrow$">
      <defs
         id="defs3916">
        <g
           id="g3918">
          <symbol
             id="textext-fb892abf-0"
             overflow="visible"
             style="overflow:visible">
            <path
               id="path3921"
               d="m 7.234375,-2.6875 c -0.359375,-0.25 -0.875,-0.71875 -1.15625,-1.46875 l -0.3125,0 c 0.328125,0.859375 0.90625,1.390625 1.015625,1.46875 l -5.875,0 c -0.171875,0 -0.34375,0 -0.34375,0.1875 0,0.203125 0.171875,0.203125 0.34375,0.203125 l 5.875,0 C 6.515625,-2.0625 6.046875,-1.5625 5.765625,-0.828125 l 0.3125,0 C 6.34375,-1.5625 6.859375,-2.03125 7.234375,-2.296875 l 1.359375,0 c -0.09375,0.078125 -0.65625,0.578125 -1,1.46875 l 0.296875,0 C 8.0625,-1.28125 8.453125,-2 9.390625,-2.5 8.453125,-3 8.0625,-3.703125 7.890625,-4.15625 l -0.296875,0 c 0.34375,0.890625 0.90625,1.390625 1,1.46875 z m 0,0"
               style="stroke:none"
               inkscape:connector-curvature="0" />
          </symbol>
        </g>
      </defs>
      <g
         id="textext-fb892abf-1">
        <g
           id="g3924"
           style="fill:#000000;fill-opacity:1">
          <use
             id="use3926"
             y="134.765"
             x="223.43201"
             xlink:href="#textext-fb892abf-0"
             width="1071.1116"
             height="949.49646" />
        </g>
      </g>
    </g>
    <rect
       transform="matrix(7.7361991e-4,-0.9999997,-0.9999997,-7.7361991e-4,0,0)"
       ry="7.3128428"
       y="-835.92572"
       x="-1101.1517"
       height="202.953"
       width="200.67741"
       id="rect4030"
       style="fill:none;stroke:#7f8c8d;stroke-width:5;stroke-miterlimit:4;stroke-dasharray:none;stroke-opacity:1" />
    <g
       id="g4032"
       transform="matrix(-13.253452,-12.2614,-12.2614,13.253452,5206.516,1899.9089)"
       ns0:preamble=""
       ns0:text="$\\hookrightarrow$">
      <defs
         id="defs4034">
        <g
           id="g4036">
          <symbol
             id="symbol4038"
             overflow="visible"
             style="overflow:visible">
            <path
               id="path4040"
               d="m 2.21875,-2.5 c 0,-0.078125 -0.0625,-0.1875 -0.203125,-0.1875 -0.84375,-0.046875 -1.0625,-0.46875 -1.0625,-0.765625 0,-0.375 0.3125,-0.75 1.046875,-0.78125 0.21875,0 0.21875,-0.1875 0.21875,-0.1875 0,-0.203125 -0.203125,-0.203125 -0.25,-0.203125 -0.609375,0 -1.421875,0.375 -1.421875,1.171875 0,0.78125 0.8125,1.15625 1.421875,1.15625 0.046875,0 0.25,0 0.25,-0.203125 z m 0,0"
               style="stroke:none"
               inkscape:connector-curvature="0" />
          </symbol>
          <symbol
             id="symbol4042"
             overflow="visible"
             style="overflow:visible">
            <path
               id="path4044"
               d="M 8.3125,-2.296875 C 7.765625,-1.875 7.5,-1.46875 7.421875,-1.328125 c -0.453125,0.6875 -0.53125,1.3125 -0.53125,1.3125 0,0.125 0.125,0.125 0.203125,0.125 C 7.25,0.109375 7.265625,0.09375 7.3125,-0.09375 7.53125,-1.0625 8.125,-1.90625 9.25,-2.359375 9.375,-2.40625 9.40625,-2.421875 9.40625,-2.5 c 0,-0.0625 -0.0625,-0.09375 -0.078125,-0.109375 C 8.875,-2.765625 7.671875,-3.265625 7.296875,-4.9375 7.265625,-5.0625 7.25,-5.09375 7.09375,-5.09375 c -0.078125,0 -0.203125,0 -0.203125,0.125 0,0.015625 0.09375,0.640625 0.5,1.3125 0.203125,0.296875 0.5,0.640625 0.921875,0.96875 l -7.40625,0 c -0.171875,0 -0.359375,0 -0.359375,0.1875 0,0.203125 0.1875,0.203125 0.359375,0.203125 z m 0,0"
               style="stroke:none"
               inkscape:connector-curvature="0" />
          </symbol>
        </g>
      </defs>
      <g
         id="g4046">
        <g
           id="g4048"
           style="fill:#000000;fill-opacity:1">
          <use
             id="use4050"
             y="134.765"
             x="223.43201"
             xlink:href="#textext-0fb94195-0"
             width="1071.1116"
             height="949.49646" />
        </g>
        <g
           id="g4052"
           style="fill:#000000;fill-opacity:1">
          <use
             id="use4054"
             y="134.765"
             x="224.539"
             xlink:href="#textext-0fb94195-1"
             width="1071.1116"
             height="949.49646" />
        </g>
      </g>
    </g>
    <g
       ns0:text="$\\twoheadrightarrow$"
       ns0:preamble="/home/cameron/projects/sep/fig/inkscapepreamble.tex"
       transform="matrix(-15.32952,16.153618,-16.214619,-15.387409,5877.1207,-1222.8773)"
       id="g4086">
      <defs
         id="defs4088">
        <g
           id="g4090">
          <symbol
             style="overflow:visible"
             overflow="visible"
             id="symbol4092">
            <path
               inkscape:connector-curvature="0"
               style="stroke:none"
               d="m 7.234375,-2.6875 c -0.359375,-0.25 -0.875,-0.71875 -1.15625,-1.46875 l -0.3125,0 c 0.328125,0.859375 0.90625,1.390625 1.015625,1.46875 l -5.875,0 c -0.171875,0 -0.34375,0 -0.34375,0.1875 0,0.203125 0.171875,0.203125 0.34375,0.203125 l 5.875,0 C 6.515625,-2.0625 6.046875,-1.5625 5.765625,-0.828125 l 0.3125,0 C 6.34375,-1.5625 6.859375,-2.03125 7.234375,-2.296875 l 1.359375,0 c -0.09375,0.078125 -0.65625,0.578125 -1,1.46875 l 0.296875,0 C 8.0625,-1.28125 8.453125,-2 9.390625,-2.5 8.453125,-3 8.0625,-3.703125 7.890625,-4.15625 l -0.296875,0 c 0.34375,0.890625 0.90625,1.390625 1,1.46875 z m 0,0"
               id="path4094" />
          </symbol>
        </g>
      </defs>
      <g
         id="g4096">
        <g
           style="fill:#000000;fill-opacity:1"
           id="g4098">
          <use
             height="949.49646"
             width="1071.1116"
             xlink:href="#textext-fb892abf-0"
             x="223.43201"
             y="134.765"
             id="use4100" />
        </g>
      </g>
    </g>
    <g
       ns0:text="$\\hookrightarrow$"
       ns0:preamble=""
       transform="matrix(-13.253452,-12.2614,-12.2614,13.253452,5031.5669,1595.6152)"
       id="g4115">
      <defs
         id="defs4117">
        <g
           id="g4119">
          <symbol
             style="overflow:visible"
             overflow="visible"
             id="symbol4121">
            <path
               inkscape:connector-curvature="0"
               style="stroke:none"
               d="m 2.21875,-2.5 c 0,-0.078125 -0.0625,-0.1875 -0.203125,-0.1875 -0.84375,-0.046875 -1.0625,-0.46875 -1.0625,-0.765625 0,-0.375 0.3125,-0.75 1.046875,-0.78125 0.21875,0 0.21875,-0.1875 0.21875,-0.1875 0,-0.203125 -0.203125,-0.203125 -0.25,-0.203125 -0.609375,0 -1.421875,0.375 -1.421875,1.171875 0,0.78125 0.8125,1.15625 1.421875,1.15625 0.046875,0 0.25,0 0.25,-0.203125 z m 0,0"
               id="path4123" />
          </symbol>
          <symbol
             style="overflow:visible"
             overflow="visible"
             id="symbol4125">
            <path
               inkscape:connector-curvature="0"
               style="stroke:none"
               d="M 8.3125,-2.296875 C 7.765625,-1.875 7.5,-1.46875 7.421875,-1.328125 c -0.453125,0.6875 -0.53125,1.3125 -0.53125,1.3125 0,0.125 0.125,0.125 0.203125,0.125 C 7.25,0.109375 7.265625,0.09375 7.3125,-0.09375 7.53125,-1.0625 8.125,-1.90625 9.25,-2.359375 9.375,-2.40625 9.40625,-2.421875 9.40625,-2.5 c 0,-0.0625 -0.0625,-0.09375 -0.078125,-0.109375 C 8.875,-2.765625 7.671875,-3.265625 7.296875,-4.9375 7.265625,-5.0625 7.25,-5.09375 7.09375,-5.09375 c -0.078125,0 -0.203125,0 -0.203125,0.125 0,0.015625 0.09375,0.640625 0.5,1.3125 0.203125,0.296875 0.5,0.640625 0.921875,0.96875 l -7.40625,0 c -0.171875,0 -0.359375,0 -0.359375,0.1875 0,0.203125 0.1875,0.203125 0.359375,0.203125 z m 0,0"
               id="path4127" />
          </symbol>
        </g>
      </defs>
      <g
         id="g4129">
        <g
           style="fill:#000000;fill-opacity:1"
           id="g4135">
          <g
             id="g4141"
             transform="matrix(-0.66369136,0.74800654,-0.74800654,-0.66369136,479.42752,47.883209)">
            <g
               id="g4131"
               style="fill:#000000;fill-opacity:1"
               transform="translate(3.1306959e-6,-1.2172569e-7)">
              <use
                 id="use4133"
                 y="134.765"
                 x="223.43201"
                 xlink:href="#textext-0fb94195-0"
                 width="1071.1116"
                 height="949.49646" />
            </g>
            <use
               id="use4137"
               y="134.765"
               x="224.539"
               xlink:href="#textext-0fb94195-1"
               width="1071.1116"
               height="949.49646" />
          </g>
        </g>
      </g>
    </g>
    <rect
       transform="matrix(-0.70455554,-0.70964885,-0.70964885,0.70455554,0,0)"
       ry="4.6701875"
       y="-144.91872"
       x="-940.69031"
       height="129.61151"
       width="128.15825"
       id="rect4146"
       style="fill:none;stroke:#000000;stroke-width:3.19314098;stroke-miterlimit:4;stroke-dasharray:none" />
    <g
       ns0:text="$\\twoheadrightarrow$"
       ns0:preamble="/home/cameron/projects/sep/fig/inkscapepreamble.tex"
       transform="matrix(0,-22.269566,-22.353662,0,3691.7109,5860.2245)"
       id="g4148">
      <defs
         id="defs4150">
        <g
           id="g4152">
          <symbol
             style="overflow:visible"
             overflow="visible"
             id="symbol4154">
            <path
               inkscape:connector-curvature="0"
               style="stroke:none"
               d="m 7.234375,-2.6875 c -0.359375,-0.25 -0.875,-0.71875 -1.15625,-1.46875 l -0.3125,0 c 0.328125,0.859375 0.90625,1.390625 1.015625,1.46875 l -5.875,0 c -0.171875,0 -0.34375,0 -0.34375,0.1875 0,0.203125 0.171875,0.203125 0.34375,0.203125 l 5.875,0 C 6.515625,-2.0625 6.046875,-1.5625 5.765625,-0.828125 l 0.3125,0 C 6.34375,-1.5625 6.859375,-2.03125 7.234375,-2.296875 l 1.359375,0 c -0.09375,0.078125 -0.65625,0.578125 -1,1.46875 l 0.296875,0 C 8.0625,-1.28125 8.453125,-2 9.390625,-2.5 8.453125,-3 8.0625,-3.703125 7.890625,-4.15625 l -0.296875,0 c 0.34375,0.890625 0.90625,1.390625 1,1.46875 z m 0,0"
               id="path4156" />
          </symbol>
        </g>
      </defs>
      <g
         id="g4158">
        <g
           style="fill:#000000;fill-opacity:1"
           id="g4160">
          <use
             height="949.49646"
             width="1071.1116"
             xlink:href="#textext-fb892abf-0"
             x="223.43201"
             y="134.765"
             id="use4162" />
        </g>
      </g>
    </g>
    <g
       id="g4164"
       transform="matrix(15.32952,16.153618,16.214619,-15.387409,-5106.8427,-1222.8773)"
       ns0:preamble="/home/cameron/projects/sep/fig/inkscapepreamble.tex"
       ns0:text="$\\twoheadrightarrow$">
      <defs
         id="defs4166">
        <g
           id="g4168">
          <symbol
             id="symbol4170"
             overflow="visible"
             style="overflow:visible">
            <path
               id="path4172"
               d="m 7.234375,-2.6875 c -0.359375,-0.25 -0.875,-0.71875 -1.15625,-1.46875 l -0.3125,0 c 0.328125,0.859375 0.90625,1.390625 1.015625,1.46875 l -5.875,0 c -0.171875,0 -0.34375,0 -0.34375,0.1875 0,0.203125 0.171875,0.203125 0.34375,0.203125 l 5.875,0 C 6.515625,-2.0625 6.046875,-1.5625 5.765625,-0.828125 l 0.3125,0 C 6.34375,-1.5625 6.859375,-2.03125 7.234375,-2.296875 l 1.359375,0 c -0.09375,0.078125 -0.65625,0.578125 -1,1.46875 l 0.296875,0 C 8.0625,-1.28125 8.453125,-2 9.390625,-2.5 8.453125,-3 8.0625,-3.703125 7.890625,-4.15625 l -0.296875,0 c 0.34375,0.890625 0.90625,1.390625 1,1.46875 z m 0,0"
               style="stroke:none"
               inkscape:connector-curvature="0" />
          </symbol>
        </g>
      </defs>
      <g
         id="g4174">
        <g
           id="g4176"
           style="fill:#000000;fill-opacity:1">
          <use
             id="use4178"
             y="134.765"
             x="223.43201"
             xlink:href="#textext-fb892abf-0"
             width="1071.1116"
             height="949.49646" />
        </g>
      </g>
    </g>
    <g
       ns0:text="$\\twoheadrightarrow$"
       ns0:preamble="/home/cameron/projects/sep/fig/inkscapepreamble.tex"
       transform="matrix(17.490497,13.784632,-13.836686,17.556546,-1949.6928,-4299.5053)"
       id="g4180">
      <defs
         id="defs4182">
        <g
           id="g4184">
          <symbol
             style="overflow:visible"
             overflow="visible"
             id="symbol4186">
            <path
               inkscape:connector-curvature="0"
               style="stroke:none"
               d="m 7.234375,-2.6875 c -0.359375,-0.25 -0.875,-0.71875 -1.15625,-1.46875 l -0.3125,0 c 0.328125,0.859375 0.90625,1.390625 1.015625,1.46875 l -5.875,0 c -0.171875,0 -0.34375,0 -0.34375,0.1875 0,0.203125 0.171875,0.203125 0.34375,0.203125 l 5.875,0 C 6.515625,-2.0625 6.046875,-1.5625 5.765625,-0.828125 l 0.3125,0 C 6.34375,-1.5625 6.859375,-2.03125 7.234375,-2.296875 l 1.359375,0 c -0.09375,0.078125 -0.65625,0.578125 -1,1.46875 l 0.296875,0 C 8.0625,-1.28125 8.453125,-2 9.390625,-2.5 8.453125,-3 8.0625,-3.703125 7.890625,-4.15625 l -0.296875,0 c 0.34375,0.890625 0.90625,1.390625 1,1.46875 z m 0,0"
               id="path4188" />
          </symbol>
        </g>
      </defs>
      <g
         id="g4190">
        <g
           style="fill:#000000;fill-opacity:1"
           id="g4192">
          <use
             height="949.49646"
             width="1071.1116"
             xlink:href="#textext-fb892abf-0"
             x="223.43201"
             y="134.765"
             id="use4194" />
        </g>
      </g>
    </g>
    <g
       id="g4196"
       transform="matrix(-17.490497,13.784632,13.836686,17.556546,2708.927,-4299.5053)"
       ns0:preamble="/home/cameron/projects/sep/fig/inkscapepreamble.tex"
       ns0:text="$\\twoheadrightarrow$">
      <defs
         id="defs4198">
        <g
           id="g4200">
          <symbol
             id="symbol4202"
             overflow="visible"
             style="overflow:visible">
            <path
               id="path4204"
               d="m 7.234375,-2.6875 c -0.359375,-0.25 -0.875,-0.71875 -1.15625,-1.46875 l -0.3125,0 c 0.328125,0.859375 0.90625,1.390625 1.015625,1.46875 l -5.875,0 c -0.171875,0 -0.34375,0 -0.34375,0.1875 0,0.203125 0.171875,0.203125 0.34375,0.203125 l 5.875,0 C 6.515625,-2.0625 6.046875,-1.5625 5.765625,-0.828125 l 0.3125,0 C 6.34375,-1.5625 6.859375,-2.03125 7.234375,-2.296875 l 1.359375,0 c -0.09375,0.078125 -0.65625,0.578125 -1,1.46875 l 0.296875,0 C 8.0625,-1.28125 8.453125,-2 9.390625,-2.5 8.453125,-3 8.0625,-3.703125 7.890625,-4.15625 l -0.296875,0 c 0.34375,0.890625 0.90625,1.390625 1,1.46875 z m 0,0"
               style="stroke:none"
               inkscape:connector-curvature="0" />
          </symbol>
        </g>
      </defs>
      <g
         id="g4206">
        <g
           id="g4208"
           style="fill:#000000;fill-opacity:1">
          <use
             id="use4210"
             y="134.765"
             x="223.43201"
             xlink:href="#textext-fb892abf-0"
             width="1071.1116"
             height="949.49646" />
        </g>
      </g>
    </g>
    <path
       sodipodi:type="arc"
       style="fill:#bdc3c7;stroke:#bdc3c7;fill-opacity:1;stroke-opacity:1"
       id="path4212"
       sodipodi:cx="-188.93538"
       sodipodi:cy="346.70261"
       sodipodi:rx="13.495384"
       sodipodi:ry="13.495384"
       d="m -175.43999,346.70261 a 13.495384,13.495384 0 1 1 -26.99077,0 13.495384,13.495384 0 1 1 26.99077,0 z"
       transform="matrix(0.59049,0,0,0.59049,428.95439,569.64146)" />
    <path
       transform="matrix(0.59049,0,0,0.59049,201.23918,746.65649)"
       d="m -175.43999,346.70261 c 0,7.45329 -6.04209,13.49538 -13.49539,13.49538 -7.45329,0 -13.49538,-6.04209 -13.49538,-13.49538 0,-7.4533 6.04209,-13.49539 13.49538,-13.49539 7.4533,0 13.49539,6.04209 13.49539,13.49539 z"
       sodipodi:ry="13.495384"
       sodipodi:rx="13.495384"
       sodipodi:cy="346.70261"
       sodipodi:cx="-188.93538"
       id="path4214"
       style="fill:#000000;stroke:none"
       sodipodi:type="arc" />
    <path
       sodipodi:type="arc"
       style="fill:#000000;stroke:none"
       id="path4216"
       sodipodi:cx="-188.93538"
       sodipodi:cy="346.70261"
       sodipodi:rx="13.495384"
       sodipodi:ry="13.495384"
       d="m -175.43999,346.70261 c 0,7.45329 -6.04209,13.49538 -13.49539,13.49538 -7.45329,0 -13.49538,-6.04209 -13.49538,-13.49538 0,-7.4533 6.04209,-13.49539 13.49538,-13.49539 7.4533,0 13.49539,6.04209 13.49539,13.49539 z"
       transform="matrix(0.59049,0,0,0.59049,81.239181,746.65649)" />
    <path
       transform="matrix(0.59049,0,0,0.59049,81.239181,846.65649)"
       d="m -175.43999,346.70261 c 0,7.45329 -6.04209,13.49538 -13.49539,13.49538 -7.45329,0 -13.49538,-6.04209 -13.49538,-13.49538 0,-7.4533 6.04209,-13.49539 13.49538,-13.49539 7.4533,0 13.49539,6.04209 13.49539,13.49539 z"
       sodipodi:ry="13.495384"
       sodipodi:rx="13.495384"
       sodipodi:cy="346.70261"
       sodipodi:cx="-188.93538"
       id="path4218"
       style="fill:#000000;stroke:none"
       sodipodi:type="arc" />
    <path
       sodipodi:type="arc"
       style="fill:#000000;stroke:none"
       id="path4220"
       sodipodi:cx="-188.93538"
       sodipodi:cy="346.70261"
       sodipodi:rx="13.495384"
       sodipodi:ry="13.495384"
       d="m -175.43999,346.70261 c 0,7.45329 -6.04209,13.49538 -13.49539,13.49538 -7.45329,0 -13.49538,-6.04209 -13.49538,-13.49538 0,-7.4533 6.04209,-13.49539 13.49538,-13.49539 7.4533,0 13.49539,6.04209 13.49539,13.49539 z"
       transform="matrix(0.59049,0,0,0.59049,201.23918,846.65649)" />
    <path
       transform="matrix(0.59049,0,0,0.59049,458.5539,569.64146)"
       d="m -175.43999,346.70261 a 13.495384,13.495384 0 1 1 -26.99077,0 13.495384,13.495384 0 1 1 26.99077,0 z"
       sodipodi:ry="13.495384"
       sodipodi:rx="13.495384"
       sodipodi:cy="346.70261"
       sodipodi:cx="-188.93538"
       id="path4232"
       style="fill:#bdc3c7;stroke:#bdc3c7;fill-opacity:1;stroke-opacity:1"
       sodipodi:type="arc" />
    <path
       transform="matrix(0.59049,0,0,0.59049,428.95439,541.64146)"
       d="m -175.43999,346.70261 a 13.495384,13.495384 0 1 1 -26.99077,0 13.495384,13.495384 0 1 1 26.99077,0 z"
       sodipodi:ry="13.495384"
       sodipodi:rx="13.495384"
       sodipodi:cy="346.70261"
       sodipodi:cx="-188.93538"
       id="path4234"
       style="fill:#bdc3c7;stroke:#bdc3c7;fill-opacity:1;stroke-opacity:1"
       sodipodi:type="arc" />
    <path
       sodipodi:type="arc"
       style="fill:#bdc3c7;stroke:#bdc3c7;fill-opacity:1;stroke-opacity:1"
       id="path4236"
       sodipodi:cx="-188.93538"
       sodipodi:cy="346.70261"
       sodipodi:rx="13.495384"
       sodipodi:ry="13.495384"
       d="m -175.43999,346.70261 a 13.495384,13.495384 0 1 1 -26.99077,0 13.495384,13.495384 0 1 1 26.99077,0 z"
       transform="matrix(0.59049,0,0,0.59049,458.5539,541.64146)" />
    <path
       transform="matrix(0.59049,0,0,0.59049,536.95439,569.64146)"
       d="m -175.43999,346.70261 a 13.495384,13.495384 0 1 1 -26.99077,0 13.495384,13.495384 0 1 1 26.99077,0 z"
       sodipodi:ry="13.495384"
       sodipodi:rx="13.495384"
       sodipodi:cy="346.70261"
       sodipodi:cx="-188.93538"
       id="path4238"
       style="fill:#7f8c8d;stroke:none;fill-opacity:1"
       sodipodi:type="arc" />
    <path
       sodipodi:type="arc"
       style="fill:#7f8c8d;stroke:none;fill-opacity:1"
       id="path4240"
       sodipodi:cx="-188.93538"
       sodipodi:cy="346.70261"
       sodipodi:rx="13.495384"
       sodipodi:ry="13.495384"
       d="m -175.43999,346.70261 a 13.495384,13.495384 0 1 1 -26.99077,0 13.495384,13.495384 0 1 1 26.99077,0 z"
       transform="matrix(0.59049,0,0,0.59049,566.5539,569.64146)" />
    <path
       sodipodi:type="arc"
       style="fill:#7f8c8d;stroke:none;fill-opacity:1"
       id="path4242"
       sodipodi:cx="-188.93538"
       sodipodi:cy="346.70261"
       sodipodi:rx="13.495384"
       sodipodi:ry="13.495384"
       d="m -175.43999,346.70261 a 13.495384,13.495384 0 1 1 -26.99077,0 13.495384,13.495384 0 1 1 26.99077,0 z"
       transform="matrix(0.59049,0,0,0.59049,536.95439,541.64146)" />
    <path
       transform="matrix(0.59049,0,0,0.59049,566.5539,541.64146)"
       d="m -175.43999,346.70261 a 13.495384,13.495384 0 1 1 -26.99077,0 13.495384,13.495384 0 1 1 26.99077,0 z"
       sodipodi:ry="13.495384"
       sodipodi:rx="13.495384"
       sodipodi:cy="346.70261"
       sodipodi:cx="-188.93538"
       id="path4244"
       style="fill:#7f8c8d;stroke:none;fill-opacity:1"
       sodipodi:type="arc" />
    <path
       sodipodi:type="arc"
       style="fill:#95a5a6;stroke:none;stroke-opacity:1;fill-opacity:1"
       id="path4246"
       sodipodi:cx="-188.93538"
       sodipodi:cy="346.70261"
       sodipodi:rx="13.495384"
       sodipodi:ry="13.495384"
       d="m -175.43999,346.70261 a 13.495384,13.495384 0 1 1 -26.99077,0 13.495384,13.495384 0 1 1 26.99077,0 z"
       transform="matrix(0.59049,0,0,0.59049,482.95439,493.64146)" />
    <path
       transform="matrix(0.59049,0,0,0.59049,512.5539,493.64146)"
       d="m -175.43999,346.70261 a 13.495384,13.495384 0 1 1 -26.99077,0 13.495384,13.495384 0 1 1 26.99077,0 z"
       sodipodi:ry="13.495384"
       sodipodi:rx="13.495384"
       sodipodi:cy="346.70261"
       sodipodi:cx="-188.93538"
       id="path4248"
       style="fill:#95a5a6;stroke:none;stroke-opacity:1;fill-opacity:1"
       sodipodi:type="arc" />
    <path
       transform="matrix(0.59049,0,0,0.59049,482.95439,465.64146)"
       d="m -175.43999,346.70261 a 13.495384,13.495384 0 1 1 -26.99077,0 13.495384,13.495384 0 1 1 26.99077,0 z"
       sodipodi:ry="13.495384"
       sodipodi:rx="13.495384"
       sodipodi:cy="346.70261"
       sodipodi:cx="-188.93538"
       id="path4250"
       style="fill:#95a5a6;stroke:none;stroke-opacity:1;fill-opacity:1"
       sodipodi:type="arc" />
    <path
       sodipodi:type="arc"
       style="fill:#95a5a6;stroke:none;stroke-opacity:1;fill-opacity:1"
       id="path4252"
       sodipodi:cx="-188.93538"
       sodipodi:cy="346.70261"
       sodipodi:rx="13.495384"
       sodipodi:ry="13.495384"
       d="m -175.43999,346.70261 a 13.495384,13.495384 0 1 1 -26.99077,0 13.495384,13.495384 0 1 1 26.99077,0 z"
       transform="matrix(0.59049,0,0,0.59049,512.5539,465.64146)" />
    <g
       id="g4262">
      <path
         transform="matrix(0.59049,0,0,0.59049,905.23918,746.65649)"
         d="m -175.43999,346.70261 c 0,7.45329 -6.04209,13.49538 -13.49539,13.49538 -7.45329,0 -13.49538,-6.04209 -13.49538,-13.49538 0,-7.4533 6.04209,-13.49539 13.49538,-13.49539 7.4533,0 13.49539,6.04209 13.49539,13.49539 z"
         sodipodi:ry="13.495384"
         sodipodi:rx="13.495384"
         sodipodi:cy="346.70261"
         sodipodi:cx="-188.93538"
         id="path4254"
         style="fill:#000000;stroke:none"
         sodipodi:type="arc" />
      <path
         sodipodi:type="arc"
         style="fill:#000000;stroke:none"
         id="path4256"
         sodipodi:cx="-188.93538"
         sodipodi:cy="346.70261"
         sodipodi:rx="13.495384"
         sodipodi:ry="13.495384"
         d="m -175.43999,346.70261 c 0,7.45329 -6.04209,13.49538 -13.49539,13.49538 -7.45329,0 -13.49538,-6.04209 -13.49538,-13.49538 0,-7.4533 6.04209,-13.49539 13.49538,-13.49539 7.4533,0 13.49539,6.04209 13.49539,13.49539 z"
         transform="matrix(0.59049,0,0,0.59049,785.23918,746.65649)" />
      <path
         transform="matrix(0.59049,0,0,0.59049,785.23918,846.65649)"
         d="m -175.43999,346.70261 c 0,7.45329 -6.04209,13.49538 -13.49539,13.49538 -7.45329,0 -13.49538,-6.04209 -13.49538,-13.49538 0,-7.4533 6.04209,-13.49539 13.49538,-13.49539 7.4533,0 13.49539,6.04209 13.49539,13.49539 z"
         sodipodi:ry="13.495384"
         sodipodi:rx="13.495384"
         sodipodi:cy="346.70261"
         sodipodi:cx="-188.93538"
         id="path4258"
         style="fill:#000000;stroke:none"
         sodipodi:type="arc" />
      <path
         sodipodi:type="arc"
         style="fill:#000000;stroke:none"
         id="path4260"
         sodipodi:cx="-188.93538"
         sodipodi:cy="346.70261"
         sodipodi:rx="13.495384"
         sodipodi:ry="13.495384"
         d="m -175.43999,346.70261 c 0,7.45329 -6.04209,13.49538 -13.49539,13.49538 -7.45329,0 -13.49538,-6.04209 -13.49538,-13.49538 0,-7.4533 6.04209,-13.49539 13.49538,-13.49539 7.4533,0 13.49539,6.04209 13.49539,13.49539 z"
         transform="matrix(0.59049,0,0,0.59049,905.23918,846.65649)" />
    </g>
    <g
       id="g4268"
       transform="matrix(0.69974398,0.71439371,-0.71439371,0.69974398,590.59314,-930.29651)">
      <path
         sodipodi:type="arc"
         style="fill:#000000;stroke:none"
         id="path4270"
         sodipodi:cx="-188.93538"
         sodipodi:cy="346.70261"
         sodipodi:rx="13.495384"
         sodipodi:ry="13.495384"
         d="m -175.43999,346.70261 c 0,7.45329 -6.04209,13.49538 -13.49539,13.49538 -7.45329,0 -13.49538,-6.04209 -13.49538,-13.49538 0,-7.4533 6.04209,-13.49539 13.49538,-13.49539 7.4533,0 13.49539,6.04209 13.49539,13.49539 z"
         transform="matrix(0.59049,0,0,0.59049,905.23918,746.65649)" />
      <path
         transform="matrix(0.59049,0,0,0.59049,785.23918,746.65649)"
         d="m -175.43999,346.70261 c 0,7.45329 -6.04209,13.49538 -13.49539,13.49538 -7.45329,0 -13.49538,-6.04209 -13.49538,-13.49538 0,-7.4533 6.04209,-13.49539 13.49538,-13.49539 7.4533,0 13.49539,6.04209 13.49539,13.49539 z"
         sodipodi:ry="13.495384"
         sodipodi:rx="13.495384"
         sodipodi:cy="346.70261"
         sodipodi:cx="-188.93538"
         id="path4272"
         style="fill:#000000;stroke:none"
         sodipodi:type="arc" />
      <path
         sodipodi:type="arc"
         style="fill:#000000;stroke:none"
         id="path4274"
         sodipodi:cx="-188.93538"
         sodipodi:cy="346.70261"
         sodipodi:rx="13.495384"
         sodipodi:ry="13.495384"
         d="m -175.43999,346.70261 c 0,7.45329 -6.04209,13.49538 -13.49539,13.49538 -7.45329,0 -13.49538,-6.04209 -13.49538,-13.49538 0,-7.4533 6.04209,-13.49539 13.49538,-13.49539 7.4533,0 13.49539,6.04209 13.49539,13.49539 z"
         transform="matrix(0.59049,0,0,0.59049,785.23918,846.65649)" />
      <path
         transform="matrix(0.59049,0,0,0.59049,905.23918,846.65649)"
         d="m -175.43999,346.70261 c 0,7.45329 -6.04209,13.49538 -13.49539,13.49538 -7.45329,0 -13.49538,-6.04209 -13.49538,-13.49538 0,-7.4533 6.04209,-13.49539 13.49538,-13.49539 7.4533,0 13.49539,6.04209 13.49539,13.49539 z"
         sodipodi:ry="13.495384"
         sodipodi:rx="13.495384"
         sodipodi:cy="346.70261"
         sodipodi:cx="-188.93538"
         id="path4276"
         style="fill:#000000;stroke:none"
         sodipodi:type="arc" />
    </g>
    <path
       sodipodi:type="arc"
       style="fill:#000000;stroke:none"
       id="path4278"
       sodipodi:cx="-188.93538"
       sodipodi:cy="346.70261"
       sodipodi:rx="13.495384"
       sodipodi:ry="13.495384"
       d="m -175.43999,346.70261 a 13.495384,13.495384 0 1 1 -26.99077,0 13.495384,13.495384 0 1 1 26.99077,0 z"
       transform="matrix(0.59049,0,0,0.59049,173.57058,359.83866)" />
    <path
       transform="matrix(0.59049,0,0,0.59049,241.17009,359.83866)"
       d="m -175.43999,346.70261 a 13.495384,13.495384 0 1 1 -26.99077,0 13.495384,13.495384 0 1 1 26.99077,0 z"
       sodipodi:ry="13.495384"
       sodipodi:rx="13.495384"
       sodipodi:cy="346.70261"
       sodipodi:cx="-188.93538"
       id="path4280"
       style="fill:#000000;stroke:none"
       sodipodi:type="arc" />
    <g
       id="g4294"
       transform="translate(-0.241007,1.0790057)">
      <path
         sodipodi:type="arc"
         style="fill:#000000;stroke:none"
         id="path4282"
         sodipodi:cx="-188.93538"
         sodipodi:cy="346.70261"
         sodipodi:rx="13.495384"
         sodipodi:ry="13.495384"
         d="m -175.43999,346.70261 c 0,7.45329 -6.04209,13.49538 -13.49539,13.49538 -7.45329,0 -13.49538,-6.04209 -13.49538,-13.49538 0,-7.4533 6.04209,-13.49539 13.49538,-13.49539 7.4533,0 13.49539,6.04209 13.49539,13.49539 z"
         transform="matrix(0.59049,0,0,0.59049,752.47904,359.83866)" />
      <path
         transform="matrix(0.59049,0,0,0.59049,820.07855,359.83866)"
         d="m -175.43999,346.70261 c 0,7.45329 -6.04209,13.49538 -13.49539,13.49538 -7.45329,0 -13.49538,-6.04209 -13.49538,-13.49538 0,-7.4533 6.04209,-13.49539 13.49538,-13.49539 7.4533,0 13.49539,6.04209 13.49539,13.49539 z"
         sodipodi:ry="13.495384"
         sodipodi:rx="13.495384"
         sodipodi:cy="346.70261"
         sodipodi:cx="-188.93538"
         id="path4284"
         style="fill:#000000;stroke:none"
         sodipodi:type="arc" />
    </g>
    <path
       sodipodi:type="arc"
       style="fill:none;stroke:#27ae60;stroke-width:3;stroke-miterlimit:4;stroke-dasharray:none;stroke-opacity:1"
       id="path4323"
       sodipodi:cx="114.16699"
       sodipodi:cy="810.08923"
       sodipodi:rx="84.3843"
       sodipodi:ry="25.811668"
       d="m 198.55129,810.08923 a 84.3843,25.811668 0 1 1 -168.768598,0 84.3843,25.811668 0 1 1 168.768598,0 z"
       transform="translate(-84.442462,141.44321)" />
    <path
       transform="matrix(0,1,-1,0,899.81376,885.36545)"
       d="m 198.55129,810.08923 a 84.3843,25.811668 0 1 1 -168.768598,0 84.3843,25.811668 0 1 1 168.768598,0 z"
       sodipodi:ry="25.811668"
       sodipodi:rx="84.3843"
       sodipodi:cy="810.08923"
       sodipodi:cx="114.16699"
       id="path4325"
       style="fill:none;stroke:#f1c40f;stroke-width:3;stroke-miterlimit:4;stroke-dasharray:none;stroke-opacity:1"
       sodipodi:type="arc" />
    <path
       transform="matrix(-1,0,0,-1,145.31889,1859.6217)"
       d="m 198.55129,810.08923 a 84.3843,25.811668 0 1 1 -168.768598,0 84.3843,25.811668 0 1 1 168.768598,0 z"
       sodipodi:ry="25.811668"
       sodipodi:rx="84.3843"
       sodipodi:cy="810.08923"
       sodipodi:cx="114.16699"
       id="path4327"
       style="fill:none;stroke:#c0392b;stroke-width:3;stroke-miterlimit:4;stroke-dasharray:none;stroke-opacity:1"
       sodipodi:type="arc" />
    <path
       sodipodi:type="arc"
       style="fill:none;stroke:#8e44ad;stroke-width:3;stroke-miterlimit:4;stroke-dasharray:none;stroke-opacity:1"
       id="path4329"
       sodipodi:cx="114.16699"
       sodipodi:cy="810.08923"
       sodipodi:rx="84.3843"
       sodipodi:ry="25.811668"
       d="m 198.55129,810.08923 a 84.3843,25.811668 0 1 1 -168.768598,0 84.3843,25.811668 0 1 1 168.768598,0 z"
       transform="matrix(0,-1,1,0,-838.93734,1113.6994)" />
    <path
       transform="translate(617.55754,141.44321)"
       d="m 198.55129,810.08923 a 84.3843,25.811668 0 1 1 -168.768598,0 84.3843,25.811668 0 1 1 168.768598,0 z"
       sodipodi:ry="25.811668"
       sodipodi:rx="84.3843"
       sodipodi:cy="810.08923"
       sodipodi:cx="114.16699"
       id="path4331"
       style="fill:none;stroke:#27ae60;stroke-width:3;stroke-miterlimit:4;stroke-dasharray:none;stroke-opacity:1"
       sodipodi:type="arc" />
    <path
       sodipodi:type="arc"
       style="fill:none;stroke:#e67e22;stroke-width:3;stroke-miterlimit:4;stroke-dasharray:none;stroke-opacity:1"
       id="path4333"
       sodipodi:cx="114.16699"
       sodipodi:cy="810.08923"
       sodipodi:rx="84.3843"
       sodipodi:ry="25.811668"
       d="m 198.55129,810.08923 a 84.3843,25.811668 0 1 1 -168.768598,0 84.3843,25.811668 0 1 1 168.768598,0 z"
       transform="matrix(0,1,-1,0,1601.8138,885.36545)" />
    <path
       sodipodi:type="arc"
       style="fill:none;stroke:#c0392b;stroke-width:3;stroke-miterlimit:4;stroke-dasharray:none;stroke-opacity:1"
       id="path4335"
       sodipodi:cx="114.16699"
       sodipodi:cy="810.08923"
       sodipodi:rx="84.3843"
       sodipodi:ry="25.811668"
       d="m 198.55129,810.08923 a 84.3843,25.811668 0 1 1 -168.768598,0 84.3843,25.811668 0 1 1 168.768598,0 z"
       transform="matrix(-1,0,0,-1,847.31889,1859.6217)" />
    <path
       transform="matrix(0,-1,1,0,-136.93734,1113.6994)"
       d="m 198.55129,810.08923 a 84.3843,25.811668 0 1 1 -168.768598,0 84.3843,25.811668 0 1 1 168.768598,0 z"
       sodipodi:ry="25.811668"
       sodipodi:rx="84.3843"
       sodipodi:cy="810.08923"
       sodipodi:cx="114.16699"
       id="path4337"
       style="fill:none;stroke:#2980b9;stroke-width:3;stroke-miterlimit:4;stroke-dasharray:none;stroke-opacity:1"
       sodipodi:type="arc" />
    <path
       sodipodi:type="arc"
       style="fill:none;stroke:#e67e22;stroke-width:3;stroke-miterlimit:4;stroke-dasharray:none;stroke-opacity:1"
       id="path4339"
       sodipodi:cx="114.16699"
       sodipodi:cy="810.08923"
       sodipodi:rx="84.3843"
       sodipodi:ry="25.811668"
       d="m 198.55129,810.08923 a 84.3843,25.811668 0 1 1 -168.768598,0 84.3843,25.811668 0 1 1 168.768598,0 z"
       transform="matrix(0.70473933,0.70946633,-0.70946633,0.70473933,916.2627,-394.70078)" />
    <path
       transform="matrix(-0.70946633,0.70473933,-0.70473933,-0.70946633,1082.119,827.86716)"
       d="m 198.55129,810.08923 a 84.3843,25.811668 0 1 1 -168.768598,0 84.3843,25.811668 0 1 1 168.768598,0 z"
       sodipodi:ry="25.811668"
       sodipodi:rx="84.3843"
       sodipodi:cy="810.08923"
       sodipodi:cx="114.16699"
       id="path4341"
       style="fill:none;stroke:#f1c40f;stroke-width:3;stroke-miterlimit:4;stroke-dasharray:none;stroke-opacity:1"
       sodipodi:type="arc" />
    <path
       transform="matrix(-0.70473933,-0.70946633,0.70946633,-0.70473933,-140.80523,979.17513)"
       d="m 198.55129,810.08923 a 84.3843,25.811668 0 1 1 -168.768598,0 84.3843,25.811668 0 1 1 168.768598,0 z"
       sodipodi:ry="25.811668"
       sodipodi:rx="84.3843"
       sodipodi:cy="810.08923"
       sodipodi:cx="114.16699"
       id="path4343"
       style="fill:none;stroke:#2980b9;stroke-width:3;stroke-miterlimit:4;stroke-dasharray:none;stroke-opacity:1"
       sodipodi:type="arc" />
    <path
       sodipodi:type="arc"
       style="fill:none;stroke:#8e44ad;stroke-width:3;stroke-miterlimit:4;stroke-dasharray:none;stroke-opacity:1"
       id="path4345"
       sodipodi:cx="114.16699"
       sodipodi:cy="810.08923"
       sodipodi:rx="84.3843"
       sodipodi:ry="25.811668"
       d="m 198.55129,810.08923 a 84.3843,25.811668 0 1 1 -168.768598,0 84.3843,25.811668 0 1 1 168.768598,0 z"
       transform="matrix(0.70946633,-0.70473933,0.70473933,0.70946633,-305.24255,-244.80231)" />
    <path
       sodipodi:type="arc"
       style="fill:none;stroke:#8e44ad;stroke-width:5.14584277;stroke-miterlimit:4;stroke-opacity:1;stroke-dasharray:none;stroke-dashoffset:0;opacity:0.95999999999999996"
       id="path4347"
       sodipodi:cx="-86.369812"
       sodipodi:cy="390.15329"
       sodipodi:rx="30.77545"
       sodipodi:ry="30.77545"
       d="m -55.594362,390.15329 a 30.77545,30.77545 0 1 1 -61.550898,0 30.77545,30.77545 0 1 1 61.550898,0 z"
       transform="matrix(0.77732651,0,0,0.77732651,129.14367,261.28659)" />
    <path
       transform="matrix(0.77732651,0,0,0.77732651,196.74318,261.28659)"
       d="m -55.594362,390.15329 a 30.77545,30.77545 0 1 1 -61.550898,0 30.77545,30.77545 0 1 1 61.550898,0 z"
       sodipodi:ry="30.77545"
       sodipodi:rx="30.77545"
       sodipodi:cy="390.15329"
       sodipodi:cx="-86.369812"
       id="path4351"
       style="fill:#26b366;stroke:#f1c40f;stroke-width:5.14584276999999979;stroke-miterlimit:4;stroke-opacity:1;stroke-dasharray:none;stroke-dashoffset:0;opacity:0.95999999999999996;fill-opacity:0.005675"
       sodipodi:type="arc" />
    <path
       transform="matrix(0.77732651,0,0,0.77732651,707.46967,262.33284)"
       d="m -55.594362,390.15329 a 30.77545,30.77545 0 1 1 -61.550898,0 30.77545,30.77545 0 1 1 61.550898,0 z"
       sodipodi:ry="30.77545"
       sodipodi:rx="30.77545"
       sodipodi:cy="390.15329"
       sodipodi:cx="-86.369812"
       id="path4353"
       style="fill:none;stroke:#2980b9;stroke-width:5.14584276999999979;stroke-miterlimit:4;stroke-opacity:1;stroke-dasharray:none;stroke-dashoffset:0;opacity:0.95999999999999996"
       sodipodi:type="arc" />
    <path
       sodipodi:type="arc"
       style="fill:none;stroke:#e67e22;stroke-width:5.14584276999999979;stroke-miterlimit:4;stroke-opacity:1;stroke-dasharray:none;stroke-dashoffset:0;opacity:0.95999999999999996"
       id="path4355"
       sodipodi:cx="-86.369812"
       sodipodi:cy="390.15329"
       sodipodi:rx="30.77545"
       sodipodi:ry="30.77545"
       d="m -55.594362,390.15329 a 30.77545,30.77545 0 1 1 -61.550898,0 30.77545,30.77545 0 1 1 61.550898,0 z"
       transform="matrix(0.77732651,0,0,0.77732651,775.06918,262.33284)" />
    <path
       sodipodi:type="arc"
       style="fill:none;stroke:#bdc3c7;stroke-width:3;stroke-miterlimit:4;stroke-opacity:1;stroke-dasharray:none;stroke-dashoffset:0;fill-opacity:1"
       id="path4361"
       sodipodi:cx="-86.369812"
       sodipodi:cy="390.15329"
       sodipodi:rx="30.77545"
       sodipodi:ry="30.77545"
       d="m -55.594362,390.15329 a 30.77545,30.77545 0 1 1 -61.550898,0 30.77545,30.77545 0 1 1 61.550898,0 z"
       transform="matrix(1.0526795,0,0,1.1171956,422.53027,324.09034)" />
    <path
       transform="matrix(1.0526795,0,0,1.1171956,530.53027,324.09034)"
       d="m -55.594362,390.15329 a 30.77545,30.77545 0 1 1 -61.550898,0 30.77545,30.77545 0 1 1 61.550898,0 z"
       sodipodi:ry="30.77545"
       sodipodi:rx="30.77545"
       sodipodi:cy="390.15329"
       sodipodi:cx="-86.369812"
       id="path4363"
       style="fill:none;stroke:#7f8c8d;stroke-width:3;stroke-miterlimit:4;stroke-opacity:1;stroke-dasharray:none;stroke-dashoffset:0"
       sodipodi:type="arc" />
    <path
       sodipodi:type="arc"
       style="fill:#000000;stroke:#95a5a6;stroke-width:3;stroke-miterlimit:4;stroke-opacity:1;stroke-dasharray:none;stroke-dashoffset:0;fill-opacity:0"
       id="path4365"
       sodipodi:cx="-86.369812"
       sodipodi:cy="390.15329"
       sodipodi:rx="30.77545"
       sodipodi:ry="30.77545"
       d="m -55.594362,390.15329 a 30.77545,30.77545 0 1 1 -61.550898,0 30.77545,30.77545 0 1 1 61.550898,0 z"
       transform="matrix(1.0526795,0,0,1.1171956,477.0128,249.60781)" />
    <rect
       style="fill:#27ae60;fill-opacity:1;stroke:none"
       id="rect4367"
       width="106.64742"
       height="67.148376"
       x="-235.19511"
       y="412.86176"
       ry="4.6701875" />
    <rect
       ry="4.6701875"
       y="529.78595"
       x="-235.19511"
       height="67.148376"
       width="106.64742"
       id="rect4369"
       style="fill:#f1c40f;fill-opacity:1;stroke:none" />
    <rect
       style="fill:#e67e22;fill-opacity:1;stroke:none"
       id="rect4371"
       width="106.64742"
       height="67.148376"
       x="-235.19511"
       y="646.71021"
       ry="4.6701875" />
    <rect
       ry="4.6701875"
       y="295.9375"
       x="-235.19511"
       height="67.148376"
       width="106.64742"
       id="rect4373"
       style="fill:#2980b9;fill-opacity:1;stroke:none" />
    <rect
       style="fill:#8e44ad;fill-opacity:1;stroke:none"
       id="rect4375"
       width="106.64742"
       height="67.148376"
       x="-235.19511"
       y="179.01331"
       ry="4.6701875" />
    <rect
       ry="4.6701875"
       y="763.6344"
       x="-235.19511"
       height="67.148376"
       width="106.64742"
       id="rect4377"
       style="fill:#c0392b;fill-opacity:1;stroke:none" />
    <g
       id="g4381"
       transform="matrix(0,1,-1,0,1630.6145,866.94256)">
      <g
         transform="translate(-4.8316967,3.9988982)"
         id="g4290">
        <path
           sodipodi:type="arc"
           style="fill:#000000;stroke:none"
           id="path4286"
           sodipodi:cx="-188.93538"
           sodipodi:cy="346.70261"
           sodipodi:rx="13.495384"
           sodipodi:ry="13.495384"
           d="m -175.43999,346.70261 c 0,7.45329 -6.04209,13.49538 -13.49539,13.49538 -7.45329,0 -13.49538,-6.04209 -13.49538,-13.49538 0,-7.4533 6.04209,-13.49539 13.49538,-13.49539 7.4533,0 13.49539,6.04209 13.49539,13.49539 z"
           transform="matrix(0.59049,0,0,0.59049,464.47904,1039.8387)" />
        <path
           transform="matrix(0.59049,0,0,0.59049,532.07855,1039.8387)"
           d="m -175.43999,346.70261 c 0,7.45329 -6.04209,13.49538 -13.49539,13.49538 -7.45329,0 -13.49538,-6.04209 -13.49538,-13.49538 0,-7.4533 6.04209,-13.49539 13.49538,-13.49539 7.4533,0 13.49539,6.04209 13.49539,13.49539 z"
           sodipodi:ry="13.495384"
           sodipodi:rx="13.495384"
           sodipodi:cy="346.70261"
           sodipodi:cx="-188.93538"
           id="path4288"
           style="fill:#000000;stroke:none"
           sodipodi:type="arc" />
      </g>
      <path
         transform="matrix(0.77732651,0,0,0.77732651,415.17375,945.50203)"
         d="m -55.594362,390.15329 c 0,16.99681 -13.778638,30.77545 -30.77545,30.77545 -16.996808,0 -30.775448,-13.77864 -30.775448,-30.77545 0,-16.99681 13.77864,-30.77545 30.775448,-30.77545 16.996812,0 30.77545,13.77864 30.77545,30.77545 z"
         sodipodi:ry="30.77545"
         sodipodi:rx="30.77545"
         sodipodi:cy="390.15329"
         sodipodi:cx="-86.369812"
         id="path4357"
         style="opacity:0.95999995;fill:none;stroke:#27ae60;stroke-width:5.14584255;stroke-miterlimit:4;stroke-opacity:1;stroke-dasharray:none;stroke-dashoffset:0"
         sodipodi:type="arc" />
      <path
         sodipodi:type="arc"
         style="opacity:0.95999995;fill:#ffffff;fill-opacity:0;stroke:#c0392b;stroke-width:5.14584255;stroke-miterlimit:4;stroke-opacity:1;stroke-dasharray:none;stroke-dashoffset:0"
         id="path4359"
         sodipodi:cx="-86.369812"
         sodipodi:cy="390.15329"
         sodipodi:rx="30.77545"
         sodipodi:ry="30.77545"
         d="m -55.594362,390.15329 c 0,16.99681 -13.778638,30.77545 -30.77545,30.77545 -16.996808,0 -30.775448,-13.77864 -30.775448,-30.77545 0,-16.99681 13.77864,-30.77545 30.775448,-30.77545 16.996812,0 30.77545,13.77864 30.77545,30.77545 z"
         transform="matrix(0.77732651,0,0,0.77732651,482.77326,945.50203)" />
    </g>
    <rect
       style="fill:#bdc3c7;fill-opacity:1;stroke:none"
       id="rect4388"
       width="106.64742"
       height="67.148376"
       x="-235.19511"
       y="853.6344"
       ry="4.6701875" />
    <rect
       ry="4.6701875"
       y="943.6344"
       x="-235.19511"
       height="67.148376"
       width="106.64742"
       id="rect4390"
       style="fill:#95a5a6;fill-opacity:1;stroke:none" />
    <rect
       style="fill:#7f8c8d;fill-opacity:1;stroke:none"
       id="rect4392"
       width="106.64742"
       height="67.148376"
       x="-235.19511"
       y="1031.6344"
       ry="4.6701875" />
  </g>
</svg>
