<?xml version="1.0" encoding="UTF-8" standalone="no"?>
<!-- Created with Inkscape (http://www.inkscape.org/) -->

<svg
   xmlns:ns0="http://www.iki.fi/pav/software/textext/"
   xmlns:dc="http://purl.org/dc/elements/1.1/"
   xmlns:cc="http://creativecommons.org/ns#"
   xmlns:rdf="http://www.w3.org/1999/02/22-rdf-syntax-ns#"
   xmlns:svg="http://www.w3.org/2000/svg"
   xmlns="http://www.w3.org/2000/svg"
   xmlns:xlink="http://www.w3.org/1999/xlink"
   xmlns:sodipodi="http://sodipodi.sourceforge.net/DTD/sodipodi-0.dtd"
   xmlns:inkscape="http://www.inkscape.org/namespaces/inkscape"
   width="409.72668"
   height="184.5"
   id="svg2"
   version="1.1"
   inkscape:version="0.48.3.1 r9886"
   sodipodi:docname="efunctor.svg">
  <sodipodi:namedview
     id="base"
     pagecolor="#ffffff"
     bordercolor="#666666"
     borderopacity="1.0"
     inkscape:pageopacity="0.0"
     inkscape:pageshadow="2"
     inkscape:zoom="2.6847165"
     inkscape:cx="204.86334"
     inkscape:cy="92.25"
     inkscape:document-units="px"
     inkscape:current-layer="layer1"
     showgrid="false"
     inkscape:window-width="1317"
     inkscape:window-height="744"
     inkscape:window-x="49"
     inkscape:window-y="24"
     inkscape:window-maximized="1"
     fit-margin-top="5"
     fit-margin-left="5"
     fit-margin-right="5"
     fit-margin-bottom="5"
     inkscape:snap-global="false">
    <inkscape:grid
       originy="8.5952479px"
       originx="-45px"
       snapvisiblegridlinesonly="true"
       enabled="true"
       visible="true"
       empspacing="5"
       id="grid6840"
       type="xygrid" />
  </sodipodi:namedview>
  <defs
     id="defs4">
    <marker
       style="overflow:visible"
       id="Arrow1Send"
       refX="0"
       refY="0"
       orient="auto"
       inkscape:stockid="Arrow1Send">
      <path
         inkscape:connector-curvature="0"
         transform="matrix(-0.2,0,0,-0.2,-1.2,0)"
         style="fill-rule:evenodd;stroke:#000000;stroke-width:1pt"
         d="M 0,0 5,-5 -12.5,0 5,5 0,0 z"
         id="path5362" />
    </marker>
    <marker
       inkscape:stockid="Arrow1Mend"
       orient="auto"
       refY="0"
       refX="0"
       id="Arrow1Mend"
       style="overflow:visible">
      <path
         inkscape:connector-curvature="0"
         id="path5356"
         d="M 0,0 5,-5 -12.5,0 5,5 0,0 z"
         style="fill-rule:evenodd;stroke:#000000;stroke-width:1pt"
         transform="matrix(-0.4,0,0,-0.4,-4,0)" />
    </marker>
  </defs>
  <metadata
     id="metadata7">
    <rdf:RDF>
      <cc:Work
         rdf:about="">
        <dc:format>image/svg+xml</dc:format>
        <dc:type
           rdf:resource="http://purl.org/dc/dcmitype/StillImage" />
        <dc:title></dc:title>
      </cc:Work>
    </rdf:RDF>
  </metadata>
  <g
     inkscape:label="Layer 1"
     inkscape:groupmode="layer"
     id="layer1"
     transform="translate(-62.648321,24.03125)">
    <g
       transform="translate(-70.802424,-10.377215)"
       ns0:text="$\\{l_1\\}$"
       ns0:preamble="/home/cameron/Documents/Research/Bergman Lab/conferences/MSTP2013/inkscapebasicpre.inc"
       id="g2990">
      <defs
         id="defs2992">
        <g
           id="g2994">
          <symbol
             overflow="visible"
             id="textext-9507e43e-0"
             style="overflow:visible">
            <path
               style="stroke:none"
               d=""
               id="path2997"
               inkscape:connector-curvature="0" />
          </symbol>
          <symbol
             overflow="visible"
             id="textext-9507e43e-1"
             style="overflow:visible">
            <path
               style="stroke:none"
               d="m 2.828125,-6.15625 c 0,-0.390625 0.25,-1.03125 1.34375,-1.09375 C 4.21875,-7.265625 4.25,-7.3125 4.25,-7.359375 c 0,-0.125 -0.078125,-0.125 -0.1875,-0.125 -0.984375,0 -1.90625,0.515625 -1.90625,1.25 l 0,2.28125 c 0,0.390625 0,0.703125 -0.40625,1.03125 -0.34375,0.296875 -0.71875,0.3125 -0.9375,0.3125 C 0.75,-2.59375 0.71875,-2.546875 0.71875,-2.5 c 0,0.109375 0.0625,0.109375 0.15625,0.125 0.65625,0.03125 1.140625,0.390625 1.25,0.875 0.03125,0.109375 0.03125,0.140625 0.03125,0.5 l 0,1.96875 c 0,0.421875 0,0.734375 0.46875,1.109375 C 3.015625,2.375 3.671875,2.5 4.0625,2.5 4.171875,2.5 4.25,2.5 4.25,2.375 4.25,2.28125 4.203125,2.28125 4.09375,2.265625 3.46875,2.234375 2.984375,1.90625 2.84375,1.40625 2.828125,1.3125 2.828125,1.296875 2.828125,0.9375 l 0,-2.09375 c 0,-0.453125 -0.09375,-0.625 -0.40625,-0.953125 C 2.21875,-2.3125 1.921875,-2.40625 1.640625,-2.5 c 0.828125,-0.21875 1.1875,-0.6875 1.1875,-1.265625 z"
               id="path3000"
               inkscape:connector-curvature="0" />
          </symbol>
          <symbol
             overflow="visible"
             id="textext-9507e43e-2"
             style="overflow:visible">
            <path
               style="stroke:none"
               d="m 2.15625,1.171875 c 0,0.390625 -0.265625,1.03125 -1.34375,1.09375 C 0.75,2.28125 0.71875,2.328125 0.71875,2.375 0.71875,2.5 0.828125,2.5 0.921875,2.5 1.890625,2.5 2.8125,2 2.828125,1.25 l 0,-2.28125 c 0,-0.390625 0,-0.703125 0.390625,-1.03125 C 3.5625,-2.359375 3.953125,-2.375 4.171875,-2.375 4.21875,-2.390625 4.25,-2.4375 4.25,-2.5 4.25,-2.59375 4.203125,-2.59375 4.09375,-2.609375 3.4375,-2.640625 2.953125,-3 2.84375,-3.484375 2.828125,-3.59375 2.828125,-3.625 2.828125,-3.984375 l 0,-1.96875 c 0,-0.421875 0,-0.734375 -0.484375,-1.109375 C 1.9375,-7.375 1.25,-7.484375 0.921875,-7.484375 c -0.09375,0 -0.203125,0 -0.203125,0.125 0,0.09375 0.0625,0.09375 0.15625,0.109375 0.625,0.03125 1.125,0.359375 1.25,0.859375 0.03125,0.09375 0.03125,0.109375 0.03125,0.46875 l 0,2.09375 c 0,0.453125 0.078125,0.625 0.390625,0.953125 0.21875,0.203125 0.5,0.296875 0.78125,0.375 -0.8125,0.234375 -1.171875,0.703125 -1.171875,1.28125 z"
               id="path3003"
               inkscape:connector-curvature="0" />
          </symbol>
          <symbol
             overflow="visible"
             id="textext-9507e43e-3"
             style="overflow:visible">
            <path
               style="stroke:none"
               d=""
               id="path3006"
               inkscape:connector-curvature="0" />
          </symbol>
          <symbol
             overflow="visible"
             id="textext-9507e43e-4"
             style="overflow:visible">
            <path
               style="stroke:none"
               d="m 2.578125,-6.8125 c 0,0 0,-0.109375 -0.140625,-0.109375 -0.21875,0 -0.953125,0.078125 -1.21875,0.109375 -0.078125,0 -0.1875,0.015625 -0.1875,0.203125 0,0.109375 0.109375,0.109375 0.25,0.109375 0.484375,0 0.5,0.09375 0.5,0.171875 L 1.75,-6.125 0.484375,-1.140625 C 0.453125,-1.03125 0.4375,-0.96875 0.4375,-0.8125 c 0,0.578125 0.4375,0.921875 0.90625,0.921875 0.328125,0 0.578125,-0.203125 0.75,-0.5625 0.171875,-0.375 0.296875,-0.953125 0.296875,-0.96875 0,-0.109375 -0.09375,-0.109375 -0.125,-0.109375 -0.09375,0 -0.109375,0.046875 -0.125,0.1875 C 1.96875,-0.703125 1.78125,-0.109375 1.375,-0.109375 c -0.296875,0 -0.296875,-0.3125 -0.296875,-0.453125 0,-0.25 0.015625,-0.296875 0.0625,-0.484375 z"
               id="path3009"
               inkscape:connector-curvature="0" />
          </symbol>
          <symbol
             overflow="visible"
             id="textext-9507e43e-5"
             style="overflow:visible">
            <path
               style="stroke:none"
               d=""
               id="path3012"
               inkscape:connector-curvature="0" />
          </symbol>
          <symbol
             overflow="visible"
             id="textext-9507e43e-6"
             style="overflow:visible">
            <path
               style="stroke:none"
               d="m 2.328125,-4.4375 c 0,-0.1875 0,-0.1875 -0.203125,-0.1875 -0.453125,0.4375 -1.078125,0.4375 -1.359375,0.4375 l 0,0.25 c 0.15625,0 0.625,0 1,-0.1875 l 0,3.546875 c 0,0.234375 0,0.328125 -0.6875,0.328125 l -0.265625,0 0,0.25 c 0.125,0 0.984375,-0.03125 1.234375,-0.03125 0.21875,0 1.09375,0.03125 1.25,0.03125 l 0,-0.25 -0.265625,0 c -0.703125,0 -0.703125,-0.09375 -0.703125,-0.328125 z"
               id="path3015"
               inkscape:connector-curvature="0" />
          </symbol>
        </g>
      </defs>
      <g
         id="textext-9507e43e-7">
        <g
           style="fill:#000000;fill-opacity:1"
           id="g3018">
          <use
             xlink:href="#textext-9507e43e-1"
             x="141.73199"
             y="75.160004"
             id="use3020"
             width="744.09448"
             height="1052.3622" />
        </g>
        <g
           style="fill:#000000;fill-opacity:1"
           id="g3022">
          <use
             xlink:href="#textext-9507e43e-4"
             x="146.714"
             y="75.160004"
             id="use3024"
             width="744.09448"
             height="1052.3622" />
        </g>
        <g
           style="fill:#000000;fill-opacity:1"
           id="g3026">
          <use
             xlink:href="#textext-9507e43e-6"
             x="149.686"
             y="76.653999"
             id="use3028"
             width="744.09448"
             height="1052.3622" />
        </g>
        <g
           style="fill:#000000;fill-opacity:1"
           id="g3030">
          <use
             xlink:href="#textext-9507e43e-2"
             x="154.15601"
             y="75.160004"
             id="use3032"
             width="744.09448"
             height="1052.3622" />
        </g>
      </g>
    </g>
    <g
       id="g3302"
       transform="translate(-67.081072,24.213501)"
       ns0:preamble="/home/cameron/Documents/Research/Bergman Lab/conferences/MSTP2013/inkscapebasicpre.inc"
       ns0:text="$\\{ \\}$">
      <defs
         id="defs3304">
        <g
           id="g3306">
          <symbol
             id="textext-7d9a8ae1-0"
             overflow="visible"
             style="overflow:visible">
            <path
               id="path3309"
               d=""
               style="stroke:none"
               inkscape:connector-curvature="0" />
          </symbol>
          <symbol
             id="textext-7d9a8ae1-1"
             overflow="visible"
             style="overflow:visible">
            <path
               id="path3312"
               d="m 2.828125,-6.15625 c 0,-0.390625 0.25,-1.03125 1.34375,-1.09375 C 4.21875,-7.265625 4.25,-7.3125 4.25,-7.359375 c 0,-0.125 -0.078125,-0.125 -0.1875,-0.125 -0.984375,0 -1.90625,0.515625 -1.90625,1.25 l 0,2.28125 c 0,0.390625 0,0.703125 -0.40625,1.03125 -0.34375,0.296875 -0.71875,0.3125 -0.9375,0.3125 C 0.75,-2.59375 0.71875,-2.546875 0.71875,-2.5 c 0,0.109375 0.0625,0.109375 0.15625,0.125 0.65625,0.03125 1.140625,0.390625 1.25,0.875 0.03125,0.109375 0.03125,0.140625 0.03125,0.5 l 0,1.96875 c 0,0.421875 0,0.734375 0.46875,1.109375 C 3.015625,2.375 3.671875,2.5 4.0625,2.5 4.171875,2.5 4.25,2.5 4.25,2.375 4.25,2.28125 4.203125,2.28125 4.09375,2.265625 3.46875,2.234375 2.984375,1.90625 2.84375,1.40625 2.828125,1.3125 2.828125,1.296875 2.828125,0.9375 l 0,-2.09375 c 0,-0.453125 -0.09375,-0.625 -0.40625,-0.953125 C 2.21875,-2.3125 1.921875,-2.40625 1.640625,-2.5 c 0.828125,-0.21875 1.1875,-0.6875 1.1875,-1.265625 z"
               style="stroke:none"
               inkscape:connector-curvature="0" />
          </symbol>
          <symbol
             id="textext-7d9a8ae1-2"
             overflow="visible"
             style="overflow:visible">
            <path
               id="path3315"
               d="m 2.15625,1.171875 c 0,0.390625 -0.265625,1.03125 -1.34375,1.09375 C 0.75,2.28125 0.71875,2.328125 0.71875,2.375 0.71875,2.5 0.828125,2.5 0.921875,2.5 1.890625,2.5 2.8125,2 2.828125,1.25 l 0,-2.28125 c 0,-0.390625 0,-0.703125 0.390625,-1.03125 C 3.5625,-2.359375 3.953125,-2.375 4.171875,-2.375 4.21875,-2.390625 4.25,-2.4375 4.25,-2.5 4.25,-2.59375 4.203125,-2.59375 4.09375,-2.609375 3.4375,-2.640625 2.953125,-3 2.84375,-3.484375 2.828125,-3.59375 2.828125,-3.625 2.828125,-3.984375 l 0,-1.96875 c 0,-0.421875 0,-0.734375 -0.484375,-1.109375 C 1.9375,-7.375 1.25,-7.484375 0.921875,-7.484375 c -0.09375,0 -0.203125,0 -0.203125,0.125 0,0.09375 0.0625,0.09375 0.15625,0.109375 0.625,0.03125 1.125,0.359375 1.25,0.859375 0.03125,0.09375 0.03125,0.109375 0.03125,0.46875 l 0,2.09375 c 0,0.453125 0.078125,0.625 0.390625,0.953125 0.21875,0.203125 0.5,0.296875 0.78125,0.375 -0.8125,0.234375 -1.171875,0.703125 -1.171875,1.28125 z"
               style="stroke:none"
               inkscape:connector-curvature="0" />
          </symbol>
        </g>
      </defs>
      <g
         id="textext-7d9a8ae1-3">
        <g
           id="g3318"
           style="fill:#000000;fill-opacity:1">
          <use
             id="use3320"
             y="75.160004"
             x="141.73199"
             xlink:href="#textext-7d9a8ae1-1"
             width="744.09448"
             height="1052.3622" />
          <use
             id="use3322"
             y="75.160004"
             x="146.7133"
             xlink:href="#textext-7d9a8ae1-2"
             width="744.09448"
             height="1052.3622" />
        </g>
      </g>
    </g>
    <g
       ns0:text="$\\{l_1,l_2\\}$"
       ns0:preamble="/home/cameron/Documents/Research/Bergman Lab/conferences/MSTP2013/inkscapebasicpre.inc"
       transform="translate(-34.158332,-10.377215)"
       id="g3488">
      <defs
         id="defs3490">
        <g
           id="g3492">
          <symbol
             overflow="visible"
             id="textext-8eacf3e6-0"
             style="overflow:visible">
            <path
               style="stroke:none"
               d=""
               id="path3495"
               inkscape:connector-curvature="0" />
          </symbol>
          <symbol
             overflow="visible"
             id="textext-8eacf3e6-1"
             style="overflow:visible">
            <path
               style="stroke:none"
               d="m 2.828125,-6.15625 c 0,-0.390625 0.25,-1.03125 1.34375,-1.09375 C 4.21875,-7.265625 4.25,-7.3125 4.25,-7.359375 c 0,-0.125 -0.078125,-0.125 -0.1875,-0.125 -0.984375,0 -1.90625,0.515625 -1.90625,1.25 l 0,2.28125 c 0,0.390625 0,0.703125 -0.40625,1.03125 -0.34375,0.296875 -0.71875,0.3125 -0.9375,0.3125 C 0.75,-2.59375 0.71875,-2.546875 0.71875,-2.5 c 0,0.109375 0.0625,0.109375 0.15625,0.125 0.65625,0.03125 1.140625,0.390625 1.25,0.875 0.03125,0.109375 0.03125,0.140625 0.03125,0.5 l 0,1.96875 c 0,0.421875 0,0.734375 0.46875,1.109375 C 3.015625,2.375 3.671875,2.5 4.0625,2.5 4.171875,2.5 4.25,2.5 4.25,2.375 4.25,2.28125 4.203125,2.28125 4.09375,2.265625 3.46875,2.234375 2.984375,1.90625 2.84375,1.40625 2.828125,1.3125 2.828125,1.296875 2.828125,0.9375 l 0,-2.09375 c 0,-0.453125 -0.09375,-0.625 -0.40625,-0.953125 C 2.21875,-2.3125 1.921875,-2.40625 1.640625,-2.5 c 0.828125,-0.21875 1.1875,-0.6875 1.1875,-1.265625 z"
               id="path3498"
               inkscape:connector-curvature="0" />
          </symbol>
          <symbol
             overflow="visible"
             id="textext-8eacf3e6-2"
             style="overflow:visible">
            <path
               style="stroke:none"
               d="m 2.15625,1.171875 c 0,0.390625 -0.265625,1.03125 -1.34375,1.09375 C 0.75,2.28125 0.71875,2.328125 0.71875,2.375 0.71875,2.5 0.828125,2.5 0.921875,2.5 1.890625,2.5 2.8125,2 2.828125,1.25 l 0,-2.28125 c 0,-0.390625 0,-0.703125 0.390625,-1.03125 C 3.5625,-2.359375 3.953125,-2.375 4.171875,-2.375 4.21875,-2.390625 4.25,-2.4375 4.25,-2.5 4.25,-2.59375 4.203125,-2.59375 4.09375,-2.609375 3.4375,-2.640625 2.953125,-3 2.84375,-3.484375 2.828125,-3.59375 2.828125,-3.625 2.828125,-3.984375 l 0,-1.96875 c 0,-0.421875 0,-0.734375 -0.484375,-1.109375 C 1.9375,-7.375 1.25,-7.484375 0.921875,-7.484375 c -0.09375,0 -0.203125,0 -0.203125,0.125 0,0.09375 0.0625,0.09375 0.15625,0.109375 0.625,0.03125 1.125,0.359375 1.25,0.859375 0.03125,0.09375 0.03125,0.109375 0.03125,0.46875 l 0,2.09375 c 0,0.453125 0.078125,0.625 0.390625,0.953125 0.21875,0.203125 0.5,0.296875 0.78125,0.375 -0.8125,0.234375 -1.171875,0.703125 -1.171875,1.28125 z"
               id="path3501"
               inkscape:connector-curvature="0" />
          </symbol>
          <symbol
             overflow="visible"
             id="textext-8eacf3e6-3"
             style="overflow:visible">
            <path
               style="stroke:none"
               d=""
               id="path3504"
               inkscape:connector-curvature="0" />
          </symbol>
          <symbol
             overflow="visible"
             id="textext-8eacf3e6-4"
             style="overflow:visible">
            <path
               style="stroke:none"
               d="m 2.578125,-6.8125 c 0,0 0,-0.109375 -0.140625,-0.109375 -0.21875,0 -0.953125,0.078125 -1.21875,0.109375 -0.078125,0 -0.1875,0.015625 -0.1875,0.203125 0,0.109375 0.109375,0.109375 0.25,0.109375 0.484375,0 0.5,0.09375 0.5,0.171875 L 1.75,-6.125 0.484375,-1.140625 C 0.453125,-1.03125 0.4375,-0.96875 0.4375,-0.8125 c 0,0.578125 0.4375,0.921875 0.90625,0.921875 0.328125,0 0.578125,-0.203125 0.75,-0.5625 0.171875,-0.375 0.296875,-0.953125 0.296875,-0.96875 0,-0.109375 -0.09375,-0.109375 -0.125,-0.109375 -0.09375,0 -0.109375,0.046875 -0.125,0.1875 C 1.96875,-0.703125 1.78125,-0.109375 1.375,-0.109375 c -0.296875,0 -0.296875,-0.3125 -0.296875,-0.453125 0,-0.25 0.015625,-0.296875 0.0625,-0.484375 z"
               id="path3507"
               inkscape:connector-curvature="0" />
          </symbol>
          <symbol
             overflow="visible"
             id="textext-8eacf3e6-5"
             style="overflow:visible">
            <path
               style="stroke:none"
               d="m 2.03125,-0.015625 c 0,-0.65625 -0.25,-1.046875 -0.640625,-1.046875 -0.328125,0 -0.53125,0.25 -0.53125,0.53125 C 0.859375,-0.265625 1.0625,0 1.390625,0 1.5,0 1.640625,-0.046875 1.734375,-0.125 1.765625,-0.15625 1.78125,-0.15625 1.78125,-0.15625 c 0.015625,0 0.015625,0 0.015625,0.140625 0,0.75 -0.34375,1.34375 -0.671875,1.671875 -0.109375,0.109375 -0.109375,0.125 -0.109375,0.15625 0,0.078125 0.046875,0.109375 0.09375,0.109375 0.109375,0 0.921875,-0.765625 0.921875,-1.9375 z"
               id="path3510"
               inkscape:connector-curvature="0" />
          </symbol>
          <symbol
             overflow="visible"
             id="textext-8eacf3e6-6"
             style="overflow:visible">
            <path
               style="stroke:none"
               d=""
               id="path3513"
               inkscape:connector-curvature="0" />
          </symbol>
          <symbol
             overflow="visible"
             id="textext-8eacf3e6-7"
             style="overflow:visible">
            <path
               style="stroke:none"
               d="m 2.328125,-4.4375 c 0,-0.1875 0,-0.1875 -0.203125,-0.1875 -0.453125,0.4375 -1.078125,0.4375 -1.359375,0.4375 l 0,0.25 c 0.15625,0 0.625,0 1,-0.1875 l 0,3.546875 c 0,0.234375 0,0.328125 -0.6875,0.328125 l -0.265625,0 0,0.25 c 0.125,0 0.984375,-0.03125 1.234375,-0.03125 0.21875,0 1.09375,0.03125 1.25,0.03125 l 0,-0.25 -0.265625,0 c -0.703125,0 -0.703125,-0.09375 -0.703125,-0.328125 z"
               id="path3516"
               inkscape:connector-curvature="0" />
          </symbol>
          <symbol
             overflow="visible"
             id="textext-8eacf3e6-8"
             style="overflow:visible">
            <path
               style="stroke:none"
               d="m 3.515625,-1.265625 -0.234375,0 c -0.015625,0.15625 -0.09375,0.5625 -0.1875,0.625 -0.046875,0.046875 -0.578125,0.046875 -0.6875,0.046875 l -1.28125,0 c 0.734375,-0.640625 0.984375,-0.84375 1.390625,-1.171875 0.515625,-0.40625 1,-0.84375 1,-1.5 0,-0.84375 -0.734375,-1.359375 -1.625,-1.359375 -0.859375,0 -1.453125,0.609375 -1.453125,1.25 0,0.34375 0.296875,0.390625 0.375,0.390625 0.15625,0 0.359375,-0.125 0.359375,-0.375 0,-0.125 -0.046875,-0.375 -0.40625,-0.375 C 0.984375,-4.21875 1.453125,-4.375 1.78125,-4.375 c 0.703125,0 1.0625,0.546875 1.0625,1.109375 0,0.609375 -0.4375,1.078125 -0.65625,1.328125 L 0.515625,-0.265625 C 0.4375,-0.203125 0.4375,-0.1875 0.4375,0 l 2.875,0 z"
               id="path3519"
               inkscape:connector-curvature="0" />
          </symbol>
        </g>
      </defs>
      <g
         id="textext-8eacf3e6-9">
        <g
           style="fill:#000000;fill-opacity:1"
           id="g3522">
          <use
             xlink:href="#textext-8eacf3e6-1"
             x="141.73199"
             y="75.160004"
             id="use3524"
             width="744.09448"
             height="1052.3622" />
        </g>
        <g
           style="fill:#000000;fill-opacity:1"
           id="g3526">
          <use
             xlink:href="#textext-8eacf3e6-4"
             x="146.714"
             y="75.160004"
             id="use3528"
             width="744.09448"
             height="1052.3622" />
        </g>
        <g
           style="fill:#000000;fill-opacity:1"
           id="g3530">
          <use
             xlink:href="#textext-8eacf3e6-7"
             x="149.686"
             y="76.653999"
             id="use3532"
             width="744.09448"
             height="1052.3622" />
        </g>
        <g
           style="fill:#000000;fill-opacity:1"
           id="g3534">
          <use
             xlink:href="#textext-8eacf3e6-5"
             x="154.15601"
             y="75.160004"
             id="use3536"
             width="744.09448"
             height="1052.3622" />
        </g>
        <g
           style="fill:#000000;fill-opacity:1"
           id="g3538">
          <use
             xlink:href="#textext-8eacf3e6-4"
             x="158.58736"
             y="75.160004"
             id="use3540"
             width="744.09448"
             height="1052.3622" />
        </g>
        <g
           style="fill:#000000;fill-opacity:1"
           id="g3542">
          <use
             xlink:href="#textext-8eacf3e6-8"
             x="161.556"
             y="76.653999"
             id="use3544"
             width="744.09448"
             height="1052.3622" />
        </g>
        <g
           style="fill:#000000;fill-opacity:1"
           id="g3546">
          <use
             xlink:href="#textext-8eacf3e6-2"
             x="166.02499"
             y="75.160004"
             id="use3548"
             width="744.09448"
             height="1052.3622" />
        </g>
      </g>
    </g>
    <g
       id="g3812"
       transform="translate(-46.691749,-9.9448309)"
       ns0:preamble="/home/cameron/Documents/Research/Bergman Lab/conferences/MSTP2013/inkscapebasicpre.inc"
       ns0:text="$\\subset$">
      <defs
         id="defs3814">
        <g
           id="g3816">
          <symbol
             id="textext-3343ed8d-0"
             overflow="visible"
             style="overflow:visible">
            <path
               id="path3819"
               d=""
               style="stroke:none"
               inkscape:connector-curvature="0" />
          </symbol>
          <symbol
             id="textext-3343ed8d-1"
             overflow="visible"
             style="overflow:visible">
            <path
               id="path3822"
               d="m 6.5625,-4.984375 c 0.171875,0 0.359375,0 0.359375,-0.203125 0,-0.203125 -0.1875,-0.203125 -0.359375,-0.203125 l -2.671875,0 c -1.703125,0 -3.0625,1.296875 -3.0625,2.890625 0,1.609375 1.359375,2.90625 3.0625,2.90625 l 2.671875,0 c 0.171875,0 0.359375,0 0.359375,-0.203125 C 6.921875,0 6.734375,0 6.5625,0 L 3.90625,0 c -1.546875,0 -2.6875,-1.15625 -2.6875,-2.5 0,-1.328125 1.140625,-2.484375 2.6875,-2.484375 z"
               style="stroke:none"
               inkscape:connector-curvature="0" />
          </symbol>
        </g>
      </defs>
      <g
         id="textext-3343ed8d-2">
        <g
           id="g3825"
           style="fill:#000000;fill-opacity:1">
          <use
             id="use3827"
             y="75.160004"
             x="141.73199"
             xlink:href="#textext-3343ed8d-1"
             width="744.09448"
             height="1052.3622" />
        </g>
      </g>
    </g>
    <g
       ns0:text="$\\subset$"
       ns0:preamble="/home/cameron/Documents/Research/Bergman Lab/conferences/MSTP2013/inkscapebasicpre.inc"
       transform="matrix(0,-1,1,0,6.958135,226.05773)"
       id="g3943">
      <defs
         id="defs3945">
        <g
           id="g3947">
          <symbol
             style="overflow:visible"
             overflow="visible"
             id="symbol3949">
            <path
               inkscape:connector-curvature="0"
               style="stroke:none"
               d=""
               id="path3951" />
          </symbol>
          <symbol
             style="overflow:visible"
             overflow="visible"
             id="symbol3953">
            <path
               inkscape:connector-curvature="0"
               style="stroke:none"
               d="m 6.5625,-4.984375 c 0.171875,0 0.359375,0 0.359375,-0.203125 0,-0.203125 -0.1875,-0.203125 -0.359375,-0.203125 l -2.671875,0 c -1.703125,0 -3.0625,1.296875 -3.0625,2.890625 0,1.609375 1.359375,2.90625 3.0625,2.90625 l 2.671875,0 c 0.171875,0 0.359375,0 0.359375,-0.203125 C 6.921875,0 6.734375,0 6.5625,0 L 3.90625,0 c -1.546875,0 -2.6875,-1.15625 -2.6875,-2.5 0,-1.328125 1.140625,-2.484375 2.6875,-2.484375 z"
               id="path3955" />
          </symbol>
        </g>
      </defs>
      <g
         id="g3957">
        <g
           style="fill:#000000;fill-opacity:1"
           id="g3959">
          <use
             height="1052.3622"
             width="744.09448"
             xlink:href="#textext-3343ed8d-1"
             x="141.73199"
             y="75.160004"
             id="use3961" />
        </g>
      </g>
    </g>
    <g
       id="g3963"
       transform="translate(-46.691758,24.645885)"
       ns0:preamble="/home/cameron/Documents/Research/Bergman Lab/conferences/MSTP2013/inkscapebasicpre.inc"
       ns0:text="$\\subset$">
      <defs
         id="defs3965">
        <g
           id="g3967">
          <symbol
             id="symbol3969"
             overflow="visible"
             style="overflow:visible">
            <path
               id="path3971"
               d=""
               style="stroke:none"
               inkscape:connector-curvature="0" />
          </symbol>
          <symbol
             id="symbol3973"
             overflow="visible"
             style="overflow:visible">
            <path
               id="path3975"
               d="m 6.5625,-4.984375 c 0.171875,0 0.359375,0 0.359375,-0.203125 0,-0.203125 -0.1875,-0.203125 -0.359375,-0.203125 l -2.671875,0 c -1.703125,0 -3.0625,1.296875 -3.0625,2.890625 0,1.609375 1.359375,2.90625 3.0625,2.90625 l 2.671875,0 c 0.171875,0 0.359375,0 0.359375,-0.203125 C 6.921875,0 6.734375,0 6.5625,0 L 3.90625,0 c -1.546875,0 -2.6875,-1.15625 -2.6875,-2.5 0,-1.328125 1.140625,-2.484375 2.6875,-2.484375 z"
               style="stroke:none"
               inkscape:connector-curvature="0" />
          </symbol>
        </g>
      </defs>
      <g
         id="g3977">
        <g
           id="g3979"
           style="fill:#000000;fill-opacity:1">
          <use
             id="use3981"
             y="75.160004"
             x="141.73199"
             xlink:href="#textext-3343ed8d-1"
             width="744.09448"
             height="1052.3622" />
        </g>
      </g>
    </g>
    <g
       ns0:text="$\\subset$"
       ns0:preamble="/home/cameron/Documents/Research/Bergman Lab/conferences/MSTP2013/inkscapebasicpre.inc"
       transform="matrix(0,-1,1,0,49.536726,226.05773)"
       id="g3983">
      <defs
         id="defs3985">
        <g
           id="g3987">
          <symbol
             style="overflow:visible"
             overflow="visible"
             id="symbol3989">
            <path
               inkscape:connector-curvature="0"
               style="stroke:none"
               d=""
               id="path3991" />
          </symbol>
          <symbol
             style="overflow:visible"
             overflow="visible"
             id="symbol3993">
            <path
               inkscape:connector-curvature="0"
               style="stroke:none"
               d="m 6.5625,-4.984375 c 0.171875,0 0.359375,0 0.359375,-0.203125 0,-0.203125 -0.1875,-0.203125 -0.359375,-0.203125 l -2.671875,0 c -1.703125,0 -3.0625,1.296875 -3.0625,2.890625 0,1.609375 1.359375,2.90625 3.0625,2.90625 l 2.671875,0 c 0.171875,0 0.359375,0 0.359375,-0.203125 C 6.921875,0 6.734375,0 6.5625,0 L 3.90625,0 c -1.546875,0 -2.6875,-1.15625 -2.6875,-2.5 0,-1.328125 1.140625,-2.484375 2.6875,-2.484375 z"
               id="path3995" />
          </symbol>
        </g>
      </defs>
      <g
         id="g3997">
        <g
           style="fill:#000000;fill-opacity:1"
           id="g3999">
          <use
             height="1052.3622"
             width="744.09448"
             xlink:href="#textext-3343ed8d-1"
             x="141.73199"
             y="75.160004"
             id="use4001" />
        </g>
      </g>
    </g>
    <path
       style="fill:#000000;stroke:#000000;stroke-width:1px;stroke-linecap:butt;stroke-linejoin:miter;stroke-opacity:1;marker-end:url(#Arrow1Mend)"
       d="m 137.4981,71.5022 69.61381,0"
       id="path4573"
       inkscape:connector-curvature="0"
       transform="translate(17.648321,4.271726)" />
    <g
       ns0:text="$\\mathcal{E}$"
       ns0:preamble="/home/cameron/Documents/Research/Bergman Lab/conferences/MSTP2013/inkscapebasicpre.inc"
       transform="translate(46.037867,-7.2640382)"
       id="g6144">
      <defs
         id="defs6146">
        <g
           id="g6148">
          <symbol
             style="overflow:visible"
             overflow="visible"
             id="textext-ad085d66-0">
            <path
               inkscape:connector-curvature="0"
               style="stroke:none"
               d=""
               id="path6151" />
          </symbol>
          <symbol
             style="overflow:visible"
             overflow="visible"
             id="textext-ad085d66-1">
            <path
               inkscape:connector-curvature="0"
               style="stroke:none"
               d="m 2.375,-3.625 c -1.984375,1.078125 -2.09375,2.375 -2.09375,2.609375 0,0.75 0.734375,1.234375 1.6875,1.234375 1.65625,0 3,-1.578125 3,-1.78125 0,-0.0625 -0.046875,-0.078125 -0.109375,-0.078125 -0.109375,0 -0.5,0.140625 -0.71875,0.4375 -0.21875,0.296875 -0.625,0.875 -1.515625,0.875 -0.71875,0 -1.5,-0.375 -1.5,-1.125 0,-0.484375 0.5625,-1.953125 2.140625,-2.015625 0.46875,-0.015625 0.8125,-0.375 0.8125,-0.484375 0,-0.046875 -0.046875,-0.0625 -0.09375,-0.0625 -1.40625,-0.0625 -1.6875,-0.75 -1.6875,-1.140625 0,-0.234375 0.140625,-1.328125 1.546875,-1.328125 0.1875,0 0.9375,0.03125 0.9375,0.546875 0,0.171875 -0.078125,0.3125 -0.109375,0.359375 -0.03125,0.03125 -0.0625,0.078125 -0.0625,0.109375 0,0.078125 0.078125,0.078125 0.109375,0.078125 0.296875,0 0.90625,-0.390625 0.90625,-0.953125 0,-0.59375 -0.6875,-0.6875 -1.125,-0.6875 -1.359375,0 -3.046875,1.078125 -3.046875,2.296875 0,0.59375 0.4375,0.953125 0.921875,1.109375 z"
               id="path6154" />
          </symbol>
        </g>
      </defs>
      <g
         id="textext-ad085d66-2">
        <g
           style="fill:#000000;fill-opacity:1"
           id="g6157">
          <use
             height="147.60178"
             width="349.20483"
             xlink:href="#textext-ad085d66-1"
             x="141.73199"
             y="75.160004"
             id="use6159" />
        </g>
      </g>
    </g>
    <g
       transform="translate(-4.2068338,-24)"
       id="g6974">
      <rect
         style="fill:none;stroke:#000000;stroke-width:2;stroke-linecap:square;stroke-linejoin:round;stroke-miterlimit:4;stroke-opacity:1;stroke-dasharray:none;stroke-dashoffset:0"
         id="rect6434"
         width="124.67607"
         height="91.98558"
         x="345.65616"
         y="6.2061019"
         ry="18.760218" />
      <path
         sodipodi:type="arc"
         style="fill:#2c3e50;fill-opacity:1;stroke:none"
         id="path6440"
         sodipodi:cx="144.97388"
         sodipodi:cy="8.9655561"
         sodipodi:rx="2.6935036"
         sodipodi:ry="2.6935036"
         d="m 147.66738,8.9655561 c 0,1.4875809 -1.20592,2.6935039 -2.6935,2.6935039 -1.48758,0 -2.69351,-1.205923 -2.69351,-2.6935039 0,-1.4875809 1.20593,-2.6935036 2.69351,-2.6935036 1.48758,0 2.6935,1.2059227 2.6935,2.6935036 z"
         transform="matrix(0.6561,0,0,0.6561,297.61679,17.176345)" />
      <path
         transform="matrix(0.6561,0,0,0.6561,297.61679,31.176345)"
         d="m 147.66738,8.9655561 c 0,1.4875809 -1.20592,2.6935039 -2.6935,2.6935039 -1.48758,0 -2.69351,-1.205923 -2.69351,-2.6935039 0,-1.4875809 1.20593,-2.6935036 2.69351,-2.6935036 1.48758,0 2.6935,1.2059227 2.6935,2.6935036 z"
         sodipodi:ry="2.6935036"
         sodipodi:rx="2.6935036"
         sodipodi:cy="8.9655561"
         sodipodi:cx="144.97388"
         id="path6442"
         style="fill:#2c3e50;fill-opacity:1;stroke:none"
         sodipodi:type="arc" />
      <path
         sodipodi:type="arc"
         style="fill:none;stroke:#2c3e50;stroke-width:1.5;stroke-miterlimit:4;stroke-opacity:1;stroke-dasharray:none"
         id="path6444"
         sodipodi:cx="151.9453"
         sodipodi:cy="-49.974644"
         sodipodi:rx="4.5948005"
         sodipodi:ry="17.586994"
         d="m 156.5401,-49.974644 c 0,9.713029 -2.05716,17.586994 -4.5948,17.586994 -2.53764,0 -4.5948,-7.873965 -4.5948,-17.586994 0,-9.713028 2.05716,-17.586994 4.5948,-17.586994 2.53764,0 4.5948,7.873966 4.5948,17.586994 z"
         transform="translate(240.78885,80.00471)" />
      <path
         transform="matrix(0.6561,0,0,0.6561,272.58305,17.176345)"
         d="m 147.66738,8.9655561 c 0,1.4875809 -1.20592,2.6935039 -2.6935,2.6935039 -1.48758,0 -2.69351,-1.205923 -2.69351,-2.6935039 0,-1.4875809 1.20593,-2.6935036 2.69351,-2.6935036 1.48758,0 2.6935,1.2059227 2.6935,2.6935036 z"
         sodipodi:ry="2.6935036"
         sodipodi:rx="2.6935036"
         sodipodi:cy="8.9655561"
         sodipodi:cx="144.97388"
         id="path6446"
         style="fill:#c0392b;fill-opacity:1;stroke:none"
         sodipodi:type="arc" />
      <path
         sodipodi:type="arc"
         style="fill:#c0392b;fill-opacity:1;stroke:none"
         id="path6448"
         sodipodi:cx="144.97388"
         sodipodi:cy="8.9655561"
         sodipodi:rx="2.6935036"
         sodipodi:ry="2.6935036"
         d="m 147.66738,8.9655561 c 0,1.4875809 -1.20592,2.6935039 -2.6935,2.6935039 -1.48758,0 -2.69351,-1.205923 -2.69351,-2.6935039 0,-1.4875809 1.20593,-2.6935036 2.69351,-2.6935036 1.48758,0 2.6935,1.2059227 2.6935,2.6935036 z"
         transform="matrix(0.6561,0,0,0.6561,272.58305,31.176345)" />
      <path
         transform="translate(215.75511,80.00471)"
         d="m 156.5401,-49.974644 c 0,9.713029 -2.05716,17.586994 -4.5948,17.586994 -2.53764,0 -4.5948,-7.873965 -4.5948,-17.586994 0,-9.713028 2.05716,-17.586994 4.5948,-17.586994 2.53764,0 4.5948,7.873966 4.5948,17.586994 z"
         sodipodi:ry="17.586994"
         sodipodi:rx="4.5948005"
         sodipodi:cy="-49.974644"
         sodipodi:cx="151.9453"
         id="path6450"
         style="fill:none;stroke:#c0392b;stroke-width:1.5;stroke-miterlimit:4;stroke-opacity:1;stroke-dasharray:none"
         sodipodi:type="arc" />
      <path
         style="fill:none;stroke:#000000;stroke-width:1px;stroke-linecap:butt;stroke-linejoin:miter;stroke-opacity:1;marker-end:url(#Arrow1Send)"
         d="m 369.40692,23.058646 19.72675,0"
         id="path6452"
         inkscape:connector-curvature="0"
         sodipodi:nodetypes="cc" />
      <path
         style="fill:none;stroke:#000000;stroke-width:1px;stroke-linecap:butt;stroke-linejoin:miter;stroke-opacity:1;marker-end:url(#Arrow1Send)"
         d="M 369.23616,36.318634 389.6329,24.14722"
         id="path6842"
         inkscape:connector-curvature="0"
         sodipodi:nodetypes="cc" />
      <path
         transform="matrix(0.6561,0,0,0.6561,351.61679,17.176345)"
         d="m 147.66738,8.9655561 c 0,1.4875809 -1.20592,2.6935039 -2.6935,2.6935039 -1.48758,0 -2.69351,-1.205923 -2.69351,-2.6935039 0,-1.4875809 1.20593,-2.6935036 2.69351,-2.6935036 1.48758,0 2.6935,1.2059227 2.6935,2.6935036 z"
         sodipodi:ry="2.6935036"
         sodipodi:rx="2.6935036"
         sodipodi:cy="8.9655561"
         sodipodi:cx="144.97388"
         id="path6846"
         style="fill:#2c3e50;fill-opacity:1;stroke:none"
         sodipodi:type="arc" />
      <path
         sodipodi:type="arc"
         style="fill:#2c3e50;fill-opacity:1;stroke:none"
         id="path6848"
         sodipodi:cx="144.97388"
         sodipodi:cy="8.9655561"
         sodipodi:rx="2.6935036"
         sodipodi:ry="2.6935036"
         d="m 147.66738,8.9655561 c 0,1.4875809 -1.20592,2.6935039 -2.6935,2.6935039 -1.48758,0 -2.69351,-1.205923 -2.69351,-2.6935039 0,-1.4875809 1.20593,-2.6935036 2.69351,-2.6935036 1.48758,0 2.6935,1.2059227 2.6935,2.6935036 z"
         transform="matrix(0.6561,0,0,0.6561,351.61679,31.176345)" />
      <path
         transform="translate(294.78885,80.00471)"
         d="m 156.5401,-49.974644 c 0,9.713029 -2.05716,17.586994 -4.5948,17.586994 -2.53764,0 -4.5948,-7.873965 -4.5948,-17.586994 0,-9.713028 2.05716,-17.586994 4.5948,-17.586994 2.53764,0 4.5948,7.873966 4.5948,17.586994 z"
         sodipodi:ry="17.586994"
         sodipodi:rx="4.5948005"
         sodipodi:cy="-49.974644"
         sodipodi:cx="151.9453"
         id="path6850"
         style="fill:none;stroke:#2c3e50;stroke-width:1.5;stroke-miterlimit:4;stroke-opacity:1;stroke-dasharray:none"
         sodipodi:type="arc" />
      <path
         sodipodi:type="arc"
         style="fill:#c0392b;fill-opacity:1;stroke:none"
         id="path6852"
         sodipodi:cx="144.97388"
         sodipodi:cy="8.9655561"
         sodipodi:rx="2.6935036"
         sodipodi:ry="2.6935036"
         d="m 147.66738,8.9655561 c 0,1.4875809 -1.20592,2.6935039 -2.6935,2.6935039 -1.48758,0 -2.69351,-1.205923 -2.69351,-2.6935039 0,-1.4875809 1.20593,-2.6935036 2.69351,-2.6935036 1.48758,0 2.6935,1.2059227 2.6935,2.6935036 z"
         transform="matrix(0.6561,0,0,0.6561,326.58305,17.176345)" />
      <path
         transform="matrix(0.6561,0,0,0.6561,326.58305,31.176345)"
         d="m 147.66738,8.9655561 c 0,1.4875809 -1.20592,2.6935039 -2.6935,2.6935039 -1.48758,0 -2.69351,-1.205923 -2.69351,-2.6935039 0,-1.4875809 1.20593,-2.6935036 2.69351,-2.6935036 1.48758,0 2.6935,1.2059227 2.6935,2.6935036 z"
         sodipodi:ry="2.6935036"
         sodipodi:rx="2.6935036"
         sodipodi:cy="8.9655561"
         sodipodi:cx="144.97388"
         id="path6854"
         style="fill:#c0392b;fill-opacity:1;stroke:none"
         sodipodi:type="arc" />
      <path
         sodipodi:type="arc"
         style="fill:none;stroke:#c0392b;stroke-width:1.5;stroke-miterlimit:4;stroke-opacity:1;stroke-dasharray:none"
         id="path6856"
         sodipodi:cx="151.9453"
         sodipodi:cy="-49.974644"
         sodipodi:rx="4.5948005"
         sodipodi:ry="17.586994"
         d="m 156.5401,-49.974644 c 0,9.713029 -2.05716,17.586994 -4.5948,17.586994 -2.53764,0 -4.5948,-7.873965 -4.5948,-17.586994 0,-9.713028 2.05716,-17.586994 4.5948,-17.586994 2.53764,0 4.5948,7.873966 4.5948,17.586994 z"
         transform="translate(269.75511,80.00471)" />
      <path
         sodipodi:nodetypes="cc"
         inkscape:connector-curvature="0"
         id="path6858"
         d="m 423.40692,23.058646 19.72675,0"
         style="fill:none;stroke:#000000;stroke-width:1px;stroke-linecap:butt;stroke-linejoin:miter;stroke-opacity:1;marker-end:url(#Arrow1Send)" />
      <path
         style="fill:none;stroke:#000000;stroke-width:1px;stroke-linecap:butt;stroke-linejoin:miter;stroke-opacity:1;marker-end:url(#Arrow1Send)"
         d="m 423.40692,37.058646 19.72675,0"
         id="path6860"
         inkscape:connector-curvature="0"
         sodipodi:nodetypes="cc" />
      <path
         sodipodi:type="arc"
         style="fill:#2c3e50;fill-opacity:1;stroke:none"
         id="path6880"
         sodipodi:cx="144.97388"
         sodipodi:cy="8.9655561"
         sodipodi:rx="2.6935036"
         sodipodi:ry="2.6935036"
         d="m 147.66738,8.9655561 c 0,1.4875809 -1.20592,2.6935039 -2.6935,2.6935039 -1.48758,0 -2.69351,-1.205923 -2.69351,-2.6935039 0,-1.4875809 1.20593,-2.6935036 2.69351,-2.6935036 1.48758,0 2.6935,1.2059227 2.6935,2.6935036 z"
         transform="matrix(0.6561,0,0,0.6561,351.61679,61.176345)" />
      <path
         transform="matrix(0.6561,0,0,0.6561,351.61679,75.176345)"
         d="m 147.66738,8.9655561 c 0,1.4875809 -1.20592,2.6935039 -2.6935,2.6935039 -1.48758,0 -2.69351,-1.205923 -2.69351,-2.6935039 0,-1.4875809 1.20593,-2.6935036 2.69351,-2.6935036 1.48758,0 2.6935,1.2059227 2.6935,2.6935036 z"
         sodipodi:ry="2.6935036"
         sodipodi:rx="2.6935036"
         sodipodi:cy="8.9655561"
         sodipodi:cx="144.97388"
         id="path6882"
         style="fill:#2c3e50;fill-opacity:1;stroke:none"
         sodipodi:type="arc" />
      <path
         sodipodi:type="arc"
         style="fill:none;stroke:#2c3e50;stroke-width:1.5;stroke-miterlimit:4;stroke-opacity:1;stroke-dasharray:none"
         id="path6884"
         sodipodi:cx="151.9453"
         sodipodi:cy="-49.974644"
         sodipodi:rx="4.5948005"
         sodipodi:ry="17.586994"
         d="m 156.5401,-49.974644 c 0,9.713029 -2.05716,17.586994 -4.5948,17.586994 -2.53764,0 -4.5948,-7.873965 -4.5948,-17.586994 0,-9.713028 2.05716,-17.586994 4.5948,-17.586994 2.53764,0 4.5948,7.873966 4.5948,17.586994 z"
         transform="translate(294.78885,124.00471)" />
      <path
         transform="matrix(0.6561,0,0,0.6561,326.58305,61.176345)"
         d="m 147.66738,8.9655561 c 0,1.4875809 -1.20592,2.6935039 -2.6935,2.6935039 -1.48758,0 -2.69351,-1.205923 -2.69351,-2.6935039 0,-1.4875809 1.20593,-2.6935036 2.69351,-2.6935036 1.48758,0 2.6935,1.2059227 2.6935,2.6935036 z"
         sodipodi:ry="2.6935036"
         sodipodi:rx="2.6935036"
         sodipodi:cy="8.9655561"
         sodipodi:cx="144.97388"
         id="path6886"
         style="fill:#c0392b;fill-opacity:1;stroke:none"
         sodipodi:type="arc" />
      <path
         sodipodi:type="arc"
         style="fill:#c0392b;fill-opacity:1;stroke:none"
         id="path6888"
         sodipodi:cx="144.97388"
         sodipodi:cy="8.9655561"
         sodipodi:rx="2.6935036"
         sodipodi:ry="2.6935036"
         d="m 147.66738,8.9655561 c 0,1.4875809 -1.20592,2.6935039 -2.6935,2.6935039 -1.48758,0 -2.69351,-1.205923 -2.69351,-2.6935039 0,-1.4875809 1.20593,-2.6935036 2.69351,-2.6935036 1.48758,0 2.6935,1.2059227 2.6935,2.6935036 z"
         transform="matrix(0.6561,0,0,0.6561,326.58305,75.176345)" />
      <path
         transform="translate(269.75511,124.00471)"
         d="m 156.5401,-49.974644 c 0,9.713029 -2.05716,17.586994 -4.5948,17.586994 -2.53764,0 -4.5948,-7.873965 -4.5948,-17.586994 0,-9.713028 2.05716,-17.586994 4.5948,-17.586994 2.53764,0 4.5948,7.873966 4.5948,17.586994 z"
         sodipodi:ry="17.586994"
         sodipodi:rx="4.5948005"
         sodipodi:cy="-49.974644"
         sodipodi:cx="151.9453"
         id="path6890"
         style="fill:none;stroke:#c0392b;stroke-width:1.5;stroke-miterlimit:4;stroke-opacity:1;stroke-dasharray:none"
         sodipodi:type="arc" />
      <path
         sodipodi:nodetypes="cc"
         inkscape:connector-curvature="0"
         id="path6894"
         d="m 423.40692,81.058646 19.72675,0"
         style="fill:none;stroke:#000000;stroke-width:1px;stroke-linecap:butt;stroke-linejoin:miter;stroke-opacity:1;marker-end:url(#Arrow1Send)" />
      <path
         sodipodi:nodetypes="cc"
         inkscape:connector-curvature="0"
         id="path6898"
         d="m 423.1836,67.871347 20.39674,12.171414"
         style="fill:none;stroke:#000000;stroke-width:1px;stroke-linecap:butt;stroke-linejoin:miter;stroke-opacity:1;marker-end:url(#Arrow1Send)" />
      <path
         transform="matrix(0.6561,0,0,0.6561,297.61679,61.176345)"
         d="m 147.66738,8.9655561 c 0,1.4875809 -1.20592,2.6935039 -2.6935,2.6935039 -1.48758,0 -2.69351,-1.205923 -2.69351,-2.6935039 0,-1.4875809 1.20593,-2.6935036 2.69351,-2.6935036 1.48758,0 2.6935,1.2059227 2.6935,2.6935036 z"
         sodipodi:ry="2.6935036"
         sodipodi:rx="2.6935036"
         sodipodi:cy="8.9655561"
         sodipodi:cx="144.97388"
         id="path6902"
         style="fill:#2c3e50;fill-opacity:1;stroke:none"
         sodipodi:type="arc" />
      <path
         sodipodi:type="arc"
         style="fill:#2c3e50;fill-opacity:1;stroke:none"
         id="path6904"
         sodipodi:cx="144.97388"
         sodipodi:cy="8.9655561"
         sodipodi:rx="2.6935036"
         sodipodi:ry="2.6935036"
         d="m 147.66738,8.9655561 c 0,1.4875809 -1.20592,2.6935039 -2.6935,2.6935039 -1.48758,0 -2.69351,-1.205923 -2.69351,-2.6935039 0,-1.4875809 1.20593,-2.6935036 2.69351,-2.6935036 1.48758,0 2.6935,1.2059227 2.6935,2.6935036 z"
         transform="matrix(0.6561,0,0,0.6561,297.61679,75.176345)" />
      <path
         transform="translate(240.78885,124.00471)"
         d="m 156.5401,-49.974644 c 0,9.713029 -2.05716,17.586994 -4.5948,17.586994 -2.53764,0 -4.5948,-7.873965 -4.5948,-17.586994 0,-9.713028 2.05716,-17.586994 4.5948,-17.586994 2.53764,0 4.5948,7.873966 4.5948,17.586994 z"
         sodipodi:ry="17.586994"
         sodipodi:rx="4.5948005"
         sodipodi:cy="-49.974644"
         sodipodi:cx="151.9453"
         id="path6906"
         style="fill:none;stroke:#2c3e50;stroke-width:1.5;stroke-miterlimit:4;stroke-opacity:1;stroke-dasharray:none"
         sodipodi:type="arc" />
      <path
         sodipodi:type="arc"
         style="fill:#c0392b;fill-opacity:1;stroke:none"
         id="path6908"
         sodipodi:cx="144.97388"
         sodipodi:cy="8.9655561"
         sodipodi:rx="2.6935036"
         sodipodi:ry="2.6935036"
         d="m 147.66738,8.9655561 c 0,1.4875809 -1.20592,2.6935039 -2.6935,2.6935039 -1.48758,0 -2.69351,-1.205923 -2.69351,-2.6935039 0,-1.4875809 1.20593,-2.6935036 2.69351,-2.6935036 1.48758,0 2.6935,1.2059227 2.6935,2.6935036 z"
         transform="matrix(0.6561,0,0,0.6561,272.58305,61.176345)" />
      <path
         transform="matrix(0.6561,0,0,0.6561,272.58305,75.176345)"
         d="m 147.66738,8.9655561 c 0,1.4875809 -1.20592,2.6935039 -2.6935,2.6935039 -1.48758,0 -2.69351,-1.205923 -2.69351,-2.6935039 0,-1.4875809 1.20593,-2.6935036 2.69351,-2.6935036 1.48758,0 2.6935,1.2059227 2.6935,2.6935036 z"
         sodipodi:ry="2.6935036"
         sodipodi:rx="2.6935036"
         sodipodi:cy="8.9655561"
         sodipodi:cx="144.97388"
         id="path6910"
         style="fill:#c0392b;fill-opacity:1;stroke:none"
         sodipodi:type="arc" />
      <path
         sodipodi:type="arc"
         style="fill:none;stroke:#c0392b;stroke-width:1.5;stroke-miterlimit:4;stroke-opacity:1;stroke-dasharray:none"
         id="path6912"
         sodipodi:cx="151.9453"
         sodipodi:cy="-49.974644"
         sodipodi:rx="4.5948005"
         sodipodi:ry="17.586994"
         d="m 156.5401,-49.974644 c 0,9.713029 -2.05716,17.586994 -4.5948,17.586994 -2.53764,0 -4.5948,-7.873965 -4.5948,-17.586994 0,-9.713028 2.05716,-17.586994 4.5948,-17.586994 2.53764,0 4.5948,7.873966 4.5948,17.586994 z"
         transform="translate(215.75511,124.00471)" />
      <path
         sodipodi:nodetypes="cc"
         inkscape:connector-curvature="0"
         id="path6918"
         d="M 369.23616,80.318634 389.6329,68.14722"
         style="fill:none;stroke:#000000;stroke-width:1px;stroke-linecap:butt;stroke-linejoin:miter;stroke-opacity:1;marker-end:url(#Arrow1Send)" />
      <path
         style="fill:none;stroke:#000000;stroke-width:1px;stroke-linecap:butt;stroke-linejoin:miter;stroke-opacity:1;marker-end:url(#Arrow1Send)"
         d="m 369.1836,67.871347 20.39674,12.171414"
         id="path6920"
         inkscape:connector-curvature="0"
         sodipodi:nodetypes="cc" />
    </g>
    <g
       transform="translate(53.636948,-7.9336457)"
       id="g6922">
      <path
         transform="matrix(0.6561,0,0,0.6561,128.47626,-58.239756)"
         d="m 147.66738,8.9655561 c 0,1.4875809 -1.20592,2.6935039 -2.6935,2.6935039 -1.48758,0 -2.69351,-1.205923 -2.69351,-2.6935039 0,-1.4875809 1.20593,-2.6935036 2.69351,-2.6935036 1.48758,0 2.6935,1.2059227 2.6935,2.6935036 z"
         sodipodi:ry="2.6935036"
         sodipodi:rx="2.6935036"
         sodipodi:cy="8.9655561"
         sodipodi:cx="144.97388"
         id="path6924"
         style="fill:#2c3e50;fill-opacity:1;stroke:none"
         sodipodi:type="arc" />
      <path
         sodipodi:type="arc"
         style="fill:#2c3e50;fill-opacity:1;stroke:none"
         id="path6926"
         sodipodi:cx="144.97388"
         sodipodi:cy="8.9655561"
         sodipodi:rx="2.6935036"
         sodipodi:ry="2.6935036"
         d="m 147.66738,8.9655561 c 0,1.4875809 -1.20592,2.6935039 -2.6935,2.6935039 -1.48758,0 -2.69351,-1.205923 -2.69351,-2.6935039 0,-1.4875809 1.20593,-2.6935036 2.69351,-2.6935036 1.48758,0 2.6935,1.2059227 2.6935,2.6935036 z"
         transform="matrix(0.6561,0,0,0.6561,128.47626,-44.239756)" />
      <path
         transform="translate(71.648321,4.5886088)"
         d="m 156.5401,-49.974644 c 0,9.713029 -2.05716,17.586994 -4.5948,17.586994 -2.53764,0 -4.5948,-7.873965 -4.5948,-17.586994 0,-9.713028 2.05716,-17.586994 4.5948,-17.586994 2.53764,0 4.5948,7.873966 4.5948,17.586994 z"
         sodipodi:ry="17.586994"
         sodipodi:rx="4.5948005"
         sodipodi:cy="-49.974644"
         sodipodi:cx="151.9453"
         id="path6928"
         style="fill:none;stroke:#2c3e50;stroke-width:1.5;stroke-miterlimit:4;stroke-opacity:1;stroke-dasharray:none"
         sodipodi:type="arc" />
      <path
         sodipodi:type="arc"
         style="fill:#c0392b;fill-opacity:1;stroke:none"
         id="path6930"
         sodipodi:cx="144.97388"
         sodipodi:cy="8.9655561"
         sodipodi:rx="2.6935036"
         sodipodi:ry="2.6935036"
         d="m 147.66738,8.9655561 c 0,1.4875809 -1.20592,2.6935039 -2.6935,2.6935039 -1.48758,0 -2.69351,-1.205923 -2.69351,-2.6935039 0,-1.4875809 1.20593,-2.6935036 2.69351,-2.6935036 1.48758,0 2.6935,1.2059227 2.6935,2.6935036 z"
         transform="matrix(0.6561,0,0,0.6561,103.44252,-58.239756)" />
      <path
         transform="matrix(0.6561,0,0,0.6561,103.44252,-44.239756)"
         d="m 147.66738,8.9655561 c 0,1.4875809 -1.20592,2.6935039 -2.6935,2.6935039 -1.48758,0 -2.69351,-1.205923 -2.69351,-2.6935039 0,-1.4875809 1.20593,-2.6935036 2.69351,-2.6935036 1.48758,0 2.6935,1.2059227 2.6935,2.6935036 z"
         sodipodi:ry="2.6935036"
         sodipodi:rx="2.6935036"
         sodipodi:cy="8.9655561"
         sodipodi:cx="144.97388"
         id="path6932"
         style="fill:#c0392b;fill-opacity:1;stroke:none"
         sodipodi:type="arc" />
      <path
         sodipodi:type="arc"
         style="fill:none;stroke:#c0392b;stroke-width:1.5;stroke-miterlimit:4;stroke-opacity:1;stroke-dasharray:none"
         id="path6934"
         sodipodi:cx="151.9453"
         sodipodi:cy="-49.974644"
         sodipodi:rx="4.5948005"
         sodipodi:ry="17.586994"
         d="m 156.5401,-49.974644 c 0,9.713029 -2.05716,17.586994 -4.5948,17.586994 -2.53764,0 -4.5948,-7.873965 -4.5948,-17.586994 0,-9.713028 2.05716,-17.586994 4.5948,-17.586994 2.53764,0 4.5948,7.873966 4.5948,17.586994 z"
         transform="translate(46.614581,4.5886088)" />
      <path
         sodipodi:nodetypes="cc"
         inkscape:connector-curvature="0"
         id="path6936"
         d="m 200.26639,-52.357455 19.72675,0"
         style="fill:none;stroke:#000000;stroke-width:1px;stroke-linecap:butt;stroke-linejoin:miter;stroke-opacity:1;marker-end:url(#Arrow1Send)" />
      <path
         style="fill:none;stroke:#000000;stroke-width:1px;stroke-linecap:butt;stroke-linejoin:miter;stroke-opacity:1;marker-end:url(#Arrow1Send)"
         d="m 200.26639,-38.357455 19.72675,0"
         id="path6938"
         inkscape:connector-curvature="0"
         sodipodi:nodetypes="cc" />
      <path
         sodipodi:nodetypes="cc"
         inkscape:connector-curvature="0"
         id="path6940"
         d="m 200.09563,-39.097467 20.39674,-12.171414"
         style="fill:none;stroke:#000000;stroke-width:1px;stroke-linecap:butt;stroke-linejoin:miter;stroke-opacity:1;marker-end:url(#Arrow1Send)" />
      <path
         style="fill:none;stroke:#000000;stroke-width:1px;stroke-linecap:butt;stroke-linejoin:miter;stroke-opacity:1;marker-end:url(#Arrow1Send)"
         d="m 200.04307,-51.544754 20.39674,12.171414"
         id="path6942"
         inkscape:connector-curvature="0"
         sodipodi:nodetypes="cc" />
    </g>
    <rect
       style="fill:none;stroke:#000000;stroke-width:2;stroke-linecap:square;stroke-linejoin:round;stroke-miterlimit:4;stroke-opacity:1;stroke-dasharray:none;stroke-dashoffset:0"
       id="rect7011"
       width="71.265099"
       height="92.469521"
       x="241.10228"
       y="-18.035868"
       ry="18.858915" />
    <path
       transform="matrix(0.6561,0,0,0.6561,193.40996,-6.823655)"
       d="m 147.66738,8.9655561 c 0,1.4875809 -1.20592,2.6935039 -2.6935,2.6935039 -1.48758,0 -2.69351,-1.205923 -2.69351,-2.6935039 0,-1.4875809 1.20593,-2.6935036 2.69351,-2.6935036 1.48758,0 2.6935,1.2059227 2.6935,2.6935036 z"
       sodipodi:ry="2.6935036"
       sodipodi:rx="2.6935036"
       sodipodi:cy="8.9655561"
       sodipodi:cx="144.97388"
       id="path7029"
       style="fill:#2c3e50;fill-opacity:1;stroke:none"
       sodipodi:type="arc" />
    <path
       sodipodi:type="arc"
       style="fill:#2c3e50;fill-opacity:1;stroke:none"
       id="path7031"
       sodipodi:cx="144.97388"
       sodipodi:cy="8.9655561"
       sodipodi:rx="2.6935036"
       sodipodi:ry="2.6935036"
       d="m 147.66738,8.9655561 c 0,1.4875809 -1.20592,2.6935039 -2.6935,2.6935039 -1.48758,0 -2.69351,-1.205923 -2.69351,-2.6935039 0,-1.4875809 1.20593,-2.6935036 2.69351,-2.6935036 1.48758,0 2.6935,1.2059227 2.6935,2.6935036 z"
       transform="matrix(0.6561,0,0,0.6561,193.40996,7.176345)" />
    <path
       transform="translate(136.58202,56.00471)"
       d="m 156.5401,-49.974644 c 0,9.713029 -2.05716,17.586994 -4.5948,17.586994 -2.53764,0 -4.5948,-7.873965 -4.5948,-17.586994 0,-9.713028 2.05716,-17.586994 4.5948,-17.586994 2.53764,0 4.5948,7.873966 4.5948,17.586994 z"
       sodipodi:ry="17.586994"
       sodipodi:rx="4.5948005"
       sodipodi:cy="-49.974644"
       sodipodi:cx="151.9453"
       id="path7033"
       style="fill:none;stroke:#2c3e50;stroke-width:1.5;stroke-miterlimit:4;stroke-opacity:1;stroke-dasharray:none"
       sodipodi:type="arc" />
    <path
       sodipodi:type="arc"
       style="fill:#c0392b;fill-opacity:1;stroke:none"
       id="path7035"
       sodipodi:cx="144.97388"
       sodipodi:cy="8.9655561"
       sodipodi:rx="2.6935036"
       sodipodi:ry="2.6935036"
       d="m 147.66738,8.9655561 c 0,1.4875809 -1.20592,2.6935039 -2.6935,2.6935039 -1.48758,0 -2.69351,-1.205923 -2.69351,-2.6935039 0,-1.4875809 1.20593,-2.6935036 2.69351,-2.6935036 1.48758,0 2.6935,1.2059227 2.6935,2.6935036 z"
       transform="matrix(0.6561,0,0,0.6561,168.37622,-6.823655)" />
    <path
       sodipodi:type="arc"
       style="fill:none;stroke:#c0392b;stroke-width:1.5;stroke-miterlimit:4;stroke-opacity:1;stroke-dasharray:none"
       id="path7039"
       sodipodi:cx="151.9453"
       sodipodi:cy="-49.974644"
       sodipodi:rx="4.5948005"
       sodipodi:ry="17.586994"
       d="m 156.5401,-49.974644 c 0,9.713029 -2.05716,17.586994 -4.5948,17.586994 -2.53764,0 -4.5948,-7.873965 -4.5948,-17.586994 0,-9.713028 2.05716,-17.586994 4.5948,-17.586994 2.53764,0 4.5948,7.873966 4.5948,17.586994 z"
       transform="translate(111.54828,56.00471)" />
    <path
       sodipodi:nodetypes="cc"
       inkscape:connector-curvature="0"
       id="path7041"
       d="m 265.20009,-0.941354 19.72675,0"
       style="fill:none;stroke:#000000;stroke-width:1px;stroke-linecap:butt;stroke-linejoin:miter;stroke-opacity:1;marker-end:url(#Arrow1Send)" />
    <path
       sodipodi:type="arc"
       style="fill:#2c3e50;fill-opacity:1;stroke:none"
       id="path7045"
       sodipodi:cx="144.97388"
       sodipodi:cy="8.9655561"
       sodipodi:rx="2.6935036"
       sodipodi:ry="2.6935036"
       d="m 147.66738,8.9655561 c 0,1.4875809 -1.20592,2.6935039 -2.6935,2.6935039 -1.48758,0 -2.69351,-1.205923 -2.69351,-2.6935039 0,-1.4875809 1.20593,-2.6935036 2.69351,-2.6935036 1.48758,0 2.6935,1.2059227 2.6935,2.6935036 z"
       transform="matrix(0.6561,0,0,0.6561,193.40996,37.176345)" />
    <path
       transform="matrix(0.6561,0,0,0.6561,193.40996,51.176345)"
       d="m 147.66738,8.9655561 c 0,1.4875809 -1.20592,2.6935039 -2.6935,2.6935039 -1.48758,0 -2.69351,-1.205923 -2.69351,-2.6935039 0,-1.4875809 1.20593,-2.6935036 2.69351,-2.6935036 1.48758,0 2.6935,1.2059227 2.6935,2.6935036 z"
       sodipodi:ry="2.6935036"
       sodipodi:rx="2.6935036"
       sodipodi:cy="8.9655561"
       sodipodi:cx="144.97388"
       id="path7047"
       style="fill:#2c3e50;fill-opacity:1;stroke:none"
       sodipodi:type="arc" />
    <path
       sodipodi:type="arc"
       style="fill:none;stroke:#2c3e50;stroke-width:1.5;stroke-miterlimit:4;stroke-opacity:1;stroke-dasharray:none"
       id="path7049"
       sodipodi:cx="151.9453"
       sodipodi:cy="-49.974644"
       sodipodi:rx="4.5948005"
       sodipodi:ry="17.586994"
       d="m 156.5401,-49.974644 c 0,9.713029 -2.05716,17.586994 -4.5948,17.586994 -2.53764,0 -4.5948,-7.873965 -4.5948,-17.586994 0,-9.713028 2.05716,-17.586994 4.5948,-17.586994 2.53764,0 4.5948,7.873966 4.5948,17.586994 z"
       transform="translate(136.58202,100.00471)" />
    <path
       transform="matrix(0.6561,0,0,0.6561,168.37622,37.176345)"
       d="m 147.66738,8.9655561 c 0,1.4875809 -1.20592,2.6935039 -2.6935,2.6935039 -1.48758,0 -2.69351,-1.205923 -2.69351,-2.6935039 0,-1.4875809 1.20593,-2.6935036 2.69351,-2.6935036 1.48758,0 2.6935,1.2059227 2.6935,2.6935036 z"
       sodipodi:ry="2.6935036"
       sodipodi:rx="2.6935036"
       sodipodi:cy="8.9655561"
       sodipodi:cx="144.97388"
       id="path7051"
       style="fill:#c0392b;fill-opacity:1;stroke:none"
       sodipodi:type="arc" />
    <path
       transform="translate(111.54828,100.00471)"
       d="m 156.5401,-49.974644 c 0,9.713029 -2.05716,17.586994 -4.5948,17.586994 -2.53764,0 -4.5948,-7.873965 -4.5948,-17.586994 0,-9.713028 2.05716,-17.586994 4.5948,-17.586994 2.53764,0 4.5948,7.873966 4.5948,17.586994 z"
       sodipodi:ry="17.586994"
       sodipodi:rx="4.5948005"
       sodipodi:cy="-49.974644"
       sodipodi:cx="151.9453"
       id="path7055"
       style="fill:none;stroke:#c0392b;stroke-width:1.5;stroke-miterlimit:4;stroke-opacity:1;stroke-dasharray:none"
       sodipodi:type="arc" />
    <path
       sodipodi:nodetypes="cc"
       inkscape:connector-curvature="0"
       id="path7059"
       d="m 264.97677,43.871347 20.39674,12.171414"
       style="fill:none;stroke:#000000;stroke-width:1px;stroke-linecap:butt;stroke-linejoin:miter;stroke-opacity:1;marker-end:url(#Arrow1Send)" />
    <path
       inkscape:connector-curvature="0"
       id="path7143"
       d="m 337.28906,26.963569 -20.65499,0"
       style="fill:#000000;stroke:#000000;stroke-width:1;stroke-linecap:butt;stroke-linejoin:miter;stroke-miterlimit:4;stroke-opacity:1;stroke-dasharray:none;marker-end:url(#Arrow1Mend)" />
    <rect
       style="fill:none;stroke:#000000;stroke-width:2;stroke-linecap:square;stroke-linejoin:round;stroke-miterlimit:4;stroke-opacity:1;stroke-dasharray:none;stroke-dashoffset:0"
       id="rect7147"
       width="125.20552"
       height="49.519749"
       x="341.18457"
       y="104.93666"
       ry="10.099422" />
    <path
       sodipodi:type="arc"
       style="fill:#2c3e50;fill-opacity:1;stroke:none"
       id="path7181"
       sodipodi:cx="144.97388"
       sodipodi:cy="8.9655561"
       sodipodi:rx="2.6935036"
       sodipodi:ry="2.6935036"
       d="m 147.66738,8.9655561 c 0,1.4875809 -1.20592,2.6935039 -2.6935,2.6935039 -1.48758,0 -2.69351,-1.205923 -2.69351,-2.6935039 0,-1.4875809 1.20593,-2.6935036 2.69351,-2.6935036 1.48758,0 2.6935,1.2059227 2.6935,2.6935036 z"
       transform="matrix(0.6561,0,0,0.6561,347.40996,117.17634)" />
    <path
       transform="matrix(0.6561,0,0,0.6561,347.40996,131.17634)"
       d="m 147.66738,8.9655561 c 0,1.4875809 -1.20592,2.6935039 -2.6935,2.6935039 -1.48758,0 -2.69351,-1.205923 -2.69351,-2.6935039 0,-1.4875809 1.20593,-2.6935036 2.69351,-2.6935036 1.48758,0 2.6935,1.2059227 2.6935,2.6935036 z"
       sodipodi:ry="2.6935036"
       sodipodi:rx="2.6935036"
       sodipodi:cy="8.9655561"
       sodipodi:cx="144.97388"
       id="path7183"
       style="fill:#2c3e50;fill-opacity:1;stroke:none"
       sodipodi:type="arc" />
    <path
       sodipodi:type="arc"
       style="fill:none;stroke:#2c3e50;stroke-width:1.5;stroke-miterlimit:4;stroke-opacity:1;stroke-dasharray:none"
       id="path7185"
       sodipodi:cx="151.9453"
       sodipodi:cy="-49.974644"
       sodipodi:rx="4.5948005"
       sodipodi:ry="17.586994"
       d="m 156.5401,-49.974644 c 0,9.713029 -2.05716,17.586994 -4.5948,17.586994 -2.53764,0 -4.5948,-7.873965 -4.5948,-17.586994 0,-9.713028 2.05716,-17.586994 4.5948,-17.586994 2.53764,0 4.5948,7.873966 4.5948,17.586994 z"
       transform="translate(290.58202,180.00471)" />
    <path
       sodipodi:type="arc"
       style="fill:#c0392b;fill-opacity:1;stroke:none"
       id="path7189"
       sodipodi:cx="144.97388"
       sodipodi:cy="8.9655561"
       sodipodi:rx="2.6935036"
       sodipodi:ry="2.6935036"
       d="m 147.66738,8.9655561 c 0,1.4875809 -1.20592,2.6935039 -2.6935,2.6935039 -1.48758,0 -2.69351,-1.205923 -2.69351,-2.6935039 0,-1.4875809 1.20593,-2.6935036 2.69351,-2.6935036 1.48758,0 2.6935,1.2059227 2.6935,2.6935036 z"
       transform="matrix(0.6561,0,0,0.6561,322.37622,131.17634)" />
    <path
       transform="translate(265.54828,180.00471)"
       d="m 156.5401,-49.974644 c 0,9.713029 -2.05716,17.586994 -4.5948,17.586994 -2.53764,0 -4.5948,-7.873965 -4.5948,-17.586994 0,-9.713028 2.05716,-17.586994 4.5948,-17.586994 2.53764,0 4.5948,7.873966 4.5948,17.586994 z"
       sodipodi:ry="17.586994"
       sodipodi:rx="4.5948005"
       sodipodi:cy="-49.974644"
       sodipodi:cx="151.9453"
       id="path7191"
       style="fill:none;stroke:#c0392b;stroke-width:1.5;stroke-miterlimit:4;stroke-opacity:1;stroke-dasharray:none"
       sodipodi:type="arc" />
    <path
       sodipodi:nodetypes="cc"
       inkscape:connector-curvature="0"
       id="path7193"
       d="m 419.20009,137.05865 19.72675,0"
       style="fill:none;stroke:#000000;stroke-width:1px;stroke-linecap:butt;stroke-linejoin:miter;stroke-opacity:1;marker-end:url(#Arrow1Send)" />
    <path
       transform="matrix(0.6561,0,0,0.6561,293.40996,117.17634)"
       d="m 147.66738,8.9655561 c 0,1.4875809 -1.20592,2.6935039 -2.6935,2.6935039 -1.48758,0 -2.69351,-1.205923 -2.69351,-2.6935039 0,-1.4875809 1.20593,-2.6935036 2.69351,-2.6935036 1.48758,0 2.6935,1.2059227 2.6935,2.6935036 z"
       sodipodi:ry="2.6935036"
       sodipodi:rx="2.6935036"
       sodipodi:cy="8.9655561"
       sodipodi:cx="144.97388"
       id="path7197"
       style="fill:#2c3e50;fill-opacity:1;stroke:none"
       sodipodi:type="arc" />
    <path
       sodipodi:type="arc"
       style="fill:#2c3e50;fill-opacity:1;stroke:none"
       id="path7199"
       sodipodi:cx="144.97388"
       sodipodi:cy="8.9655561"
       sodipodi:rx="2.6935036"
       sodipodi:ry="2.6935036"
       d="m 147.66738,8.9655561 c 0,1.4875809 -1.20592,2.6935039 -2.6935,2.6935039 -1.48758,0 -2.69351,-1.205923 -2.69351,-2.6935039 0,-1.4875809 1.20593,-2.6935036 2.69351,-2.6935036 1.48758,0 2.6935,1.2059227 2.6935,2.6935036 z"
       transform="matrix(0.6561,0,0,0.6561,293.40996,131.17634)" />
    <path
       transform="translate(236.58202,180.00471)"
       d="m 156.5401,-49.974644 c 0,9.713029 -2.05716,17.586994 -4.5948,17.586994 -2.53764,0 -4.5948,-7.873965 -4.5948,-17.586994 0,-9.713028 2.05716,-17.586994 4.5948,-17.586994 2.53764,0 4.5948,7.873966 4.5948,17.586994 z"
       sodipodi:ry="17.586994"
       sodipodi:rx="4.5948005"
       sodipodi:cy="-49.974644"
       sodipodi:cx="151.9453"
       id="path7201"
       style="fill:none;stroke:#2c3e50;stroke-width:1.5;stroke-miterlimit:4;stroke-opacity:1;stroke-dasharray:none"
       sodipodi:type="arc" />
    <path
       transform="matrix(0.6561,0,0,0.6561,268.37622,131.17634)"
       d="m 147.66738,8.9655561 c 0,1.4875809 -1.20592,2.6935039 -2.6935,2.6935039 -1.48758,0 -2.69351,-1.205923 -2.69351,-2.6935039 0,-1.4875809 1.20593,-2.6935036 2.69351,-2.6935036 1.48758,0 2.6935,1.2059227 2.6935,2.6935036 z"
       sodipodi:ry="2.6935036"
       sodipodi:rx="2.6935036"
       sodipodi:cy="8.9655561"
       sodipodi:cx="144.97388"
       id="path7205"
       style="fill:#c0392b;fill-opacity:1;stroke:none"
       sodipodi:type="arc" />
    <path
       sodipodi:type="arc"
       style="fill:none;stroke:#c0392b;stroke-width:1.5;stroke-miterlimit:4;stroke-opacity:1;stroke-dasharray:none"
       id="path7207"
       sodipodi:cx="151.9453"
       sodipodi:cy="-49.974644"
       sodipodi:rx="4.5948005"
       sodipodi:ry="17.586994"
       d="m 156.5401,-49.974644 c 0,9.713029 -2.05716,17.586994 -4.5948,17.586994 -2.53764,0 -4.5948,-7.873965 -4.5948,-17.586994 0,-9.713028 2.05716,-17.586994 4.5948,-17.586994 2.53764,0 4.5948,7.873966 4.5948,17.586994 z"
       transform="translate(211.54828,180.00471)" />
    <path
       sodipodi:nodetypes="cc"
       inkscape:connector-curvature="0"
       id="path7209"
       d="m 365.02933,136.31863 20.39674,-12.17141"
       style="fill:none;stroke:#000000;stroke-width:1px;stroke-linecap:butt;stroke-linejoin:miter;stroke-opacity:1;marker-end:url(#Arrow1Send)" />
    <path
       style="fill:#000000;stroke:#000000;stroke-width:1;stroke-linecap:butt;stroke-linejoin:miter;stroke-miterlimit:4;stroke-opacity:1;stroke-dasharray:none;marker-end:url(#Arrow1Mend)"
       d="m 403.78733,79.776835 0,20.654995"
       id="path7246"
       inkscape:connector-curvature="0" />
    <rect
       ry="10.066059"
       y="105.01846"
       x="240.8356"
       height="49.356163"
       width="71.79847"
       id="rect7248"
       style="fill:none;stroke:#000000;stroke-width:2;stroke-linecap:square;stroke-linejoin:round;stroke-miterlimit:4;stroke-opacity:1;stroke-dasharray:none;stroke-dashoffset:0" />
    <path
       sodipodi:type="arc"
       style="fill:none;stroke:#2c3e50;stroke-width:1.5;stroke-miterlimit:4;stroke-opacity:1;stroke-dasharray:none"
       id="path7254"
       sodipodi:cx="151.9453"
       sodipodi:cy="-49.974644"
       sodipodi:rx="4.5948005"
       sodipodi:ry="17.586994"
       d="m 156.5401,-49.974644 c 0,9.713029 -2.05716,17.586994 -4.5948,17.586994 -2.53764,0 -4.5948,-7.873965 -4.5948,-17.586994 0,-9.713028 2.05716,-17.586994 4.5948,-17.586994 2.53764,0 4.5948,7.873966 4.5948,17.586994 z"
       transform="translate(136.58202,180.00471)" />
    <path
       transform="translate(111.54828,180.00471)"
       d="m 156.5401,-49.974644 c 0,9.713029 -2.05716,17.586994 -4.5948,17.586994 -2.53764,0 -4.5948,-7.873965 -4.5948,-17.586994 0,-9.713028 2.05716,-17.586994 4.5948,-17.586994 2.53764,0 4.5948,7.873966 4.5948,17.586994 z"
       sodipodi:ry="17.586994"
       sodipodi:rx="4.5948005"
       sodipodi:cy="-49.974644"
       sodipodi:cx="151.9453"
       id="path7258"
       style="fill:none;stroke:#c0392b;stroke-width:1.5;stroke-miterlimit:4;stroke-opacity:1;stroke-dasharray:none"
       sodipodi:type="arc" />
    <path
       style="fill:#000000;stroke:#000000;stroke-width:1;stroke-linecap:butt;stroke-linejoin:miter;stroke-miterlimit:4;stroke-opacity:1;stroke-dasharray:none;marker-end:url(#Arrow1Mend)"
       d="m 277.07684,79.079722 0,20.654988"
       id="path7274"
       inkscape:connector-curvature="0" />
    <path
       style="fill:#000000;stroke:#000000;stroke-width:1;stroke-linecap:butt;stroke-linejoin:miter;stroke-miterlimit:4;stroke-opacity:1;stroke-dasharray:none;marker-end:url(#Arrow1Mend)"
       d="m 337.28906,129.69654 -20.65499,0"
       id="path7276"
       inkscape:connector-curvature="0" />
    <rect
       ry="10.099422"
       transform="translate(62.648321,-24.03125)"
       y="9.8074408"
       x="191.08162"
       height="40.227711"
       width="43.952499"
       id="rect7278"
       style="fill:none;fill-opacity:1;fill-rule:nonzero;stroke:#27ae60;stroke-width:2;stroke-linecap:square;stroke-linejoin:round;stroke-miterlimit:4;stroke-opacity:1;stroke-dasharray:none;stroke-dashoffset:0" />
    <rect
       style="fill:none;stroke:#27ae60;stroke-width:2;stroke-linecap:square;stroke-linejoin:round;stroke-miterlimit:4;stroke-opacity:1;stroke-dasharray:none;stroke-dashoffset:0"
       id="rect7280"
       width="43.952499"
       height="40.227711"
       x="253.72993"
       y="29.776192"
       ry="10.099422" />
    <rect
       style="fill:none;stroke:#27ae60;stroke-width:2;stroke-linecap:square;stroke-linejoin:round;stroke-miterlimit:4;stroke-opacity:1;stroke-dasharray:none;stroke-dashoffset:0"
       id="rect7282"
       width="105.8391"
       height="39.165394"
       x="350.53629"
       y="-13.692652"
       ry="9.8327208" />
    <rect
       ry="9.8327208"
       y="30.307348"
       x="350.53629"
       height="39.165394"
       width="105.8391"
       id="rect7284"
       style="fill:none;stroke:#27ae60;stroke-width:2;stroke-linecap:square;stroke-linejoin:round;stroke-miterlimit:4;stroke-opacity:1;stroke-dasharray:none;stroke-dashoffset:0" />
    <rect
       ry="10.099422"
       y="109.85913"
       x="353.55426"
       height="40.227711"
       width="43.952499"
       id="rect7286"
       style="fill:none;stroke:#e67e22;stroke-width:2;stroke-linecap:square;stroke-linejoin:round;stroke-miterlimit:4;stroke-opacity:1;stroke-dasharray:none;stroke-dashoffset:0" />
    <rect
       style="fill:none;stroke:#e67e22;stroke-width:2;stroke-linecap:square;stroke-linejoin:round;stroke-miterlimit:4;stroke-opacity:1;stroke-dasharray:none;stroke-dashoffset:0"
       id="rect7288"
       width="43.952499"
       height="40.227711"
       x="407.55426"
       y="109.85913"
       ry="10.099422" />
    <rect
       transform="matrix(0,-1,1,0,0,0)"
       style="fill:none;stroke:#e67e22;stroke-width:1.82901585;stroke-linecap:square;stroke-linejoin:round;stroke-miterlimit:4;stroke-opacity:1;stroke-dasharray:none;stroke-dashoffset:0"
       id="rect7292"
       width="88.131104"
       height="39.336376"
       x="-72.351837"
       y="356.22418"
       ry="9.8756466" />
    <rect
       ry="9.8756466"
       y="410.22418"
       x="-72.351837"
       height="39.336376"
       width="88.131104"
       id="rect7294"
       style="fill:none;stroke:#e67e22;stroke-width:1.82901585;stroke-linecap:square;stroke-linejoin:round;stroke-miterlimit:4;stroke-opacity:1;stroke-dasharray:none;stroke-dashoffset:0"
       transform="matrix(0,-1,1,0,0,0)" />
    <g
       id="g3616"
       transform="translate(-109.42422,-34.638151)"
       ns0:preamble=""
       ns0:text="$\\{l_2\\}$">
      <defs
         id="defs3618">
        <g
           id="g3620">
          <symbol
             id="textext-1b1796a7-0"
             overflow="visible"
             style="overflow:visible">
            <path
               id="path3623"
               d="m 2.828125,-6.15625 c 0,-0.390625 0.25,-1.03125 1.34375,-1.09375 C 4.21875,-7.265625 4.25,-7.3125 4.25,-7.359375 c 0,-0.125 -0.078125,-0.125 -0.1875,-0.125 -0.984375,0 -1.90625,0.515625 -1.90625,1.25 l 0,2.28125 c 0,0.390625 0,0.703125 -0.40625,1.03125 -0.34375,0.296875 -0.71875,0.3125 -0.9375,0.3125 C 0.75,-2.59375 0.71875,-2.546875 0.71875,-2.5 c 0,0.109375 0.0625,0.109375 0.15625,0.125 0.65625,0.03125 1.140625,0.390625 1.25,0.875 0.03125,0.109375 0.03125,0.140625 0.03125,0.5 l 0,1.96875 c 0,0.421875 0,0.734375 0.46875,1.109375 C 3.015625,2.375 3.671875,2.5 4.0625,2.5 4.171875,2.5 4.25,2.5 4.25,2.375 4.25,2.28125 4.203125,2.28125 4.09375,2.265625 3.46875,2.234375 2.984375,1.90625 2.84375,1.40625 2.828125,1.3125 2.828125,1.296875 2.828125,0.9375 l 0,-2.09375 c 0,-0.453125 -0.09375,-0.625 -0.40625,-0.953125 C 2.21875,-2.3125 1.921875,-2.40625 1.640625,-2.5 c 0.828125,-0.21875 1.1875,-0.6875 1.1875,-1.265625 z m 0,0"
               style="stroke:none"
               inkscape:connector-curvature="0" />
          </symbol>
          <symbol
             id="textext-1b1796a7-1"
             overflow="visible"
             style="overflow:visible">
            <path
               id="path3626"
               d="m 2.15625,1.171875 c 0,0.390625 -0.265625,1.03125 -1.34375,1.09375 C 0.75,2.28125 0.71875,2.328125 0.71875,2.375 0.71875,2.5 0.828125,2.5 0.921875,2.5 1.890625,2.5 2.8125,2 2.828125,1.25 l 0,-2.28125 c 0,-0.390625 0,-0.703125 0.390625,-1.03125 C 3.5625,-2.359375 3.953125,-2.375 4.171875,-2.375 4.21875,-2.390625 4.25,-2.4375 4.25,-2.5 4.25,-2.59375 4.203125,-2.59375 4.09375,-2.609375 3.4375,-2.640625 2.953125,-3 2.84375,-3.484375 2.828125,-3.59375 2.828125,-3.625 2.828125,-3.984375 l 0,-1.96875 c 0,-0.421875 0,-0.734375 -0.484375,-1.109375 C 1.9375,-7.375 1.25,-7.484375 0.921875,-7.484375 c -0.09375,0 -0.203125,0 -0.203125,0.125 0,0.09375 0.0625,0.09375 0.15625,0.109375 0.625,0.03125 1.125,0.359375 1.25,0.859375 0.03125,0.09375 0.03125,0.109375 0.03125,0.46875 l 0,2.09375 c 0,0.453125 0.078125,0.625 0.390625,0.953125 0.21875,0.203125 0.5,0.296875 0.78125,0.375 -0.8125,0.234375 -1.171875,0.703125 -1.171875,1.28125 z m 0,0"
               style="stroke:none"
               inkscape:connector-curvature="0" />
          </symbol>
          <symbol
             id="textext-1b1796a7-2"
             overflow="visible"
             style="overflow:visible">
            <path
               id="path3629"
               d="m 2.578125,-6.8125 c 0,0 0,-0.109375 -0.140625,-0.109375 -0.21875,0 -0.953125,0.078125 -1.21875,0.109375 -0.078125,0 -0.1875,0.015625 -0.1875,0.203125 0,0.109375 0.109375,0.109375 0.25,0.109375 0.484375,0 0.5,0.09375 0.5,0.171875 L 1.75,-6.125 0.484375,-1.140625 C 0.453125,-1.03125 0.4375,-0.96875 0.4375,-0.8125 c 0,0.578125 0.4375,0.921875 0.90625,0.921875 0.328125,0 0.578125,-0.203125 0.75,-0.5625 0.171875,-0.375 0.296875,-0.953125 0.296875,-0.96875 0,-0.109375 -0.09375,-0.109375 -0.125,-0.109375 -0.09375,0 -0.109375,0.046875 -0.125,0.1875 C 1.96875,-0.703125 1.78125,-0.109375 1.375,-0.109375 c -0.296875,0 -0.296875,-0.3125 -0.296875,-0.453125 0,-0.25 0.015625,-0.296875 0.0625,-0.484375 z m 0,0"
               style="stroke:none"
               inkscape:connector-curvature="0" />
          </symbol>
          <symbol
             id="textext-1b1796a7-3"
             overflow="visible"
             style="overflow:visible">
            <path
               id="path3632"
               d="m 3.515625,-1.265625 -0.234375,0 c -0.015625,0.15625 -0.09375,0.5625 -0.1875,0.625 -0.046875,0.046875 -0.578125,0.046875 -0.6875,0.046875 l -1.28125,0 c 0.734375,-0.640625 0.984375,-0.84375 1.390625,-1.171875 0.515625,-0.40625 1,-0.84375 1,-1.5 0,-0.84375 -0.734375,-1.359375 -1.625,-1.359375 -0.859375,0 -1.453125,0.609375 -1.453125,1.25 0,0.34375 0.296875,0.390625 0.375,0.390625 0.15625,0 0.359375,-0.125 0.359375,-0.375 0,-0.125 -0.046875,-0.375 -0.40625,-0.375 C 0.984375,-4.21875 1.453125,-4.375 1.78125,-4.375 c 0.703125,0 1.0625,0.546875 1.0625,1.109375 0,0.609375 -0.4375,1.078125 -0.65625,1.328125 L 0.515625,-0.265625 C 0.4375,-0.203125 0.4375,-0.1875 0.4375,0 l 2.875,0 z m 0,0"
               style="stroke:none"
               inkscape:connector-curvature="0" />
          </symbol>
        </g>
      </defs>
      <g
         id="textext-1b1796a7-4">
        <g
           id="g3635"
           style="fill:#000000;fill-opacity:1">
          <use
             id="use3637"
             y="134.765"
             x="223.43201"
             xlink:href="#textext-1b1796a7-0"
             width="409.72668"
             height="184.5" />
        </g>
        <g
           id="g3639"
           style="fill:#000000;fill-opacity:1">
          <use
             id="use3641"
             y="134.765"
             x="228.41299"
             xlink:href="#textext-1b1796a7-2"
             width="409.72668"
             height="184.5" />
        </g>
        <g
           id="g3643"
           style="fill:#000000;fill-opacity:1">
          <use
             id="use3645"
             y="136.259"
             x="231.386"
             xlink:href="#textext-1b1796a7-3"
             width="409.72668"
             height="184.5" />
        </g>
        <g
           id="g3647"
           style="fill:#000000;fill-opacity:1">
          <use
             id="use3649"
             y="134.765"
             x="235.855"
             xlink:href="#textext-1b1796a7-1"
             width="409.72668"
             height="184.5" />
        </g>
      </g>
    </g>
  </g>
</svg>
