<?xml version="1.0" encoding="UTF-8" standalone="no"?>
<!-- Created with Inkscape (http://www.inkscape.org/) -->

<svg
   xmlns:dc="http://purl.org/dc/elements/1.1/"
   xmlns:cc="http://creativecommons.org/ns#"
   xmlns:rdf="http://www.w3.org/1999/02/22-rdf-syntax-ns#"
   xmlns:svg="http://www.w3.org/2000/svg"
   xmlns="http://www.w3.org/2000/svg"
   xmlns:sodipodi="http://sodipodi.sourceforge.net/DTD/sodipodi-0.dtd"
   xmlns:inkscape="http://www.inkscape.org/namespaces/inkscape"
   id="svg3132"
   version="1.1"
   inkscape:version="0.48.3.1 r9886"
   width="948.15588"
   height="731.46963"
   xml:space="preserve"
   sodipodi:docname="ncycvolrat.pdf"><metadata
     id="metadata3138"><rdf:RDF><cc:Work
         rdf:about=""><dc:format>image/svg+xml</dc:format><dc:type
           rdf:resource="http://purl.org/dc/dcmitype/StillImage" /><dc:title></dc:title></cc:Work></rdf:RDF></metadata><defs
     id="defs3136"><clipPath
       clipPathUnits="userSpaceOnUse"
       id="clipPath3150"><path
         d="m 81.724705,57.094905 669.599995,0 0,518.399995 -669.599995,0 0,-518.399995 z"
         id="path3152" /></clipPath><clipPath
       clipPathUnits="userSpaceOnUse"
       id="clipPath3162"><path
         d="m -6.25,-6.25 12.5,0 0,12.5 -12.5,0 0,-12.5 z"
         id="path3164" /></clipPath><clipPath
       clipPathUnits="userSpaceOnUse"
       id="clipPath3174"><path
         d="m -6.25,-6.25 12.5,0 0,12.5 -12.5,0 0,-12.5 z"
         id="path3176" /></clipPath><clipPath
       clipPathUnits="userSpaceOnUse"
       id="clipPath3186"><path
         d="m -6.25,-6.25 12.5,0 0,12.5 -12.5,0 0,-12.5 z"
         id="path3188" /></clipPath><clipPath
       clipPathUnits="userSpaceOnUse"
       id="clipPath3198"><path
         d="m -6.25,-6.25 12.5,0 0,12.5 -12.5,0 0,-12.5 z"
         id="path3200" /></clipPath><clipPath
       clipPathUnits="userSpaceOnUse"
       id="clipPath3208"><path
         d="m 81.724705,57.094905 669.599995,0 0,518.399995 -669.599995,0 0,-518.399995 z"
         id="path3210" /></clipPath><clipPath
       clipPathUnits="userSpaceOnUse"
       id="clipPath3222"><path
         d="m 81.724705,57.094905 669.599995,0 0,518.399995 -669.599995,0 0,-518.399995 z"
         id="path3224" /></clipPath><clipPath
       clipPathUnits="userSpaceOnUse"
       id="clipPath3240"><path
         d="m 81.724705,57.094905 669.599995,0 0,518.399995 -669.599995,0 0,-518.399995 z"
         id="path3242" /></clipPath><clipPath
       clipPathUnits="userSpaceOnUse"
       id="clipPath3258"><path
         d="m 81.724705,57.094905 669.599995,0 0,518.399995 -669.599995,0 0,-518.399995 z"
         id="path3260" /></clipPath><clipPath
       clipPathUnits="userSpaceOnUse"
       id="clipPath3276"><path
         d="m 81.724705,57.094905 669.599995,0 0,518.399995 -669.599995,0 0,-518.399995 z"
         id="path3278" /></clipPath><clipPath
       clipPathUnits="userSpaceOnUse"
       id="clipPath3294"><path
         d="m 81.724705,57.094905 669.599995,0 0,518.399995 -669.599995,0 0,-518.399995 z"
         id="path3296" /></clipPath><clipPath
       clipPathUnits="userSpaceOnUse"
       id="clipPath3312"><path
         d="m 81.724705,57.094905 669.599995,0 0,518.399995 -669.599995,0 0,-518.399995 z"
         id="path3314" /></clipPath><clipPath
       clipPathUnits="userSpaceOnUse"
       id="clipPath3326"><path
         d="m 81.724705,57.094905 669.599995,0 0,518.399995 -669.599995,0 0,-518.399995 z"
         id="path3328" /></clipPath><clipPath
       clipPathUnits="userSpaceOnUse"
       id="clipPath3344"><path
         d="m 81.724705,57.094905 669.599995,0 0,518.399995 -669.599995,0 0,-518.399995 z"
         id="path3346" /></clipPath><clipPath
       clipPathUnits="userSpaceOnUse"
       id="clipPath3358"><path
         d="m 81.724705,57.094905 669.599995,0 0,518.399995 -669.599995,0 0,-518.399995 z"
         id="path3360" /></clipPath><clipPath
       clipPathUnits="userSpaceOnUse"
       id="clipPath3372"><path
         d="m 81.724705,57.094905 669.599995,0 0,518.399995 -669.599995,0 0,-518.399995 z"
         id="path3374" /></clipPath><clipPath
       clipPathUnits="userSpaceOnUse"
       id="clipPath3390"><path
         d="m 81.724705,57.094905 669.599995,0 0,518.399995 -669.599995,0 0,-518.399995 z"
         id="path3392" /></clipPath></defs><sodipodi:namedview
     pagecolor="#ffffff"
     bordercolor="#666666"
     borderopacity="1"
     objecttolerance="10"
     gridtolerance="10"
     guidetolerance="10"
     inkscape:pageopacity="0"
     inkscape:pageshadow="2"
     inkscape:window-width="1920"
     inkscape:window-height="1176"
     id="namedview3134"
     showgrid="false"
     inkscape:zoom="0.7143154"
     inkscape:cx="474.07794"
     inkscape:cy="197.74178"
     inkscape:window-x="1920"
     inkscape:window-y="24"
     inkscape:window-maximized="1"
     inkscape:current-layer="g3140" /><g
     id="g3140"
     inkscape:groupmode="layer"
     inkscape:label="ncycvolrat"
     transform="matrix(1.25,0,0,-1.25,0,731.46963)"><path
       d="m 0,0 758.5247,0 0,585.1757 L 0,585.1757 0,0 z"
       style="fill:#ffffff;fill-opacity:1;fill-rule:nonzero;stroke:none"
       id="path3142" /><g
       id="g3146"><g
         id="g3148"
         clip-path="url(#clipPath3150)"><path
           d="m 215.6447,126.2149 133.92,284.61177 133.92,54.2992 133.92,6.18889"
           style="fill:none;stroke:#000000;stroke-opacity:1;stroke-width:5;stroke-linecap:square;stroke-linejoin:round;stroke-miterlimit:10;stroke-dasharray:none"
           id="path3154" /><g
           id="g3156"
           transform="translate(215.6447,126.2149)"><g
             id="g3158"><g
               id="g3160"
               clip-path="url(#clipPath3162)"><path
                 d="m 0,-6 c 1.5912186,0 3.1174792,0.6321979 4.2426407,1.7573593 C 5.3678021,-3.1174792 6,-1.5912186 6,0 6,1.5912186 5.3678021,3.1174792 4.2426407,4.2426407 3.1174792,5.3678021 1.5912186,6 0,6 -1.5912186,6 -3.1174792,5.3678021 -4.2426407,4.2426407 -5.3678021,3.1174792 -6,1.5912186 -6,0 -6,-1.5912186 -5.3678021,-3.1174792 -4.2426407,-4.2426407 -3.1174792,-5.3678021 -1.5912186,-6 0,-6 z"
                 style="fill:#ff0000;fill-opacity:1;fill-rule:nonzero;stroke:#000000;stroke-opacity:1;stroke-width:0.5;stroke-linecap:butt;stroke-linejoin:round;stroke-miterlimit:10;stroke-dasharray:none"
                 id="path3166" /></g></g><g
             id="g3168"
             transform="translate(133.92,284.61176)"><g
               id="g3170"><g
                 id="g3172"
                 clip-path="url(#clipPath3174)"><path
                   d="m 0,-6 c 1.5912186,0 3.1174792,0.6321979 4.2426407,1.7573593 C 5.3678021,-3.1174792 6,-1.5912186 6,0 6,1.5912186 5.3678021,3.1174792 4.2426407,4.2426407 3.1174792,5.3678021 1.5912186,6 0,6 -1.5912186,6 -3.1174792,5.3678021 -4.2426407,4.2426407 -5.3678021,3.1174792 -6,1.5912186 -6,0 -6,-1.5912186 -5.3678021,-3.1174792 -4.2426407,-4.2426407 -3.1174792,-5.3678021 -1.5912186,-6 0,-6 z"
                   style="fill:#ff0000;fill-opacity:1;fill-rule:nonzero;stroke:#000000;stroke-opacity:1;stroke-width:0.5;stroke-linecap:butt;stroke-linejoin:round;stroke-miterlimit:10;stroke-dasharray:none"
                   id="path3178" /></g></g><g
               id="g3180"
               transform="translate(133.92,54.299203)"><g
                 id="g3182"><g
                   id="g3184"
                   clip-path="url(#clipPath3186)"><path
                     d="m 0,-6 c 1.5912186,0 3.1174792,0.6321979 4.2426407,1.7573593 C 5.3678021,-3.1174792 6,-1.5912186 6,0 6,1.5912186 5.3678021,3.1174792 4.2426407,4.2426407 3.1174792,5.3678021 1.5912186,6 0,6 -1.5912186,6 -3.1174792,5.3678021 -4.2426407,4.2426407 -5.3678021,3.1174792 -6,1.5912186 -6,0 -6,-1.5912186 -5.3678021,-3.1174792 -4.2426407,-4.2426407 -3.1174792,-5.3678021 -1.5912186,-6 0,-6 z"
                     style="fill:#ff0000;fill-opacity:1;fill-rule:nonzero;stroke:#000000;stroke-opacity:1;stroke-width:0.5;stroke-linecap:butt;stroke-linejoin:round;stroke-miterlimit:10;stroke-dasharray:none"
                     id="path3190" /></g></g><g
                 id="g3192"
                 transform="translate(133.92,6.1888875)"><g
                   id="g3194"><g
                     id="g3196"
                     clip-path="url(#clipPath3198)"><path
                       d="m 0,-6 c 1.5912186,0 3.1174792,0.6321979 4.2426407,1.7573593 C 5.3678021,-3.1174792 6,-1.5912186 6,0 6,1.5912186 5.3678021,3.1174792 4.2426407,4.2426407 3.1174792,5.3678021 1.5912186,6 0,6 -1.5912186,6 -3.1174792,5.3678021 -4.2426407,4.2426407 -5.3678021,3.1174792 -6,1.5912186 -6,0 -6,-1.5912186 -5.3678021,-3.1174792 -4.2426407,-4.2426407 -3.1174792,-5.3678021 -1.5912186,-6 0,-6 z"
                       style="fill:#ff0000;fill-opacity:1;fill-rule:nonzero;stroke:#000000;stroke-opacity:1;stroke-width:0.5;stroke-linecap:butt;stroke-linejoin:round;stroke-miterlimit:10;stroke-dasharray:none"
                       id="path3202" /></g></g></g></g></g></g></g></g><g
       id="g3204"><g
         id="g3206"
         clip-path="url(#clipPath3208)"><path
           d="m 81.724705,57.094905 0,518.399995"
           style="fill:none;stroke:#000000;stroke-opacity:1;stroke-width:0.5;stroke-linecap:butt;stroke-linejoin:round;stroke-miterlimit:10;stroke-dasharray:1,3;stroke-dashoffset:0"
           id="path3212" /></g></g><path
       d="m 81.724705,57.094905 0,4"
       style="fill:#000000;fill-opacity:1;fill-rule:nonzero;stroke:#000000;stroke-opacity:1;stroke-width:0.5;stroke-linecap:butt;stroke-linejoin:round;stroke-miterlimit:10;stroke-dasharray:none"
       id="path3214" /><path
       d="m 81.724705,575.4949 0,-4"
       style="fill:#000000;fill-opacity:1;fill-rule:nonzero;stroke:#000000;stroke-opacity:1;stroke-width:0.5;stroke-linecap:butt;stroke-linejoin:round;stroke-miterlimit:10;stroke-dasharray:none"
       id="path3216" /><path
       d="m 215.6447,57.094905 0,4"
       style="fill:#000000;fill-opacity:1;fill-rule:nonzero;stroke:#000000;stroke-opacity:1;stroke-width:0.5;stroke-linecap:butt;stroke-linejoin:round;stroke-miterlimit:10;stroke-dasharray:none"
       id="path3228" /><path
       d="m 215.6447,575.4949 0,-4"
       style="fill:#000000;fill-opacity:1;fill-rule:nonzero;stroke:#000000;stroke-opacity:1;stroke-width:0.5;stroke-linecap:butt;stroke-linejoin:round;stroke-miterlimit:10;stroke-dasharray:none"
       id="path3230" /><text
       transform="matrix(1,0,0,-1,207.33596,32.068818)"
       id="text3232"><tspan
         style="fill:#000000;fill-opacity:1;fill-rule:nonzero;stroke:none;font-family:Century Schoolbook L;font-variant:normal;font-size:29.8879203;writing-mode:lr;-inkscape-font-specification:CenturySchL-Roma"
         x="0"
         y="0"
         id="tspan3234">3</tspan></text>
<path
       d="m 349.5647,57.094905 0,4"
       style="fill:#000000;fill-opacity:1;fill-rule:nonzero;stroke:#000000;stroke-opacity:1;stroke-width:0.5;stroke-linecap:butt;stroke-linejoin:round;stroke-miterlimit:10;stroke-dasharray:none"
       id="path3246" /><path
       d="m 349.5647,575.4949 0,-4"
       style="fill:#000000;fill-opacity:1;fill-rule:nonzero;stroke:#000000;stroke-opacity:1;stroke-width:0.5;stroke-linecap:butt;stroke-linejoin:round;stroke-miterlimit:10;stroke-dasharray:none"
       id="path3248" /><text
       transform="matrix(1,0,0,-1,341.25596,32.068818)"
       id="text3250"><tspan
         style="fill:#000000;fill-opacity:1;fill-rule:nonzero;stroke:none;font-family:Century Schoolbook L;font-variant:normal;font-size:29.8879203;writing-mode:lr;-inkscape-font-specification:CenturySchL-Roma"
         x="0"
         y="0"
         id="tspan3252">4</tspan></text>
<path
       d="m 483.4847,57.094905 0,4"
       style="fill:#000000;fill-opacity:1;fill-rule:nonzero;stroke:#000000;stroke-opacity:1;stroke-width:0.5;stroke-linecap:butt;stroke-linejoin:round;stroke-miterlimit:10;stroke-dasharray:none"
       id="path3264" /><path
       d="m 483.4847,575.4949 0,-4"
       style="fill:#000000;fill-opacity:1;fill-rule:nonzero;stroke:#000000;stroke-opacity:1;stroke-width:0.5;stroke-linecap:butt;stroke-linejoin:round;stroke-miterlimit:10;stroke-dasharray:none"
       id="path3266" /><text
       transform="matrix(1,0,0,-1,475.17596,32.068818)"
       id="text3268"><tspan
         style="fill:#000000;fill-opacity:1;fill-rule:nonzero;stroke:none;font-family:Century Schoolbook L;font-variant:normal;font-size:29.8879203;writing-mode:lr;-inkscape-font-specification:CenturySchL-Roma"
         x="0"
         y="0"
         id="tspan3270">5</tspan></text>
<path
       d="m 617.4047,57.094905 0,4"
       style="fill:#000000;fill-opacity:1;fill-rule:nonzero;stroke:#000000;stroke-opacity:1;stroke-width:0.5;stroke-linecap:butt;stroke-linejoin:round;stroke-miterlimit:10;stroke-dasharray:none"
       id="path3282" /><path
       d="m 617.4047,575.4949 0,-4"
       style="fill:#000000;fill-opacity:1;fill-rule:nonzero;stroke:#000000;stroke-opacity:1;stroke-width:0.5;stroke-linecap:butt;stroke-linejoin:round;stroke-miterlimit:10;stroke-dasharray:none"
       id="path3284" /><text
       transform="matrix(1,0,0,-1,609.09596,32.068818)"
       id="text3286"><tspan
         style="fill:#000000;fill-opacity:1;fill-rule:nonzero;stroke:none;font-family:Century Schoolbook L;font-variant:normal;font-size:29.8879203;writing-mode:lr;-inkscape-font-specification:CenturySchL-Roma"
         x="0"
         y="0"
         id="tspan3288">6</tspan></text>
<g
       id="g3290"><g
         id="g3292"
         clip-path="url(#clipPath3294)"><path
           d="m 751.3247,57.094905 0,518.399995"
           style="fill:none;stroke:#000000;stroke-opacity:1;stroke-width:0.5;stroke-linecap:butt;stroke-linejoin:round;stroke-miterlimit:10;stroke-dasharray:1,3;stroke-dashoffset:0"
           id="path3298" /></g></g><path
       d="m 751.3247,57.094905 0,4"
       style="fill:#000000;fill-opacity:1;fill-rule:nonzero;stroke:#000000;stroke-opacity:1;stroke-width:0.5;stroke-linecap:butt;stroke-linejoin:round;stroke-miterlimit:10;stroke-dasharray:none"
       id="path3300" /><path
       d="m 751.3247,575.4949 0,-4"
       style="fill:#000000;fill-opacity:1;fill-rule:nonzero;stroke:#000000;stroke-opacity:1;stroke-width:0.5;stroke-linecap:butt;stroke-linejoin:round;stroke-miterlimit:10;stroke-dasharray:none"
       id="path3302" /><text
       transform="matrix(1,0,0,-1,407.39396,7.2)"
       id="text3304"><tspan
         style="fill:#000000;fill-opacity:1;fill-rule:nonzero;stroke:none;font-family:Century Schoolbook L;font-variant:normal;font-size:29.8879203;writing-mode:lr;-inkscape-font-specification:CenturySchL-Roma"
         x="0"
         y="0"
         id="tspan3306">n</tspan></text>
<g
       id="g3308"><g
         id="g3310"
         clip-path="url(#clipPath3312)"><path
           d="m 81.724705,57.094905 669.599995,0"
           style="fill:none;stroke:#000000;stroke-opacity:1;stroke-width:0.5;stroke-linecap:butt;stroke-linejoin:round;stroke-miterlimit:10;stroke-dasharray:1,3;stroke-dashoffset:0"
           id="path3316" /></g></g><path
       d="m 81.724705,57.094905 4,0"
       style="fill:#000000;fill-opacity:1;fill-rule:nonzero;stroke:#000000;stroke-opacity:1;stroke-width:0.5;stroke-linecap:butt;stroke-linejoin:round;stroke-miterlimit:10;stroke-dasharray:none"
       id="path3318" /><path
       d="m 751.3247,57.094905 -4,0"
       style="fill:#000000;fill-opacity:1;fill-rule:nonzero;stroke:#000000;stroke-opacity:1;stroke-width:0.5;stroke-linecap:butt;stroke-linejoin:round;stroke-miterlimit:10;stroke-dasharray:none"
       id="path3320" /><path
       d="m 81.724705,160.7749 4,0"
       style="fill:#000000;fill-opacity:1;fill-rule:nonzero;stroke:#000000;stroke-opacity:1;stroke-width:0.5;stroke-linecap:butt;stroke-linejoin:round;stroke-miterlimit:10;stroke-dasharray:none"
       id="path3332" /><path
       d="m 751.3247,160.7749 -4,0"
       style="fill:#000000;fill-opacity:1;fill-rule:nonzero;stroke:#000000;stroke-opacity:1;stroke-width:0.5;stroke-linecap:butt;stroke-linejoin:round;stroke-miterlimit:10;stroke-dasharray:none"
       id="path3334" /><text
       transform="matrix(1,0,0,-1,52.798661,150.53823)"
       id="text3336"><tspan
         style="fill:#000000;fill-opacity:1;fill-rule:nonzero;stroke:none;font-family:Century Schoolbook L;font-variant:normal;font-size:29.8879203;writing-mode:lr;-inkscape-font-specification:CenturySchL-Roma"
         x="0 8.27895392"
         y="0"
         sodipodi:role="line"
         id="tspan3338">.7</tspan></text>
<path
       d="m 81.724705,264.4549 4,0"
       style="fill:#000000;fill-opacity:1;fill-rule:nonzero;stroke:#000000;stroke-opacity:1;stroke-width:0.5;stroke-linecap:butt;stroke-linejoin:round;stroke-miterlimit:10;stroke-dasharray:none"
       id="path3350" /><path
       d="m 751.3247,264.4549 -4,0"
       style="fill:#000000;fill-opacity:1;fill-rule:nonzero;stroke:#000000;stroke-opacity:1;stroke-width:0.5;stroke-linecap:butt;stroke-linejoin:round;stroke-miterlimit:10;stroke-dasharray:none"
       id="path3352" /><path
       d="m 81.724705,368.1349 4,0"
       style="fill:#000000;fill-opacity:1;fill-rule:nonzero;stroke:#000000;stroke-opacity:1;stroke-width:0.5;stroke-linecap:butt;stroke-linejoin:round;stroke-miterlimit:10;stroke-dasharray:none"
       id="path3364" /><path
       d="m 751.3247,368.1349 -4,0"
       style="fill:#000000;fill-opacity:1;fill-rule:nonzero;stroke:#000000;stroke-opacity:1;stroke-width:0.5;stroke-linecap:butt;stroke-linejoin:round;stroke-miterlimit:10;stroke-dasharray:none"
       id="path3366" /><path
       d="m 81.724705,471.8149 4,0"
       style="fill:#000000;fill-opacity:1;fill-rule:nonzero;stroke:#000000;stroke-opacity:1;stroke-width:0.5;stroke-linecap:butt;stroke-linejoin:round;stroke-miterlimit:10;stroke-dasharray:none"
       id="path3378" /><path
       d="m 751.3247,471.8149 -4,0"
       style="fill:#000000;fill-opacity:1;fill-rule:nonzero;stroke:#000000;stroke-opacity:1;stroke-width:0.5;stroke-linecap:butt;stroke-linejoin:round;stroke-miterlimit:10;stroke-dasharray:none"
       id="path3380" /><text
       transform="matrix(1,0,0,-1,61.107211,461.30186)"
       id="text3382"><tspan
         style="fill:#000000;fill-opacity:1;fill-rule:nonzero;stroke:none;font-family:Century Schoolbook L;font-variant:normal;font-size:29.8879203;writing-mode:lr;-inkscape-font-specification:CenturySchL-Roma"
         x="0"
         y="0"
         id="tspan3384">1</tspan></text>
<g
       id="g3386"><g
         id="g3388"
         clip-path="url(#clipPath3390)"><path
           d="m 81.724705,575.4949 669.599995,0"
           style="fill:none;stroke:#000000;stroke-opacity:1;stroke-width:0.5;stroke-linecap:butt;stroke-linejoin:round;stroke-miterlimit:10;stroke-dasharray:1,3;stroke-dashoffset:0"
           id="path3394" /></g></g><path
       d="m 81.724705,575.4949 4,0"
       style="fill:#000000;fill-opacity:1;fill-rule:nonzero;stroke:#000000;stroke-opacity:1;stroke-width:0.5;stroke-linecap:butt;stroke-linejoin:round;stroke-miterlimit:10;stroke-dasharray:none"
       id="path3396" /><path
       d="m 751.3247,575.4949 -4,0"
       style="fill:#000000;fill-opacity:1;fill-rule:nonzero;stroke:#000000;stroke-opacity:1;stroke-width:0.5;stroke-linecap:butt;stroke-linejoin:round;stroke-miterlimit:10;stroke-dasharray:none"
       id="path3398" /><text
       transform="matrix(0,1,1,0,29.376619,54.614106)"
       id="text3400"><tspan
         style="fill:#000000;fill-opacity:1;fill-rule:nonzero;stroke:none;font-family:Century Schoolbook L;font-variant:normal;font-size:29.8879203;writing-mode:lr;-inkscape-font-specification:CenturySchL-Roma"
         x="0 16.01992528 30.96388543 40.3486924 58.58032379 85.12079701 108.37330652 121.61365521 138.20145098 149.79796406 159.18277103 182.43528054 192.35807008 210.58970146 225.53366161 243.76529299 253.68808253 280.22855576 295.17251591 312.29829424 330.52992562 339.91473259 356.50252836 378.05142641 396.61126975 423.15174298 438.09570313 455.22148146 473.45311284 482.83791981 499.42571558 512.66606427"
         y="0"
         sodipodi:role="line"
         id="tspan3402">volumeratio(non-modular:modular)</tspan></text>
<path
       d="m 81.724705,575.4949 669.599995,0"
       style="fill:none;stroke:#000000;stroke-opacity:1;stroke-width:1;stroke-linecap:square;stroke-linejoin:round;stroke-miterlimit:10;stroke-dasharray:none"
       id="path3404" /><path
       d="m 751.3247,57.094905 0,518.399995"
       style="fill:none;stroke:#000000;stroke-opacity:1;stroke-width:1;stroke-linecap:square;stroke-linejoin:round;stroke-miterlimit:10;stroke-dasharray:none"
       id="path3406" /><path
       d="m 81.724705,57.094905 669.599995,0"
       style="fill:none;stroke:#000000;stroke-opacity:1;stroke-width:1;stroke-linecap:square;stroke-linejoin:round;stroke-miterlimit:10;stroke-dasharray:none"
       id="path3408" /><path
       d="m 81.724705,57.094905 0,518.399995"
       style="fill:none;stroke:#000000;stroke-opacity:1;stroke-width:1;stroke-linecap:square;stroke-linejoin:round;stroke-miterlimit:10;stroke-dasharray:none"
       id="path3410" /><g
       id="g3815"
       transform="translate(105.27563,-123.19488)"><path
         d="m 172.77873,293.28316 -0.22756,-0.70799 -0.37928,-0.55628 -0.55628,-0.55628 -0.60685,-0.55627 -0.65741,-0.50571 -0.69535,-0.4172 -0.69535,-0.22757 -0.60684,-0.0506 -0.51835,0.13907 -0.32871,0.3287 -0.22757,0.50571 -0.0506,0.64478 0.0885,0.74591 0.37928,0.69535 0.46778,0.65741 0.69535,0.50571 0.74591,0.32871 0.74592,0.177 0.74591,-0.0379 0.65742,-0.27814 0.46778,-0.46778 0.27814,-0.74591 0.0885,-0.78385 -0.0885,-0.88498 -0.27814,-0.92292 -0.46778,-0.88498 -0.65742,-0.74592 -0.69534,-0.60684 -0.79649,-0.36664 -0.83441,-0.18964 -0.79649,0.0506 -0.69535,0.22757 -0.51834,0.4172 -0.36664,0.65742 -0.18964,0.78385 0.0379,0.83441 0.18964,0.83442 0.37928,0.69534 0.60685,0.51835 0.69534,0.31607 0.74592,0.10114 0.70799,-0.24021 0.5057,-0.50571 0.46778,-0.74592 0.27814,-0.97348 0.10114,-0.97348 0,-1.02406 -0.24021,-0.97348 -0.27814,-0.78384 -0.46778,-0.60685 -0.46778,-0.31607 -0.46777,-0.10114 -0.46778,0.18964 -0.46778,0.41721 -0.31607,0.64477 -0.18964,0.83442 -0.13906,0.93555 -0.0506,0.92292 0.0885,0.93555 0.24021,0.73328 0.36663,0.55627 0.51835,0.37928 0.46778,0.177 0.46778,-0.0885 0.4172,-0.32871 0.27814,-0.5057 0.18964,-0.69535 0.0885,-0.78384 0,-0.74592 0,-0.55628 -0.17699,-0.46777 -0.32871,-0.13907 -0.32871,0.22756 -0.32871,0.37928 -0.18964,0.74592 -0.0379,0.69534 -0.10114,0.73328 0,0.51835 0,0.4172 0.0506,0.36664 0.36663,-0.36664 0.18964,-0.37928 0.27814,-0.5942 0.13907,-0.37928 0.15171,-0.27814"
         style="fill:none;stroke:#000000;stroke-width:1.40999985;stroke-linecap:round;stroke-linejoin:round;stroke-miterlimit:10;stroke-opacity:1;stroke-dasharray:none"
         id="path3018"
         inkscape:connector-curvature="0" /><path
         d="m 109.654,216.89629 0.88499,1.25162 1.07462,1.02405 0.93556,0.83442 0.92291,0.46778 0.89763,0.0885 0.64477,-0.31607 0.46778,-0.69535 0.18964,-0.98612 0.13907,-1.15048 -0.18964,-1.25162 -0.32871,-1.3022 -0.55627,-1.30219 -0.74592,-1.20105 -0.88499,-1.07463 -0.93555,-0.87234 -0.97349,-0.56892 -0.93555,-0.36663 -0.98613,-0.0885 -0.74591,0.13907 -0.60685,0.36663 -0.36664,0.55628 -0.27814,0.74592 0.0885,0.78384 0.22757,0.79649 0.42985,0.64477 0.60685,0.46778 0.64477,0.27814 0.74592,0.0379 0.79649,-0.13907 0.65741,-0.36664 0.64478,-0.50571 0.42985,-0.65741 0.31606,-0.69535 0.15172,-0.73327 -0.10115,-0.69535 -0.18963,-0.74591 -0.36664,-0.65742 -0.60685,-0.55628 -0.65742,-0.5057 -0.74591,-0.36664 -0.74592,-0.24021 -0.69534,-0.0885 -0.55628,0.13907 -0.37928,0.32871 -0.18964,0.55627 0.13907,0.69535 0.37928,0.73327 0.55628,0.79649 0.79648,0.69535 0.88499,0.5057 0.88498,0.37928 0.88499,0.13907 0.74591,-0.18964 0.60685,-0.36664 0.46778,-0.60684 0.24021,-0.78385 0.0885,-0.79648 -0.18964,-0.78385 -0.27814,-0.74591 -0.51835,-0.60685 -0.64477,-0.41721 -0.65742,-0.22757 -0.69535,-0.0885 -0.56892,0.22757 -0.45513,0.41721 -0.32871,0.55628 -0.18964,0.74591 -0.0885,0.69535 0.177,0.64477 0.13907,0.46778 0.37928,0.41721 0.46778,0.22757 0.46777,0.0506 0.36664,0 0.27814,-0.0885"
         style="fill:none;stroke:#000000;stroke-width:1.40999985;stroke-linecap:round;stroke-linejoin:round;stroke-miterlimit:10;stroke-opacity:1;stroke-dasharray:none"
         id="path3022"
         inkscape:connector-curvature="0" /><path
         d="m 231.84518,209.28542 0.89763,0 0.74591,-0.13907 0.74592,-0.31607 0.50571,-0.46778 0.37927,-0.64477 0.18964,-0.69535 -0.0506,-0.74591 -0.18964,-0.69535 -0.4172,-0.65742 -0.65742,-0.45513 -0.69535,-0.27814 -0.79648,-0.13907 -0.79649,0.0379 -0.69535,0.24021 -0.51834,0.31606 -0.36664,0.51835 -0.13907,0.55628 0.13907,0.60685 0.36664,0.45513 0.60684,0.41721 0.89763,0.27814 0.92291,0.13907 0.98613,0 0.93556,-0.27814 0.78384,-0.36664 0.65742,-0.60685 0.37928,-0.64477 0.22756,-0.69535 -0.0885,-0.74591 -0.24021,-0.64478 -0.41721,-0.60684 -0.55628,-0.46778 -0.65742,-0.27814 -0.69534,-0.13907 -0.60685,0.0506 -0.51835,0.22757 -0.36663,0.37928 -0.18964,0.55627 0,0.59421 0.18964,0.65742 0.36663,0.5942 0.55628,0.46778 0.65742,0.32871 0.69534,0.18964 0.70799,0 0.64478,-0.13907 0.56892,-0.37928 0.4172,-0.46778 0.27814,-0.64477 0.0885,-0.60685 -0.0885,-0.59421 -0.27814,-0.46777 -0.46778,-0.32871 -0.69534,-0.177 -0.84706,-0.10114 -0.88498,0 -0.93556,0.18964 -0.88498,0.22757 -0.79649,0.32871 -0.60685,0.3287 -0.5057,0.177 -0.37928,0.18964"
         style="fill:none;stroke:#000000;stroke-width:1.40999985;stroke-linecap:round;stroke-linejoin:round;stroke-miterlimit:10;stroke-opacity:1;stroke-dasharray:none"
         id="path3026"
         inkscape:connector-curvature="0" /><path
         d="m 163.44846,289.14901 -0.51835,-0.93556 -0.88498,-1.39069 -1.52976,-2.36417 -2.28832,-3.24916 -3.03424,-4.26057 -3.72958,-5.29727 -4.34907,-6.22018 -4.75363,-6.86496 -4.94328,-7.23159 -4.85477,-7.29481 -4.57664,-7.04195 -4.19736,-6.49832 -3.59051,-5.75241 -2.98367,-4.91799 -2.38946,-3.9445 -1.80789,-3.0216 -1.40334,-2.17453 -1.07462,-1.44126 -0.74592,-0.88499 -0.51835,-0.46778 -0.36663,-0.22756 -0.37928,-0.13907 0.3287,0.0885"
         style="fill:none;stroke:#000000;stroke-width:1.40999985;stroke-linecap:round;stroke-linejoin:round;stroke-miterlimit:10;stroke-opacity:1;stroke-dasharray:none"
         id="path3020"
         inkscape:connector-curvature="0" /><path
         d="m 176.41982,287.34111 -0.41721,0.0379 0.0885,-0.36664 0.27814,-0.64477 0.60684,-1.11255 1.0367,-1.68148 1.49183,-2.26303 2.04811,-2.93309 2.65496,-3.6158 3.22387,-4.31114 3.64108,-4.91799 4.00772,-5.38577 4.24793,-5.56276 4.33643,-5.76505 4.387,-5.79033 4.2985,-5.75241 4.10886,-5.62597 3.81808,-5.28463 3.55258,-4.91799 3.21123,-4.45021 2.94574,-3.99508 2.51589,-3.4388 2.04811,-2.81931 1.59297,-2.18717 0.97348,-1.47919 0.51835,-0.88499 0.0885,-0.41721 -0.36664,0.0506 -0.65741,0.41721 -0.97349,0.59421"
         style="fill:none;stroke:#000000;stroke-width:1.40999985;stroke-linecap:round;stroke-linejoin:round;stroke-miterlimit:10;stroke-opacity:1;stroke-dasharray:none"
         id="path3024"
         inkscape:connector-curvature="0" /><path
         d="m 230.68206,206.83274 0.46777,0.13907 -1.26426,0.22757 -2.13661,0.0506 -3.50201,0.0506 -4.94328,0 -6.62474,0.0379 -8.2683,0.0506 -9.79805,0.0506 -10.9106,0.0885 -11.61859,0.13907 -11.80823,0.13907 -11.47953,0.18964 -10.77153,0.13906 -9.62105,0.0885 -8.25565,0.0885 -6.76382,0.10114 -5.36048,0.0379 -3.91922,0 -2.7561,0.0506 -1.59297,0.0506 -0.695346,0.13907 0.278138,0.177 0.935558,0.32871 1.5424,0.36663"
         style="fill:none;stroke:#000000;stroke-width:1.40999985;stroke-linecap:round;stroke-linejoin:round;stroke-miterlimit:10;stroke-opacity:1;stroke-dasharray:none"
         id="path3028"
         inkscape:connector-curvature="0" /><path
         d="m 114.68577,213.14142 0.24022,-0.22756 0.3287,-0.37928 0.22757,-0.64478 0,-0.74592 0,-0.92291 -0.18964,-0.97348 -0.36663,-0.97349 -0.55628,-1.02405 -0.70799,-0.83441 -0.79649,-0.64478 -0.88498,-0.42985 -0.88499,-0.22757 -0.78384,0.0506 -0.70799,0.22757 -0.5057,0.41721 -0.37928,0.65742 -0.18964,0.69534 0.10114,0.78385 0.27814,0.74591 0.55627,0.69535 0.84706,0.55627 0.92291,0.46778 1.0367,0.27814 1.02405,0.0379 0.88499,-0.13907 0.69534,-0.45514 0.41721,-0.70799 0.29078,-0.83441 -0.10114,-0.92291 -0.22757,-0.97349 -0.51834,-0.88498 -0.79649,-0.78385 -0.92291,-0.60684 -1.0367,-0.32871 -1.07463,-0.0885 -1.06198,0.13907 -1.0367,0.41721 -0.97348,0.69534 -0.65742,0.93556 -0.46777,1.11255 -0.22757,1.25162 0.0506,1.28955 0.36664,1.26427 0.55627,1.15048 0.84706,0.97348 0.93555,0.69535 0.92292,0.42985 0.89763,0.0885 0.74591,-0.24021 0.50571,-0.45514 0.24021,-0.74592 0.13907,-0.83441 -0.18964,-0.92291 -0.32871,-0.83442 -0.55628,-0.74591 -0.70799,-0.60685 -0.69534,-0.41721 -0.74592,-0.27814 -0.74591,-0.0885 -0.60685,0 -0.55628,0 -0.46778,0"
         style="fill:none;stroke:#000000;stroke-width:1.40999985;stroke-linecap:round;stroke-linejoin:round;stroke-miterlimit:10;stroke-opacity:1;stroke-dasharray:none"
         id="path3030"
         inkscape:connector-curvature="0" /><path
         d="m 235.30926,206.92124 0.31607,-0.22757 0.29078,-0.4172 0.27814,-0.60685 0.0379,-0.69535 -0.177,-0.83441 -0.51835,-0.78385 -0.69534,-0.74591 -1.0367,-0.55628 -1.06198,-0.32871 -1.2137,-0.0885 -1.21369,0.27814 -1.07463,0.55628 -0.88498,0.92291 -0.56892,1.2137 -0.31607,1.34012 0.0379,1.39069 0.37928,1.30219 0.64478,1.11255 0.89762,0.88499 1.02406,0.5057 1.11255,0.13907 1.07463,-0.27813 0.98612,-0.59421 0.88499,-0.88498 0.69534,-1.07463 0.46778,-1.20105 0.27814,-1.20105 0,-1.2137 -0.27814,-1.16312 -0.41721,-0.97348 -0.70798,-0.78385 -0.78385,-0.55627 -0.93555,-0.32871 -0.93556,-0.0885 -0.88499,0.18964 -0.69534,0.36664 -0.46778,0.69534 -0.24021,0.88499 0.10114,1.01141 0.36664,1.02405 0.60685,0.97349 0.84705,0.83441 0.88499,0.60685 0.93555,0.36663 0.92292,0.18964 0.79648,-0.13906 0.60685,-0.32871 0.46778,-0.55628 0.27814,-0.78384 0.0885,-0.88499 -0.0885,-0.92291 -0.32871,-0.93556 -0.50571,-0.87234 -0.65742,-0.74592 -0.65741,-0.46777 -0.64478,-0.27814 -0.51835,0.13907 -0.36663,0.46777 -0.24021,0.83442 0.0506,1.11255 0.22756,1.25162 0.46778,1.3022 0.60685,1.16312 0.74592,0.97348 0.74591,0.64478 0.70799,0.27814 0.55628,-0.0885 0.46777,-0.41721 0.27814,-0.74592 0.13907,-0.97348 -0.0506,-1.06198 -0.32871,-0.98613 -0.5057,-0.97348 -0.79649,-0.87234 -0.93556,-0.65742 -1.07462,-0.50571"
         style="fill:none;stroke:#000000;stroke-width:1.40999985;stroke-linecap:round;stroke-linejoin:round;stroke-miterlimit:10;stroke-opacity:1;stroke-dasharray:none"
         id="path3032"
         inkscape:connector-curvature="0" /><path
         d="m 174.59927,293.56129 0.60685,-0.10114 0.60685,-0.13907 0.55628,-0.27813 0.46777,-0.46778 0.27814,-0.55628 0.18964,-0.73327 -0.0885,-0.83442 -0.32871,-0.88498 -0.51835,-0.88499 -0.74591,-0.78384 -0.88499,-0.55628 -0.93555,-0.32871 -0.97349,0 -0.88498,0.27814 -0.79649,0.60685 -0.55628,0.87234 -0.37928,1.1252 -0.18964,1.25162 0.15172,1.34012 0.36663,1.25162 0.55628,1.07463 0.79649,0.73327 0.83441,0.37928 0.89763,0 0.83441,-0.37928 0.74592,-0.73327 0.55628,-1.11256 0.37928,-1.35276 0.18964,-1.47919 -0.13907,-1.44126 -0.32871,-1.35276 -0.60685,-1.06199 -0.88499,-0.83441 -1.03669,-0.50571 -1.11255,-0.13907 -1.16313,0.177 -1.0367,0.55628 -0.88498,0.83441 -0.64478,0.97349 -0.37927,1.07462 -0.13907,0.97348 0.24021,0.78385 0.4172,0.55627 0.69535,0.32871 0.84706,-0.0885 0.78384,-0.3287 0.79649,-0.60685 0.65741,-0.73327 0.50571,-0.88499 0.24021,-0.83441 -0.10114,-0.74592 -0.36664,-0.60685 -0.60684,-0.31606"
         style="fill:none;stroke:#000000;stroke-width:1.40999985;stroke-linecap:round;stroke-linejoin:round;stroke-miterlimit:10;stroke-opacity:1;stroke-dasharray:none"
         id="path3034"
         inkscape:connector-curvature="0" /></g><g
       id="g3826"
       transform="translate(-53.757766,176.95265)"><path
         d="m 484.32621,388.36603 0.88498,0.32871 0.93556,0.0379 0.79649,-0.27814 0.64477,-0.55628 0.46778,-0.88498 0.18964,-1.15048 -0.0885,-1.3907 -0.46778,-1.5424 -0.65742,-1.52976 -0.93555,-1.39069 -1.02406,-1.25162 -1.16312,-0.78385 -1.16312,-0.60684 -1.07463,0 -0.93555,0.36663 -0.79649,0.83442 -0.50571,1.21369 -0.32871,1.47919 -0.13906,1.58033 0.13906,1.6309 0.36664,1.56769 0.65742,1.39069 0.83441,1.1252 1.0367,0.73327 1.11255,0.41721 1.16313,0.10114 1.17576,-0.32871 1.07463,-0.60684 0.88498,-0.97349 0.69535,-1.20105 0.46778,-1.39069 0.22756,-1.49183 -0.0885,-1.44126 -0.41721,-1.34013 -0.55628,-1.16312 -0.79648,-0.88498 -0.84706,-0.55628 -0.83442,-0.13907 -0.79648,0.18964 -0.69535,0.50571 -0.51835,0.74591 -0.32871,0.97349 -0.0885,1.02405 0.13906,0.97348 0.27814,0.88499 0.51835,0.64477 0.65742,0.41721 0.60685,0.13907 0.55627,-0.177 0.36664,-0.51835 0.18964,-0.74591 -0.0506,-1.01141 -0.27814,-1.07463 -0.60685,-1.06198 -0.78384,-0.88499 -0.98613,-0.64477 -0.97348,-0.37928 -0.89763,0.0506 -0.74592,0.41721 -0.5057,0.69534 -0.27814,0.97349 -0.0506,0.97348 0.22757,0.97348 0.42985,0.83442 0.60684,0.60685 0.69535,0.3287 0.69535,0.0885 0.65741,-0.0885 0.51835,-0.27813 0.27814,-0.27814 0.13907,-0.41721 -0.10114,-0.27814 -0.22757,-0.18964 -0.41721,-0.18964 -0.56892,0.0506 -0.60684,0.0506 -0.64478,0.13907 -0.55627,0.177 -0.37928,0.18964 -0.37928,0.13907 -0.31607,-0.0885 0.55628,-0.24021 0.46778,0.0506 0.5057,0.13907 0.42985,0.27814 0.41721,0.4172 0.36663,0.55628 0.29079,0.55628 -0.0506,0.4172 -0.41721,-0.13907 -1.0367,-0.78384 -1.85847,-1.7194 -2.70552,-2.55381 -3.59052,-3.28709 -4.43756,-4.08358 -5.08235,-4.77892 -5.46162,-5.10762 -5.60069,-5.2467 -5.55013,-5.00649 -5.18348,-4.50078 -4.4755,-3.85601 -3.72958,-3.11009 -2.80666,-2.27568 -1.90904,-1.34012 -1.02406,-0.4172 -0.13907,0.46777 0.60685,1.11256 1.21369,1.58033 1.66883,1.84582 1.95961,1.94697 1.95961,1.95961 1.78262,1.8079 1.6309,1.47919"
         style="fill:none;stroke:#000000;stroke-width:1.40999985;stroke-linecap:round;stroke-linejoin:round;stroke-miterlimit:10;stroke-opacity:1;stroke-dasharray:none"
         id="path3050"
         inkscape:connector-curvature="0" /><path
         d="m 434.17283,345.30517 -0.37928,0.32871 0,0.69535 0.27814,0.92291 0.46778,0.78385 0.65742,0.79648 0.69534,0.60685 0.84706,0.31607 0.79648,-0.0379 0.69535,-0.46778 0.50571,-0.83441 0.32871,-1.16313 0.13906,-1.30219 -0.13906,-1.42862 -0.32871,-1.40333 -0.59421,-1.25163 -0.84706,-1.06198 -1.02405,-0.69534 -1.1252,-0.37928 -1.07462,-0.0379 -1.06198,0.32871 -0.84706,0.5942 -0.60685,0.88499 -0.36663,1.16312 0,1.28955 0.31606,1.40334 0.65742,1.39069 0.93556,1.28955 1.11255,1.12519 1.21369,0.87234 1.2137,0.51835 1.17576,0.13907 0.92292,-0.24021 0.65741,-0.64477 0.32871,-0.97349 0.0506,-1.25162 -0.37928,-1.39069 -0.65741,-1.52976 -1.02406,-1.49183 -1.25162,-1.44126 -1.4539,-1.25163 -1.44127,-1.06198 -1.49183,-0.69534 -1.31483,-0.46778 -1.11256,-0.0885 -0.84705,0.27814 -0.36664,0.55627 -0.10114,0.83442 0.24021,1.11255 0.55628,1.20105 0.84705,1.2137 0.97349,1.16312 1.07462,0.92291 0.98613,0.69535 0.97348,0.41721 0.65742,0.0885 0.46778,-0.22756 0.17699,-0.50571 -0.13907,-0.69534 -0.36663,-0.83442 -0.70799,-0.84706 -0.78384,-0.73327 -0.88499,-0.55628 -0.89763,-0.37928 -0.88498,-0.0379 -0.55628,0.31606 -0.27814,0.65742 -0.0506,0.92291 0.27814,1.16313 0.56892,1.16312 0.78384,1.11255 0.98613,0.83442 0.97348,0.5057 0.93556,0.10115 0.93556,-0.37928 0.60684,-0.74592 0.36664,-1.06198 0.10114,-1.25162 -0.24021,-1.11256 -0.41721,-0.93555 -0.64477,-0.55628 -0.70799,-0.0885"
         style="fill:none;stroke:#000000;stroke-width:1.40999985;stroke-linecap:round;stroke-linejoin:round;stroke-miterlimit:10;stroke-opacity:1;stroke-dasharray:none"
         id="path3052"
         inkscape:connector-curvature="0" /><path
         d="m 488.3845,381.539 -0.46778,-0.0885 0,-0.36664 0.70799,-0.88498 1.16312,-1.39069 1.95961,-1.94697 2.56646,-2.60439 3.22387,-2.97102 3.78015,-3.42616 4.09622,-3.66636 4.34907,-3.90658 4.28586,-3.80544 4.10886,-3.56522 3.78015,-3.19859 3.31237,-2.79403 2.65496,-2.2251 2.01018,-1.7194 1.16312,-1.06198 0.60685,-0.55628 -0.74592,0.18964 -0.97348,0.41721 -1.35276,0.5057"
         style="fill:none;stroke:#000000;stroke-width:1.40999985;stroke-linecap:round;stroke-linejoin:round;stroke-miterlimit:10;stroke-opacity:1;stroke-dasharray:none"
         id="path3054"
         inkscape:connector-curvature="0" /><path
         d="m 525.52859,346.36716 0.69535,0.74591 0.74591,0.60685 0.88499,0.36664 0.93555,0.0506 0.88499,-0.32871 0.84706,-0.55628 0.69534,-0.92291 0.46778,-1.11255 0.24021,-1.2137 -0.10114,-1.25162 -0.36664,-1.16312 -0.65742,-1.01142 -0.93555,-0.79648 -0.97349,-0.46778 -1.12519,-0.22757 -1.07463,0.18964 -0.97348,0.45514 -0.84706,0.70799 -0.5057,1.01141 -0.32871,1.07462 0.0506,1.20105 0.27814,1.11256 0.5057,1.02405 0.79649,0.78384 0.93556,0.51835 0.97348,0.13907 0.93556,-0.24021 0.79648,-0.5942 0.50571,-0.97349 0.18964,-1.25162 -0.13907,-1.44126 -0.55628,-1.44126 -0.84706,-1.39069 -1.06198,-1.25162 -1.21369,-0.97349 -1.26427,-0.65742 -1.16312,-0.27813 -0.98613,0.13907 -0.60684,0.51834 -0.32871,0.87235 0.0506,1.21369 0.37928,1.30219 0.64477,1.25163 0.88499,1.15048 0.98612,0.83441 1.02406,0.51835 0.93556,0.0885 0.74591,-0.31607 0.51835,-0.60685 0.31607,-0.83441 0.0506,-0.93556 -0.18964,-0.83441 -0.41721,-0.59421 -0.60685,-0.3287 -0.83441,0.0506 -0.88499,0.36663 -0.84705,0.64478"
         style="fill:none;stroke:#000000;stroke-width:1.40999985;stroke-linecap:round;stroke-linejoin:round;stroke-miterlimit:10;stroke-opacity:1;stroke-dasharray:none"
         id="path3056"
         inkscape:connector-curvature="0" /><path
         d="m 427.77565,336.44268 -0.22757,0.27814 0.88499,-0.83442 1.02405,-1.35276 1.35277,-2.22511 1.6309,-3.05952 1.76997,-3.80543 1.78261,-4.31114 1.7194,-4.69043 1.68147,-4.82949 1.45391,-4.81685 1.30219,-4.60192 1.07463,-4.08357 0.93555,-3.5273 0.69535,-2.81931 0.60684,-2.27568 0.36664,-1.66883 0.24021,-1.21369 0.13907,-0.74592 0.0506,-0.31606 0.0379,0.64477 0.0506,0.74592 0,0.92291 0.0506,0.93556"
         style="fill:none;stroke:#000000;stroke-width:1.40999985;stroke-linecap:round;stroke-linejoin:round;stroke-miterlimit:10;stroke-opacity:1;stroke-dasharray:none"
         id="path3058"
         inkscape:connector-curvature="0" /><path
         d="m 446.62584,296.26435 0.37928,0.22757 0.55627,0.36664 0.79649,0.24021 0.93556,0.0885 1.06198,-0.0506 1.17576,-0.31606 1.16313,-0.55628 1.07462,-0.93556 0.88499,-1.06198 0.60684,-1.30219 0.32871,-1.34012 -0.13907,-1.40333 -0.56891,-1.20106 -0.88499,-1.06198 -1.21369,-0.79648 -1.35277,-0.50571 -1.44126,-0.10114 -1.4539,0.24021 -1.25163,0.64477 -1.07462,0.88499 -0.74592,1.11255 -0.46777,1.20105 -0.0885,1.26427 0.22757,1.20105 0.51834,1.06198 0.83442,0.74592 1.07462,0.46778 1.26427,0.0885 1.25162,-0.27813 1.21369,-0.55628 1.02406,-0.92291 0.74591,-1.2137 0.37928,-1.34012 0.0885,-1.35276 -0.22757,-1.28955 -0.51834,-1.07463 -0.69535,-0.78384 -0.83441,-0.41721 -0.84706,-0.10114 -0.74592,0.32871 -0.60684,0.69535 -0.36664,0.97348 -0.24021,1.21369 -0.0506,1.28955 0.18964,1.26427 0.37928,1.11255 0.55627,0.87234 0.65742,0.55628 0.64478,0.27814 0.60684,-0.13907 0.42985,-0.41721 0.27814,-0.64477 0,-0.83442 -0.24021,-0.83441 -0.41721,-0.79649 -0.65741,-0.69535 -0.78385,-0.4172 -0.84706,-0.13907 -0.83441,0.27814 -0.74592,0.65741 -0.51834,0.97349 -0.32871,1.20105 -0.0885,1.30219 0.18964,1.25162 0.36663,1.11256 0.55628,0.79648 0.70799,0.41721 0.64477,-0.10114 0.56892,-0.55628 0.36664,-1.01141 0.18964,-1.35276 -0.0506,-1.52976 -0.31607,-1.58033 -0.56892,-1.44126 -0.88498,-1.01142 -0.93556,-0.60684 -0.97348,0.0506 -0.84706,0.64477 -0.55627,1.11256"
         style="fill:none;stroke:#000000;stroke-width:1.40999985;stroke-linecap:round;stroke-linejoin:round;stroke-miterlimit:10;stroke-opacity:1;stroke-dasharray:none"
         id="path3060"
         inkscape:connector-curvature="0" /><path
         d="m 528.04448,336.44268 -0.18964,-1.07463 -0.45514,-1.75732 -0.84705,-2.60439 -1.16313,-3.47673 -1.4539,-4.17207 -1.7194,-4.82949 -1.87111,-5.19613 -1.90904,-5.33519 -1.87111,-5.2467 -1.68148,-4.72835 -1.39069,-4.13415 -1.12519,-3.24916 -0.69535,-2.50324 -0.41721,-1.61826 -0.18964,-0.93556 0.27814,0.13907 0.27814,0.79649 0.41721,1.11255 0.27814,1.25163 0.18964,1.25162 0.13906,1.25162 0.0506,1.16312 0.0506,0.97349 0,0.83441 0,0.50571 0,0.37928 0.17699,0.22756 0.56892,0.13907 0.50571,-0.18964 0.51835,-0.13907 0.55627,-0.27813 0.65742,-0.22757 0.55628,-0.27814 0.46777,-0.22757 0.37928,-0.27814 0.22757,-0.3287 0,-0.36664 -0.18964,-0.46778 -0.41721,-0.32871 -0.65741,-0.45513 -0.74592,-0.27814 -0.78384,-0.18964 -0.79649,-0.13907 -0.69535,0 -0.51834,0.0379 -0.37928,0.24021 -0.177,0.41721 0.0885,0.5057 0.27814,0.65742 0.46777,0.55628 0.74592,0.4172 0.79649,0.31607 0.79648,0.18964 0.74592,-0.0506 0.69535,-0.22757 0.46777,-0.50571 0.22757,-0.79648 -0.0379,-0.87234 -0.42985,-0.93556 -0.64477,-0.92291 -0.98613,-0.79649 -1.11255,-0.5942 -1.31484,-0.41721 -1.35276,-0.18964 -1.35276,0.13907 -1.25162,0.27814 -1.02406,0.55627 -0.79649,0.69535 -0.51834,0.69534 -0.27814,0.79649 0.0506,0.78384 0.36664,0.69535 0.56891,0.55628 0.83442,0.36663 0.97348,0.18964 0.98613,0.0506 1.02405,-0.13907 0.84706,-0.32871 0.64478,-0.46777 0.37928,-0.64478 0.0885,-0.60685 -0.18964,-0.45513 -0.4172,-0.29078 -0.55628,0.0506 -0.65742,0.32871 -0.64477,0.64477 -0.46778,0.97349 -0.37928,1.11255 -0.18964,1.16312 0.0506,1.11256 0.24021,0.88498 0.31607,0.55628 0.51835,0.18964 0.55627,-0.18964 0.56892,-0.60685 0.41721,-0.87234 0.41721,-1.1252 0.22756,-1.20105 0.13907,-1.16312 0.10114,-1.01141 -0.0506,-0.74592 -0.18964,-0.51835 -0.36663,-0.22757 -0.41721,0.0885 -0.56892,0.24021 -0.55628,0.41721 -0.51834,0.46778 -0.50571,0.31606 -0.32871,0.18964 -0.32871,0.0885 -0.32871,-0.41721 0.0506,-0.45513 0.13907,-0.60685 0.18964,-0.46778 0.36664,-0.46777 0.24021,-0.31607 0.36664,0 -0.177,0.45514"
         style="fill:none;stroke:#000000;stroke-width:1.40999985;stroke-linecap:round;stroke-linejoin:round;stroke-miterlimit:10;stroke-opacity:1;stroke-dasharray:none"
         id="path3062"
         inkscape:connector-curvature="0" /><path
         d="m 507.14618,298.80552 -0.4172,0.27814 -1.17577,0.0506 -2.04811,-0.32871 -3.12273,-0.55627 -4.05829,-0.83442 -4.95592,-1.01141 -5.73976,-1.07463 -6.24547,-1.06198 -6.57417,-1.02405 -6.48568,-0.83442 -6.0179,-0.55627 -5.32255,-0.22757 -4.33643,-0.10114"
         style="fill:none;stroke:#000000;stroke-width:1.40999985;stroke-linecap:round;stroke-linejoin:round;stroke-miterlimit:10;stroke-opacity:1;stroke-dasharray:none"
         id="path3064"
         inkscape:connector-curvature="0" /></g><g
       id="g3860"
       transform="translate(22.399069,13.439442)"><path
         d="m 202.80624,485.98422 0.46778,-0.24021 0.27814,-0.41721 0.24021,-0.64478 0.13907,-0.88498 -0.0506,-0.78385 -0.177,-0.83441 -0.32871,-0.69535 -0.42985,-0.51834 -0.50571,-0.31607 -0.51834,0.0379 -0.41721,0.37928 -0.41721,0.69534 -0.32871,1.01142 -0.13907,1.16312 -0.13907,1.30219 0.13907,1.34012 0.27814,1.26427 0.41721,1.15048 0.60685,0.93555 0.70798,0.64478 0.74592,0.41721 0.74592,0.22756 0.78384,-0.0379 0.75856,-0.18964 0.64477,-0.4172 0.51835,-0.64478 0.32871,-0.74591 0.177,-0.88499 -0.13907,-1.02405 -0.177,-1.01142 -0.42985,-1.02405 -0.64477,-0.92291 -0.74592,-0.83442 -0.88498,-0.56892 -0.84706,-0.36663 -0.83442,-0.18964 -0.74591,0.13907 -0.56892,0.37927 -0.41721,0.60685 -0.22757,0.83442 -0.0506,0.92291 0.0506,0.88498 0.27814,0.87235 0.41721,0.74591 0.60685,0.51835 0.65741,0.36664 0.64478,0.13907 0.60685,-0.0506 0.56892,-0.177 0.4172,-0.32871 0.32871,-0.46778 0.13907,-0.46777 0.0379,-0.50571 -0.0885,-0.50571 -0.27814,-0.4172 -0.41721,-0.27814 -0.65741,-0.18964 -0.51835,-0.0885 -0.60685,0.13907 -0.36664,0.27814 -0.3287,0.5057 -0.0885,0.69535 0.0885,0.83441 0.3287,0.83442 0.50571,0.83441 0.70799,0.74592 0.74592,0.55627 0.79648,0.36664 0.69535,0.18964 0.60684,-0.0885 0.51835,-0.24021 0.177,-0.36664 0.18964,-0.60684 -0.18964,-0.64478 -0.22757,-0.64477 -0.51835,-0.69535 -0.55627,-0.60685 -0.69535,-0.55627 -0.70799,-0.37928 -0.74591,-0.27814 -0.64478,-0.0885 -0.65742,0 -0.37927,0.0506 -0.36664,0.27814 -0.18964,0.36663 -0.0506,0.50571 0.0506,0.60685 0.32871,0.37928 0.46778,0.31606 0.5057,0.24021 0.65742,0.0885 0.55628,-0.0506 0.42985,-0.22757 0.31606,-0.4172 0.18964,-0.55628 0.0506,-0.60685 -0.0506,-0.64477 -0.18964,-0.60685 -0.31606,-0.55627 -0.42985,-0.36664 -0.31607,-0.27814 -0.42985,-0.10114 -0.60685,0 -0.46778,0.0506 -0.45513,0.13907 -0.10114,0.27814 0,0.32871 -0.0506,0.4172"
         style="fill:none;stroke:#000000;stroke-width:1.40999985;stroke-linecap:round;stroke-linejoin:round;stroke-miterlimit:10;stroke-opacity:1;stroke-dasharray:none"
         id="path3036"
         inkscape:connector-curvature="0" /><path
         d="m 210.46769,486.26235 -0.74592,-0.13907 -0.70799,0 -0.55628,-0.0506 -0.55627,-0.0506 -0.42985,0 -0.36664,0 -0.18964,0.24022 0.37928,0.17699 0.83442,0.13907 1.49183,0.13907 2.14925,-0.0379 3.03423,-0.13907 4.00772,-0.27814 5.09499,-0.4172 6.24546,-0.51835 7.2316,-0.45514 7.97751,-0.51835 8.40736,-0.5057 8.29357,-0.50571 7.99016,-0.46778 7.23159,-0.4172 6.33396,-0.41721 5.18349,-0.41721 3.91922,-0.37928 2.8446,-0.4172 1.78261,-0.31607 0.97348,-0.24021 0.51835,-0.36664"
         style="fill:none;stroke:#000000;stroke-width:1.40999985;stroke-linecap:round;stroke-linejoin:round;stroke-miterlimit:10;stroke-opacity:1;stroke-dasharray:none"
         id="path3038"
         inkscape:connector-curvature="0" /><path
         d="m 299.06735,486.9577 0.69534,-0.37928 0.60685,-0.50571 0.37928,-0.55627 0.18964,-0.74592 -0.10114,-0.83441 -0.36664,-0.88499 -0.70799,-0.97348 -0.92291,-0.87234 -1.0367,-0.79649 -1.21369,-0.59421 -1.16312,-0.3287 -1.07463,-0.13907 -0.88498,0.13907 -0.64478,0.4172 -0.37928,0.64478 -0.18964,0.88498 0.13907,0.97349 0.42985,0.93555 0.64478,0.87235 0.93555,0.79648 1.07463,0.50571 1.21369,0.32871 1.16312,0 1.02406,-0.32871 0.88498,-0.55628 0.56892,-0.88498 0.27814,-1.02406 -0.13907,-1.15048 -0.46778,-1.21369 -0.79648,-1.15048 -1.02406,-1.07463 -1.16312,-0.88498 -1.21369,-0.64478 -1.17577,-0.36664 -0.97348,0 -0.69535,0.36664 -0.46778,0.69535 -0.13907,1.02405 0.177,1.20105 0.42985,1.35277 0.69535,1.28955 0.93555,1.12519 0.97349,0.78385 0.98612,0.46777 0.83442,0.0379 0.65741,-0.36663 0.46778,-0.64478 0.22757,-0.93555 0.0506,-0.97349 -0.18964,-0.97348 -0.32871,-0.83442 -0.46778,-0.69534 -0.55627,-0.46778 -0.55628,-0.22757 -0.51835,-0.0506 -0.32871,0 -0.36663,0.13907 -0.37928,0.27814 -0.27814,0.27814 -0.22757,0.18964"
         style="fill:none;stroke:#000000;stroke-width:1.40999985;stroke-linecap:round;stroke-linejoin:round;stroke-miterlimit:10;stroke-opacity:1;stroke-dasharray:none"
         id="path3040"
         inkscape:connector-curvature="0" /><path
         d="m 294.40221,477.21022 0.65742,0.18964 0,-0.46778 -0.88499,-1.34012 -2.14925,-2.51589 -3.59051,-3.70429 -5.23405,-4.96856 -6.81439,-6.22018 -8.29357,-7.23159 -9.38085,-7.99016 -5.04441,-4.22264 -5.03178,-4.22264 -5.09498,-4.19736 -5.08235,-4.19736 -9.74748,-7.97751 -8.77399,-7.24424 -7.47181,-6.25811 -6.0179,-5.01913 -4.47549,-3.84336 -3.12274,-2.74345 -1.92168,-1.75733 -1.06198,-1.02406 -0.32871,-0.4172 0.22757,0.5057 0.10114,0.60685 0.31607,0.51835 0.3287,0.5942 0.46778,0.79649 0.37928,0.73327 0.46778,0.83442 0.41721,0.79648 0.32871,0.83442 0.27813,0.78384 0.27814,0.74592 0.27814,0.64477 0.22757,0.55628 0.24021,0.41721 0.22757,0.4172 0.13906,0.29079 0.24021,0.31606 0.13907,0.27814 0.27814,0.37928 0.37928,0.36664 0.41721,0.4172 0.74591,0.46778 0.74592,0.36664 0.97348,0.36663 1.0367,0.13907 1.02406,0 0.93555,-0.31606 0.74592,-0.65742 0.41721,-1.01141 0.13906,-1.2137 -0.22756,-1.44126 -0.65742,-1.47919 -0.93556,-1.49183 -1.16312,-1.34012 -1.31484,-1.11255 -1.35276,-0.78385 -1.35276,-0.46777 -1.2137,-0.0885 -0.92291,0.22756 -0.65742,0.60685 -0.37928,0.87234 -0.17699,1.07463 0.17699,1.20105 0.42985,1.21369 0.60685,1.15049 0.83442,0.97348 0.83441,0.79649 0.89763,0.5057 0.83441,0.27814 0.69535,-0.0379 0.51835,-0.27814 0.37928,-0.51834 0.22756,-0.69535 0,-0.74592 -0.27813,-0.83441 -0.41721,-0.83442 -0.70799,-0.73327 -0.83441,-0.60685 -0.93556,-0.37928 -0.97348,-0.22756 -0.84706,0.13907 -0.69535,0.27813 -0.37928,0.55628 -0.0885,0.79649 0.18964,0.78384 0.45513,0.78385 0.75856,0.60684 1.02405,0.41721 1.07463,0.13907 1.06198,-0.18964 0.93556,-0.50571 0.74591,-0.74591 0.46778,-1.01141 0.24021,-1.02406 -0.10114,-1.02405 -0.36664,-0.88499 -0.60684,-0.73327 -0.74592,-0.46778 -0.79649,-0.18964 -0.69534,-0.0885"
         style="fill:none;stroke:#000000;stroke-width:1.40999985;stroke-linecap:round;stroke-linejoin:round;stroke-miterlimit:10;stroke-opacity:1;stroke-dasharray:none"
         id="path3042"
         inkscape:connector-curvature="0" /><path
         d="m 203.18552,484.87166 -0.0885,0.27814 0,-0.65742 0.45514,-0.83441 1.03669,-1.16312 1.68148,-1.3907 2.37681,-1.84582 3.40088,-2.37682 4.38699,-2.97102 5.32256,-3.61579 6.48568,-4.22265 7.28216,-4.67778 7.78787,-5.1582 8.16715,-5.47426 8.06601,-5.75241 7.69937,-5.94204 7.04195,-5.94204 6.30868,-5.75241 5.41105,-5.47426 4.42493,-5.10763 3.50201,-4.58928 2.65496,-3.94451 1.92168,-3.24916 1.30219,-2.45267 0.74592,-1.66883 0.24021,-0.97348 -0.24021,-0.46778 -0.60685,0.0379 -0.88498,0.3287 -1.02406,0.60685 -1.07462,0.74592 -1.07463,0.83441 -0.93555,0.87234 -0.64478,0.79649 -0.42985,0.83442 -0.17699,0.64477"
         style="fill:none;stroke:#000000;stroke-width:1.40999985;stroke-linecap:round;stroke-linejoin:round;stroke-miterlimit:10;stroke-opacity:1;stroke-dasharray:none"
         id="path3044"
         inkscape:connector-curvature="0" /><path
         d="m 298.65014,402.41633 0.36664,0.0885 0.32871,0.0885 0.32871,-0.177 0.37927,-0.41721 0.13907,-0.65742 0.13907,-0.92291 -0.13907,-1.02405 -0.29078,-1.11256 -0.45513,-1.11255 -0.70799,-1.02405 -0.79649,-0.69535 -0.88498,-0.46778 -0.88499,-0.17699 -0.83441,0.22756 -0.70799,0.55628 -0.41721,0.88499 -0.27814,1.16312 0.0506,1.25162 0.32871,1.20105 0.60685,1.16313 0.88499,0.92291 1.07462,0.65742 1.16312,0.36663 1.16313,-0.0506 1.07462,-0.36663 0.79649,-0.69535 0.5057,-0.97348 0.24022,-1.16313 -0.18964,-1.25162 -0.46778,-1.20105 -0.79649,-1.11255 -1.02405,-0.88499 -1.11256,-0.55627 -1.07462,-0.32871 -0.98613,0.0885 -0.83441,0.37927 -0.55628,0.64478 -0.32871,0.88498 0,0.97349 0.27814,1.02405 0.55628,0.92292 0.93555,0.74591 1.16313,0.55628 1.35276,0.32871 1.40333,0.13907 1.40334,-0.24021 1.30219,-0.41721 1.07462,-0.64478 0.69535,-0.88498 0.41721,-0.88499 0.10114,-0.87234 -0.27814,-0.79649 -0.56892,-0.5942 -0.74592,-0.32871 -1.02405,-0.0885 -1.16312,0.27814 -1.26427,0.45514 -1.44126,0.74591 -1.59297,0.78385"
         style="fill:none;stroke:#000000;stroke-width:1.40999985;stroke-linecap:round;stroke-linejoin:round;stroke-miterlimit:10;stroke-opacity:1;stroke-dasharray:none"
         id="path3046"
         inkscape:connector-curvature="0" /><path
         d="m 202.1109,392.61828 -0.41721,-0.41721 -0.46778,-0.22757 -0.27814,-0.18964 -0.32871,-0.36663 0.55628,-0.27814 1.1252,-0.13907 1.95961,0.18964 2.93309,0.36664 4.2985,0.69534 5.55012,1.06198 7.09253,1.2137 8.35678,1.44126 9.22914,1.39069 9.62105,1.25162 9.46934,0.92292 8.95099,0.60684 7.88902,0.0885 6.67531,-0.36664 5.22142,-0.69534 3.69165,-0.97348 2.28832,-0.97349 1.21369,-0.74591 0.27814,-0.46778 -0.46778,-0.0885 -0.98612,0.36664 -1.49184,0.60684"
         style="fill:none;stroke:#000000;stroke-width:1.40999985;stroke-linecap:round;stroke-linejoin:round;stroke-miterlimit:10;stroke-opacity:1;stroke-dasharray:none"
         id="path3048"
         inkscape:connector-curvature="0" /><path
         d="m 255.12151,519.76537 0.0379,0.45513 -0.0379,-0.5057 0,-1.06199 -0.0506,-1.58033 -0.10114,-1.8079 0,-2.09868 0,-2.17453 0.15171,-2.18718 0.0885,-1.8964 0.0885,-1.66882 0.13907,-1.16313 0.0506,-0.74591 0,-0.50571 -0.18964,-0.41721"
         style="fill:none;stroke:#ff0000;stroke-width:1.40999985;stroke-linecap:round;stroke-linejoin:round;stroke-miterlimit:10;stroke-opacity:1;stroke-dasharray:none"
         id="path3084"
         inkscape:connector-curvature="0" /><path
         d="m 254.22388,494.29043 0,-0.4172 0.10114,-0.51835 0.0379,-0.73328 0.0506,-0.93555 0,-1.20105 0.0506,-1.39069 0,-1.54241 0,-1.61825 0,-1.61826 0.0506,-1.54241 0.0379,-1.28955 0.13907,-1.07462 0.13907,-0.87234 0.10114,-0.51835 0.0379,-0.50571"
         style="fill:none;stroke:#ff0000;stroke-width:1.40999985;stroke-linecap:round;stroke-linejoin:round;stroke-miterlimit:10;stroke-opacity:1;stroke-dasharray:none"
         id="path3086"
         inkscape:connector-curvature="0" /><path
         d="m 253.47797,473.96106 0,-1.06198 0,-1.21369 0.13907,-1.39069 0.10114,-1.44127 0.13907,-1.52976 0.18964,-1.52976 0.0885,-1.52976 0.0885,-1.44126 0.13907,-1.28955 0.10114,-1.16312"
         style="fill:none;stroke:#ff0000;stroke-width:1.40999985;stroke-linecap:round;stroke-linejoin:round;stroke-miterlimit:10;stroke-opacity:1;stroke-dasharray:none"
         id="path3088"
         inkscape:connector-curvature="0" /><path
         d="m 253.85725,451.78586 0,-1.16312 0,-1.34012 0,-1.40334 0,-1.42861 0,-1.3907 0,-1.25162 0.0506,-1.21369 0,-1.06198 -0.0506,-0.97349 0,-0.93555"
         style="fill:none;stroke:#ff0000;stroke-width:1.40999985;stroke-linecap:round;stroke-linejoin:round;stroke-miterlimit:10;stroke-opacity:1;stroke-dasharray:none"
         id="path3090"
         inkscape:connector-curvature="0" /><path
         d="m 253.47797,429.23138 0,-1.02405 0,-1.15048 0.13907,-1.1252 0.15171,-1.20105 0.0885,-1.25162 0,-1.16313 0.13907,-1.20105 0,-1.07462 0.0506,-1.11256 -0.0506,-0.92291 0,-0.93555 -0.0885,-0.83442 -0.0506,-0.83441"
         style="fill:none;stroke:#ff0000;stroke-width:1.40999985;stroke-linecap:round;stroke-linejoin:round;stroke-miterlimit:10;stroke-opacity:1;stroke-dasharray:none"
         id="path3092"
         inkscape:connector-curvature="0" /><path
         d="m 251.98613,406.53783 0,-1.20105 0.0506,-1.49183 0.22756,-1.66883 0.29078,-1.75733 0.22757,-1.85847 0.22757,-1.66883 0.15171,-1.6309 0.22757,-1.42862"
         style="fill:none;stroke:#ff0000;stroke-width:1.40999985;stroke-linecap:round;stroke-linejoin:round;stroke-miterlimit:10;stroke-opacity:1;stroke-dasharray:none"
         id="path3094"
         inkscape:connector-curvature="0" /><path
         d="m 252.55505,385.70275 -0.24021,-1.66883 -0.0885,-1.89639 -0.13906,-1.99754 0.17699,-2.03547 0.10114,-1.85847 0.22757,-1.7194"
         style="fill:none;stroke:#ff0000;stroke-width:1.40999985;stroke-linecap:round;stroke-linejoin:round;stroke-miterlimit:10;stroke-opacity:1;stroke-dasharray:none"
         id="path3096"
         inkscape:connector-curvature="0" /></g><g
       id="g3841"
       transform="translate(-60.477487,13.439442)"><path
         d="m 642.31704,429.65167 0.32871,-1.11255 0.13907,-1.58033 0.0885,-1.85847 -0.22757,-1.8964 -0.24021,-1.82054 -0.46778,-1.56769 -0.55627,-1.21369 -0.55628,-0.87234 -0.70799,-0.42985 -0.55628,0 -0.55627,0.42985 -0.42985,0.78384 -0.31607,1.02406 -0.18964,1.25162 -0.0506,1.30219 0.13907,1.28955 0.32871,1.21369 0.51835,0.97348 0.69534,0.64478 0.74592,0.37928 0.74592,-0.0506 0.84705,-0.37928 0.64478,-0.69535 0.60685,-0.97348 0.3287,-1.25162 0.13907,-1.34012 0,-1.39069 -0.32871,-1.30219 -0.4172,-1.16313 -0.60685,-0.92291 -0.79649,-0.60685 -0.74591,-0.32871 -0.74592,0.10115 -0.55628,0.36663 -0.51834,0.69535 -0.177,1.07462 -0.10114,1.11256 0.13907,1.20105 0.32871,1.21369 0.51834,1.06198 0.64478,0.88499 0.65742,0.5057 0.65741,0.22757 0.55628,-0.0379 0.41721,-0.37928 0.32871,-0.50571 0.18964,-0.83441 0.0506,-0.78384 -0.0506,-0.79649 -0.24021,-0.69534 -0.31607,-0.55628 -0.46778,-0.32871 -0.46778,-0.17699 -0.51834,0 -0.36664,0.17699 -0.32871,0.37928 -0.18964,0.55628 -0.0885,0.64477 -0.10114,0.41721 0.10114,0.41721 0.13907,0.27814 0.46778,-0.177 0.22757,-0.51835 0.13907,-0.78384 0.0506,-0.79649 0,-0.83441 -0.0506,-0.55628 -0.18964,-0.50571 -0.22757,-0.18964"
         style="fill:none;stroke:#000000;stroke-width:1.40999985;stroke-linecap:round;stroke-linejoin:round;stroke-miterlimit:10;stroke-opacity:1;stroke-dasharray:none"
         id="path3066"
         inkscape:connector-curvature="0" /><path
         d="m 642.07683,421.99023 -0.18964,-0.36664 0.24021,-0.4172 0.51835,-0.32871 1.11255,-0.22757 1.82054,-0.13907 2.47796,-0.10114 3.31238,0 4.28585,0.10114 5.23406,0.27814 6.1064,0.41721 6.90288,0.5942 7.5603,0.70799 7.78787,0.73327 7.69937,0.83441 7.33274,0.83442 6.57418,0.83441 5.68919,0.74592 4.6272,0.69534 3.50202,0.55628 2.32624,0.37928 1.3022,0.22757 0.32871,0.0885"
         style="fill:none;stroke:#000000;stroke-width:1.40999985;stroke-linecap:round;stroke-linejoin:round;stroke-miterlimit:10;stroke-opacity:1;stroke-dasharray:none"
         id="path3068"
         inkscape:connector-curvature="0" /><path
         d="m 724.81031,430.38494 0.27813,-0.64477 0.0885,-0.97349 -0.27813,-1.16312 -0.41721,-1.34012 -0.70799,-1.44126 -0.88499,-1.39069 -0.97348,-1.30219 -1.02405,-1.11255 -1.0367,-0.69535 -0.97348,-0.50571 -0.79649,0 -0.64478,0.27814 -0.29078,0.59421 -0.0885,0.93555 0.22757,1.16313 0.51835,1.28954 0.88499,1.25162 1.07462,1.2137 1.30219,1.02405 1.35277,0.73328 1.40333,0.4172 1.30219,0.18964 1.17577,-0.18964 0.97348,-0.45513 0.65742,-0.69535 0.36664,-0.97348 0.10114,-1.02406 -0.27814,-1.07462 -0.51835,-1.06198 -0.83441,-0.83441 -1.0367,-0.79649 -1.11255,-0.50571 -1.2137,-0.18964 -1.12519,0 -0.97349,0.27814 -0.70798,0.51835 -0.41721,0.69535 0,0.69534 0.32871,0.69534 0.65741,0.60685 0.93556,0.50571 1.11255,0.18964 1.16313,0.0885 1.12519,-0.13907 1.02406,-0.36664 0.84705,-0.46778 0.55628,-0.69534 0.32871,-0.69535 0,-0.69534 -0.27814,-0.79649 -0.51835,-0.73327 -0.88498,-0.55628 -1.02406,-0.41721 -1.21369,-0.37928 -1.31484,-0.13906 -1.25162,-0.0885"
         style="fill:none;stroke:#000000;stroke-width:1.40999985;stroke-linecap:round;stroke-linejoin:round;stroke-miterlimit:10;stroke-opacity:1;stroke-dasharray:none"
         id="path3070"
         inkscape:connector-curvature="0" /><path
         d="m 724.43103,419.57548 -0.32871,-0.55627 -0.41721,-0.69535 -0.65742,-0.92291 -0.78384,-1.07463 -1.0367,-1.39069 -1.39069,-1.70675 -1.92168,-2.41475 -2.65496,-2.97102 -3.53994,-3.94451 -4.62721,-4.77892 -5.68919,-5.7524 -6.62474,-6.49832 -7.28217,-7.00403 -7.6488,-7.19366 -7.6488,-6.86496 -7.09252,-6.18225 -6.15697,-5.19613 -4.99385,-3.84337 -3.45144,-2.41474 -1.82054,-0.97348 -0.37928,0.36663 0.88499,1.35277"
         style="fill:none;stroke:#000000;stroke-width:1.40999985;stroke-linecap:round;stroke-linejoin:round;stroke-miterlimit:10;stroke-opacity:1;stroke-dasharray:none"
         id="path3072"
         inkscape:connector-curvature="0" /><path
         d="m 649.87734,356.1979 1.16313,0.36664 1.11255,0.13907 1.07463,0.0506 0.93555,-0.22757 0.55628,-0.46778 0.37928,-0.65742 0,-0.83441 -0.37928,-0.87234 -0.55628,-0.93556 -0.93555,-0.87234 -1.07463,-0.79649 -1.06198,-0.69534 -1.1252,-0.50571 -0.88498,-0.27814 -0.79649,-0.13907 -0.55628,0.13907 -0.3287,0.31607 -0.0885,0.51835 0.22756,0.69534 0.41721,0.64478 0.56892,0.69534 0.83442,0.60685 0.83441,0.41721 0.84706,0.27813 0.88498,0 0.60685,-0.22756 0.51835,-0.51835 0.177,-0.69535 -0.13907,-0.88498 -0.46778,-0.92292 -0.74592,-1.02405 -1.16312,-0.97348 -1.16312,-0.87235 -1.40334,-0.65741 -1.26426,-0.41721 -1.16313,-0.13907 -0.88498,0.18964 -0.46778,0.50571 -0.22757,0.83441 0.27814,1.02405 0.55628,1.11256 0.83441,1.06198 1.0367,0.84706 1.11255,0.55627 1.1252,0.22757 0.97348,-0.13907 0.79649,-0.46778 0.51835,-0.74591 0.31606,-0.92292 0.0506,-0.88498 -0.13907,-0.78385 -0.36663,-0.64477 -0.56892,-0.41721 -0.55628,-0.27814"
         style="fill:none;stroke:#000000;stroke-width:1.40999985;stroke-linecap:round;stroke-linejoin:round;stroke-miterlimit:10;stroke-opacity:1;stroke-dasharray:none"
         id="path3074"
         inkscape:connector-curvature="0" /><path
         d="m 645.16164,413.22888 -0.46778,0.13906 0.51835,-0.3287 1.11255,-0.74592 1.68147,-1.16312 2.32625,-1.70676 3.0848,-2.27568 3.78016,-2.83195 4.38699,-3.33766 5.03178,-3.66637 5.56276,-3.9445 6.0179,-4.13415 6.0179,-4.22264 6.0179,-4.22264 5.63862,-4.13415 5.37312,-3.98243 4.80421,-3.66637 4.10886,-3.33766 3.45144,-2.93309 2.61703,-2.50325 1.90904,-1.99753 1.11255,-1.42862 0.70799,-0.88499 0.0885,-0.46778 -0.46778,-0.18964 -0.74591,-0.0379 -1.07463,0.0885 -1.11255,0.13907 -1.17577,0.27814 -1.06198,0.36664 -0.89763,0.42985 -0.5942,0.36664 -0.42985,0.36663 -0.27814,0.27814 0.27814,-0.36664 0.24021,-0.4172 0.32871,-0.46778 0.36663,-0.41721 0.32871,-0.32871 0.22757,-0.22757 0.37928,0.27814 0.13907,0.27814 0.32871,0.46778 0.27813,0.32871 0.41721,0.17699 0.65742,0.18964 0.69534,0.0885 0.88499,0 0.98613,-0.13907 1.11255,-0.22756 1.17577,-0.32871 1.11255,-0.46778 1.02405,-0.50571 0.79649,-0.60684 0.51835,-0.64478 0.18964,-0.69534 -0.15171,-0.69535 -0.55628,-0.69535 -0.88499,-0.65741 -1.16312,-0.45514 -1.40333,-0.32871 -1.44126,-0.18964 -1.45391,0.0506 -1.30219,0.27814 -1.07463,0.46778 -0.69534,0.74592 -0.37928,0.87234 0.13907,0.97348 0.56892,1.07463 0.88498,0.97348 1.25162,0.88499 1.45391,0.5942 1.49183,0.41721 1.58033,0.0506 1.40334,-0.27814 1.12519,-0.55628 0.69535,-0.93555 0.36663,-1.15048 -0.17699,-1.25162 -0.56892,-1.25163 -0.92292,-1.12519 -1.21369,-0.92291 -1.35276,-0.60685 -1.31484,-0.27814 -1.07462,0.13907 -0.88499,0.46778 -0.55628,0.69534 -0.3287,0.88499 0.13906,0.78384 0.32871,0.69535 0.41721,0.51835 0.41721,0.27813 0.15171,-0.4172 -0.37928,-0.46778 -0.60685,-0.64478"
         style="fill:none;stroke:#000000;stroke-width:1.40999985;stroke-linecap:round;stroke-linejoin:round;stroke-miterlimit:10;stroke-opacity:1;stroke-dasharray:none"
         id="path3076"
         inkscape:connector-curvature="0" /><path
         d="m 651.64731,344.50345 -0.27813,0.13907 0.78384,-0.36664 1.1252,-0.65741 1.82054,-1.06199 2.47796,-1.58033 3.16066,-2.1366 3.96979,-2.69289 4.7157,-3.33766 5.32256,-3.9445 5.73976,-4.50078 5.87883,-4.86742 5.82826,-4.96856 5.68919,-4.91799 5.55012,-4.58928 5.23406,-4.22265 4.75363,-3.71693 4.33643,-3.0216 3.78015,-2.36417 3.31237,-1.8079 2.80667,-1.25162 2.18718,-0.78384 1.59297,-0.55628 0.92292,-0.27814 0.42985,-0.13907 -0.32871,0.0379 -0.51835,0.24021 -0.64478,0.36664 -0.70798,0.46777 -0.64478,0.50571 -0.60685,0.60685 -0.56892,0.64477 -0.46777,0.60685 -0.31607,0.50571 -0.37928,0.51834 -0.22757,0.41721 -0.3287,0.22757 -0.32871,0.27814 -0.32871,0.0506 -0.32871,0.0885 -0.50571,0.0506 0.74592,0.0885 0.64477,0 0.70799,-0.0885 0.74592,-0.18964 0.69534,-0.36664 0.65742,-0.46778 0.50571,-0.55627 0.29078,-0.69535 0.13907,-0.74592 -0.13907,-0.74591 -0.42985,-0.59421 -0.60685,-0.51834 -0.88498,-0.31607 -1.02406,-0.18964 -0.97348,0.0885 -0.93556,0.37928 -0.60685,0.73327 -0.37927,1.11255 0,1.26427 0.4172,1.34012 0.70799,1.25162 1.07463,1.16312 1.21369,0.78385 1.30219,0.32871 1.2137,-0.18964 1.07462,-0.74592 0.79649,-1.15048 0.45513,-1.49183 0.10114,-1.66883 -0.3287,-1.8079 -0.69535,-1.8079 -1.0367,-1.66883 -1.25162,-1.39069 -1.35276,-1.07462 -1.35276,-0.59421 -1.26427,-0.24021 -1.07462,0.13907 -0.74592,0.46778 -0.41721,0.64477 -0.13907,0.79649 0.13907,0.78384 0.32871,0.64478 0.55628,0.46778 0.65741,0.27814 0.60685,0.10114 0.60685,-0.15171 0.36664,-0.13907 0.37928,-0.13907 -0.32871,0.74591"
         style="fill:none;stroke:#000000;stroke-width:1.40999985;stroke-linecap:round;stroke-linejoin:round;stroke-miterlimit:10;stroke-opacity:1;stroke-dasharray:none"
         id="path3078"
         inkscape:connector-curvature="0" /><path
         d="m 709.41156,348.49853 1.07463,0.41721 1.11255,0.5057 1.07463,0.60685 0.93555,0.31606 0.41721,-0.0885 -0.27814,-0.74592 -1.16312,-1.66883 -2.47796,-2.69288 -3.64108,-3.6158 -4.80421,-4.69042 -5.9294,-5.56277 -6.76381,-6.30868 -7.26953,-6.82702 -7.4718,-6.81439 -7.28216,-6.63739 -6.66268,-6.13168 -5.9294,-5.61334 -4.94327,-4.81685 -3.91922,-4.04564 -2.94574,-3.14802 -1.95961,-2.27568 -0.83442,-1.30219 0.22757,-0.36664 0.84706,0.41721 1.49183,1.02405 1.58033,1.3907 1.59298,1.47918 1.49183,1.44127 1.30219,1.39069 1.07463,1.16312 0.69534,0.97348 0.56892,0.78385 0.27814,0.65742 0.13907,0.45513 0,0.37928 -0.41721,0.41721 -0.29078,0.13907 -0.36664,0.0379 -0.37928,0 -0.36663,-0.0885 -0.32871,-0.0885 -0.22757,-0.24021 0.41721,0.27814 0.46778,0.24021 0.64477,0.27813 0.70799,0.13907 0.64477,0.0885 0.60685,-0.18964 0.37928,-0.36663 0.27814,-0.69535 -0.0885,-0.97348 -0.42985,-1.20105 -0.74592,-1.40334 -1.06198,-1.42862 -1.31483,-1.35276 -1.44127,-1.16312 -1.49183,-0.78385 -1.40333,-0.41721 -1.26427,0.0885 -1.02405,0.51835 -0.69535,0.87234 -0.4172,1.2137 -0.18964,1.34012 0.22756,1.30219 0.41721,1.16312 0.65742,0.88499 0.74592,0.55628 0.79648,0.13907 0.74592,-0.24021 0.65742,-0.55628 0.46777,-0.87234 0.27814,-1.07463 0.0885,-1.11255 -0.13907,-1.06198 -0.32871,-0.93556 -0.46778,-0.64477 -0.64477,-0.32871 -0.70799,0.0506 -0.64477,0.36663 -0.51835,0.60685 -0.41721,0.88499 -0.24021,0.83441 -0.0379,0.83442 0.22757,0.55627 0.41721,0.36664 0.56892,-0.0506 0.64477,-0.41721 0.65742,-0.78384 0.51835,-1.16313 0.5057,-1.34012 0.24021,-1.49183 -0.0506,-1.47919 -0.32871,-1.30219 -0.51834,-0.97349 -0.74592,-0.60684 -0.88499,-0.13907 -0.83441,0.32871 -0.84706,0.78384 -0.74591,1.02406 -0.50571,1.21369"
         style="fill:none;stroke:#000000;stroke-width:1.40999985;stroke-linecap:round;stroke-linejoin:round;stroke-miterlimit:10;stroke-opacity:1;stroke-dasharray:none"
         id="path3080"
         inkscape:connector-curvature="0" /><path
         d="m 728.07211,288.5471 1.07462,0.0885 0.60685,-0.13907 -0.27814,-0.32871 -1.35276,-0.55627 -2.8446,-0.83442 -4.48813,-1.02405 -6.06847,-1.11256 -7.64881,-1.28955 -8.95099,-1.35276 -9.84862,-1.39069 -10.03826,-1.34012 -9.74748,-1.02406 -8.81193,-0.83441 -7.5603,-0.55628 -5.9294,-0.24021 -4.10886,0.0506 -2.23775,0.32871"
         style="fill:none;stroke:#000000;stroke-width:1.40999985;stroke-linecap:round;stroke-linejoin:round;stroke-miterlimit:10;stroke-opacity:1;stroke-dasharray:none"
         id="path3082"
         inkscape:connector-curvature="0" /><path
         d="m 682.25516,442.21846 0,0.32871 0.13907,-0.55628 0.0506,-0.92291 0.13907,-1.49183 -0.0506,-1.8964 -0.0885,-2.36418 -0.0506,-2.69288 -0.13907,-2.88252 -0.10114,-2.86988 -0.13907,-2.74346 -0.0885,-2.55381"
         style="fill:none;stroke:#ff0000;stroke-width:1.40999985;stroke-linecap:round;stroke-linejoin:round;stroke-miterlimit:10;stroke-opacity:1;stroke-dasharray:none"
         id="path3098"
         inkscape:connector-curvature="0" /><path
         d="m 681.4081,407.84311 -0.0885,-1.07463 0,-0.92291 0,-1.11255 0,-1.07463 0,-1.06198 0,-1.06198 0,-1.11255 -0.0506,-1.16313"
         style="fill:none;stroke:#ff0000;stroke-width:1.40999985;stroke-linecap:round;stroke-linejoin:round;stroke-miterlimit:10;stroke-opacity:1;stroke-dasharray:none"
         id="path3100"
         inkscape:connector-curvature="0" /><path
         d="m 681.45867,391.87545 0,-1.02406 -0.0506,-1.11255 0,-1.20105 0,-1.16313 0.0506,-1.20105 0.0885,-1.11255 0.0506,-1.02405 0.0506,-0.92292 0.0506,-0.84705"
         style="fill:none;stroke:#ff0000;stroke-width:1.40999985;stroke-linecap:round;stroke-linejoin:round;stroke-miterlimit:10;stroke-opacity:1;stroke-dasharray:none"
         id="path3102"
         inkscape:connector-curvature="0" /><path
         d="m 681.69888,369.42211 -0.18964,-1.76997 -0.0506,-1.84583 -0.13907,-1.82054 0,-1.75733 0,-1.52976 0,-1.44126"
         style="fill:none;stroke:#ff0000;stroke-width:1.40999985;stroke-linecap:round;stroke-linejoin:round;stroke-miterlimit:10;stroke-opacity:1;stroke-dasharray:none"
         id="path3104"
         inkscape:connector-curvature="0" /><path
         d="m 682.30573,347.75261 -0.10114,-1.25162 -0.13907,-1.44126 -0.0506,-1.61826 0,-1.7194 0,-1.76997 0,-1.7194 0.13907,-1.70676 0.0506,-1.58033 0.10114,-1.52976"
         style="fill:none;stroke:#ff0000;stroke-width:1.40999985;stroke-linecap:round;stroke-linejoin:round;stroke-miterlimit:10;stroke-opacity:1;stroke-dasharray:none"
         id="path3106"
         inkscape:connector-curvature="0" /><path
         d="m 681.69888,320.46978 0,-1.11255 0,-1.21369 0,-1.25163 0,-1.34012 0,-1.39069 0,-1.39069 0,-1.35276 0.0885,-1.34012 0.0506,-1.2137 0,-1.06198 0.0379,-1.02405 0.0506,-0.83442"
         style="fill:none;stroke:#ff0000;stroke-width:1.40999985;stroke-linecap:round;stroke-linejoin:round;stroke-miterlimit:10;stroke-opacity:1;stroke-dasharray:none"
         id="path3108"
         inkscape:connector-curvature="0" /><path
         d="m 683.08957,297.63716 -0.27813,-1.30219 -0.13907,-1.34012 -0.0885,-1.44126 -0.13907,-1.44126 0,-1.28955 -0.0506,-1.07463 0,-0.97348 0,-0.64478"
         style="fill:none;stroke:#ff0000;stroke-width:1.40999985;stroke-linecap:round;stroke-linejoin:round;stroke-miterlimit:10;stroke-opacity:1;stroke-dasharray:none"
         id="path3110"
         inkscape:connector-curvature="0" /><path
         d="m 684.0757,282.93377 -0.18964,-1.95961 0,-2.26304 -0.0885,-2.41474 0,-2.46532 0,-2.36417 0,-2.17454 0,-1.99754 0,-1.66883 -0.0506,-1.35276 -0.0885,-1.11255 -0.18964,-0.83442"
         style="fill:none;stroke:#ff0000;stroke-width:1.40999985;stroke-linecap:round;stroke-linejoin:round;stroke-miterlimit:10;stroke-opacity:1;stroke-dasharray:none"
         id="path3112"
         inkscape:connector-curvature="0" /></g></g></svg>