<?xml version="1.0" encoding="UTF-8" standalone="no"?>
<!-- Created with Inkscape (http://www.inkscape.org/) -->

<svg
   xmlns:dc="http://purl.org/dc/elements/1.1/"
   xmlns:cc="http://creativecommons.org/ns#"
   xmlns:rdf="http://www.w3.org/1999/02/22-rdf-syntax-ns#"
   xmlns:svg="http://www.w3.org/2000/svg"
   xmlns="http://www.w3.org/2000/svg"
   xmlns:sodipodi="http://sodipodi.sourceforge.net/DTD/sodipodi-0.dtd"
   xmlns:inkscape="http://www.inkscape.org/namespaces/inkscape"
   id="svg3004"
   version="1.1"
   inkscape:version="0.48.3.1 r9886"
   width="264.78012"
   height="158.41504"
   xml:space="preserve"
   sodipodi:docname="MLSS-2012-Wainwright-Graphical-Models-and-Message-Passing.pdf"><metadata
     id="metadata3010"><rdf:RDF><cc:Work
         rdf:about=""><dc:format>image/svg+xml</dc:format><dc:type
           rdf:resource="http://purl.org/dc/dcmitype/StillImage" /><dc:title></dc:title></cc:Work></rdf:RDF></metadata><defs
     id="defs3008"><clipPath
       clipPathUnits="userSpaceOnUse"
       id="clipPath3028"><path
         d="m 0,0 362.83,0 0,272.13 L 0,272.13 0,0 z"
         id="path3030"
         inkscape:connector-curvature="0" /></clipPath><clipPath
       clipPathUnits="userSpaceOnUse"
       id="clipPath3244"><path
         d="m 956.879,1873.95 0,-1208.368 1714.001,0 0,1208.368 -1714.001,0 z"
         id="path3246"
         inkscape:connector-curvature="0" /></clipPath><clipPath
       clipPathUnits="userSpaceOnUse"
       id="clipPath3280"><path
         d="m 956.879,1873.95 0,-1208.368 1714.001,0 0,1208.368 -1714.001,0 z m 56.221,-787.58 41.65,65.81 -26.23,16.46 -41.645,-65.82 0,0 46.275,43.71 -20.05,-60.16 z"
         clip-rule="evenodd"
         id="path3282"
         inkscape:connector-curvature="0" /></clipPath><clipPath
       clipPathUnits="userSpaceOnUse"
       id="clipPath3290"><path
         d="m 956.879,1873.95 0,-1208.368 1714.001,0 0,1208.368 -1714.001,0 z"
         id="path3292"
         inkscape:connector-curvature="0" /></clipPath><clipPath
       clipPathUnits="userSpaceOnUse"
       id="clipPath3302"><path
         d="m 956.879,1873.95 0,-1208.368 1714.001,0 0,1208.368 -1714.001,0 z m 1165.351,-341.26 -77.13,9.77 -3.6,-30.34 77.13,-9.76 0,0 -59.13,22.62 62.73,7.71 z"
         clip-rule="evenodd"
         id="path3304"
         inkscape:connector-curvature="0" /></clipPath><clipPath
       clipPathUnits="userSpaceOnUse"
       id="clipPath3312"><path
         d="m 956.879,1873.95 0,-1208.368 1714.001,0 0,1208.368 -1714.001,0 z"
         id="path3314"
         inkscape:connector-curvature="0" /></clipPath><clipPath
       clipPathUnits="userSpaceOnUse"
       id="clipPath3324"><path
         d="m 956.879,1873.95 0,-1208.368 1714.001,0 0,1208.368 -1714.001,0 z m 962.241,-139.69 -76.62,-14.4 5.66,-30.34 76.62,14.4 0,0 -63.25,3.6 57.59,26.74 z"
         clip-rule="evenodd"
         id="path3326"
         inkscape:connector-curvature="0" /></clipPath><clipPath
       clipPathUnits="userSpaceOnUse"
       id="clipPath3334"><path
         d="m 956.879,1873.95 0,-1208.368 1714.001,0 0,1208.368 -1714.001,0 z"
         id="path3336"
         inkscape:connector-curvature="0" /></clipPath><clipPath
       clipPathUnits="userSpaceOnUse"
       id="clipPath3374"><path
         d="m 720,2001 0,0 0,0 0,0 z"
         id="path3376"
         inkscape:connector-curvature="0" /></clipPath></defs><sodipodi:namedview
     pagecolor="#ffffff"
     bordercolor="#666666"
     borderopacity="1"
     objecttolerance="10"
     gridtolerance="10"
     guidetolerance="10"
     inkscape:pageopacity="0"
     inkscape:pageshadow="2"
     inkscape:window-width="960"
     inkscape:window-height="1148"
     id="namedview3006"
     showgrid="false"
     fit-margin-top="5"
     fit-margin-left="5"
     fit-margin-bottom="5"
     fit-margin-right="5"
     inkscape:zoom="2.2452671"
     inkscape:cx="132.39005"
     inkscape:cy="79.207521"
     inkscape:window-x="1921"
     inkscape:window-y="24"
     inkscape:window-maximized="0"
     inkscape:current-layer="g3012" /><g
     id="g3012"
     inkscape:groupmode="layer"
     inkscape:label="MLSS-2012-Wainwright-Graphical-Models-and-Message-Passing"
     transform="matrix(1.25,0,0,-1.25,-70.945915,514.31793)"><g
       id="g5983"
       transform="translate(-35.430768,221.10593)"><path
         inkscape:connector-curvature="0"
         id="path3248"
         style="fill:#afafaf;fill-opacity:1;fill-rule:evenodd;stroke:none"
         d="m 181.31023,169.40004 -25.9795,6.68848 -27.78144,-5.91608 -20.83683,-15.94929 -3.60087,-22.63576 6.17421,-29.32524 16.97682,-10.546483 30.09664,-7.71691 24.95097,8.231578 18.52163,18.778355 4.37227,20.83583 -5.14367,20.06443 -18.77876,18.00636" /><path
         inkscape:connector-curvature="0"
         id="path3250"
         style="fill:none;stroke:#000000;stroke-width:0.38585052;stroke-linecap:butt;stroke-linejoin:miter;stroke-miterlimit:10;stroke-opacity:1;stroke-dasharray:none"
         d="m 181.31023,169.40004 -25.9795,6.68848 -27.78144,-5.91608 -20.83683,-15.94929 -3.60087,-22.63576 6.17421,-29.32524 16.97682,-10.546483 30.09664,-7.71691 24.95097,8.231578 18.52163,18.778355 4.37227,20.83583 -5.14367,20.06443 -18.77876,18.00636 1.02853,-0.51527 z" /><path
         inkscape:connector-curvature="0"
         id="path3252"
         style="fill:#800000;fill-opacity:1;fill-rule:evenodd;stroke:none"
         d="m 109.2858,154.48029 c 0,-1.27767 -1.03654,-2.3142 -2.3152,-2.3142 -1.27867,0 -2.31521,1.03653 -2.31521,2.3142 0,1.27866 1.03654,2.3152 2.31521,2.3152 1.27866,0 2.3152,-1.03654 2.3152,-2.3152" /><path
         inkscape:connector-curvature="0"
         id="path3254"
         style="fill:none;stroke:#ff0000;stroke-width:0.38585052;stroke-linecap:butt;stroke-linejoin:miter;stroke-miterlimit:10;stroke-opacity:1;stroke-dasharray:none"
         d="m 109.2858,154.48029 c 0,-1.27767 -1.03654,-2.3142 -2.3152,-2.3142 -1.27867,0 -2.31521,1.03653 -2.31521,2.3142 0,1.27866 1.03654,2.3152 2.31521,2.3152 1.27866,0 2.3152,-1.03654 2.3152,-2.3152 z" /><path
         inkscape:connector-curvature="0"
         id="path3256"
         style="fill:#800000;fill-opacity:1;fill-rule:evenodd;stroke:none"
         d="m 111.18879,101.38769 c 0,-1.27866 -1.03654,-2.315099 -2.31521,-2.315099 -1.27866,0 -2.3142,1.036439 -2.3142,2.315099 0,1.27867 1.03554,2.31521 2.3142,2.31521 1.27867,0 2.31521,-1.03654 2.31521,-2.31521" /><path
         inkscape:connector-curvature="0"
         id="path3258"
         style="fill:none;stroke:#ff0000;stroke-width:0.38585052;stroke-linecap:butt;stroke-linejoin:miter;stroke-miterlimit:10;stroke-opacity:1;stroke-dasharray:none"
         d="m 111.18879,101.38769 c 0,-1.27866 -1.03654,-2.315099 -2.31521,-2.315099 -1.27866,0 -2.3142,1.036439 -2.3142,2.315099 0,1.27867 1.03554,2.31521 2.3142,2.31521 1.27867,0 2.31521,-1.03654 2.31521,-2.31521 z" /><path
         inkscape:connector-curvature="0"
         id="path3260"
         style="fill:#800000;fill-opacity:1;fill-rule:evenodd;stroke:none"
         d="m 159.03466,83.998757 c 0,-1.278465 -1.03654,-2.315304 -2.31521,-2.315304 -1.27866,0 -2.3152,1.036839 -2.3152,2.315304 0,1.278364 1.03654,2.315203 2.3152,2.315203 1.27867,0 2.31521,-1.036839 2.31521,-2.315203" /><path
         inkscape:connector-curvature="0"
         id="path3262"
         style="fill:none;stroke:#ff0000;stroke-width:0.38585052;stroke-linecap:butt;stroke-linejoin:miter;stroke-miterlimit:10;stroke-opacity:1;stroke-dasharray:none"
         d="m 159.03466,83.998757 c 0,-1.278465 -1.03654,-2.315304 -2.31521,-2.315304 -1.27866,0 -2.3152,1.036839 -2.3152,2.315304 0,1.278364 1.03654,2.315203 2.3152,2.315203 1.27867,0 2.31521,-1.036839 2.31521,-2.315203 z" /><path
         inkscape:connector-curvature="0"
         id="path3264"
         style="fill:#800000;fill-opacity:1;fill-rule:evenodd;stroke:none"
         d="m 203.02152,110.23629 c 0,-1.27766 -1.03654,-2.3152 -2.31521,-2.3152 -1.27866,0 -2.3152,1.03754 -2.3152,2.3152 0,1.27867 1.03654,2.31521 2.3152,2.31521 1.27867,0 2.31521,-1.03654 2.31521,-2.31521" /><path
         inkscape:connector-curvature="0"
         id="path3266"
         style="fill:none;stroke:#ff0000;stroke-width:0.38585052;stroke-linecap:butt;stroke-linejoin:miter;stroke-miterlimit:10;stroke-opacity:1;stroke-dasharray:none"
         d="m 203.02152,110.23629 c 0,-1.27766 -1.03654,-2.3152 -2.31521,-2.3152 -1.27866,0 -2.3152,1.03754 -2.3152,2.3152 0,1.27867 1.03654,2.31521 2.3152,2.31521 1.27867,0 2.31521,-1.03654 2.31521,-2.31521 z" /><path
         inkscape:connector-curvature="0"
         id="path3268"
         style="fill:#800000;fill-opacity:1;fill-rule:evenodd;stroke:none"
         d="m 201.47771,151.90895 c 0,-1.27866 -1.03653,-2.3152 -2.3152,-2.3152 -1.27766,0 -2.3152,1.03654 -2.3152,2.3152 0,1.27767 1.03754,2.3142 2.3152,2.3142 1.27867,0 2.3152,-1.03653 2.3152,-2.3142" /><path
         inkscape:connector-curvature="0"
         id="path3270"
         style="fill:none;stroke:#ff0000;stroke-width:0.38585052;stroke-linecap:butt;stroke-linejoin:miter;stroke-miterlimit:10;stroke-opacity:1;stroke-dasharray:none"
         d="m 201.47771,151.90895 c 0,-1.27866 -1.03653,-2.3152 -2.3152,-2.3152 -1.27766,0 -2.3152,1.03654 -2.3152,2.3152 0,1.27767 1.03754,2.3142 2.3152,2.3142 1.27867,0 2.3152,-1.03653 2.3152,-2.3142 z" /><path
         inkscape:connector-curvature="0"
         id="path3272"
         style="fill:#800000;fill-opacity:1;fill-rule:evenodd;stroke:none"
         d="m 157.49085,175.83138 c 0,-1.27866 -1.03654,-2.3152 -2.3152,-2.3152 -1.27766,0 -2.3152,1.03654 -2.3152,2.3152 0,1.27867 1.03754,2.31521 2.3152,2.31521 1.27866,0 2.3152,-1.03654 2.3152,-2.31521" /><path
         inkscape:connector-curvature="0"
         id="path3274"
         style="fill:none;stroke:#ff0000;stroke-width:0.38585052;stroke-linecap:butt;stroke-linejoin:miter;stroke-miterlimit:10;stroke-opacity:1;stroke-dasharray:none"
         d="m 157.49085,175.83138 c 0,-1.27866 -1.03654,-2.3152 -2.3152,-2.3152 -1.27766,0 -2.3152,1.03654 -2.3152,2.3152 0,1.27867 1.03754,2.31521 2.3152,2.31521 1.27866,0 2.3152,-1.03654 2.3152,-2.31521 z" /><path
         inkscape:connector-curvature="0"
         id="path3284"
         style="fill:none;stroke:#000000;stroke-width:0.38585052;stroke-linecap:butt;stroke-linejoin:bevel;stroke-miterlimit:10;stroke-opacity:1;stroke-dasharray:none"
         d="m 99.973459,72.989135 0,0.05153 -0.05123,0.154381 -0.103154,0.46274 -0.205607,0.823528 -0.257134,1.080262 -0.30876,1.286168 -0.30876,1.440649 -0.359988,1.440148 -0.30876,1.389422 -0.257134,1.285769 -0.257534,1.183515 -0.205606,1.080161 -0.205907,1.029135 -0.154381,0.925781 -0.102853,0.926282 -0.102754,0.874654 -0.15438,0.874755 -0.05163,0.925881 -0.102753,0.925781 -0.05163,0.926282 -0.05113,0.977508 0,2.983951 0.05113,1.028634 0.05163,0.977508 0.102753,0.926282 0.154381,0.925881 0.103253,0.874647 0.15398,0.87446 0.205907,0.7714 0.205607,0.7724 0.257534,0.7714 0.257134,0.7714 0.30876,0.82343 0.359987,0.82343 0.411514,0.87445 0.514768,0.92648 0.566288,1.02854 0.61632,1.08056 0.66935,1.08056 0.66935,1.13159 0.56529,0.97751 1.23464,1.95501" /><path
         inkscape:connector-curvature="0"
         id="path3294"
         style="fill:#000000;fill-opacity:1;fill-rule:evenodd;stroke:none"
         d="m 101.36268,108.69349 2.00604,6.01913 -4.629902,-4.37327 2.623862,-1.64586" /><path
         inkscape:connector-curvature="0"
         id="path3296"
         style="fill:none;stroke:#000000;stroke-width:0.38585052;stroke-linecap:butt;stroke-linejoin:miter;stroke-miterlimit:10;stroke-opacity:1;stroke-dasharray:none"
         d="m 101.36268,108.69349 2.00604,6.01913 -4.629902,-4.37327 2.623862,-1.64586 z" /><path
         inkscape:connector-curvature="0"
         id="path3306"
         style="fill:none;stroke:#000000;stroke-width:0.38585052;stroke-linecap:butt;stroke-linejoin:bevel;stroke-miterlimit:10;stroke-opacity:1;stroke-dasharray:none"
         d="m 230.44277,145.47761 -0.15508,0.10305 -0.35919,0.20611 -0.56629,0.41121 -0.77241,0.46324 -0.87445,0.51427 -0.92548,0.5653 -0.87446,0.51526 -0.87545,0.46224 -0.82243,0.41222 -0.7714,0.30816 -0.7724,0.30916 -0.7714,0.30916 -0.82343,0.20511 -0.71937,0.2061 -0.82443,0.20511 -0.82243,0.15508 -0.97751,0.20511 -1.08056,0.15508 -1.23464,0.2051 -1.3377,0.20611 -1.49177,0.20611 -1.59483,0.2051 -1.5438,0.15509 -1.38872,0.2051 -1.18362,0.10306 -1.64585,0.2061" /><path
         inkscape:connector-curvature="0"
         id="path3316"
         style="fill:#000000;fill-opacity:1;fill-rule:evenodd;stroke:none"
         d="m 212.33336,153.3487 -6.27627,-0.7714 5.91608,-2.26318 0.36019,3.03458" /><path
         inkscape:connector-curvature="0"
         id="path3318"
         style="fill:none;stroke:#000000;stroke-width:0.38585052;stroke-linecap:butt;stroke-linejoin:miter;stroke-miterlimit:10;stroke-opacity:1;stroke-dasharray:none"
         d="m 212.33336,153.3487 -6.27627,-0.7714 5.91608,-2.26318 0.36019,3.03458 z" /><path
         inkscape:connector-curvature="0"
         id="path3328"
         style="fill:none;stroke:#000000;stroke-width:0.38585052;stroke-linecap:butt;stroke-linejoin:bevel;stroke-miterlimit:10;stroke-opacity:1;stroke-dasharray:none"
         d="m 200.86039,179.43226 0,-0.051 -0.15408,-0.15408 -0.30916,-0.46324 -0.51426,-0.66935 -0.61733,-0.82243 -0.72037,-0.82342 -0.61732,-0.77141 -0.61732,-0.66934 -0.61732,-0.5653 -0.51427,-0.51526 -0.56629,-0.41122 -0.5653,-0.36019 -0.61732,-0.30916 -0.66935,-0.25713 -0.7714,-0.30816 -0.92648,-0.25713 -1.02853,-0.25714 -1.18362,-0.25713 -1.23464,-0.25814 -1.23464,-0.2051 -1.95502,-0.36019" /><path
         inkscape:connector-curvature="0"
         id="path3338"
         style="fill:#000000;fill-opacity:1;fill-rule:evenodd;stroke:none"
         d="m 192.01179,173.51618 -5.76199,-2.67539 6.32829,-0.36019 -0.5663,3.03558" /><path
         inkscape:connector-curvature="0"
         id="path3340"
         style="fill:none;stroke:#000000;stroke-width:0.38585052;stroke-linecap:butt;stroke-linejoin:miter;stroke-miterlimit:10;stroke-opacity:1;stroke-dasharray:none"
         d="m 192.01179,173.51618 -5.76199,-2.67539 6.32829,-0.36019 -0.5663,3.03558 z" /><path
         inkscape:connector-curvature="0"
         id="path3342"
         style="fill:#0000ff;fill-opacity:1;fill-rule:evenodd;stroke:none"
         d="m 105.94106,131.07212 c 0,-1.27766 -1.03654,-2.3142 -2.3152,-2.3142 -1.27767,0 -2.31421,1.03654 -2.31421,2.3142 0,1.27867 1.03654,2.31521 2.31421,2.31521 1.27866,0 2.3152,-1.03654 2.3152,-2.31521" /><path
         inkscape:connector-curvature="0"
         id="path3344"
         style="fill:none;stroke:#0000ff;stroke-width:0.38585052;stroke-linecap:butt;stroke-linejoin:miter;stroke-miterlimit:10;stroke-opacity:1;stroke-dasharray:none"
         d="m 105.94106,131.07212 c 0,-1.27766 -1.03654,-2.3142 -2.3152,-2.3142 -1.27767,0 -2.31421,1.03654 -2.31421,2.3142 0,1.27867 1.03654,2.31521 2.31421,2.31521 1.27866,0 2.3152,-1.03654 2.3152,-2.31521 z" /><path
         inkscape:connector-curvature="0"
         id="path3346"
         style="fill:#0000ff;fill-opacity:1;fill-rule:evenodd;stroke:none"
         d="m 129.60636,170.73774 c 0,-1.27867 -1.03554,-2.31521 -2.3142,-2.31521 -1.27867,0 -2.31521,1.03654 -2.31521,2.31521 0,1.27866 1.03654,2.3152 2.31521,2.3152 1.27866,0 2.3142,-1.03654 2.3142,-2.3152" /><path
         inkscape:connector-curvature="0"
         id="path3348"
         style="fill:none;stroke:#0000ff;stroke-width:0.38585052;stroke-linecap:butt;stroke-linejoin:miter;stroke-miterlimit:10;stroke-opacity:1;stroke-dasharray:none"
         d="m 129.60636,170.73774 c 0,-1.27867 -1.03554,-2.31521 -2.3142,-2.31521 -1.27867,0 -2.31521,1.03654 -2.31521,2.31521 0,1.27866 1.03654,2.3152 2.31521,2.3152 1.27866,0 2.3142,-1.03654 2.3142,-2.3152 z" /><path
         inkscape:connector-curvature="0"
         id="path3350"
         style="fill:#0000ff;fill-opacity:1;fill-rule:evenodd;stroke:none"
         d="m 129.70941,90.583779 c 0,-1.278364 -1.03653,-2.314903 -2.3142,-2.314903 -1.27866,0 -2.3162,1.036539 -2.3162,2.314903 0,1.278465 1.03754,2.315303 2.3162,2.315303 1.27767,0 2.3142,-1.036838 2.3142,-2.315303" /><path
         inkscape:connector-curvature="0"
         id="path3352"
         style="fill:none;stroke:#0000ff;stroke-width:0.38585052;stroke-linecap:butt;stroke-linejoin:miter;stroke-miterlimit:10;stroke-opacity:1;stroke-dasharray:none"
         d="m 129.70941,90.583779 c 0,-1.278364 -1.03653,-2.314903 -2.3142,-2.314903 -1.27866,0 -2.3162,1.036539 -2.3162,2.314903 0,1.278465 1.03754,2.315303 2.3162,2.315303 1.27767,0 2.3142,-1.036838 2.3142,-2.315303 z" /><path
         inkscape:connector-curvature="0"
         id="path3354"
         style="fill:#0000ff;fill-opacity:1;fill-rule:evenodd;stroke:none"
         d="m 182.85403,92.230335 c 0,-1.278365 -1.03653,-2.315203 -2.3152,-2.315203 -1.27766,0 -2.3152,1.036838 -2.3152,2.315203 0,1.278464 1.03754,2.314903 2.3152,2.314903 1.27867,0 2.3152,-1.036439 2.3152,-2.314903" /><path
         inkscape:connector-curvature="0"
         id="path3356"
         style="fill:none;stroke:#0000ff;stroke-width:0.38585052;stroke-linecap:butt;stroke-linejoin:miter;stroke-miterlimit:10;stroke-opacity:1;stroke-dasharray:none"
         d="m 182.85403,92.230335 c 0,-1.278365 -1.03653,-2.315203 -2.3152,-2.315203 -1.27766,0 -2.3152,1.036838 -2.3152,2.315203 0,1.278464 1.03754,2.314903 2.3152,2.314903 1.27867,0 2.3152,-1.036439 2.3152,-2.314903 z" /><path
         inkscape:connector-curvature="0"
         id="path3358"
         style="fill:#0000ff;fill-opacity:1;fill-rule:evenodd;stroke:none"
         d="m 182.85403,169.65818 c 0,-1.27867 -1.03653,-2.31621 -2.3152,-2.31621 -1.27766,0 -2.3152,1.03754 -2.3152,2.31621 0,1.27766 1.03754,2.3142 2.3152,2.3142 1.27867,0 2.3152,-1.03654 2.3152,-2.3142" /><path
         inkscape:connector-curvature="0"
         id="path3360"
         style="fill:none;stroke:#0000ff;stroke-width:0.38585052;stroke-linecap:butt;stroke-linejoin:miter;stroke-miterlimit:10;stroke-opacity:1;stroke-dasharray:none"
         d="m 182.85403,169.65818 c 0,-1.27867 -1.03653,-2.31621 -2.3152,-2.31621 -1.27766,0 -2.3152,1.03754 -2.3152,2.31621 0,1.27766 1.03754,2.3142 2.3152,2.3142 1.27867,0 2.3152,-1.03654 2.3152,-2.3142 z" /><path
         inkscape:connector-curvature="0"
         id="path3362"
         style="fill:#0000ff;fill-opacity:1;fill-rule:evenodd;stroke:none"
         d="m 206.51933,131.07212 c 0,-1.27766 -1.03653,-2.3142 -2.3152,-2.3142 -1.27766,0 -2.3142,1.03654 -2.3142,2.3142 0,1.27867 1.03654,2.31521 2.3142,2.31521 1.27867,0 2.3152,-1.03654 2.3152,-2.31521" /><path
         inkscape:connector-curvature="0"
         id="path3364"
         style="fill:none;stroke:#0000ff;stroke-width:0.38585052;stroke-linecap:butt;stroke-linejoin:miter;stroke-miterlimit:10;stroke-opacity:1;stroke-dasharray:none"
         d="m 206.51933,131.07212 c 0,-1.27766 -1.03653,-2.3142 -2.3152,-2.3142 -1.27766,0 -2.3142,1.03654 -2.3142,2.3142 0,1.27867 1.03654,2.31521 2.3142,2.31521 1.27867,0 2.3152,-1.03654 2.3152,-2.31521 z" /><path
         inkscape:connector-curvature="0"
         id="path3366"
         style="fill:#858585;fill-opacity:1;fill-rule:evenodd;stroke:none"
         d="m 180.2817,169.65818 -54.01908,0 -23.15103,-38.58606 23.15103,-38.584551 54.01908,0 23.15103,38.584551" /><path
         inkscape:connector-curvature="0"
         id="path3368"
         style="fill:none;stroke:#000000;stroke-width:0.38585052;stroke-linecap:butt;stroke-linejoin:miter;stroke-miterlimit:10;stroke-opacity:1;stroke-dasharray:none"
         d="m 180.2817,169.65818 -54.01908,0 -23.15103,-38.58606 23.15103,-38.584551 54.01908,0 23.15103,38.584551 -23.15103,38.58606 z" /><text
         style="font-size:12.00623989px"
         y="-179.43227"
         x="203.11356"
         transform="scale(1,-1)"
         id="text3380"><tspan
           style="font-size:9.96782017px;font-variant:normal;font-weight:normal;writing-mode:lr-tb;fill:#000000;fill-opacity:1;fill-rule:nonzero;stroke:none;font-family:CMR10;-inkscape-font-specification:CMR10"
           x="203.11356 206.71544 211.97403 215.84602 220.27634 225.25592 229.16397 234.14352 240.24887 245.22841 249.65872 253.56676 257.43878 261.86908"
           y="-179.43227"
           sodipodi:role="line"
           id="tspan3382">Integralvertex</tspan><tspan
           style="font-size:9.96782017px;font-variant:normal;font-weight:normal;writing-mode:lr-tb;fill:#000000;fill-opacity:1;fill-rule:nonzero;stroke:none;font-family:CMR10;-inkscape-font-specification:CMR10"
           x="226.00826 231.69012 235.59818 240.57776 245.00804 248.88007 251.6445 256.62408 262.16196 267.14154 273.24689 278.22641 282.65674 286.56476 290.43677 294.86707"
           y="-137.50346"
           sodipodi:role="line"
           id="tspan3384">Fractionalvertex</tspan></text>
<text
         style="font-size:12.00623989px"
         y="-142.64815"
         x="142.40701"
         transform="scale(1,-1)"
         id="text3388"><tspan
           style="font-size:9.96782017px;font-variant:normal;font-weight:normal;writing-mode:lr-tb;fill:#0000ff;fill-opacity:1;fill-rule:nonzero;stroke:none;font-family:MSBM10;-inkscape-font-specification:MSBM10"
           x="142.40701"
           y="-142.64815"
           id="tspan3390">M</tspan></text>
<text
         style="font-size:12.00623989px"
         y="-142.64815"
         x="151.81699"
         transform="scale(1,-1)"
         id="text3392"><tspan
           style="font-size:9.96782017px;font-variant:normal;font-weight:normal;writing-mode:lr-tb;fill:#0000ff;fill-opacity:1;fill-rule:nonzero;stroke:none;font-family:CMR10;-inkscape-font-specification:CMR10"
           x="151.81699"
           y="-142.64815"
           id="tspan3394">(</tspan></text>
<text
         style="font-size:12.00623989px"
         y="-142.64815"
         x="155.68892"
         transform="scale(1,-1)"
         id="text3396"><tspan
           style="font-size:9.96782017px;font-variant:normal;font-weight:normal;writing-mode:lr-tb;fill:#0000ff;fill-opacity:1;fill-rule:nonzero;stroke:none;font-family:CMMI10;-inkscape-font-specification:CMMI10"
           x="155.68892"
           y="-142.64815"
           id="tspan3398">G</tspan></text>
<text
         style="font-size:12.00623989px"
         y="-142.64815"
         x="163.52307"
         transform="scale(1,-1)"
         id="text3400"><tspan
           style="font-size:9.96782017px;font-variant:normal;font-weight:normal;writing-mode:lr-tb;fill:#0000ff;fill-opacity:1;fill-rule:nonzero;stroke:none;font-family:CMR10;-inkscape-font-specification:CMR10"
           x="163.52307"
           y="-142.64815"
           id="tspan3402">)</tspan></text>
<text
         style="font-size:12.00623989px"
         y="-70.108337"
         x="105.10763"
         transform="scale(1,-1)"
         id="text3406"><tspan
           style="font-size:9.96782017px;font-variant:normal;font-weight:normal;writing-mode:lr-tb;fill:#ff0000;fill-opacity:1;fill-rule:nonzero;stroke:none;font-family:MSBM10;-inkscape-font-specification:MSBM10"
           x="105.10763"
           y="-70.108337"
           id="tspan3408">L</tspan></text>
<text
         style="font-size:12.00623989px"
         y="-70.108337"
         x="111.75327"
         transform="scale(1,-1)"
         id="text3410"><tspan
           style="font-size:9.96782017px;font-variant:normal;font-weight:normal;writing-mode:lr-tb;fill:#ff0000;fill-opacity:1;fill-rule:nonzero;stroke:none;font-family:CMR10;-inkscape-font-specification:CMR10"
           x="111.75327"
           y="-70.108337"
           id="tspan3412">(</tspan></text>
<text
         style="font-size:12.00623989px"
         y="-70.108337"
         x="115.6252"
         transform="scale(1,-1)"
         id="text3414"><tspan
           style="font-size:9.96782017px;font-variant:normal;font-weight:normal;writing-mode:lr-tb;fill:#ff0000;fill-opacity:1;fill-rule:nonzero;stroke:none;font-family:CMMI10;-inkscape-font-specification:CMMI10"
           x="115.6252"
           y="-70.108337"
           id="tspan3416">G</tspan></text>
<text
         style="font-size:12.00623989px"
         y="-70.108337"
         x="123.45936"
         transform="scale(1,-1)"
         id="text3418"><tspan
           style="font-size:9.96782017px;font-variant:normal;font-weight:normal;writing-mode:lr-tb;fill:#ff0000;fill-opacity:1;fill-rule:nonzero;stroke:none;font-family:CMR10;-inkscape-font-specification:CMR10"
           x="123.45936"
           y="-70.108337"
           id="tspan3420">)</tspan></text>
</g></g></svg>