<?xml version="1.0" encoding="UTF-8" standalone="no"?>
<!-- Created with Inkscape (http://www.inkscape.org/) -->

<svg
   xmlns:ns0="http://www.iki.fi/pav/software/textext/"
   xmlns:dc="http://purl.org/dc/elements/1.1/"
   xmlns:cc="http://creativecommons.org/ns#"
   xmlns:rdf="http://www.w3.org/1999/02/22-rdf-syntax-ns#"
   xmlns:svg="http://www.w3.org/2000/svg"
   xmlns="http://www.w3.org/2000/svg"
   xmlns:xlink="http://www.w3.org/1999/xlink"
   xmlns:sodipodi="http://sodipodi.sourceforge.net/DTD/sodipodi-0.dtd"
   xmlns:inkscape="http://www.inkscape.org/namespaces/inkscape"
   width="386.18036"
   height="429.29355"
   id="svg3253"
   version="1.1"
   inkscape:version="0.48.3.1 r9886"
   sodipodi:docname="phenotypehierarchy.svg">
  <sodipodi:namedview
     id="base"
     pagecolor="#ffffff"
     bordercolor="#666666"
     borderopacity="1.0"
     inkscape:pageopacity="0.0"
     inkscape:pageshadow="2"
     inkscape:zoom="0.66564554"
     inkscape:cx="24.399112"
     inkscape:cy="181.48062"
     inkscape:document-units="px"
     inkscape:current-layer="layer1"
     showgrid="false"
     fit-margin-top="5"
     fit-margin-left="5"
     fit-margin-right="5"
     fit-margin-bottom="5"
     inkscape:window-width="960"
     inkscape:window-height="1148"
     inkscape:window-x="1921"
     inkscape:window-y="24"
     inkscape:window-maximized="0" />
  <defs
     id="defs3255">
    <marker
       style="overflow:visible"
       id="Arrow1Mend"
       refX="0"
       refY="0"
       orient="auto"
       inkscape:stockid="Arrow1Mend">
      <path
         transform="matrix(-0.4,0,0,-0.4,-4,0)"
         style="fill-rule:evenodd;stroke:#000000;stroke-width:1pt"
         d="M 0,0 5,-5 -12.5,0 5,5 0,0 z"
         id="path5356"
         inkscape:connector-curvature="0" />
    </marker>
  </defs>
  <metadata
     id="metadata3258">
    <rdf:RDF>
      <cc:Work
         rdf:about="">
        <dc:format>image/svg+xml</dc:format>
        <dc:type
           rdf:resource="http://purl.org/dc/dcmitype/StillImage" />
        <dc:title />
      </cc:Work>
    </rdf:RDF>
  </metadata>
  <g
     inkscape:label="Layer 1"
     inkscape:groupmode="layer"
     id="layer1"
     transform="translate(12.429572,-511.34631)">
    <rect
       style="fill:none;stroke:#e67e22;stroke-width:2;stroke-linecap:square;stroke-linejoin:round;stroke-miterlimit:4;stroke-opacity:1;stroke-dasharray:none;stroke-dashoffset:0"
       id="rect3261"
       width="81.00766"
       height="58.242683"
       x="88.32518"
       y="517.34631"
       ry="3.8334925" />
    <rect
       ry="5.3182101"
       y="595.98889"
       x="88.32518"
       height="80.800163"
       width="81.00766"
       id="rect4557"
       style="fill:none;stroke:#e67e22;stroke-width:2;stroke-linecap:square;stroke-linejoin:round;stroke-miterlimit:4;stroke-opacity:1;stroke-dasharray:none;stroke-dashoffset:0" />
    <text
       xml:space="preserve"
       style="font-size:20px;font-style:normal;font-variant:normal;font-weight:normal;font-stretch:normal;line-height:125%;letter-spacing:0px;word-spacing:0px;fill:#000000;fill-opacity:1;stroke:none;font-family:HelveticaNeue;-inkscape-font-specification:HelveticaNeue"
       x="66.225349"
       y="546.98505"
       id="text4571"
       sodipodi:linespacing="125%"><tspan
         sodipodi:role="line"
         id="tspan4573"
         x="66.225349"
         y="546.98505">A</tspan></text>
    <text
       sodipodi:linespacing="125%"
       id="text4575"
       y="637.01013"
       x="65.190575"
       style="font-size:20px;font-style:normal;font-variant:normal;font-weight:normal;font-stretch:normal;line-height:125%;letter-spacing:0px;word-spacing:0px;fill:#000000;fill-opacity:1;stroke:none;font-family:HelveticaNeue;-inkscape-font-specification:HelveticaNeue"
       xml:space="preserve"><tspan
         y="637.01013"
         x="65.190575"
         id="tspan4577"
         sodipodi:role="line">B</tspan></text>
    <text
       sodipodi:linespacing="125%"
       id="text4604"
       y="785.2522"
       x="106.3728"
       style="font-size:20px;font-style:normal;font-variant:normal;font-weight:normal;font-stretch:normal;line-height:125%;letter-spacing:0px;word-spacing:0px;fill:#000000;fill-opacity:1;stroke:none;font-family:HelveticaNeue;-inkscape-font-specification:HelveticaNeue"
       xml:space="preserve"><tspan
         y="785.2522"
         x="106.3728"
         id="tspan4606"
         sodipodi:role="line">1101</tspan><tspan
         id="tspan4608"
         y="810.2522"
         x="106.3728"
         sodipodi:role="line">1001</tspan></text>
    <rect
       style="fill:none;stroke:#e67e22;stroke-width:2.54044914;stroke-linecap:square;stroke-linejoin:round;stroke-miterlimit:4;stroke-opacity:1;stroke-dasharray:none;stroke-dashoffset:0"
       id="rect4610"
       width="81.00766"
       height="130.36868"
       x="87.290405"
       y="759.85297"
       ry="8.5807753" />
    <text
       xml:space="preserve"
       style="font-size:20px;font-style:normal;font-variant:normal;font-weight:normal;font-stretch:normal;line-height:125%;letter-spacing:0px;word-spacing:0px;fill:#000000;fill-opacity:1;stroke:none;font-family:HelveticaNeue;-inkscape-font-specification:HelveticaNeue"
       x="105.33802"
       y="832.85162"
       id="text4612"
       sodipodi:linespacing="125%"><tspan
         sodipodi:role="line"
         x="105.33802"
         y="832.85162"
         id="tspan4614">1111</tspan><tspan
         id="tspan4616"
         sodipodi:role="line"
         x="105.33802"
         y="857.85162">0111</tspan><tspan
         id="tspan4618"
         sodipodi:role="line"
         x="105.33802"
         y="882.85162">1011</tspan></text>
    <path
       inkscape:connector-curvature="0"
       id="path4573"
       d="m 188.32865,825.74732 69.61381,0"
       style="fill:#000000;stroke:#000000;stroke-width:1px;stroke-linecap:butt;stroke-linejoin:miter;stroke-opacity:1;marker-end:url(#Arrow1Mend)" />
    <rect
       ry="3.8334925"
       y="799.21289"
       x="288.03598"
       height="58.242683"
       width="45.625404"
       id="rect4675"
       style="fill:none;stroke:#2980b9;stroke-width:2;stroke-linecap:square;stroke-linejoin:round;stroke-miterlimit:4;stroke-opacity:1;stroke-dasharray:none;stroke-dashoffset:0" />
    <text
       sodipodi:linespacing="125%"
       id="text4677"
       y="822.64301"
       x="300.08359"
       style="font-size:20px;font-style:normal;font-variant:normal;font-weight:normal;font-stretch:normal;line-height:125%;letter-spacing:0px;word-spacing:0px;fill:#000000;fill-opacity:1;stroke:none;font-family:HelveticaNeue;-inkscape-font-specification:HelveticaNeue"
       xml:space="preserve"><tspan
         y="822.64301"
         x="300.08359"
         id="tspan4679"
         sodipodi:role="line">01</tspan><tspan
         id="tspan4681"
         y="847.64301"
         x="300.08359"
         sodipodi:role="line">11</tspan></text>
    <text
       sodipodi:linespacing="125%"
       id="text4693"
       y="589.81952"
       x="358.03079"
       style="font-size:20px;font-style:normal;font-variant:normal;font-weight:normal;font-stretch:normal;line-height:125%;letter-spacing:0px;word-spacing:0px;fill:#000000;fill-opacity:1;stroke:none;font-family:HelveticaNeue;-inkscape-font-specification:HelveticaNeue"
       xml:space="preserve"><tspan
         y="589.81952"
         x="358.03079"
         id="tspan4695"
         sodipodi:role="line">a</tspan></text>
    <rect
       style="fill:none;stroke:#2980b9;stroke-width:2;stroke-linecap:square;stroke-linejoin:round;stroke-miterlimit:4;stroke-opacity:1;stroke-dasharray:none;stroke-dashoffset:0"
       id="rect4701"
       width="45.625404"
       height="32.338634"
       x="292.17508"
       y="566.26703"
       ry="2.1285062" />
    <text
       xml:space="preserve"
       style="font-size:20px;font-style:normal;font-variant:normal;font-weight:normal;font-stretch:normal;line-height:125%;letter-spacing:0px;word-spacing:0px;fill:#000000;fill-opacity:1;stroke:none;font-family:HelveticaNeue;-inkscape-font-specification:HelveticaNeue"
       x="304.22269"
       y="589.69714"
       id="text4703"
       sodipodi:linespacing="125%"><tspan
         sodipodi:role="line"
         id="tspan4705"
         x="304.22269"
         y="589.69714">01</tspan><tspan
         sodipodi:role="line"
         x="304.22269"
         y="614.69714"
         id="tspan4707" /></text>
    <rect
       ry="2.1898212"
       y="611.30902"
       x="291.14032"
       height="33.270199"
       width="45.625404"
       id="rect4715"
       style="fill:none;stroke:#2980b9;stroke-width:2;stroke-linecap:square;stroke-linejoin:round;stroke-miterlimit:4;stroke-opacity:1;stroke-dasharray:none;stroke-dashoffset:0" />
    <text
       sodipodi:linespacing="125%"
       id="text4717"
       y="609.76666"
       x="303.18793"
       style="font-size:20px;font-style:normal;font-variant:normal;font-weight:normal;font-stretch:normal;line-height:125%;letter-spacing:0px;word-spacing:0px;fill:#000000;fill-opacity:1;stroke:none;font-family:HelveticaNeue;-inkscape-font-specification:HelveticaNeue"
       xml:space="preserve"><tspan
         y="609.76666"
         x="303.18793"
         id="tspan4719"
         sodipodi:role="line" /><tspan
         id="tspan4721"
         y="634.76666"
         x="303.18793"
         sodipodi:role="line">11</tspan></text>
    <path
       style="fill:#000000;stroke:#000000;stroke-width:1px;stroke-linecap:butt;stroke-linejoin:miter;stroke-opacity:1;marker-end:url(#Arrow1Mend)"
       d="m 314.57041,752.90414 0,-69.6138"
       id="path4723"
       inkscape:connector-curvature="0" />
    <path
       inkscape:connector-curvature="0"
       id="path4725"
       d="m 124.57041,752.90414 0,-69.6138"
       style="fill:#000000;stroke:#000000;stroke-width:1px;stroke-linecap:butt;stroke-linejoin:miter;stroke-opacity:1;marker-end:url(#Arrow1Mend)" />
    <text
       xml:space="preserve"
       style="font-size:20px;font-style:normal;font-variant:normal;font-weight:normal;font-stretch:normal;line-height:125%;letter-spacing:0px;word-spacing:0px;fill:#000000;fill-opacity:1;stroke:none;font-family:HelveticaNeue;-inkscape-font-specification:HelveticaNeue"
       x="358.03079"
       y="629.81952"
       id="text4727"
       sodipodi:linespacing="125%"><tspan
         sodipodi:role="line"
         id="tspan4729"
         x="358.03079"
         y="629.81952">b</tspan></text>
    <path
       style="fill:#000000;stroke:#000000;stroke-width:1px;stroke-linecap:butt;stroke-linejoin:miter;stroke-opacity:1;marker-end:url(#Arrow1Mend)"
       d="m 188.32865,603.74732 69.61381,0"
       id="path4731"
       inkscape:connector-curvature="0" />
    <g
       ns0:text="$l_1$"
       ns0:preamble="/home/cameron/Documents/Research/Bergman Lab/conferences/MSTP2013/inkscapebasicpre.inc"
       transform="matrix(1.972818,0,0,1.972818,-189.73855,774.09465)"
       id="g5019">
      <defs
         id="defs5021">
        <g
           id="g5023">
          <symbol
             overflow="visible"
             id="textext-26e17abd-0"
             style="overflow:visible">
            <path
               style="stroke:none"
               d=""
               id="path5026"
               inkscape:connector-curvature="0" />
          </symbol>
          <symbol
             overflow="visible"
             id="textext-26e17abd-1"
             style="overflow:visible">
            <path
               style="stroke:none"
               d="m 2.578125,-6.8125 c 0,0 0,-0.109375 -0.140625,-0.109375 -0.21875,0 -0.953125,0.078125 -1.21875,0.109375 -0.078125,0 -0.1875,0.015625 -0.1875,0.203125 0,0.109375 0.109375,0.109375 0.25,0.109375 0.484375,0 0.5,0.09375 0.5,0.171875 L 1.75,-6.125 0.484375,-1.140625 C 0.453125,-1.03125 0.4375,-0.96875 0.4375,-0.8125 c 0,0.578125 0.4375,0.921875 0.90625,0.921875 0.328125,0 0.578125,-0.203125 0.75,-0.5625 0.171875,-0.375 0.296875,-0.953125 0.296875,-0.96875 0,-0.109375 -0.09375,-0.109375 -0.125,-0.109375 -0.09375,0 -0.109375,0.046875 -0.125,0.1875 C 1.96875,-0.703125 1.78125,-0.109375 1.375,-0.109375 c -0.296875,0 -0.296875,-0.3125 -0.296875,-0.453125 0,-0.25 0.015625,-0.296875 0.0625,-0.484375 z"
               id="path5029"
               inkscape:connector-curvature="0" />
          </symbol>
          <symbol
             overflow="visible"
             id="textext-26e17abd-2"
             style="overflow:visible">
            <path
               style="stroke:none"
               d=""
               id="path5032"
               inkscape:connector-curvature="0" />
          </symbol>
          <symbol
             overflow="visible"
             id="textext-26e17abd-3"
             style="overflow:visible">
            <path
               style="stroke:none"
               d="m 2.328125,-4.4375 c 0,-0.1875 0,-0.1875 -0.203125,-0.1875 -0.453125,0.4375 -1.078125,0.4375 -1.359375,0.4375 l 0,0.25 c 0.15625,0 0.625,0 1,-0.1875 l 0,3.546875 c 0,0.234375 0,0.328125 -0.6875,0.328125 l -0.265625,0 0,0.25 c 0.125,0 0.984375,-0.03125 1.234375,-0.03125 0.21875,0 1.09375,0.03125 1.25,0.03125 l 0,-0.25 -0.265625,0 c -0.703125,0 -0.703125,-0.09375 -0.703125,-0.328125 z"
               id="path5035"
               inkscape:connector-curvature="0" />
          </symbol>
        </g>
      </defs>
      <g
         id="textext-26e17abd-4">
        <g
           style="fill:#000000;fill-opacity:1"
           id="g5038">
          <use
             xlink:href="#textext-26e17abd-1"
             x="141.73199"
             y="75.160004"
             id="use5040"
             width="315.32922"
             height="426.20334" />
        </g>
        <g
           style="fill:#000000;fill-opacity:1"
           id="g5042">
          <use
             xlink:href="#textext-26e17abd-3"
             x="144.705"
             y="76.653999"
             id="use5044"
             width="315.32922"
             height="426.20334" />
        </g>
      </g>
    </g>
    <g
       id="g5332"
       transform="matrix(1.972818,0,0,1.972818,-169.73855,774.09465)"
       ns0:preamble="/home/cameron/Documents/Research/Bergman Lab/conferences/MSTP2013/inkscapebasicpre.inc"
       ns0:text="$l_2$">
      <defs
         id="defs5334">
        <g
           id="g5336">
          <symbol
             id="textext-41ebb2b3-0"
             overflow="visible"
             style="overflow:visible">
            <path
               id="path5339"
               d=""
               style="stroke:none"
               inkscape:connector-curvature="0" />
          </symbol>
          <symbol
             id="textext-41ebb2b3-1"
             overflow="visible"
             style="overflow:visible">
            <path
               id="path5342"
               d="m 2.578125,-6.8125 c 0,0 0,-0.109375 -0.140625,-0.109375 -0.21875,0 -0.953125,0.078125 -1.21875,0.109375 -0.078125,0 -0.1875,0.015625 -0.1875,0.203125 0,0.109375 0.109375,0.109375 0.25,0.109375 0.484375,0 0.5,0.09375 0.5,0.171875 L 1.75,-6.125 0.484375,-1.140625 C 0.453125,-1.03125 0.4375,-0.96875 0.4375,-0.8125 c 0,0.578125 0.4375,0.921875 0.90625,0.921875 0.328125,0 0.578125,-0.203125 0.75,-0.5625 0.171875,-0.375 0.296875,-0.953125 0.296875,-0.96875 0,-0.109375 -0.09375,-0.109375 -0.125,-0.109375 -0.09375,0 -0.109375,0.046875 -0.125,0.1875 C 1.96875,-0.703125 1.78125,-0.109375 1.375,-0.109375 c -0.296875,0 -0.296875,-0.3125 -0.296875,-0.453125 0,-0.25 0.015625,-0.296875 0.0625,-0.484375 z"
               style="stroke:none"
               inkscape:connector-curvature="0" />
          </symbol>
          <symbol
             id="textext-41ebb2b3-2"
             overflow="visible"
             style="overflow:visible">
            <path
               id="path5345"
               d=""
               style="stroke:none"
               inkscape:connector-curvature="0" />
          </symbol>
          <symbol
             id="textext-41ebb2b3-3"
             overflow="visible"
             style="overflow:visible">
            <path
               id="path5348"
               d="m 3.515625,-1.265625 -0.234375,0 c -0.015625,0.15625 -0.09375,0.5625 -0.1875,0.625 -0.046875,0.046875 -0.578125,0.046875 -0.6875,0.046875 l -1.28125,0 c 0.734375,-0.640625 0.984375,-0.84375 1.390625,-1.171875 0.515625,-0.40625 1,-0.84375 1,-1.5 0,-0.84375 -0.734375,-1.359375 -1.625,-1.359375 -0.859375,0 -1.453125,0.609375 -1.453125,1.25 0,0.34375 0.296875,0.390625 0.375,0.390625 0.15625,0 0.359375,-0.125 0.359375,-0.375 0,-0.125 -0.046875,-0.375 -0.40625,-0.375 C 0.984375,-4.21875 1.453125,-4.375 1.78125,-4.375 c 0.703125,0 1.0625,0.546875 1.0625,1.109375 0,0.609375 -0.4375,1.078125 -0.65625,1.328125 L 0.515625,-0.265625 C 0.4375,-0.203125 0.4375,-0.1875 0.4375,0 l 2.875,0 z"
               style="stroke:none"
               inkscape:connector-curvature="0" />
          </symbol>
        </g>
      </defs>
      <g
         id="textext-41ebb2b3-4">
        <g
           id="g5351"
           style="fill:#000000;fill-opacity:1">
          <use
             id="use5353"
             y="75.160004"
             x="141.73199"
             xlink:href="#textext-41ebb2b3-1"
             width="315.32922"
             height="426.20334" />
        </g>
        <g
           id="g5355"
           style="fill:#000000;fill-opacity:1">
          <use
             id="use5357"
             y="76.653999"
             x="144.705"
             xlink:href="#textext-41ebb2b3-3"
             width="315.32922"
             height="426.20334" />
        </g>
      </g>
    </g>
    <g
       ns0:text="$l_3$"
       ns0:preamble="/home/cameron/Documents/Research/Bergman Lab/conferences/MSTP2013/inkscapebasicpre.inc"
       transform="matrix(1.972818,0,0,1.972818,-149.73855,774.09465)"
       id="g5565">
      <defs
         id="defs5567">
        <g
           id="g5569">
          <symbol
             overflow="visible"
             id="textext-5ca3bd7a-0"
             style="overflow:visible">
            <path
               style="stroke:none"
               d=""
               id="path5572"
               inkscape:connector-curvature="0" />
          </symbol>
          <symbol
             overflow="visible"
             id="textext-5ca3bd7a-1"
             style="overflow:visible">
            <path
               style="stroke:none"
               d="m 2.578125,-6.8125 c 0,0 0,-0.109375 -0.140625,-0.109375 -0.21875,0 -0.953125,0.078125 -1.21875,0.109375 -0.078125,0 -0.1875,0.015625 -0.1875,0.203125 0,0.109375 0.109375,0.109375 0.25,0.109375 0.484375,0 0.5,0.09375 0.5,0.171875 L 1.75,-6.125 0.484375,-1.140625 C 0.453125,-1.03125 0.4375,-0.96875 0.4375,-0.8125 c 0,0.578125 0.4375,0.921875 0.90625,0.921875 0.328125,0 0.578125,-0.203125 0.75,-0.5625 0.171875,-0.375 0.296875,-0.953125 0.296875,-0.96875 0,-0.109375 -0.09375,-0.109375 -0.125,-0.109375 -0.09375,0 -0.109375,0.046875 -0.125,0.1875 C 1.96875,-0.703125 1.78125,-0.109375 1.375,-0.109375 c -0.296875,0 -0.296875,-0.3125 -0.296875,-0.453125 0,-0.25 0.015625,-0.296875 0.0625,-0.484375 z"
               id="path5575"
               inkscape:connector-curvature="0" />
          </symbol>
          <symbol
             overflow="visible"
             id="textext-5ca3bd7a-2"
             style="overflow:visible">
            <path
               style="stroke:none"
               d=""
               id="path5578"
               inkscape:connector-curvature="0" />
          </symbol>
          <symbol
             overflow="visible"
             id="textext-5ca3bd7a-3"
             style="overflow:visible">
            <path
               style="stroke:none"
               d="m 1.90625,-2.328125 c 0.546875,0 0.9375,0.375 0.9375,1.125 0,0.859375 -0.515625,1.125 -0.90625,1.125 -0.28125,0 -0.90625,-0.078125 -1.1875,-0.5 0.328125,0 0.40625,-0.234375 0.40625,-0.390625 0,-0.21875 -0.171875,-0.375 -0.390625,-0.375 -0.1875,0 -0.390625,0.125 -0.390625,0.40625 0,0.65625 0.71875,1.078125 1.5625,1.078125 0.96875,0 1.640625,-0.65625 1.640625,-1.34375 0,-0.546875 -0.4375,-1.09375 -1.203125,-1.25 0.71875,-0.265625 0.984375,-0.78125 0.984375,-1.21875 0,-0.546875 -0.625,-0.953125 -1.40625,-0.953125 -0.765625,0 -1.359375,0.375 -1.359375,0.9375 0,0.234375 0.15625,0.359375 0.359375,0.359375 0.21875,0 0.359375,-0.15625 0.359375,-0.34375 0,-0.203125 -0.140625,-0.359375 -0.359375,-0.375 0.25,-0.296875 0.71875,-0.375 0.984375,-0.375 0.3125,0 0.75,0.15625 0.75,0.75 0,0.296875 -0.09375,0.625 -0.28125,0.828125 -0.21875,0.265625 -0.421875,0.28125 -0.765625,0.3125 -0.171875,0.015625 -0.1875,0.015625 -0.21875,0.015625 -0.015625,0 -0.078125,0.015625 -0.078125,0.09375 0,0.09375 0.0625,0.09375 0.1875,0.09375 z"
               id="path5581"
               inkscape:connector-curvature="0" />
          </symbol>
        </g>
      </defs>
      <g
         id="textext-5ca3bd7a-4">
        <g
           style="fill:#000000;fill-opacity:1"
           id="g5584">
          <use
             xlink:href="#textext-5ca3bd7a-1"
             x="141.73199"
             y="75.160004"
             id="use5586"
             width="315.32922"
             height="426.20334" />
        </g>
        <g
           style="fill:#000000;fill-opacity:1"
           id="g5588">
          <use
             xlink:href="#textext-5ca3bd7a-3"
             x="144.705"
             y="76.653999"
             id="use5590"
             width="315.32922"
             height="426.20334" />
        </g>
      </g>
    </g>
    <g
       id="g5798"
       transform="matrix(1.972818,0,0,1.972818,-129.73855,774.09465)"
       ns0:preamble="/home/cameron/Documents/Research/Bergman Lab/conferences/MSTP2013/inkscapebasicpre.inc"
       ns0:text="$l_4$">
      <defs
         id="defs5800">
        <g
           id="g5802">
          <symbol
             id="textext-f6cd2423-0"
             overflow="visible"
             style="overflow:visible">
            <path
               id="path5805"
               d=""
               style="stroke:none"
               inkscape:connector-curvature="0" />
          </symbol>
          <symbol
             id="textext-f6cd2423-1"
             overflow="visible"
             style="overflow:visible">
            <path
               id="path5808"
               d="m 2.578125,-6.8125 c 0,0 0,-0.109375 -0.140625,-0.109375 -0.21875,0 -0.953125,0.078125 -1.21875,0.109375 -0.078125,0 -0.1875,0.015625 -0.1875,0.203125 0,0.109375 0.109375,0.109375 0.25,0.109375 0.484375,0 0.5,0.09375 0.5,0.171875 L 1.75,-6.125 0.484375,-1.140625 C 0.453125,-1.03125 0.4375,-0.96875 0.4375,-0.8125 c 0,0.578125 0.4375,0.921875 0.90625,0.921875 0.328125,0 0.578125,-0.203125 0.75,-0.5625 0.171875,-0.375 0.296875,-0.953125 0.296875,-0.96875 0,-0.109375 -0.09375,-0.109375 -0.125,-0.109375 -0.09375,0 -0.109375,0.046875 -0.125,0.1875 C 1.96875,-0.703125 1.78125,-0.109375 1.375,-0.109375 c -0.296875,0 -0.296875,-0.3125 -0.296875,-0.453125 0,-0.25 0.015625,-0.296875 0.0625,-0.484375 z"
               style="stroke:none"
               inkscape:connector-curvature="0" />
          </symbol>
          <symbol
             id="textext-f6cd2423-2"
             overflow="visible"
             style="overflow:visible">
            <path
               id="path5811"
               d=""
               style="stroke:none"
               inkscape:connector-curvature="0" />
          </symbol>
          <symbol
             id="textext-f6cd2423-3"
             overflow="visible"
             style="overflow:visible">
            <path
               id="path5814"
               d="m 3.6875,-1.140625 0,-0.25 -0.78125,0 0,-3.109375 c 0,-0.140625 0,-0.203125 -0.140625,-0.203125 -0.09375,0 -0.125,0 -0.1875,0.109375 l -2.3125,3.203125 0,0.25 2.0625,0 0,0.5625 c 0,0.25 0,0.328125 -0.578125,0.328125 l -0.1875,0 0,0.25 C 1.921875,-0.015625 2.359375,-0.03125 2.609375,-0.03125 2.875,-0.03125 3.3125,-0.015625 3.671875,0 l 0,-0.25 -0.1875,0 C 2.90625,-0.25 2.90625,-0.328125 2.90625,-0.578125 l 0,-0.5625 z M 2.375,-3.9375 l 0,2.546875 -1.84375,0 z"
               style="stroke:none"
               inkscape:connector-curvature="0" />
          </symbol>
        </g>
      </defs>
      <g
         id="textext-f6cd2423-4">
        <g
           id="g5817"
           style="fill:#000000;fill-opacity:1">
          <use
             id="use5819"
             y="75.160004"
             x="141.73199"
             xlink:href="#textext-f6cd2423-1"
             width="315.32922"
             height="426.20334" />
        </g>
        <g
           id="g5821"
           style="fill:#000000;fill-opacity:1">
          <use
             id="use5823"
             y="76.653999"
             x="144.705"
             xlink:href="#textext-f6cd2423-3"
             width="315.32922"
             height="426.20334" />
        </g>
      </g>
    </g>
    <text
       sodipodi:linespacing="125%"
       id="text5935"
       y="616.85162"
       x="105.33802"
       style="font-size:20px;font-style:normal;font-variant:normal;font-weight:normal;font-stretch:normal;line-height:125%;letter-spacing:0px;word-spacing:0px;fill:#000000;fill-opacity:1;stroke:none;font-family:HelveticaNeue;-inkscape-font-specification:HelveticaNeue"
       xml:space="preserve"><tspan
         id="tspan5937"
         y="616.85162"
         x="105.33802"
         sodipodi:role="line">1111</tspan><tspan
         y="641.85162"
         x="105.33802"
         sodipodi:role="line"
         id="tspan5939">0111</tspan><tspan
         y="666.85162"
         x="105.33802"
         sodipodi:role="line"
         id="tspan5941">1011</tspan></text>
    <text
       xml:space="preserve"
       style="font-size:20px;font-style:normal;font-variant:normal;font-weight:normal;font-stretch:normal;line-height:125%;letter-spacing:0px;word-spacing:0px;fill:#000000;fill-opacity:1;stroke:none;font-family:HelveticaNeue;-inkscape-font-specification:HelveticaNeue"
       x="106.3728"
       y="541.2522"
       id="text5943"
       sodipodi:linespacing="125%"><tspan
         sodipodi:role="line"
         id="tspan5945"
         x="106.3728"
         y="541.2522">1101</tspan><tspan
         sodipodi:role="line"
         x="106.3728"
         y="566.2522"
         id="tspan5947">1001</tspan></text>
    <rect
       ry="1.7578725"
       y="901.58411"
       x="84.79744"
       height="26.707554"
       width="62.792412"
       id="rect5949"
       style="fill:none;stroke:#27ae60;stroke-width:2;stroke-linecap:square;stroke-linejoin:round;stroke-miterlimit:4;stroke-opacity:1;stroke-dasharray:none;stroke-dashoffset:0" />
    <rect
       style="fill:none;stroke:#2980b9;stroke-width:1.53860188;stroke-linecap:square;stroke-linejoin:round;stroke-miterlimit:4;stroke-opacity:1;stroke-dasharray:none;stroke-dashoffset:0"
       id="rect5951"
       width="37.162052"
       height="26.707554"
       x="128.79744"
       y="901.58411"
       ry="1.7578725" />
    <g
       id="g5953"
       transform="matrix(1.972818,0,0,1.972818,16.26145,772.09465)"
       ns0:preamble="/home/cameron/Documents/Research/Bergman Lab/conferences/MSTP2013/inkscapebasicpre.inc"
       ns0:text="$l_3$">
      <defs
         id="defs5955">
        <g
           id="g5957">
          <symbol
             style="overflow:visible"
             id="symbol5959"
             overflow="visible">
            <path
               inkscape:connector-curvature="0"
               id="path5961"
               d=""
               style="stroke:none" />
          </symbol>
          <symbol
             style="overflow:visible"
             id="symbol5963"
             overflow="visible">
            <path
               inkscape:connector-curvature="0"
               id="path5965"
               d="m 2.578125,-6.8125 c 0,0 0,-0.109375 -0.140625,-0.109375 -0.21875,0 -0.953125,0.078125 -1.21875,0.109375 -0.078125,0 -0.1875,0.015625 -0.1875,0.203125 0,0.109375 0.109375,0.109375 0.25,0.109375 0.484375,0 0.5,0.09375 0.5,0.171875 L 1.75,-6.125 0.484375,-1.140625 C 0.453125,-1.03125 0.4375,-0.96875 0.4375,-0.8125 c 0,0.578125 0.4375,0.921875 0.90625,0.921875 0.328125,0 0.578125,-0.203125 0.75,-0.5625 0.171875,-0.375 0.296875,-0.953125 0.296875,-0.96875 0,-0.109375 -0.09375,-0.109375 -0.125,-0.109375 -0.09375,0 -0.109375,0.046875 -0.125,0.1875 C 1.96875,-0.703125 1.78125,-0.109375 1.375,-0.109375 c -0.296875,0 -0.296875,-0.3125 -0.296875,-0.453125 0,-0.25 0.015625,-0.296875 0.0625,-0.484375 z"
               style="stroke:none" />
          </symbol>
          <symbol
             style="overflow:visible"
             id="symbol5967"
             overflow="visible">
            <path
               inkscape:connector-curvature="0"
               id="path5969"
               d=""
               style="stroke:none" />
          </symbol>
          <symbol
             style="overflow:visible"
             id="symbol5971"
             overflow="visible">
            <path
               inkscape:connector-curvature="0"
               id="path5973"
               d="m 1.90625,-2.328125 c 0.546875,0 0.9375,0.375 0.9375,1.125 0,0.859375 -0.515625,1.125 -0.90625,1.125 -0.28125,0 -0.90625,-0.078125 -1.1875,-0.5 0.328125,0 0.40625,-0.234375 0.40625,-0.390625 0,-0.21875 -0.171875,-0.375 -0.390625,-0.375 -0.1875,0 -0.390625,0.125 -0.390625,0.40625 0,0.65625 0.71875,1.078125 1.5625,1.078125 0.96875,0 1.640625,-0.65625 1.640625,-1.34375 0,-0.546875 -0.4375,-1.09375 -1.203125,-1.25 0.71875,-0.265625 0.984375,-0.78125 0.984375,-1.21875 0,-0.546875 -0.625,-0.953125 -1.40625,-0.953125 -0.765625,0 -1.359375,0.375 -1.359375,0.9375 0,0.234375 0.15625,0.359375 0.359375,0.359375 0.21875,0 0.359375,-0.15625 0.359375,-0.34375 0,-0.203125 -0.140625,-0.359375 -0.359375,-0.375 0.25,-0.296875 0.71875,-0.375 0.984375,-0.375 0.3125,0 0.75,0.15625 0.75,0.75 0,0.296875 -0.09375,0.625 -0.28125,0.828125 -0.21875,0.265625 -0.421875,0.28125 -0.765625,0.3125 -0.171875,0.015625 -0.1875,0.015625 -0.21875,0.015625 -0.015625,0 -0.078125,0.015625 -0.078125,0.09375 0,0.09375 0.0625,0.09375 0.1875,0.09375 z"
               style="stroke:none" />
          </symbol>
        </g>
      </defs>
      <g
         id="g5975">
        <g
           id="g5977"
           style="fill:#000000;fill-opacity:1">
          <use
             height="426.20334"
             width="315.32922"
             id="use5979"
             y="75.160004"
             x="141.73199"
             xlink:href="#textext-5ca3bd7a-1" />
        </g>
        <g
           id="g5981"
           style="fill:#000000;fill-opacity:1">
          <use
             height="426.20334"
             width="315.32922"
             id="use5983"
             y="76.653999"
             x="144.705"
             xlink:href="#textext-5ca3bd7a-3" />
        </g>
      </g>
    </g>
    <g
       ns0:text="$l_4$"
       ns0:preamble="/home/cameron/Documents/Research/Bergman Lab/conferences/MSTP2013/inkscapebasicpre.inc"
       transform="matrix(1.972818,0,0,1.972818,36.26145,772.09465)"
       id="g5985">
      <defs
         id="defs5987">
        <g
           id="g5989">
          <symbol
             style="overflow:visible"
             overflow="visible"
             id="symbol5991">
            <path
               inkscape:connector-curvature="0"
               style="stroke:none"
               d=""
               id="path5993" />
          </symbol>
          <symbol
             style="overflow:visible"
             overflow="visible"
             id="symbol5995">
            <path
               inkscape:connector-curvature="0"
               style="stroke:none"
               d="m 2.578125,-6.8125 c 0,0 0,-0.109375 -0.140625,-0.109375 -0.21875,0 -0.953125,0.078125 -1.21875,0.109375 -0.078125,0 -0.1875,0.015625 -0.1875,0.203125 0,0.109375 0.109375,0.109375 0.25,0.109375 0.484375,0 0.5,0.09375 0.5,0.171875 L 1.75,-6.125 0.484375,-1.140625 C 0.453125,-1.03125 0.4375,-0.96875 0.4375,-0.8125 c 0,0.578125 0.4375,0.921875 0.90625,0.921875 0.328125,0 0.578125,-0.203125 0.75,-0.5625 0.171875,-0.375 0.296875,-0.953125 0.296875,-0.96875 0,-0.109375 -0.09375,-0.109375 -0.125,-0.109375 -0.09375,0 -0.109375,0.046875 -0.125,0.1875 C 1.96875,-0.703125 1.78125,-0.109375 1.375,-0.109375 c -0.296875,0 -0.296875,-0.3125 -0.296875,-0.453125 0,-0.25 0.015625,-0.296875 0.0625,-0.484375 z"
               id="path5997" />
          </symbol>
          <symbol
             style="overflow:visible"
             overflow="visible"
             id="symbol5999">
            <path
               inkscape:connector-curvature="0"
               style="stroke:none"
               d=""
               id="path6001" />
          </symbol>
          <symbol
             style="overflow:visible"
             overflow="visible"
             id="symbol6003">
            <path
               inkscape:connector-curvature="0"
               style="stroke:none"
               d="m 3.6875,-1.140625 0,-0.25 -0.78125,0 0,-3.109375 c 0,-0.140625 0,-0.203125 -0.140625,-0.203125 -0.09375,0 -0.125,0 -0.1875,0.109375 l -2.3125,3.203125 0,0.25 2.0625,0 0,0.5625 c 0,0.25 0,0.328125 -0.578125,0.328125 l -0.1875,0 0,0.25 C 1.921875,-0.015625 2.359375,-0.03125 2.609375,-0.03125 2.875,-0.03125 3.3125,-0.015625 3.671875,0 l 0,-0.25 -0.1875,0 C 2.90625,-0.25 2.90625,-0.328125 2.90625,-0.578125 l 0,-0.5625 z M 2.375,-3.9375 l 0,2.546875 -1.84375,0 z"
               id="path6005" />
          </symbol>
        </g>
      </defs>
      <g
         id="g6007">
        <g
           style="fill:#000000;fill-opacity:1"
           id="g6009">
          <use
             height="426.20334"
             width="315.32922"
             xlink:href="#textext-f6cd2423-1"
             x="141.73199"
             y="75.160004"
             id="use6011" />
        </g>
        <g
           style="fill:#000000;fill-opacity:1"
           id="g6013">
          <use
             height="426.20334"
             width="315.32922"
             xlink:href="#textext-f6cd2423-3"
             x="144.705"
             y="76.653999"
             id="use6015" />
        </g>
      </g>
    </g>
    <rect
       ry="1.7578725"
       y="899.58411"
       x="294.79742"
       height="26.707554"
       width="37.162052"
       id="rect6017"
       style="fill:none;stroke:#2980b9;stroke-width:1.53860188;stroke-linecap:square;stroke-linejoin:round;stroke-miterlimit:4;stroke-opacity:1;stroke-dasharray:none;stroke-dashoffset:0" />
    <rect
       ry="2.5349658"
       y="896.12585"
       x="78.509369"
       height="38.514019"
       width="95.89257"
       id="rect6019"
       style="fill:none;stroke:#e67e22;stroke-width:2;stroke-linecap:square;stroke-linejoin:round;stroke-miterlimit:4;stroke-opacity:1;stroke-dasharray:none;stroke-dashoffset:0" />
    <g
       ns0:text="$\\phi_i$"
       ns0:preamble="/home/cameron/Documents/Research/Bergman Lab/conferences/MSTP2013/inkscapebasicpre.inc"
       transform="matrix(3.2457319,0,0,3.2457319,-455.50507,589.32841)"
       id="g3534">
      <defs
         id="defs3536">
        <g
           id="g3538">
          <symbol
             overflow="visible"
             id="textext-96bfdae2-0"
             style="overflow:visible">
            <path
               style="stroke:none"
               d=""
               id="path3541"
               inkscape:connector-curvature="0" />
          </symbol>
          <symbol
             overflow="visible"
             id="textext-96bfdae2-1"
             style="overflow:visible">
            <path
               style="stroke:none"
               d="m 4.359375,-6.671875 c 0,-0.03125 0.03125,-0.140625 0.03125,-0.140625 0,-0.015625 0,-0.109375 -0.125,-0.109375 -0.09375,0 -0.109375,0.03125 -0.15625,0.203125 L 3.53125,-4.421875 c -1.578125,0.0625 -3.046875,1.375 -3.046875,2.734375 0,0.953125 0.703125,1.734375 1.921875,1.8125 C 2.328125,0.421875 2.25,0.75 2.171875,1.0625 c -0.125,0.46875 -0.21875,0.84375 -0.21875,0.875 0,0.09375 0.078125,0.109375 0.125,0.109375 C 2.125,2.046875 2.140625,2.03125 2.171875,2 2.1875,1.984375 2.25,1.75 2.28125,1.609375 L 2.65625,0.125 c 1.609375,-0.0625 3.0625,-1.40625 3.0625,-2.734375 0,-0.796875 -0.53125,-1.703125 -1.921875,-1.8125 z m -1.90625,6.578125 c -0.59375,-0.03125 -1.3125,-0.390625 -1.3125,-1.375 0,-1.203125 0.859375,-2.59375 2.34375,-2.734375 z m 1.28125,-4.109375 c 0.765625,0.046875 1.328125,0.5 1.328125,1.375 0,1.1875 -0.859375,2.609375 -2.34375,2.734375 z"
               id="path3544"
               inkscape:connector-curvature="0" />
          </symbol>
          <symbol
             overflow="visible"
             id="textext-96bfdae2-2"
             style="overflow:visible">
            <path
               style="stroke:none"
               d=""
               id="path3547"
               inkscape:connector-curvature="0" />
          </symbol>
          <symbol
             overflow="visible"
             id="textext-96bfdae2-3"
             style="overflow:visible">
            <path
               style="stroke:none"
               d="m 2.265625,-4.359375 c 0,-0.109375 -0.09375,-0.265625 -0.28125,-0.265625 -0.1875,0 -0.390625,0.1875 -0.390625,0.390625 0,0.109375 0.078125,0.265625 0.28125,0.265625 0.1875,0 0.390625,-0.203125 0.390625,-0.390625 z M 0.84375,-0.8125 c -0.03125,0.09375 -0.0625,0.171875 -0.0625,0.296875 0,0.328125 0.265625,0.578125 0.65625,0.578125 0.6875,0 1,-0.953125 1,-1.0625 0,-0.09375 -0.09375,-0.09375 -0.109375,-0.09375 -0.09375,0 -0.109375,0.046875 -0.140625,0.125 -0.15625,0.5625 -0.453125,0.84375 -0.734375,0.84375 -0.140625,0 -0.171875,-0.09375 -0.171875,-0.25 0,-0.15625 0.046875,-0.28125 0.109375,-0.4375 C 1.46875,-1 1.546875,-1.1875 1.609375,-1.375 1.671875,-1.546875 1.9375,-2.171875 1.953125,-2.265625 1.984375,-2.328125 2,-2.40625 2,-2.484375 2,-2.8125 1.71875,-3.078125 1.34375,-3.078125 0.640625,-3.078125 0.328125,-2.125 0.328125,-2 c 0,0.078125 0.09375,0.078125 0.125,0.078125 0.09375,0 0.09375,-0.03125 0.125,-0.109375 C 0.75,-2.625 1.0625,-2.875 1.3125,-2.875 c 0.109375,0 0.171875,0.046875 0.171875,0.234375 0,0.171875 -0.03125,0.265625 -0.203125,0.703125 z"
               id="path3550"
               inkscape:connector-curvature="0" />
          </symbol>
        </g>
      </defs>
      <g
         id="textext-96bfdae2-4">
        <g
           style="fill:#000000;fill-opacity:1"
           id="g3553">
          <use
             xlink:href="#textext-96bfdae2-1"
             x="141.73199"
             y="75.160004"
             id="use3555"
             width="315.32922"
             height="426.20334" />
        </g>
        <g
           style="fill:#000000;fill-opacity:1"
           id="g3557">
          <use
             xlink:href="#textext-96bfdae2-3"
             x="147.668"
             y="76.653999"
             id="use3559"
             width="315.32922"
             height="426.20334" />
        </g>
      </g>
    </g>
    <g
       id="g3919"
       transform="matrix(3.2457319,0,0,3.2457319,-469.02578,349.32841)"
       ns0:preamble="/home/cameron/Documents/Research/Bergman Lab/conferences/MSTP2013/inkscapebasicpre.inc"
       ns0:text="$\\phi_{i+1}$">
      <defs
         id="defs3921">
        <g
           id="g3923">
          <symbol
             id="textext-c4303041-0"
             overflow="visible"
             style="overflow:visible">
            <path
               id="path3926"
               d=""
               style="stroke:none"
               inkscape:connector-curvature="0" />
          </symbol>
          <symbol
             id="textext-c4303041-1"
             overflow="visible"
             style="overflow:visible">
            <path
               id="path3929"
               d="m 4.359375,-6.671875 c 0,-0.03125 0.03125,-0.140625 0.03125,-0.140625 0,-0.015625 0,-0.109375 -0.125,-0.109375 -0.09375,0 -0.109375,0.03125 -0.15625,0.203125 L 3.53125,-4.421875 c -1.578125,0.0625 -3.046875,1.375 -3.046875,2.734375 0,0.953125 0.703125,1.734375 1.921875,1.8125 C 2.328125,0.421875 2.25,0.75 2.171875,1.0625 c -0.125,0.46875 -0.21875,0.84375 -0.21875,0.875 0,0.09375 0.078125,0.109375 0.125,0.109375 C 2.125,2.046875 2.140625,2.03125 2.171875,2 2.1875,1.984375 2.25,1.75 2.28125,1.609375 L 2.65625,0.125 c 1.609375,-0.0625 3.0625,-1.40625 3.0625,-2.734375 0,-0.796875 -0.53125,-1.703125 -1.921875,-1.8125 z m -1.90625,6.578125 c -0.59375,-0.03125 -1.3125,-0.390625 -1.3125,-1.375 0,-1.203125 0.859375,-2.59375 2.34375,-2.734375 z m 1.28125,-4.109375 c 0.765625,0.046875 1.328125,0.5 1.328125,1.375 0,1.1875 -0.859375,2.609375 -2.34375,2.734375 z"
               style="stroke:none"
               inkscape:connector-curvature="0" />
          </symbol>
          <symbol
             id="textext-c4303041-2"
             overflow="visible"
             style="overflow:visible">
            <path
               id="path3932"
               d=""
               style="stroke:none"
               inkscape:connector-curvature="0" />
          </symbol>
          <symbol
             id="textext-c4303041-3"
             overflow="visible"
             style="overflow:visible">
            <path
               id="path3935"
               d="m 2.265625,-4.359375 c 0,-0.109375 -0.09375,-0.265625 -0.28125,-0.265625 -0.1875,0 -0.390625,0.1875 -0.390625,0.390625 0,0.109375 0.078125,0.265625 0.28125,0.265625 0.1875,0 0.390625,-0.203125 0.390625,-0.390625 z M 0.84375,-0.8125 c -0.03125,0.09375 -0.0625,0.171875 -0.0625,0.296875 0,0.328125 0.265625,0.578125 0.65625,0.578125 0.6875,0 1,-0.953125 1,-1.0625 0,-0.09375 -0.09375,-0.09375 -0.109375,-0.09375 -0.09375,0 -0.109375,0.046875 -0.140625,0.125 -0.15625,0.5625 -0.453125,0.84375 -0.734375,0.84375 -0.140625,0 -0.171875,-0.09375 -0.171875,-0.25 0,-0.15625 0.046875,-0.28125 0.109375,-0.4375 C 1.46875,-1 1.546875,-1.1875 1.609375,-1.375 1.671875,-1.546875 1.9375,-2.171875 1.953125,-2.265625 1.984375,-2.328125 2,-2.40625 2,-2.484375 2,-2.8125 1.71875,-3.078125 1.34375,-3.078125 0.640625,-3.078125 0.328125,-2.125 0.328125,-2 c 0,0.078125 0.09375,0.078125 0.125,0.078125 0.09375,0 0.09375,-0.03125 0.125,-0.109375 C 0.75,-2.625 1.0625,-2.875 1.3125,-2.875 c 0.109375,0 0.171875,0.046875 0.171875,0.234375 0,0.171875 -0.03125,0.265625 -0.203125,0.703125 z"
               style="stroke:none"
               inkscape:connector-curvature="0" />
          </symbol>
          <symbol
             id="textext-c4303041-4"
             overflow="visible"
             style="overflow:visible">
            <path
               id="path3938"
               d=""
               style="stroke:none"
               inkscape:connector-curvature="0" />
          </symbol>
          <symbol
             id="textext-c4303041-5"
             overflow="visible"
             style="overflow:visible">
            <path
               id="path3941"
               d="m 3.21875,-1.578125 2.140625,0 c 0.09375,0 0.25,0 0.25,-0.15625 0,-0.1875 -0.15625,-0.1875 -0.25,-0.1875 l -2.140625,0 0,-2.140625 c 0,-0.078125 0,-0.25 -0.15625,-0.25 -0.171875,0 -0.171875,0.15625 -0.171875,0.25 l 0,2.140625 -2.140625,0 c -0.09375,0 -0.265625,0 -0.265625,0.171875 0,0.171875 0.15625,0.171875 0.265625,0.171875 l 2.140625,0 0,2.140625 c 0,0.09375 0,0.265625 0.15625,0.265625 0.171875,0 0.171875,-0.171875 0.171875,-0.265625 z"
               style="stroke:none"
               inkscape:connector-curvature="0" />
          </symbol>
          <symbol
             id="textext-c4303041-6"
             overflow="visible"
             style="overflow:visible">
            <path
               id="path3944"
               d="m 2.328125,-4.4375 c 0,-0.1875 0,-0.1875 -0.203125,-0.1875 -0.453125,0.4375 -1.078125,0.4375 -1.359375,0.4375 l 0,0.25 c 0.15625,0 0.625,0 1,-0.1875 l 0,3.546875 c 0,0.234375 0,0.328125 -0.6875,0.328125 l -0.265625,0 0,0.25 c 0.125,0 0.984375,-0.03125 1.234375,-0.03125 0.21875,0 1.09375,0.03125 1.25,0.03125 l 0,-0.25 -0.265625,0 c -0.703125,0 -0.703125,-0.09375 -0.703125,-0.328125 z"
               style="stroke:none"
               inkscape:connector-curvature="0" />
          </symbol>
        </g>
      </defs>
      <g
         id="textext-c4303041-7">
        <g
           id="g3947"
           style="fill:#000000;fill-opacity:1">
          <use
             id="use3949"
             y="75.160004"
             x="141.73199"
             xlink:href="#textext-c4303041-1"
             width="315.32922"
             height="426.20334" />
        </g>
        <g
           id="g3951"
           style="fill:#000000;fill-opacity:1">
          <use
             id="use3953"
             y="76.653999"
             x="147.668"
             xlink:href="#textext-c4303041-3"
             width="315.32922"
             height="426.20334" />
        </g>
        <g
           id="g3955"
           style="fill:#000000;fill-opacity:1">
          <use
             id="use3957"
             y="76.653999"
             x="150.487"
             xlink:href="#textext-c4303041-5"
             width="315.32922"
             height="426.20334" />
          <use
             id="use3959"
             y="76.653999"
             x="156.60303"
             xlink:href="#textext-c4303041-6"
             width="315.32922"
             height="426.20334" />
        </g>
      </g>
    </g>
  </g>
</svg>
