<?xml version="1.0" encoding="UTF-8" standalone="no"?>
<!-- Created with Inkscape (http://www.inkscape.org/) -->

<svg
   xmlns:dc="http://purl.org/dc/elements/1.1/"
   xmlns:cc="http://creativecommons.org/ns#"
   xmlns:rdf="http://www.w3.org/1999/02/22-rdf-syntax-ns#"
   xmlns:svg="http://www.w3.org/2000/svg"
   xmlns="http://www.w3.org/2000/svg"
   xmlns:xlink="http://www.w3.org/1999/xlink"
   xmlns:sodipodi="http://sodipodi.sourceforge.net/DTD/sodipodi-0.dtd"
   xmlns:inkscape="http://www.inkscape.org/namespaces/inkscape"
   width="215.54039"
   height="83.486595"
   id="svg4620"
   version="1.1"
   inkscape:version="0.48+devel r"
   viewBox="0 0 215.54039 83.486597"
   sodipodi:docname="stochdynss.svg">
  <defs
     id="defs4622">
    <linearGradient
       inkscape:collect="always"
       id="linearGradient5943">
      <stop
         style="stop-color:#000000;stop-opacity:1;"
         offset="0"
         id="stop5945" />
      <stop
         style="stop-color:#000000;stop-opacity:0;"
         offset="1"
         id="stop5947" />
    </linearGradient>
    <marker
       inkscape:stockid="EmptyTriangleOutL"
       orient="auto"
       refY="0"
       refX="0"
       id="EmptyTriangleOutL"
       style="overflow:visible"
       inkscape:isstock="true">
      <path
         id="path5368"
         d="m 5.77,0 -8.65,5 0,-10 8.65,5 z"
         style="fill:#ffffff;fill-rule:evenodd;stroke:#000000;stroke-width:1pt;stroke-opacity:1"
         transform="matrix(0.8,0,0,0.8,-4.8,0)"
         inkscape:connector-curvature="0" />
    </marker>
    <marker
       inkscape:stockid="Arrow2Lend"
       orient="auto"
       refY="0"
       refX="0"
       id="Arrow2Lend"
       style="overflow:visible"
       inkscape:isstock="true">
      <path
         id="path5229"
         style="fill:#000000;fill-opacity:1;fill-rule:evenodd;stroke:#000000;stroke-width:0.625;stroke-linejoin:round;stroke-opacity:1"
         d="M 8.7185878,4.0337352 -2.2072895,0.01601326 8.7185884,-4.0017078 c -1.7454984,2.3720609 -1.7354408,5.6174519 -6e-7,8.035443 z"
         transform="matrix(-1.1,0,0,-1.1,-1.1,0)"
         inkscape:connector-curvature="0" />
    </marker>
    <marker
       inkscape:stockid="Arrow1Mstart"
       orient="auto"
       refY="0"
       refX="0"
       id="Arrow1Mstart"
       style="overflow:visible"
       inkscape:isstock="true">
      <path
         id="path5214"
         d="M 0,0 5,-5 -12.5,0 5,5 0,0 Z"
         style="fill:#000000;fill-opacity:1;fill-rule:evenodd;stroke:#000000;stroke-width:1pt;stroke-opacity:1"
         transform="matrix(0.4,0,0,0.4,4,0)"
         inkscape:connector-curvature="0" />
    </marker>
    <marker
       inkscape:stockid="Arrow2Lstart"
       orient="auto"
       refY="0"
       refX="0"
       id="Arrow2Lstart"
       style="overflow:visible"
       inkscape:isstock="true">
      <path
         id="path5226"
         style="fill:#000000;fill-opacity:1;fill-rule:evenodd;stroke:#000000;stroke-width:0.625;stroke-linejoin:round;stroke-opacity:1"
         d="M 8.7185878,4.0337352 -2.2072895,0.01601326 8.7185884,-4.0017078 c -1.7454984,2.3720609 -1.7354408,5.6174519 -6e-7,8.035443 z"
         transform="matrix(1.1,0,0,1.1,1.1,0)"
         inkscape:connector-curvature="0" />
    </marker>
    <marker
       inkscape:stockid="Arrow1Lend"
       orient="auto"
       refY="0"
       refX="0"
       id="marker5484"
       style="overflow:visible"
       inkscape:isstock="true">
      <path
         id="path5486"
         d="M 0,0 5,-5 -12.5,0 5,5 0,0 Z"
         style="fill:#000000;fill-opacity:1;fill-rule:evenodd;stroke:#000000;stroke-width:1pt;stroke-opacity:1"
         transform="matrix(-0.8,0,0,-0.8,-10,0)"
         inkscape:connector-curvature="0" />
    </marker>
    <marker
       inkscape:stockid="Arrow1Lend"
       orient="auto"
       refY="0"
       refX="0"
       id="Arrow1Lend"
       style="overflow:visible"
       inkscape:isstock="true">
      <path
         id="path5211"
         d="M 0,0 5,-5 -12.5,0 5,5 0,0 Z"
         style="fill:#000000;fill-opacity:1;fill-rule:evenodd;stroke:#000000;stroke-width:1pt;stroke-opacity:1"
         transform="matrix(-0.8,0,0,-0.8,-10,0)"
         inkscape:connector-curvature="0" />
    </marker>
    <linearGradient
       inkscape:collect="always"
       xlink:href="#linearGradient5097-3-4"
       id="linearGradient4236"
       gradientUnits="userSpaceOnUse"
       gradientTransform="matrix(1.913219,0,0,-1.913219,1430.7015,1901.3208)"
       x1="154.18047"
       y1="303.12189"
       x2="184.50031"
       y2="347.97275" />
    <linearGradient
       inkscape:collect="always"
       id="linearGradient5097-3-4">
      <stop
         style="stop-color:#333333;stop-opacity:1;"
         offset="0"
         id="stop5099-8-1" />
      <stop
         style="stop-color:#333333;stop-opacity:0.2"
         offset="1"
         id="stop5101-3-1" />
    </linearGradient>
    <linearGradient
       inkscape:collect="always"
       xlink:href="#linearGradient5943"
       id="linearGradient5949"
       x1="1627.9347"
       y1="1135.3031"
       x2="1716.1821"
       y2="1135.3031"
       gradientUnits="userSpaceOnUse"
       gradientTransform="matrix(1.0696395,0,0,1.0964954,-148.52389,32.954934)" />
  </defs>
  <sodipodi:namedview
     id="base"
     pagecolor="#ffffff"
     bordercolor="#666666"
     borderopacity="1.0"
     inkscape:pageopacity="0.0"
     inkscape:pageshadow="2"
     inkscape:zoom="6.6298479"
     inkscape:cx="107.7702"
     inkscape:cy="41.743298"
     inkscape:document-units="px"
     inkscape:current-layer="layer1"
     showgrid="false"
     inkscape:window-width="1920"
     inkscape:window-height="1176"
     inkscape:window-x="0"
     inkscape:window-y="24"
     inkscape:window-maximized="1" />
  <metadata
     id="metadata4625">
    <rdf:RDF>
      <cc:Work
         rdf:about="">
        <dc:format>image/svg+xml</dc:format>
        <dc:type
           rdf:resource="http://purl.org/dc/dcmitype/StillImage" />
      </cc:Work>
    </rdf:RDF>
  </metadata>
  <g
     inkscape:label="Layer 1"
     inkscape:groupmode="layer"
     id="layer1"
     transform="translate(-1593.0112,-1236.3332)">
    <path
       style="fill:url(#linearGradient5949);fill-opacity:1;stroke:none"
       d="m 1686.2458,1319.1607 -46.2378,-82.1543 -46.3024,82.1543 z"
       id="path5941"
       inkscape:connector-curvature="0"
       sodipodi:nodetypes="cccc" />
    <path
       inkscape:connector-curvature="0"
       id="path4190"
       style="fill:url(#linearGradient4236);fill-opacity:1;fill-rule:evenodd;stroke:none"
       d="m 1783.5059,1236.3332 -58.4403,0 -25.0458,41.7441 25.0458,41.7425 58.4403,0 25.0457,-41.7425" />
    <path
       inkscape:connector-curvature="0"
       id="path4198"
       style="fill:#005b9e;fill-opacity:1;fill-rule:evenodd;stroke:none"
       d="m 1794.9389,1284.2858 c 0,1.3822 -1.1214,2.5036 -2.5047,2.5036 -1.3822,0 -2.5036,-1.1214 -2.5036,-2.5036 0,-1.3833 1.1214,-2.5047 2.5036,-2.5047 1.3833,0 2.5047,1.1214 2.5047,2.5047" />
    <path
       style="fill:none;stroke:#005b9e;stroke-width:1px;stroke-linecap:butt;stroke-linejoin:miter;stroke-opacity:1"
       d="m 1756.5536,1277.1683 c 1.1599,-1.295 2.8353,-1.8885 4.1515,-2.9654 0.541,-0.4426 0.9885,-0.9884 1.4827,-1.4827 0.099,-0.099 0.1715,-0.234 0.2966,-0.2965 0.5271,-0.2636 0.1647,0.1647 0.2965,0.2965 0.07,0.07 0.2266,-0.07 0.2965,0 0.07,0.07 -0.07,0.2267 0,0.2966 0.042,0.042 0.8288,0.03 0.8897,0 0.125,-0.062 0.1976,-0.1977 0.2965,-0.2966 0.1744,-0.1744 1.0488,-1.1175 1.1861,-1.1861 0.088,-0.044 0.2267,0.07 0.2966,0 0.07,-0.07 -0.088,-0.2524 0,-0.2966 0.1768,-0.088 0.4055,0.062 0.5931,0 0.2652,-0.088 0.343,-0.468 0.593,-0.593 0.088,-0.044 0.2082,0.044 0.2966,0 0.25,-0.1251 0.343,-0.4681 0.5931,-0.5931 0.088,-0.044 0.2081,0.044 0.2965,0 0.125,-0.062 0.1715,-0.234 0.2965,-0.2966 0.088,-0.044 0.2267,0.07 0.2966,0 0.07,-0.07 -0.07,-0.2266 0,-0.2965 0.042,-0.042 0.8288,-0.03 0.8896,0 0.1584,0.079 0.7335,0.7335 0.8896,0.8896 0.1561,0.1561 0.8104,0.7313 0.8896,0.8896 0.044,0.088 -0.07,0.2267 0,0.2966 0.07,0.07 0.2267,-0.07 0.2966,0 0.07,0.07 -0.07,0.2266 0,0.2965 0.01,0.01 0.8176,0 0.8896,0 0.1341,0 1.7002,0.04 1.7792,0 0.125,-0.062 0.1715,-0.234 0.2965,-0.2965 0.088,-0.044 0.2082,0.044 0.2966,0 0.125,-0.062 0.1715,-0.2341 0.2965,-0.2966 0.088,-0.044 0.1977,0 0.2966,0 0.099,0 0.2266,-0.07 0.2965,0 0.07,0.07 -0.044,0.2082 0,0.2966 0.062,0.125 0.234,0.1715 0.2965,0.2965 0.039,0.078 0,1.0311 0,1.1862 0,0.2062 0.054,1.3754 0,1.4827 -0.2813,0.5625 -0.6766,0.084 -1.1861,0.593 -0.07,0.07 0,0.1977 0,0.2966 -0.1977,0.099 -0.3834,0.2266 -0.5931,0.2965 -0.094,0.031 -0.2266,-0.07 -0.2965,0 -0.07,0.07 -0.07,0.2266 0,0.2965 0.07,0.07 0.1977,0 0.2965,0 0.099,0 0.1977,0 0.2965,0 0.7908,0 1.5816,0 2.3723,0 1.285,0 2.57,0 3.855,0 0.2063,0 1.3755,0.054 1.4827,0 1.3572,-0.6785 -1.2583,0.123 0.8897,-0.593 0.094,-0.031 0.1976,0 0.2965,0 0.4414,0 0.3785,0.044 0.8896,-0.2966 0.1163,-0.077 0.1715,-0.234 0.2965,-0.2965 0.1769,-0.088 0.4163,0.088 0.5931,0 0.2501,-0.125 0.343,-0.4681 0.5931,-0.5931 0.088,-0.044 0.2081,0.044 0.2965,0 0.1251,-0.062 0.1977,-0.1977 0.2966,-0.2965 0.099,-0.099 0.1977,-0.1977 0.2965,-0.2966 0.099,-0.099 0.1977,-0.1977 0.2966,-0.2965 0.099,-0.099 0.1715,-0.234 0.2965,-0.2965 0.088,-0.044 0.2266,0.07 0.2965,0 0.07,-0.07 -0.07,-0.2267 0,-0.2966 0.07,-0.07 0.2267,0.07 0.2966,0 0.07,-0.07 -0.07,-0.2266 0,-0.2965 0.07,-0.07 0.2266,0.07 0.2965,0 0.07,-0.07 -0.07,-0.2267 0,-0.2966 0.07,-0.07 0.2266,-0.07 0.2965,0 0.07,0.07 0,0.1977 0,0.2966 0,0.4942 0,0.9884 0,1.4827 0,0.099 -0.07,0.2266 0,0.2965 0.07,0.07 0.2267,-0.07 0.2966,0 0.1483,0.1483 -0.1483,0.7414 0,0.8896 0.07,0.07 0.2266,-0.07 0.2965,0 0.07,0.07 0,0.1977 0,0.2966 0,0.1089 0.012,1.1742 0,1.1861 -0.3954,0.3954 -0.2845,-0.629 -0.5931,0.2966 -0.062,0.1875 0.088,0.4162 0,0.593 -0.3953,0.7908 -0.2965,-0.8896 -0.2965,0.2966 0,0.099 -0.07,0.2266 0,0.2965 0.012,0.012 1.0773,0 1.1862,0 0.099,0 0.2266,-0.07 0.2965,0 0.07,0.07 0,0.1977 0,0.2966 0.099,0 0.2266,-0.07 0.2965,0 0.071,0.071 -0.071,1.1147 0,1.1861 0.07,0.07 0.2267,-0.07 0.2966,0 0.1398,0.1398 -0.1398,0.4533 0,0.5931 0.07,0.07 0.2266,-0.07 0.2965,0 0.07,0.07 -0.07,0.2266 0,0.2965 0.07,0.07 0.2267,-0.07 0.2966,0 0.07,0.07 -0.07,0.2267 0,0.2966 0.07,0.07 0.2266,-0.07 0.2965,0 0.07,0.07 -0.044,0.2081 0,0.2965 0.062,0.125 0.234,0.1715 0.2965,0.2965 0.059,0.1176 -0.061,0.829 0,0.8897 0.07,0.07 0.2267,-0.07 0.2966,0 0.1482,0.1482 -0.1483,0.7413 0,0.8896 0.07,0.07 0.2266,-0.07 0.2965,0 0.1483,0.1482 -0.1483,0.7413 0,0.8896 0.3954,0.3954 0.2965,-0.4942 0.2965,0.2965"
       id="path5099"
       inkscape:connector-curvature="0" />
    <path
       style="fill:none;stroke:#005b9e;stroke-width:1px;stroke-linecap:butt;stroke-linejoin:miter;stroke-opacity:1"
       d="m 1756.6617,1276.4298 c 0.3375,0 1.0125,-0.3375 1.0125,0 0,0.3375 -1.2512,-0.2387 -1.0125,0 0.3042,0.3042 0.8412,0.1824 1.2656,0.2531 0.083,0.014 0.1935,-0.06 0.2531,0 0.06,0.06 -0.038,0.1777 0,0.2531 0.053,0.1067 0.1998,0.1464 0.2531,0.2531 0.1746,0.3492 -0.3065,0.2265 0.2532,0.5063 0.075,0.038 0.1776,-0.038 0.2531,0 0.2134,0.1067 0.2928,0.3995 0.5062,0.5062 0.076,0.038 0.1935,-0.06 0.2532,0 0.1193,0.1194 -0.1194,0.387 0,0.5063 0.5237,0.5237 -0.021,-0.8003 0.5062,0.2531 0.038,0.075 -0.06,0.1935 0,0.2531 0.01,0.01 0.698,0 0.7594,0 0.1193,0 1.2541,0.012 1.2656,0 0.06,-0.06 -0.06,-0.1934 0,-0.2531 0.06,-0.06 0.1777,0.038 0.2531,0 0.1067,-0.053 0.1539,-0.1869 0.2531,-0.2531 0.157,-0.1047 0.3493,-0.1485 0.5063,-0.2531 0.099,-0.066 0.1464,-0.1998 0.2531,-0.2532 0.075,-0.038 0.1935,0.06 0.2531,0 0.06,-0.06 -0.06,-0.1934 0,-0.2531 0.052,-0.052 0.659,0.05 0.7594,0 0.1067,-0.053 0.1464,-0.1997 0.2531,-0.2531 0.075,-0.038 0.1777,0.038 0.2532,0 0.1067,-0.053 0.1687,-0.1688 0.2531,-0.2531 0.1687,-0.084 0.3375,-0.1688 0.5062,-0.2532 0.1688,-0.084 0.3493,-0.1484 0.5063,-0.2531 0.099,-0.066 0.1399,-0.2154 0.2531,-0.2531 0.1601,-0.053 0.3462,0.053 0.5062,0 0.1132,-0.038 0.1539,-0.1869 0.2532,-0.2531 0.1569,-0.1047 0.3272,-0.1935 0.5062,-0.2531 0.08,-0.027 0.1935,0.06 0.2531,0 0.06,-0.06 -0.06,-0.1935 0,-0.2532 0.06,-0.06 0.1935,0.06 0.2532,0 0.06,-0.06 -0.06,-0.1934 0,-0.2531 0.06,-0.06 0.1776,0.038 0.2531,0 0.2491,-0.1245 0.7634,-0.8879 1.0125,-1.0125 0.076,-0.038 0.1776,0.038 0.2531,0 0.2135,-0.1067 0.3077,-0.3739 0.5062,-0.5062 0.157,-0.1047 0.3493,-0.1485 0.5063,-0.2532 0.099,-0.066 0.1399,-0.2153 0.2531,-0.2531 0.1601,-0.053 0.3462,0.053 0.5063,0 0.1132,-0.038 0.1538,-0.1869 0.2531,-0.2531 0.3139,-0.2093 0.6985,-0.2969 1.0125,-0.5063 0.099,-0.066 0.1538,-0.1869 0.2531,-0.2531 0.314,-0.2093 0.675,-0.3375 1.0125,-0.5062 0.1687,-0.084 0.3273,-0.1935 0.5062,-0.2531 0.08,-0.027 0.1731,0.027 0.2532,0 0.179,-0.06 0.3375,-0.1688 0.5062,-0.2532 0.1688,-0.084 0.3729,-0.1197 0.5063,-0.2531 0.1193,-0.1193 -0.076,-0.3553 0,-0.5062 0.053,-0.1068 0.1997,-0.1464 0.2531,-0.2532 0.075,-0.1509 -0.075,-0.3553 0,-0.5062 0.1067,-0.2135 0.3995,-0.2928 0.5062,-0.5063 0.075,-0.1509 -0.1193,-0.3869 0,-0.5062 0.06,-0.06 0.1935,0.06 0.2532,0 0.06,-0.06 -0.038,-0.1777 0,-0.2531 0.5267,-1.0535 -0.017,0.2706 0.5062,-0.2531 0.06,-0.06 -0.06,-0.1935 0,-0.2532 0.06,-0.06 0.1777,0.038 0.2531,0 0.8395,-0.8395 -0.2386,0.1194 0.5063,-0.2531 0.1067,-0.053 0.1399,-0.2154 0.2531,-0.2531 0.1722,-0.057 1.1314,0.067 1.2656,0 0.1067,-0.053 0.1464,-0.1998 0.2531,-0.2531 0.075,-0.038 0.1935,0.06 0.2532,0 0.1193,-0.1194 -0.1194,-0.387 0,-0.5063 0.06,-0.06 0.1934,0.06 0.2531,0 0.06,-0.06 -0.06,-0.1935 0,-0.2531 0.06,-0.06 0.1934,0.06 0.2531,0 0.1266,-0.1266 -0.1266,-0.6328 0,-0.7594 0.06,-0.06 0.1688,0 0.2531,0 0.084,0 0.1688,0 0.2531,0 0.5063,0 1.0125,0 1.5188,0 0.114,0 0.6823,-0.038 0.7594,0 0.5119,0.256 0.081,0.5874 0.2531,0.7594 0.06,0.06 0.2154,-0.075 0.2531,0 0.075,0.1509 -0.053,0.3461 0,0.5062 0.075,0.2264 0.3739,0.3077 0.5063,0.5063 0.1046,0.157 0.096,0.4016 0.2531,0.5062 0.1404,0.094 0.3425,-0.041 0.5062,0 0.3661,0.091 0.6464,0.4148 1.0125,0.5063 0.1637,0.041 0.3375,0 0.5063,0 0.3375,0 0.675,0 1.0125,0 0.084,0 0.1687,0 0.2531,0 0.084,0 0.1934,-0.06 0.2531,0 0.1689,0.1688 -0.1689,0.3374 0,0.5062 0.06,0.06 0.1935,-0.06 0.2531,0 10e-4,10e-4 0,0.7509 0,0.7594 0.091,0.3661 0.4148,0.6464 0.5063,1.0125 0.041,0.1637 -0.041,0.3425 0,0.5062 0.1021,0.4087 0.2489,0.5021 0.5062,0.7594 0.084,0.084 0.1998,0.1464 0.2531,0.2531 0.038,0.075 -0.038,0.1777 0,0.2531 0.053,0.1068 0.1464,0.1998 0.2532,0.2532 0.067,0.033 0.8801,0 1.0125,0 0.084,0 0.1934,-0.06 0.2531,0 0.1265,0.1265 -0.1266,0.6328 0,0.7593 0.06,0.06 0.1934,-0.06 0.2531,0 0.06,0.06 -0.06,0.1935 0,0.2532 0.054,0.054 0.8729,-0.046 1.0125,0 0.179,0.06 0.3273,0.1934 0.5062,0.2531 0.099,0.033 0.7201,-0.039 0.7594,0 0.06,0.06 -0.06,0.1934 0,0.2531 0.06,0.06 0.1935,-0.06 0.2531,0 0.06,0.06 0,0.1688 0,0.2531 0,0.1688 0,0.3375 0,0.5063 0,0.7594 0,1.5187 0,2.2781 0,0.4219 0,0.8437 0,1.2656 0,0.084 0.06,0.1935 0,0.2531 -0.06,0.06 -0.1934,-0.06 -0.2531,0 -0.06,0.06 0,0.1688 0,0.2532 0,0.6749 0,1.3499 0,2.0249 0,0.061 0.01,0.7513 0,0.7594 -0.06,0.06 -0.1934,-0.06 -0.2531,0 -0.06,0.06 0.06,0.1935 0,0.2531 -0.06,0.06 -0.1935,-0.06 -0.2531,0 -0.06,0.06 0.06,0.1935 0,0.2532 -0.06,0.06 -0.1935,-0.06 -0.2532,0 -0.06,0.06 0.06,0.1934 0,0.2531 -0.06,0.06 -0.1934,-0.06 -0.2531,0 -0.06,0.06 0.038,0.1776 0,0.2531 -0.053,0.1067 -0.1997,0.1464 -0.2531,0.2531 -0.1592,0.3184 0.3635,0.5063 -0.2531,0.5063 0.2531,-0.3375 0.5423,-0.6508 0.7593,-1.0125 0.043,-0.072 -0.06,-0.1935 0,-0.2531 0.06,-0.06 0.1935,0.06 0.2532,0 0.06,-0.06 0,-0.1688 0,-0.2532 0,-0.084 0,-0.1687 0,-0.2531 0,-0.675 0,-1.35 0,-2.025 0,-0.8437 0,-1.6875 0,-2.5312 0,-0.084 0,-0.1688 0,-0.2531 0,-0.084 0.038,-0.1777 0,-0.2532 -0.053,-0.1067 -0.1338,-0.2531 -0.2532,-0.2531 -0.084,0 -0.084,0.2531 0,0.2531 0.084,0 0.06,-0.1934 0,-0.2531 -0.083,-0.083 -0.8293,0.061 -1.0124,0 -0.1132,-0.038 -0.14,-0.2154 -0.2532,-0.2531 -0.1601,-0.053 -0.3425,0.041 -0.5062,0 -0.3661,-0.091 -0.6464,-0.4147 -1.0125,-0.5062 -0.1991,-0.05 -1.2555,0 -1.5188,0 -0.084,0 -0.1776,0.038 -0.2531,0 -0.1067,-0.053 -0.1464,-0.1998 -0.2531,-0.2532 -0.1509,-0.076 -0.3869,0.1194 -0.5062,0 -0.06,-0.06 0,-0.1687 0,-0.2531 0,-0.4455 0.2093,-0.5062 -0.2532,-0.5062 -0.084,0 -0.1699,-0.014 -0.2531,0 -0.4244,0.071 -0.8575,0.117 -1.2656,0.2531 -0.358,0.1193 -0.6677,0.353 -1.0125,0.5062 -0.4152,0.1846 -0.8504,0.3217 -1.2656,0.5063 -0.3448,0.1532 -0.6657,0.3576 -1.0125,0.5062 -0.2453,0.1051 -0.5306,0.1159 -0.7594,0.2531 -0.2046,0.1228 -0.2928,0.3996 -0.5062,0.5063 -0.151,0.075 -0.3408,-0.033 -0.5063,0 -0.2616,0.052 -0.5062,0.1687 -0.7593,0.2531 -0.084,0.084 -0.14,0.2154 -0.2532,0.2531 -0.136,0.045 -0.7982,0 -1.0125,0 -0.1687,0 -0.3375,0 -0.5062,0 -0.084,0 -0.1935,0.06 -0.2531,0 -0.06,-0.06 0.06,-0.1934 0,-0.2531 -0.06,-0.06 -0.1777,0.038 -0.2532,0 -0.1067,-0.053 -0.1399,-0.2154 -0.2531,-0.2531 -0.1601,-0.053 -0.3375,0 -0.5062,0 -0.2531,0 -0.5063,0 -0.7594,0 -0.5906,0 -1.1812,0 -1.7719,0 -0.1687,0 -0.3375,0 -0.5062,0 -0.1688,0 -0.3462,0.053 -0.5063,0 -0.1132,-0.038 -0.1463,-0.1998 -0.2531,-0.2531 -0.1003,-0.05 -0.7076,0.052 -0.7593,0 -0.06,-0.06 0.038,-0.1777 0,-0.2532 -0.053,-0.1067 -0.1998,-0.1464 -0.2532,-0.2531 -0.038,-0.075 0.06,-0.1934 0,-0.2531 -0.06,-0.06 -0.1776,0.038 -0.2531,0 -1.0534,-0.5267 0.2706,0.017 -0.2531,-0.5062 -0.06,-0.06 -0.1935,0.06 -0.2531,0 -0.01,-0.01 0,-0.698 0,-0.7594 0,-0.343 0.056,-1.6044 0,-1.7719 -0.038,-0.1132 -0.1998,-0.1464 -0.2532,-0.2531 -0.038,-0.075 0.06,-0.1935 0,-0.2531 -0.031,-0.031 -0.8537,0 -1.0125,0 -0.294,0 -1.0361,-0.057 -1.2656,0 -0.183,0.046 -0.3375,0.1687 -0.5062,0.2531 -0.1688,0.084 -0.3493,0.1485 -0.5063,0.2531 -0.099,0.066 -0.1538,0.187 -0.2531,0.2531 -0.157,0.1047 -0.3375,0.1688 -0.5062,0.2532 -0.084,0 -0.1777,-0.038 -0.2532,0 -0.1067,0.053 -0.1464,0.1997 -0.2531,0.2531 -0.1591,0.08 -0.8534,-0.08 -1.0125,0 -0.1067,0.053 -0.1464,0.1997 -0.2531,0.2531 -0.075,0.038 -0.1777,-0.038 -0.2531,0 -0.1067,0.053 -0.1464,0.1998 -0.2531,0.2531 -0.1688,0.084 -0.7882,-0.2264 -0.7594,0.2532 -0.2304,0.1536 -0.535,0.6472 -0.7594,0.7593 -0.076,0.038 -0.1776,-0.038 -0.2531,0 -0.1067,0.053 -0.1464,0.1998 -0.2531,0.2532 -0.076,0.038 -0.1731,-0.027 -0.2532,0 -0.1789,0.06 -0.3232,0.2073 -0.5062,0.2531 -0.1637,0.041 -0.3462,-0.053 -0.5062,0 -0.1132,0.038 -0.1464,0.1997 -0.2532,0.2531 -0.075,0.038 -0.173,-0.027 -0.2531,0 -0.179,0.06 -0.3375,0.1687 -0.5062,0.2531 -0.1688,0 -0.3426,-0.041 -0.5063,0 -0.183,0.046 -0.3232,0.2074 -0.5062,0.2531 -0.1637,0.041 -0.3375,0 -0.5063,0 -1.4336,0 -1.0718,0.2027 -2.5312,-0.7593 z"
       id="path5150"
       inkscape:connector-curvature="0" />
    <path
       inkscape:connector-curvature="0"
       id="path4186-0-4"
       style="fill:#000000;fill-opacity:1;fill-rule:evenodd;stroke:none"
       d="m 1759.0583,1276.8718 c 0,1.3833 -1.1214,2.5046 -2.5047,2.5046 -1.3822,0 -2.5047,-1.1213 -2.5047,-2.5046 0,-1.3833 1.1225,-2.5047 2.5047,-2.5047 1.3833,0 2.5047,1.1214 2.5047,2.5047" />
    <path
       style="fill:none;stroke:#005b9e;stroke-width:1px;stroke-linecap:butt;stroke-linejoin:miter;stroke-opacity:1"
       d="m 1756.5432,1277.025 c 0.8692,-0.8006 0.7618,-0.7695 1.539,-0.7695 0.085,0 0.196,0.061 0.2564,0 0.061,-0.061 -0.038,-0.18 0,-0.2565 0.5338,-1.0675 -0.018,0.2742 0.513,-0.2565 0.061,-0.061 -0.061,-0.196 0,-0.2565 0.5307,-0.5307 -0.021,0.811 0.513,-0.2565 0.038,-0.076 -0.06,-0.196 0,-0.2565 0.06,-0.061 0.18,0.038 0.2565,0 0.2163,-0.1081 0.2967,-0.4048 0.513,-0.5129 0.077,-0.038 0.18,0.038 0.2565,0 0.1081,-0.054 0.171,-0.171 0.2565,-0.2565 0.2934,-0.2935 0.3036,-0.3577 0.7694,-0.513 0.1622,-0.054 0.3601,0.077 0.513,0 0.1082,-0.054 0.1484,-0.2024 0.2565,-0.2565 0.077,-0.038 0.196,0.061 0.2565,0 0.06,-0.061 -0.061,-0.196 0,-0.2565 0.06,-0.061 0.196,0.061 0.2565,0 0.06,-0.061 -0.061,-0.196 0,-0.2565 0.012,-0.012 1.1615,0 1.2824,0 0.121,0 1.2709,-0.012 1.2825,0 0.061,0.061 -0.06,0.196 0,0.2565 0.061,0.061 0.196,-0.061 0.2565,0 0.06,0.061 -0.061,0.196 0,0.2565 0.5307,0.5307 -0.021,-0.811 0.513,0.2565 0.038,0.077 -0.061,0.196 0,0.2565 0.061,0.06 0.196,-0.061 0.2564,0 0.061,0.06 -0.061,0.196 0,0.2565 0.061,0.06 0.1961,-0.061 0.2565,0 0.1209,0.1209 -0.076,0.36 0,0.5129 0.054,0.1082 0.2025,0.1484 0.2565,0.2565 0.1372,0.2743 -0.1371,0.2387 0,0.513 0.054,0.1082 0.2024,0.1484 0.2565,0.2565 0.051,0.1017 -0.052,0.717 0,0.7695 0.061,0.061 0.1961,-0.061 0.2565,0 0.1209,0.1209 -0.077,0.36 0,0.513 0.054,0.1081 0.2024,0.1483 0.2565,0.2564 0.038,0.076 -0.06,0.1961 0,0.2565 0.061,0.061 0.196,-0.061 0.2565,0 0.061,0.061 -0.061,0.1961 0,0.2565 0.061,0.061 0.196,-0.061 0.2565,0 0.061,0.061 -0.061,0.1961 0,0.2565 0.061,0.061 0.18,-0.038 0.2565,0 0.1081,0.054 0.1483,0.2024 0.2565,0.2565 0.1529,0.077 0.392,-0.1209 0.5129,0 0.061,0.061 -0.061,0.196 0,0.2565 0.07,0.07 0.8869,-0.07 1.026,0 0.1081,0.054 0.1483,0.2024 0.2565,0.2565 0.093,0.046 1.104,0 1.2824,0 0.086,0 0.1961,0.061 0.2565,0 0.06,-0.061 -0.061,-0.196 0,-0.2565 0.06,-0.061 0.1961,0.06 0.2565,0 0.1209,-0.1209 -0.1209,-0.3921 0,-0.513 0.061,-0.061 0.171,0 0.2565,0 0.2149,0 1.1734,-0.054 1.2825,0 0.076,0.038 -0.077,0.2183 0,0.2565 0.5129,0.2565 0.3847,-0.1282 0.7694,0 0.4659,0.1553 0.476,0.2195 0.7695,0.513 0.085,0.085 0.1483,0.2024 0.2565,0.2565 0.076,0.038 0.2565,-0.085 0.2565,0 0,0.085 -0.342,0 -0.2565,0 1.7013,0 -0.3627,-0.1209 0.7695,0.2565 0.1459,0.049 1.0408,0 1.2824,0 0.086,0 0.171,0 0.2565,0 0.086,0 0.18,-0.038 0.2565,0 0.1081,0.054 0.1483,0.2024 0.2565,0.2565 0.076,0.038 0.196,-0.06 0.2565,0 0.061,0.061 -0.038,0.18 0,0.2564 0.067,0.1335 1.0039,1.0084 1.0259,1.026 0.2407,0.1926 0.513,0.342 0.7695,0.513 0.2565,0.2565 0.4908,0.5372 0.7695,0.7695 1.2717,1.0597 0.2809,0.1017 1.2824,0.7694 0.4154,0.2769 0.18,0.513 0.7695,0.513 0.085,0 0.196,0.06 0.2565,0 0.061,-0.061 0,-0.171 0,-0.2565 0,-0.2565 0,-0.513 0,-0.7695 0,-0.6839 0,-1.3679 0,-2.0519 0,-0.171 0,-0.342 0,-0.513 0,-0.1709 -0.054,-0.3507 0,-0.5129 0.133,-0.3992 0.7205,-0.2565 1.026,-0.2565 0.062,0 0.7612,-0.01 0.7694,0 0.061,0.061 -0.061,0.196 0,0.2565 0.061,0.061 0.18,-0.038 0.2565,0 0.1082,0.054 0.171,0.171 0.2565,0.2565 0.085,0.086 0.2024,0.1483 0.2565,0.2564 0.038,0.077 -0.061,0.1961 0,0.2565 0.5307,0.5307 -0.021,-0.8109 0.513,0.2565 0.038,0.076 -0.061,0.1961 0,0.2565 0.061,0.061 0.18,-0.038 0.2565,0 0.1081,0.054 0.1483,0.2024 0.2565,0.2565 0.077,0.038 0.196,-0.061 0.2564,0 0.061,0.061 -0.06,0.196 0,0.2565 0.01,0.01 0.7073,0 0.7695,0 0.8256,0 -0.4378,-0.061 0.513,0.2565 0.1313,0.044 1.3556,0 1.5389,0 0.086,0 0.171,0 0.2565,0 0.086,0 0.1961,-0.06 0.2565,0 0.1209,0.1209 -0.1209,0.3921 0,0.513 0.06,0.061 0.1961,-0.061 0.2565,0 0.061,0.061 0,0.171 0,0.2565 0,0.5984 0,1.1969 0,1.7954"
       id="path25844"
       inkscape:connector-curvature="0" />
    <ellipse
       ry="11.157325"
       rx="1.6671865"
       cy="1273.4341"
       cx="1782.4487"
       style="opacity:0.7;fill:#000000;fill-opacity:1;stroke:#000000;stroke-width:1;stroke-linecap:round;stroke-linejoin:round;stroke-miterlimit:4;stroke-opacity:1;stroke-dasharray:none;stroke-dashoffset:0"
       id="path24168-7"
       d="m 1784.1159,1273.4341 a 1.6671865,11.157325 0 0 1 -1.6672,11.1573 1.6671865,11.157325 0 0 1 -1.6672,-11.1573 1.6671865,11.157325 0 0 1 1.6672,-11.1573 1.6671865,11.157325 0 0 1 1.6672,11.1573 z" />
    <path
       style="fill:none;stroke:#005b9e;stroke-width:1px;stroke-linecap:butt;stroke-linejoin:miter;stroke-opacity:1"
       d="m 1640.0598,1257.5255 c 0.2641,0 0.5307,0.037 0.7921,0 0.1169,-0.017 0.2023,-0.1298 0.3169,-0.1584 0.1024,-0.026 0.2132,0.021 0.3168,0 0.1637,-0.033 0.3105,-0.131 0.4753,-0.1585 0.1562,-0.026 0.3189,0.026 0.4752,0 0.1647,-0.027 0.3105,-0.1309 0.4753,-0.1584 1.2085,0 -0.125,0.071 0.7921,-0.1584 0.1024,-0.026 0.2143,0.026 0.3168,0 0.327,-0.082 0.4084,-0.3168 0.7921,-0.3168 0.053,0 0.1056,0 0.1584,0 0.053,0 0.1211,0.037 0.1584,0 0.037,-0.037 -0.037,-0.1211 0,-0.1584 0.037,-0.037 0.1056,0 0.1584,0 0.053,0 0.1211,-0.037 0.1585,0 0.037,0.037 -0.024,0.1111 0,0.1584 0.033,0.067 0.1056,0.1056 0.1584,0.1584 0,0.1056 -0.026,0.2144 0,0.3168 0.029,0.1146 0.1211,0.2048 0.1584,0.3169 0.017,0.05 -0.013,0.1072 0,0.1584 0.041,0.162 0.131,0.3105 0.1584,0.4752 0.026,0.1563 -0.031,0.32 0,0.4753 0.023,0.1158 0.1353,0.201 0.1584,0.3168 0.031,0.1554 -0.026,0.319 0,0.4753 0.027,0.1647 0.1056,0.3168 0.1585,0.4752 0,0.2113 -0.03,0.4246 0,0.6337 0.024,0.1653 0.1256,0.3115 0.1584,0.4753 0.021,0.1035 -0.021,0.2133 0,0.3168 0.033,0.1638 0.1309,0.3106 0.1584,0.4753 0.026,0.1562 -0.031,0.3199 0,0.4752 0.023,0.1158 0.1353,0.2011 0.1584,0.3169 0.031,0.1553 -0.026,0.319 0,0.4752 0.028,0.1647 0.1257,0.3115 0.1584,0.4753 0.021,0.1035 -0.026,0.2144 0,0.3168 0.029,0.1146 0.1056,0.2112 0.1584,0.3168 0.053,0.1057 0.093,0.2186 0.1585,0.3169 0.041,0.062 0.1348,0.088 0.1584,0.1584 0.033,0.1002 -0.033,0.2166 0,0.3168 0.024,0.071 0.117,0.096 0.1584,0.1585 0.065,0.098 0.093,0.2185 0.1584,0.3168 0.041,0.062 0.117,0.096 0.1584,0.1584 0.065,0.098 0.075,0.2334 0.1585,0.3169 0.083,0.083 0.2333,0.075 0.3168,0.1584 0.3848,0.3847 -0.047,0.2326 0.3168,0.4752 0.098,0.065 0.2334,0.075 0.3169,0.1584 0.083,0.084 0.088,0.2224 0.1584,0.3169 0.2218,0.2957 0.5703,0.4964 0.7921,0.7921 0.071,0.094 0.075,0.2333 0.1584,0.3168 0.8096,0.8096 -0.221,-0.6642 0.6337,0.4753 0.071,0.095 0.075,0.2333 0.1584,0.3168 0.3848,0.3848 0.2326,-0.047 0.4752,0.3168 0.02,0.029 0.3067,0.6236 0.3169,0.6337 0.037,0.037 0.1211,-0.037 0.1584,0 0.083,0.084 0.093,0.2186 0.1584,0.3169 0.083,0.1242 0.2696,0.1751 0.3169,0.3168 0.2286,0.6859 -0.3029,-0.058 0.1584,0.6337 0.041,0.062 0.117,0.096 0.1584,0.1584 0.065,0.098 0.093,0.2186 0.1584,0.3168 0.083,0.1243 0.2501,0.1833 0.3169,0.3169 0.024,0.047 -0.017,0.1083 0,0.1584 0.037,0.112 0.121,0.2048 0.1584,0.3168 0.017,0.05 -0.017,0.1083 0,0.1584 0.037,0.1121 0.1298,0.2023 0.1584,0.3169 0.026,0.1024 -0.021,0.2132 0,0.3168 0.033,0.1638 0.1056,0.3168 0.1584,0.4753 0.1056,0.3168 0.2112,0.6336 0.3168,0.9505 0.053,0.1584 0.1257,0.3115 0.1585,0.4752 0.021,0.1036 -0.021,0.2133 0,0.3169 0.033,0.1637 0.1309,0.3105 0.1584,0.4752 0.026,0.1563 -0.031,0.3199 0,0.4753 0.023,0.1158 0.1298,0.2023 0.1584,0.3168 0.051,0.2049 -0.041,0.4266 0,0.6337 0.033,0.1637 0.131,0.3105 0.1584,0.4752 0.026,0.1563 -0.031,0.32 0,0.4753 0.023,0.1158 0.1353,0.2011 0.1584,0.3168 0.031,0.1554 -0.031,0.32 0,0.4753 0.023,0.1158 0.1353,0.201 0.1585,0.3168 0.031,0.1554 -0.026,0.319 0,0.4753 -0.055,0.3223 0.261,0.5132 0.3168,0.7921 0.031,0.1553 -0.026,0.319 0,0.4752 0.027,0.1648 0.1056,0.3169 0.1584,0.4753 0.053,0.1584 0.084,0.3259 0.1584,0.4752 0.2416,0.4832 0.1256,-0.2897 0.3169,0.4753 0.1371,0.5487 -0.2006,0.095 0.1584,0.6337 0.1243,0.1864 0.3408,0.296 0.4752,0.4752 0.071,0.094 0.088,0.2224 0.1585,0.3169 0.09,0.1195 0.2112,0.2112 0.3168,0.3168 0.1056,0.1056 0.1973,0.2272 0.3168,0.3168 0.189,0.1417 0.4448,0.1752 0.6337,0.3169 0.1195,0.09 0.1974,0.2272 0.3168,0.3168 0.094,0.071 0.2113,0.1056 0.3169,0.1584 0.743,0.3716 -0.1867,-0.075 0.7921,0.3169 0.7179,0.2871 0.022,0.015 0.4752,0.3168 0.029,0.02 0.6236,0.3067 0.6337,0.3169 0.084,0.084 0.06,0.2513 0.1584,0.3168 0.088,0.059 0.2144,-0.026 0.3169,0 0.2867,-0.095 0.2946,0.2566 0.4752,0.3168 0.1002,0.033 0.2144,-0.026 0.3169,0 0.2867,-0.095 0.2946,0.2567 0.4752,0.3169 0.1002,0.033 0.2422,-0.075 0.3168,0 0.075,0.075 -0.033,0.2166 0,0.3168 0.032,0.097 0.5447,0.5002 0.6337,0.6337 0.359,0.5385 0.021,0.085 0.1584,0.6336 0.2586,1.0343 0.085,-0.5985 0.3169,0.7921 0.026,0.1563 0,0.3169 0,0.4753 0.053,0.1584 0.1256,0.3115 0.1584,0.4753 0.041,0.2071 -0.051,0.4287 0,0.6336 0.029,0.1146 0.1056,0.2113 0.1584,0.3169 0,0.1584 -0.031,0.3199 0,0.4752 0.046,0.2316 0.2422,0.4097 0.3169,0.6337 0.069,0.2065 0.1276,0.4181 0.1584,0.6337 0.022,0.1568 -0.026,0.319 0,0.4752 0.055,0.3295 0.2251,0.6294 0.3168,0.9505 0.1196,0.4187 0.2112,0.8449 0.3168,1.2674 0.053,0.2112 0.1277,0.4181 0.1585,0.6337 0.022,0.1568 -0.022,0.3184 0,0.4752 0.1968,1.3781 0.091,-0.019 0.3168,1.1089 0.021,0.1036 -0.026,0.2144 0,0.3169 0.029,0.1145 0.1298,0.2023 0.1584,0.3168 0.026,0.1025 -0.026,0.2144 0,0.3169 0.029,0.1145 0.1298,0.2022 0.1584,0.3168 0.026,0.1025 -0.047,0.2224 0,0.3168 0.024,0.047 0.1112,-0.024 0.1585,0 0.1335,0.067 0.1832,0.2501 0.3168,0.3169 0.047,0.024 0.1211,-0.037 0.1584,0 0.037,0.037 -0.037,0.121 0,0.1584 0.037,0.037 0.1112,-0.024 0.1584,0 0.067,0.033 0.096,0.117 0.1585,0.1584 0.8003,0.5335 0,0 0.4752,0.1584 0.5743,0.1915 0.1128,0.075 0.4753,0.3169 0.098,0.065 0.2186,0.093 0.3168,0.1584 0.2331,0.1554 0.4006,0.4782 0.6337,0.6337 0.098,0.065 0.2333,0.075 0.3168,0.1584 0.037,0.037 -0.017,0.1083 0,0.1584 0.037,0.112 0.075,0.2333 0.1584,0.3168 0.037,0.037 0.1112,-0.024 0.1584,0 0.067,0.033 0.1057,0.1056 0.1585,0.1584 0.053,0.053 0.125,0.092 0.1584,0.1585 0.024,0.047 -0.017,0.1083 0,0.1584 0.043,0.1278 0.3981,0.8476 0.4752,0.9505 0.09,0.1195 0.2273,0.1973 0.3169,0.3168 0.1417,0.189 0.1953,0.4312 0.3168,0.6337 0.098,0.1633 0.2461,0.2985 0.3169,0.4753 0.039,0.098 -0.026,0.2143 0,0.3168 0.029,0.1146 0.121,0.2048 0.1584,0.3168 0.033,0.099 0,0.5062 0,0.6337 0,0.4225 0,0.8449 0,1.2674 0,0.264 0,0.528 0,0.7921 0,0.1041 -0.03,0.3858 0,0.4752 0.037,0.112 0.121,0.2048 0.1584,0.3168 0.017,0.05 -0.024,0.1112 0,0.1585 0.033,0.067 0.125,0.092 0.1584,0.1584 0.024,0.047 -0.024,0.1112 0,0.1584 0.033,0.067 0.125,0.092 0.1584,0.1584 0.024,0.047 -0.037,0.1211 0,0.1584 0.037,0.037 0.1211,-0.037 0.1584,0 0.037,0.037 -0.037,0.1211 0,0.1585 0.037,0.037 0.1211,-0.037 0.1585,0 0.01,0.01 0,0.4368 0,0.4752 0,0.053 0.037,0.1211 0,0.1584 -0.037,0.037 -0.1056,0 -0.1585,0 -0.2112,0 -0.4224,0 -0.6336,0 -0.6484,0 0.4662,-0.037 -0.3169,0.1584 -0.141,0.035 -0.8985,0 -1.1089,0 -0.1056,0 -0.2166,-0.033 -0.3168,0 -0.071,0.024 -0.088,0.1349 -0.1585,0.1585 -0.1001,0.033 -0.2143,-0.026 -0.3168,0 -0.1145,0.029 -0.201,0.1352 -0.3168,0.1584 -0.1554,0.031 -0.3169,0 -0.4753,0 -0.3168,0 -0.6337,0 -0.9505,0 -0.2112,0 -0.4253,-0.035 -0.6337,0 -0.1164,0.019 -0.2003,0.139 -0.3168,0.1584 -0.3125,0.052 -0.6337,0 -0.9505,0 -0.6337,0 -1.2674,0 -1.901,0 -0.3697,0 -0.7393,0 -1.109,0 -0.1056,0 -0.2143,0.026 -0.3168,0 -0.2867,0.095 -0.2946,-0.2566 -0.4753,-0.3168 -0.2003,-0.067 -0.4333,0.067 -0.6336,0 -0.1073,-0.036 -0.3543,-0.4148 -0.4753,-0.4753 -0.047,-0.024 -0.1211,0.037 -0.1584,0 -0.037,-0.037 0.037,-0.1211 0,-0.1584 -0.014,-0.014 -0.3966,-0.026 -0.4753,0 -0.112,0.037 -0.2112,0.1056 -0.3168,0.1584 -0.1056,0.053 -0.2224,0.088 -0.3168,0.1584 -0.1195,0.09 -0.1974,0.2273 -0.3169,0.3169 -0.094,0.071 -0.2112,0.1056 -0.3168,0.1584 -1.0199,0.5099 0.5782,-0.2705 -0.7921,0.3168 -0.3673,0.1574 -0.7036,0.4077 -1.1089,0.4753 -0.5545,0.092 -0.4929,-0.1232 -1.109,0 -0.3275,0.065 -0.6283,0.2289 -0.9505,0.3168 -0.3362,0.3204 -0.8824,0.081 -1.2673,0.1584 -0.1158,0.023 -0.2023,0.1298 -0.3169,0.1585 -0.1024,0.026 -0.2143,-0.026 -0.3168,0 -0.1146,0.029 -0.2048,0.121 -0.3168,0.1584 -0.05,0.017 -0.1084,-0.017 -0.1585,0 -0.224,0.075 -0.4096,0.2421 -0.6336,0.3168 -0.087,0.029 -0.9851,0 -1.109,0 -0.1056,0 -0.2112,0 -0.3168,0 -0.1056,0 -0.2188,0.039 -0.3168,0 -0.1768,-0.071 -0.31,-0.2224 -0.4753,-0.3168 -2.3075,-1.3186 0.6684,0.4134 -1.1089,-0.4753 -0.1703,-0.085 -0.3003,-0.2418 -0.4753,-0.3168 -0.2001,-0.086 -0.4389,-0.061 -0.6337,-0.1584 -1.0315,-0.5158 0.3158,-0.1588 -0.6336,-0.4753 -1.3869,-0.4623 0.2327,0.1719 -1.5842,-0.1584 -0.2798,-0.051 -0.5178,-0.242 -0.7921,-0.3169 -2.507,-0.6837 0.436,0.2377 -1.7426,-0.1584 -0.3286,-0.06 -0.6337,-0.2112 -0.9505,-0.3168 -0.3697,0 -0.743,0.052 -1.109,0 -0.3805,-0.054 -0.7278,-0.266 -1.1089,-0.3168 -0.4187,-0.056 -0.8449,0 -1.2673,0 -0.3697,0 -0.7393,0 -1.109,0 -0.6864,0 -1.3729,0 -2.0594,0 -0.3168,0 -0.638,-0.052 -0.9505,0 -0.3294,0.055 -0.623,0.2513 -0.9505,0.3168 -0.2072,0.041 -0.4246,-0.03 -0.6337,0 -0.1653,0.024 -0.3099,0.1348 -0.4753,0.1584 -0.3659,0.052 -0.7464,-0.072 -1.1089,0 -0.1158,0.023 -0.2048,0.1211 -0.3168,0.1584 -0.05,0.017 -0.1083,-0.017 -0.1584,0 -0.3675,0.1225 -0.7906,0.4427 -1.109,0.6337 -1.2178,0.7307 0.9597,-0.6926 -0.7921,0.4753 -0.1584,0.1056 -0.3049,0.2317 -0.4752,0.3168 -0.1494,0.075 -0.3321,0.072 -0.4753,0.1584 -0.4509,0.2705 -0.1433,0.3527 -0.6337,0.4753 -0.1436,0.036 -0.608,0 -0.792,0 -0.109,0 -0.8583,0.031 -0.9506,0 -0.224,-0.075 -0.4144,-0.2292 -0.6336,-0.3169 -0.1551,-0.062 -0.3115,-0.1256 -0.4753,-0.1584 -0.1035,-0.021 -0.2224,0.047 -0.3168,0 -0.1336,-0.067 -0.1926,-0.234 -0.3169,-0.3168 -0.088,-0.059 -0.2166,0.033 -0.3168,0 -0.1056,-0.053 -0.2112,-0.1056 -0.3168,-0.1584 -0.053,0 -0.1084,0.017 -0.1585,0 -0.112,-0.037 -0.2048,-0.1211 -0.3168,-0.1585 -0.05,-0.017 -0.1112,0.024 -0.1584,0 -0.067,-0.033 -0.092,-0.125 -0.1584,-0.1584 -0.047,-0.024 -0.1112,0.024 -0.1584,0 -0.067,-0.033 -0.092,-0.125 -0.1585,-0.1584 -0.096,-0.048 -0.8543,0.048 -0.9505,0 -0.067,-0.033 -0.088,-0.1348 -0.1584,-0.1584 -0.1002,-0.033 -0.2112,0 -0.3168,0 -0.2291,0 -0.9417,0.034 -1.109,0 -1.1463,-0.2293 0.7241,-0.1584 -0.7921,-0.1584 -0.3168,0 -0.6336,0 -0.9505,0 -0.1584,0 -0.3168,0 -0.4752,0 -0.1056,0 -0.2127,0.017 -0.3169,0 -0.2147,-0.036 -0.4181,-0.1277 -0.6336,-0.1585 -0.1569,-0.022 -0.3185,0.022 -0.4753,0 -0.4029,0.026 -0.7284,-0.2624 -1.1089,-0.3168 -0.2091,-0.03 -0.4225,0 -0.6337,0 -0.1584,0 -0.3168,0 -0.4753,0 -0.792,0 -1.5841,0 -2.3762,0 -0.2641,0 -0.5281,0 -0.7921,0 -0.2112,0 -0.4246,0.03 -0.6337,0 -0.1653,-0.024 -0.3115,-0.1257 -0.4753,-0.1584 -0.1035,-0.021 -0.2112,0 -0.3168,0 -0.1056,-0.053 -0.2048,-0.1211 -0.3168,-0.1584 -0.05,-0.017 -0.1211,0.037 -0.1584,0 -0.037,-0.037 0.037,-0.1211 0,-0.1584 -0.3278,-0.3278 0.013,0.5008 -0.3169,-0.1585 -0.031,-0.063 0.032,-0.4428 0,-0.4752 -0.037,-0.037 -0.1211,0.037 -0.1584,0 -0.037,-0.037 0,-0.1056 0,-0.1584 0,-0.053 0,-0.1056 0,-0.1585 0,-0.071 -0.024,-0.427 0,-0.4752 0.07,-0.1404 0.3791,-0.3311 0.4753,-0.4753 0.066,-0.098 0.093,-0.2186 0.1584,-0.3168 0.083,-0.1243 0.234,-0.1926 0.3168,-0.3168 0.1539,-0.2309 0.099,-0.33 0.3168,-0.4753 0.098,-0.065 0.2113,-0.1056 0.3169,-0.1584 0.1056,-0.1056 0.1973,-0.2272 0.3168,-0.3169 0.095,-0.071 0.2224,-0.088 0.3169,-0.1584 0.2389,-0.1792 0.3947,-0.4544 0.6336,-0.6336 0.094,-0.071 0.2334,-0.075 0.3169,-0.1585 0.083,-0.083 0.087,-0.2223 0.1584,-0.3168 0.09,-0.1195 0.2112,-0.2112 0.3168,-0.3168 0.1056,-0.1057 0.2272,-0.1974 0.3169,-0.3169 0.053,-0.1056 0.1056,-0.2112 0.1584,-0.3168 0.053,-0.1056 0.088,-0.2224 0.1584,-0.3168 0.09,-0.1195 0.2272,-0.1974 0.3168,-0.3169 0.1417,-0.1889 0.1752,-0.4447 0.3169,-0.6337 0.3426,-0.4568 0.2289,-0.2054 0.6336,-0.4752 0.062,-0.041 0.1057,-0.1056 0.1585,-0.1584 0.1056,-0.1056 0.2112,-0.2113 0.3168,-0.3169 0.1056,-0.1056 0.2112,-0.2112 0.3168,-0.3168 0.053,-0.053 0.117,-0.096 0.1585,-0.1584 0.131,-0.1965 0.1858,-0.4372 0.3168,-0.6337 0.1932,-0.2899 0.202,-0.016 0.3168,-0.4753 0.026,-0.1024 -0.026,-0.2143 0,-0.3168 0.029,-0.1145 0.1353,-0.201 0.1585,-0.3168 0.031,-0.1554 0,-0.3169 0,-0.4753 0,-0.1584 0,-0.3168 0,-0.4752 0,-0.1057 -0.021,-0.2133 0,-0.3169 0.033,-0.1637 0.1179,-0.3132 0.1584,-0.4752 0.013,-0.051 0,-0.1056 0,-0.1585 0,-0.264 0,-0.528 0,-0.792 0,-0.2641 0,-0.5281 0,-0.7921 0,-0.1057 0.021,-0.2133 0,-0.3169 -0.4342,-1.3025 0.056,0.334 -0.1584,-0.9505 -0.027,-0.1647 -0.1257,-0.3115 -0.1585,-0.4752 -0.021,-0.1036 0,-0.2113 0,-0.3169 0,-0.2112 0,-0.4224 0,-0.6337 0,-0.2112 0,-0.4224 0,-0.6336 0,-0.1056 -0.021,-0.2133 0,-0.3169 0.033,-0.1637 0.1257,-0.3115 0.1585,-0.4752 0.021,-0.1036 -0.026,-0.2144 0,-0.3169 0.052,-0.2069 0.4022,-0.6704 0.4752,-0.7921 0.5953,-0.9921 -0.3932,0.4519 0.4753,-0.6336 0.1189,-0.1487 0.1979,-0.3266 0.3168,-0.4753 0.093,-0.1166 0.24,-0.1887 0.3168,-0.3168 0.086,-0.1432 0.072,-0.3321 0.1585,-0.4753 0.077,-0.1281 0.2235,-0.2002 0.3168,-0.3168 0.1189,-0.1487 0.2112,-0.3169 0.3168,-0.4753 0.1056,-0.1584 0.2189,-0.312 0.3169,-0.4752 0.061,-0.1013 0.088,-0.2224 0.1584,-0.3169 0.09,-0.1195 0.2112,-0.2112 0.3168,-0.3168 0.2112,-0.2112 0.4225,-0.4225 0.6337,-0.6337 0.053,-0.053 0.1056,-0.1056 0.1584,-0.1584 0.053,-0.053 0.125,-0.092 0.1584,-0.1584 0.024,-0.047 -0.037,-0.1211 0,-0.1584 0.3278,-0.3278 -0.013,0.5009 0.3169,-0.1584 0.024,-0.047 0,-0.1057 0,-0.1585 0.053,-0.1056 0.093,-0.2186 0.1584,-0.3168 0.041,-0.062 0.117,-0.096 0.1584,-0.1584 0.065,-0.098 0.088,-0.2224 0.1584,-0.3169 0.09,-0.1194 0.2273,-0.1973 0.3169,-0.3168 0.071,-0.094 0.088,-0.2224 0.1584,-0.3168 0.09,-0.1195 0.24,-0.1888 0.3168,-0.3169 0.086,-0.1432 0.084,-0.3259 0.1584,-0.4752 0.067,-0.1336 0.2501,-0.1833 0.3169,-0.3169 0.024,-0.047 -0.024,-0.1112 0,-0.1584 0.033,-0.067 0.125,-0.092 0.1584,-0.1584 0.024,-0.047 0,-0.1056 0,-0.1584 0.053,-0.1056 0.093,-0.2186 0.1584,-0.3169 0.041,-0.062 0.1348,-0.088 0.1584,-0.1584 0.033,-0.1002 -0.033,-0.2166 0,-0.3168 0.024,-0.071 0.1348,-0.088 0.1585,-0.1584 0.033,-0.1002 -0.033,-0.2167 0,-0.3169 0.024,-0.071 0.125,-0.092 0.1584,-0.1584 0.6559,-1.3118 -0.4328,0.4115 0.4752,-0.9505 0.1056,-0.1584 0.2113,-0.3168 0.3169,-0.4753 0.1056,-0.1584 0.1822,-0.3406 0.3168,-0.4752 0.084,-0.083 0.2333,-0.075 0.3168,-0.1584 0.083,-0.083 0.093,-0.2186 0.1585,-0.3169 0.041,-0.062 0.125,-0.092 0.1584,-0.1584 0.024,-0.047 -0.024,-0.1112 0,-0.1584 0.067,-0.1336 0.2696,-0.1751 0.3168,-0.3168 0.033,-0.1002 0,-0.2113 0,-0.3169 0,-0.053 -0.024,-0.1112 0,-0.1584 0.033,-0.067 0.125,-0.092 0.1584,-0.1584 0.047,-0.094 -0.047,-0.2224 0,-0.3169 0.033,-0.067 0.1348,-0.088 0.1584,-0.1584 0.033,-0.1002 -0.033,-0.2166 0,-0.3168 0.024,-0.071 0.1349,-0.088 0.1585,-0.1584 0.05,-0.1503 -0.05,-0.325 0,-0.4753 0.037,-0.112 0.1352,-0.201 0.1584,-0.3168 0.3432,-1.716 -0.2452,0.4336 0,-0.7921 0.033,-0.1638 0.131,-0.3106 0.1584,-0.4753 0.026,-0.1562 -0.031,-0.3199 0,-0.4752 0.023,-0.1158 0.1298,-0.2023 0.1584,-0.3169 0.026,-0.1024 0,-0.2112 0,-0.3168 0,-0.1327 -0.03,-0.6716 0,-0.7921 0.029,-0.1145 0.1056,-0.2112 0.1584,-0.3168 0.053,-0.1056 0.1057,-0.2113 0.1585,-0.3169 0.1056,-0.2112 0.1858,-0.4371 0.3168,-0.6336 0.041,-0.062 0.125,-0.092 0.1584,-0.1585 0.075,-0.1493 0.084,-0.3259 0.1584,-0.4752 0.085,-0.1703 0.2189,-0.312 0.3169,-0.4753 0.061,-0.1012 0.088,-0.2223 0.1584,-0.3168 0.1792,-0.239 0.4544,-0.3947 0.6337,-0.6337 0.071,-0.094 0.087,-0.2224 0.1584,-0.3168 0.09,-0.1195 0.2272,-0.1974 0.3168,-0.3169 0.071,-0.095 0.088,-0.2223 0.1584,-0.3168 0.09,-0.1195 0.2113,-0.2112 0.3169,-0.3168 0.1056,-0.1056 0.1973,-0.2273 0.3168,-0.3169 0.094,-0.071 0.2186,-0.093 0.3169,-0.1584 0.062,-0.041 0.1056,-0.1056 0.1584,-0.1584 0.3158,-0.3158 0.3179,-0.3179 0.6336,-0.6337 0.1057,-0.1056 0.1833,-0.25 0.3169,-0.3168 0.094,-0.047 0.2224,0.047 0.3168,0 0.3169,-0.1584 0.2376,-0.3169 0.4753,-0.4753 0.1965,-0.131 0.4372,-0.1858 0.6336,-0.3168 0.062,-0.041 0.1057,-0.1056 0.1585,-0.1584 0.1056,-0.053 0.2186,-0.093 0.3168,-0.1584 0.1243,-0.083 0.1833,-0.2501 0.3168,-0.3169 0.047,-0.024 0.1112,0.024 0.1585,0 0.1336,-0.067 0.1832,-0.25 0.3168,-0.3168 0.047,-0.024 0.1211,0.037 0.1584,0 0.083,-0.083 0.075,-0.2334 0.1584,-0.3169 0.037,-0.037 0.1145,0.029 0.1585,0 0.1242,-0.083 0.1925,-0.2339 0.3168,-0.3168 0.044,-0.029 0.1056,0 0.1584,0 0.1056,-0.053 0.2334,-0.075 0.3168,-0.1584 0.193,-0.193 0.074,-0.354 0.3169,-0.4753 0.047,-0.024 0.1145,0.029 0.1584,0 0.1828,-0.1218 0.2925,-0.3534 0.4753,-0.4752 0.098,-0.066 0.2185,-0.093 0.3168,-0.1584 0.062,-0.041 0.1056,-0.1057 0.1584,-0.1585 0.053,-0.053 0.125,-0.092 0.1584,-0.1584 0.024,-0.047 -0.024,-0.1112 0,-0.1584 0.042,-0.085 0.3919,-0.3919 0.4753,-0.4753 0.053,-0.053 0.1056,-0.1056 0.1584,-0.1584 0.053,-0.053 0.092,-0.125 0.1584,-0.1584 0.047,-0.024 0.1112,0.024 0.1584,0 0.101,-0.051 0.6677,-0.6676 0.7921,-0.7921 0.053,-0.053 0.092,-0.125 0.1585,-0.1584 0.047,-0.024 0.121,0.037 0.1584,0 0.037,-0.037 -0.037,-0.1211 0,-0.1584 0.037,-0.037 0.1211,0.037 0.1584,0 0.037,-0.037 -0.037,-0.1211 0,-0.1584 0.037,-0.037 0.1056,0 0.1584,0 0,-0.053 -0.037,-0.1211 0,-0.1585 0.037,-0.037 0.1211,0.037 0.1584,0 0.037,-0.037 -0.037,-0.121 0,-0.1584 0.037,-0.037 0.1112,0.024 0.1584,0 0.067,-0.033 0.092,-0.125 0.1585,-0.1584 0.047,-0.024 0.121,0.037 0.1584,0 0.037,-0.037 -0.037,-0.1211 0,-0.1584 0.037,-0.037 0.1112,0.024 0.1584,0 0.067,-0.033 0.1056,-0.1056 0.1584,-0.1584 0.053,-0.053 0.1056,-0.1056 0.1584,-0.1585 0.3633,-0.3632 -0.1002,0.067 0.4753,-0.3168 0.062,-0.041 0.092,-0.125 0.1584,-0.1584 0.035,-0.017 0.9388,0 0.9505,0 0.071,0.024 0.092,0.125 0.1584,0.1584 0.047,0.024 0.1112,-0.024 0.1585,0 0.067,0.033 0.087,0.1348 0.1584,0.1584 0.1002,0.033 0.2112,0 0.3168,0 0.053,0 0.1112,-0.024 0.1584,0 0.067,0.033 0.088,0.1348 0.1585,0.1584 1.0672,0.3558 -0.1177,-0.1976 0.4752,0 0.2241,0.075 0.4225,0.2113 0.6337,0.3169 0.1056,0.053 0.2023,0.1298 0.3168,0.1584 0.1025,0.026 0.2133,-0.021 0.3169,0 0.1637,0.033 0.3115,0.1257 0.4752,0.1584 0.1036,0.021 0.2144,-0.026 0.3169,0 0.1145,0.029 0.201,0.1353 0.3168,0.1584 0.2589,0.052 0.5281,0 0.7921,0 0.1056,0 0.2144,-0.026 0.3168,0 0.1146,0.029 0.2048,0.1211 0.3169,0.1585 0.05,0.017 0.1111,-0.024 0.1584,0 0.067,0.033 0.1056,0.1056 0.1584,0.1584 0.053,0.053 0.125,0.092 0.1584,0.1584 0.024,0.047 -0.017,0.1083 0,0.1584 0.037,0.112 0.1298,0.2023 0.1584,0.3169 0.051,0.2049 -0.051,0.4287 0,0.6336 0.029,0.1146 0.1353,0.2011 0.1585,0.3169 0.031,0.1553 0,0.3168 0,0.4752 0,0.4753 0,0.9505 0,1.4258 0,0.1584 -0.026,0.319 0,0.4752 0.027,0.1648 0.1309,0.3106 0.1584,0.4753 0.043,0.2604 0,0.5281 0,0.7921 0,0.1056 -0.026,0.2144 0,0.3168 0.029,0.1146 0.1211,0.2048 0.1584,0.3169 0.047,0.1425 -0.048,0.3326 0,0.4752 0.024,0.071 0.1348,0.088 0.1584,0.1584 0.033,0.1002 0,0.2113 0,0.3169 0,0.053 -0.024,0.1112 0,0.1584 0.033,0.067 0.1056,0.1056 0.1584,0.1584 0,0.1056 -0.033,0.2167 0,0.3169 0.024,0.071 0.1348,0.088 0.1584,0.1584 0.033,0.1002 -0.033,0.2166 0,0.3168 0.024,0.071 0.1348,0.088 0.1585,0.1584 0.033,0.1002 -0.026,0.2144 0,0.3169 0.029,0.1145 0.1056,0.2112 0.1584,0.3168 0,0.1584 -0.031,0.3199 0,0.4753 0.023,0.1157 0.1056,0.2112 0.1584,0.3168 0.053,0.1584 0.1257,0.3115 0.1584,0.4752 0.021,0.1036 -0.026,0.2144 0,0.3169 0.026,0.1027 0.408,0.8495 0.4753,0.9505 0.041,0.062 0.117,0.096 0.1584,0.1584 0.053,0.1056 0.1056,0.2112 0.1584,0.3169 0,0.053 -0.024,0.1111 0,0.1584 0.033,0.067 0.117,0.096 0.1584,0.1584 0.066,0.098 0.093,0.2186 0.1585,0.3168 0.041,0.062 0.125,0.092 0.1584,0.1584 0.024,0.047 -0.017,0.1084 0,0.1585 0.043,0.1278 0.3981,0.8476 0.4752,0.9505 0.09,0.1195 0.2112,0.2112 0.3169,0.3168 0.264,0.264 0.528,0.5281 0.7921,0.7921 0.2112,0.2112 0.4224,0.4225 0.6336,0.6337 0.053,0.053 0.117,0.096 0.1584,0.1584 0.066,0.098 0.075,0.2333 0.1585,0.3168 0.167,0.167 0.4447,0.1752 0.6336,0.3169 0.1793,0.1344 0.2889,0.351 0.4753,0.4752 0.098,0.065 0.2186,0.093 0.3168,0.1584 0.062,0.041 0.096,0.117 0.1585,0.1585 0.5017,0.3345 0.3979,0.027 0.792,0.1584 0.071,0.024 0.092,0.125 0.1585,0.1584 0.1,0.05 0.5341,-0.05 0.6336,0 0.3503,0.1751 0.049,0.098 0.1585,0.3168 0.033,0.067 0.1056,0.1057 0.1584,0.1585 0.053,0.053 0.1056,0.1056 0.1584,0.1584 0.2112,0.2112 0.4224,0.4224 0.6337,0.6337 0.053,0.053 0.117,0.096 0.1584,0.1584 0.359,0.5385 0.021,0.085 0.1584,0.6336 -0.095,0.2868 0.2566,0.2947 0.3168,0.4753 0.05,0.1503 -0.05,0.325 0,0.4753 0.037,0.112 0.1298,0.2022 0.1585,0.3168 0.038,0.1537 -0.05,0.325 0,0.4752 0.4487,0.8976 -0.059,-0.2361 0.1584,0.6337 0.029,0.1146 0.1298,0.2023 0.1584,0.3169 0.051,0.2049 -0.067,0.4332 0,0.6336 0.024,0.071 0.1348,0.088 0.1584,0.1585 0.033,0.1001 0,0.2112 0,0.3168 0,0.264 0,0.5281 0,0.7921 0,0.1056 -0.026,0.2144 0,0.3168 0.029,0.1146 0.1211,0.2048 0.1584,0.3169 0.017,0.05 0,0.1056 0,0.1584 0,0.1132 -0.027,0.8694 0,0.9505 0.024,0.071 0.1348,0.088 0.1585,0.1584 0.033,0.1002 -0.026,0.2144 0,0.3168 0.029,0.1146 0.121,0.2049 0.1584,0.3169 0.017,0.05 -0.024,0.1112 0,0.1584 0.3625,0.725 -0.066,-0.6722 0.3168,0.4753 0.017,0.05 0,0.1056 0,0.1584 0.053,0.053 0.125,0.092 0.1584,0.1584 0.024,0.047 -0.024,0.1112 0,0.1584 0.033,0.067 0.092,0.125 0.1584,0.1584 0.047,0.024 0.1348,-0.047 0.1585,0 0.047,0.094 -0.059,0.229 0,0.3169 0.065,0.098 0.2186,0.093 0.3168,0.1584 0.062,0.041 0.117,0.096 0.1584,0.1584 0.066,0.098 0.093,0.2186 0.1584,0.3168 0.042,0.062 0.1057,0.1057 0.1585,0.1585 0.053,0.053 0.096,0.117 0.1584,0.1584 0.5754,0.3836 0.112,-0.046 0.4752,0.3168 0.2641,0.264 0.5281,0.5281 0.7921,0.7921 0.1056,0.1056 0.1926,0.234 0.3169,0.3168 0.044,0.029 0.1111,-0.024 0.1584,0 0.1559,0.078 0.4778,0.5558 0.6337,0.6337 0.2185,0.1093 0.1417,-0.1918 0.3168,0.1584 0.024,0.047 -0.037,0.1211 0,0.1585 0.037,0.037 0.1211,-0.037 0.1584,0 0.3278,0.3277 -0.5009,-0.013 0.1584,0.3168 0.094,0.047 0.2422,-0.075 0.3169,0 0.037,0.037 -0.037,0.1211 0,0.1584 0.037,0.037 0.1112,-0.024 0.1584,0 0.2252,0.1126 0.092,0.2042 0.3168,0.3168 0.094,0.047 0.2224,-0.047 0.3169,0 0.5254,0.5255 -0.1494,-0.075 0.3168,0.1585 0.1336,0.067 0.1832,0.25 0.3168,0.3168 0.047,0.024 0.1112,-0.024 0.1585,0 0.067,0.033 0.092,0.125 0.1584,0.1584 0.047,0.024 0.1112,-0.024 0.1584,0 0.067,0.033 0.096,0.117 0.1584,0.1584 0.098,0.066 0.2334,0.075 0.3168,0.1585 0.083,0.083 0.088,0.2223 0.1585,0.3168 0.09,0.1195 0.2272,0.1973 0.3168,0.3168 0.071,0.094 0.075,0.2334 0.1584,0.3169 0.083,0.083 0.246,0.064 0.3169,0.1584 0.1002,0.1336 0.084,0.3259 0.1584,0.4752 0.033,0.067 0.1136,0.099 0.1584,0.1585 1.1782,1.5709 -0.2619,-0.3137 0.4753,0.7921 0.1242,0.1864 0.3509,0.2888 0.4752,0.4752 0.029,0.044 -0.029,0.1145 0,0.1584 0.083,0.1243 0.2112,0.2113 0.3168,0.3169 0.053,0.053 0.1348,0.088 0.1585,0.1584 0.033,0.1002 -0.047,0.2224 0,0.3168 0.1584,0.3169 0.3168,0.2377 0.4752,0.4753 0.349,0.08 0.084,0.3259 0.1584,0.4752 0.033,0.067 0.1251,0.092 0.1585,0.1585 0.024,0.047 0,0.1056 0,0.1584 0,0.1056 -0.033,0.2166 0,0.3168 0.024,0.071 0.125,0.092 0.1584,0.1584 0.024,0.047 -0.017,0.1084 0,0.1584 0.037,0.1121 0.1211,0.2049 0.1584,0.3169 0.029,0.086 0,0.5797 0,0.6337 0,0.3168 0,0.6336 0,0.9505 0,0.528 0,1.0561 0,1.5842 0,0.1556 -0.035,0.8457 0,0.9505 0.037,0.112 0.1211,0.2048 0.1584,0.3168 0.033,0.1002 0,0.2112 0,0.3168 0,0.2641 0,0.5281 0,0.7921 0,0.1056 -0.026,0.2144 0,0.3169 0.029,0.1145 0.1211,0.2048 0.1584,0.3168 0.036,0.1076 0,0.9046 0,1.1089 0,0.053 0,0.1057 0,0.1585 0,0.053 0.037,0.121 0,0.1584 -0.037,0.037 -0.1083,-0.017 -0.1584,0 -0.112,0.037 -0.2048,0.1211 -0.3168,0.1584 -0.05,0.017 -0.1112,-0.024 -0.1584,0 -0.067,0.033 -0.088,0.1348 -0.1585,0.1584 -0.5621,0.1874 -0.08,-0.2567 -0.6336,0.1584 -0.1195,0.09 -0.1833,0.2501 -0.3169,0.3169 -0.094,0.047 -0.2144,-0.026 -0.3168,0 -0.2481,0.062 -0.7158,0.4283 -0.9505,0.4752 -1.2085,0 0.1249,-0.071 -0.7921,0.1584 -0.1537,0.038 -0.325,-0.05 -0.4753,0 -0.112,0.037 -0.2048,0.1211 -0.3168,0.1585 -0.094,0.031 -0.7036,0 -0.7921,0 -0.184,0 -0.6485,0.036 -0.7921,0 -0.1145,-0.029 -0.201,-0.1353 -0.3168,-0.1585 -0.1554,-0.031 -0.319,0.026 -0.4753,0 -0.1647,-0.027 -0.3168,-0.1056 -0.4752,-0.1584 -0.1585,-0.053 -0.3169,-0.1056 -0.4753,-0.1584 -0.5713,-0.1904 -1.1544,-0.3445 -1.7426,-0.4752 -0.2629,-0.058 -0.5309,-0.093 -0.7921,-0.1585 -0.373,-0.093 -0.7307,-0.248 -1.1089,-0.3168 -0.2078,-0.038 -0.4241,0.026 -0.6337,0 -2.1169,-0.2646 1.091,-0.065 -1.4258,-0.3168 -0.4729,-0.047 -0.9542,0.059 -1.4257,0 -0.2161,-0.027 -0.4177,-0.1315 -0.6337,-0.1585 -0.2096,-0.026 -0.4306,0.058 -0.6337,0 -0.1831,-0.052 -0.2985,-0.2461 -0.4752,-0.3168 -0.098,-0.039 -0.2144,0.026 -0.3169,0 -0.1145,-0.029 -0.2112,-0.1056 -0.3168,-0.1584 -0.1584,-0.053 -0.3115,-0.1257 -0.4753,-0.1584 -0.1035,-0.021 -0.2143,0.026 -0.3168,0 -0.1146,-0.029 -0.2072,-0.1146 -0.3168,-0.1585 -0.1551,-0.062 -0.3203,-0.096 -0.4753,-0.1584 -0.2193,-0.088 -0.4096,-0.2421 -0.6337,-0.3168 -0.062,-0.021 -0.4506,0.025 -0.4752,0 -0.037,-0.037 0.047,-0.1348 0,-0.1584 -0.1417,-0.071 -0.3169,0 -0.4753,0 -0.2112,0 -0.4224,0 -0.6337,0 -0.1056,0 -0.2132,-0.021 -0.3168,0 -0.1637,0.033 -0.3105,0.1309 -0.4753,0.1584 -0.1562,0.026 -0.3168,0 -0.4752,0 -0.1584,0 -0.3168,0 -0.4753,0 -0.9505,0 -1.901,0 -2.8515,0 -0.3696,0 -0.7393,0 -1.1089,0 -0.1584,0 -0.319,-0.026 -0.4753,0 -0.1647,0.027 -0.3105,0.131 -0.4752,0.1584 -0.1563,0.026 -0.32,-0.031 -0.4753,0 -0.1158,0.023 -0.2023,0.1298 -0.3168,0.1584 -0.1025,0.026 -0.2113,0 -0.3169,0 -0.264,0 -0.528,0 -0.7921,0 -0.8449,0 -1.6898,0 -2.5347,0 -0.528,0 -1.0561,0 -1.5841,0 -0.2641,0 -0.5332,0.052 -0.7921,0 -0.2316,-0.046 -0.4021,-0.2705 -0.6337,-0.3168 -0.1554,-0.031 -0.3199,0.031 -0.4753,0 -0.2347,-0.047 -0.7024,-0.4133 -0.9505,-0.4753 -0.111,-0.028 -0.8931,0 -0.9505,0 -0.4224,0 -0.8449,0 -1.2673,0 -1.637,0 -3.274,0 -4.911,0 -1.0033,0 -2.0067,0 -3.01,0 -0.1584,0 -0.3168,0 -0.4752,0 -0.2113,0 -0.4288,-0.051 -0.6337,0 -0.2291,0.057 -0.4166,0.2238 -0.6337,0.3169 -0.022,0.01 -0.9425,0.312 -0.9505,0.3168 -0.1281,0.077 -0.1973,0.2272 -0.3168,0.3168 -0.094,0.071 -0.2113,0.1057 -0.3169,0.1585 -0.1056,0.053 -0.2022,0.1297 -0.3168,0.1584 -0.1025,0.026 -0.2166,-0.033 -0.3168,0 -0.071,0.024 -0.092,0.125 -0.1585,0.1584 -0.047,0.024 -0.1111,-0.024 -0.1584,0 -0.067,0.033 -0.092,0.125 -0.1584,0.1584 -0.047,0.024 -0.1112,-0.024 -0.1584,0 -0.2532,0.1266 -0.064,0.1903 -0.3168,0.3169 -0.047,0.024 -0.1112,-0.024 -0.1585,0 -0.067,0.033 -0.092,0.125 -0.1584,0.1584 -0.047,0.024 -0.1112,-0.024 -0.1584,0 -0.067,0.033 -0.092,0.125 -0.1584,0.1584 -0.048,0.024 -0.4039,0 -0.4753,0 -0.1094,0 -0.5855,0.024 -0.6337,0 -0.067,-0.033 -0.096,-0.117 -0.1584,-0.1584 -0.2924,-0.195 -0.658,-0.2803 -0.9505,-0.4753 -0.3625,-0.2417 0.099,-0.1254 -0.4752,-0.3168 -0.05,-0.017 -0.1084,0.017 -0.1585,0 -0.224,-0.075 -0.4224,-0.2112 -0.6336,-0.3169 -0.2113,-0.1056 -0.4372,-0.1858 -0.6337,-0.3168 -0.2191,-0.1461 -0.098,-0.1708 -0.3168,-0.3168 -0.098,-0.065 -0.2186,-0.093 -0.3169,-0.1584 -0.067,-0.045 -0.4425,-0.4098 -0.4752,-0.4753 -0.029,-0.057 0,-0.6819 0,-0.7921 0,-0.2043 -0.036,-1.0013 0,-1.1089 0.037,-0.112 0.1056,-0.2112 0.1584,-0.3169 0.053,-0.1056 0.093,-0.2186 0.1584,-0.3168 0.041,-0.062 0.117,-0.096 0.1584,-0.1584 0.131,-0.1965 0.1752,-0.4448 0.3169,-0.6337 0.09,-0.1195 0.2399,-0.1888 0.3168,-0.3168 0,0 0.3086,-0.93 0.3168,-0.9505 0.088,-0.2193 0.2596,-0.4046 0.3169,-0.6337 0.051,-0.2049 -0.067,-0.4333 0,-0.6337 0.047,-0.1417 0.234,-0.1926 0.3168,-0.3168 0.349,-0.08 0.084,-0.3259 0.1584,-0.4753 0.033,-0.067 0.117,-0.096 0.1584,-0.1584 0.053,-0.1056 0.1057,-0.2112 0.1585,-0.3168 0,-0.053 -0.024,-0.1112 0,-0.1585 0.033,-0.067 0.125,-0.092 0.1584,-0.1584 0.024,-0.047 0,-0.1056 0,-0.1584 0,-0.1056 -0.033,-0.2166 0,-0.3168 0.024,-0.071 0.1348,-0.088 0.1584,-0.1584 0.033,-0.1002 -0.021,-0.2133 0,-0.3169 0.033,-0.1637 0.131,-0.3105 0.1584,-0.4752 0.026,-0.1563 0,-0.3169 0,-0.4753 0,-0.264 0,-0.5281 0,-0.7921 0,-0.1584 -0.05,-0.325 0,-0.4752 0.024,-0.071 0.125,-0.092 0.1584,-0.1585 0.05,-0.1 -0.05,-0.5341 0,-0.6336 0.033,-0.067 0.1251,-0.092 0.1585,-0.1585 0.024,-0.047 0,-0.1056 0,-0.1584 0,-0.1056 -0.026,-0.2144 0,-0.3168 0.029,-0.1146 0.1056,-0.2112 0.1584,-0.3169 0.053,-0.1056 0.1056,-0.2112 0.1584,-0.3168 0.1056,-0.2112 0.2112,-0.4224 0.3168,-0.6337 0.053,-0.1056 0.088,-0.2223 0.1584,-0.3168 0.09,-0.1195 0.24,-0.1888 0.3169,-0.3168 0.086,-0.1432 0.096,-0.3202 0.1584,-0.4753 0.044,-0.1096 0.098,-0.2156 0.1584,-0.3168 0.098,-0.1633 0.1979,-0.3266 0.3169,-0.4753 0.093,-0.1166 0.24,-0.1887 0.3168,-0.3168 0.1036,-0.1727 0.2792,-0.9771 0.3168,-1.109 0.2655,-0.9291 0.012,-0.025 0.4753,-0.9505 0.1597,-0.3195 0.1092,-0.5152 0.3168,-0.7921 0.09,-0.1194 0.2236,-0.2002 0.3169,-0.3168 0.1189,-0.1487 0.2026,-0.3229 0.3168,-0.4752 0.1584,-0.2113 0.3168,-0.2113 0.4753,-0.4753 0.086,-0.1432 0.072,-0.3321 0.1584,-0.4753 0.1537,-0.2561 0.4544,-0.3947 0.6336,-0.6336 0.071,-0.094 0.075,-0.2334 0.1585,-0.3169 0.084,-0.084 0.2223,-0.088 0.3168,-0.1584 0.1195,-0.09 0.1974,-0.2272 0.3168,-0.3168 0.094,-0.071 0.2334,-0.075 0.3169,-0.1584 0.083,-0.083 0.075,-0.2334 0.1584,-0.3169 0.083,-0.083 0.2186,-0.093 0.3168,-0.1584 0.077,-0.052 0.5821,-0.5563 0.6337,-0.6337 0.131,-0.1965 0.1858,-0.4372 0.3168,-0.6337 0.1243,-0.1864 0.3409,-0.296 0.4753,-0.4752 0.071,-0.095 0.088,-0.2224 0.1584,-0.3168 0.09,-0.1195 0.24,-0.1888 0.3169,-0.3169 0.086,-0.1432 0.084,-0.3259 0.1584,-0.4752 0.1703,-0.3406 0.4377,-0.624 0.6336,-0.9505 0.1216,-0.2026 0.2113,-0.4225 0.3169,-0.6337 0.156,-0.3121 0.3457,-0.6267 0.4752,-0.9505 0.062,-0.1551 0.096,-0.3202 0.1585,-0.4753 0.044,-0.1096 0.1297,-0.2023 0.1584,-0.3168 0.026,-0.1025 -0.026,-0.2144 0,-0.3169 0.1226,-0.4904 0.2047,-0.1828 0.4752,-0.6336 0.086,-0.1432 0.1056,-0.3169 0.1585,-0.4753 0.1056,-0.3168 0.2112,-0.6337 0.3168,-0.9505 0.2094,-0.6281 0.4601,-1.2646 0.6337,-1.901 0.071,-0.2598 0.081,-0.5342 0.1584,-0.7921 0.082,-0.2724 0.2387,-0.5187 0.3168,-0.7921 0.029,-0.1016 -0.021,-0.2133 0,-0.3169 0.033,-0.1637 0.1257,-0.3115 0.1584,-0.4752 0.021,-0.1036 -0.026,-0.2144 0,-0.3168 0.2293,-0.9171 0.1585,0.4164 0.1585,-0.7921 0,-0.3697 0,-0.7393 0,-1.109 0,-0.1584 -0.05,-0.3249 0,-0.4752 0.024,-0.071 0.125,-0.092 0.1584,-0.1584 0.047,-0.094 -0.047,-0.2224 0,-0.3169 0.033,-0.067 0.117,-0.096 0.1584,-0.1584 0.5335,-0.8003 0,0 0.1584,-0.4753 0.037,-0.112 0.1056,-0.2112 0.1584,-0.3168 0.1564,-0.3127 0.2955,-0.6508 0.4753,-0.9505 0.098,-0.1633 0.2189,-0.312 0.3168,-0.4753 0.4153,-0.6921 -0.1365,0.1147 0.3169,-0.7921 0.085,-0.1702 0.2188,-0.3119 0.3168,-0.4752 0.1215,-0.2025 0.1751,-0.4448 0.3168,-0.6337 0.1793,-0.239 0.4545,-0.3947 0.6337,-0.6337 0.071,-0.094 0.093,-0.2185 0.1584,-0.3168 0.044,-0.066 0.577,-0.6053 0.6337,-0.6337 0.047,-0.024 0.1112,0.024 0.1584,0 0.1901,-0.095 0.2852,-0.3802 0.4753,-0.4752 0.047,-0.024 0.1211,0.037 0.1584,0 0.083,-0.083 0.075,-0.2334 0.1584,-0.3169 0.037,-0.037 0.1083,0.017 0.1584,0 0.1121,-0.037 0.2186,-0.093 0.3169,-0.1584 0.062,-0.041 0.1056,-0.1056 0.1584,-0.1584 0.2039,-0.2039 0.3438,-0.3786 0.6337,-0.4753 0.099,-0.033 0.5061,0 0.6336,0 0.1817,0 0.4696,-0.041 0.6337,0 0.1146,0.029 0.2023,0.1298 0.3169,0.1585 0.1024,0.026 0.2143,-0.026 0.3168,0 0.1145,0.029 0.201,0.1352 0.3168,0.1584 0.1554,0.031 0.3199,-0.031 0.4753,0 0.1158,0.023 0.201,0.1352 0.3168,0.1584 0.1554,0.031 0.3169,0 0.4753,0 0.1584,0 0.3168,0 0.4752,0 0.1584,0 0.319,-0.026 0.4753,0 0.3294,0.055 0.623,0.2513 0.9505,0.3168 0.1036,0.021 0.2188,-0.039 0.3168,0 0.1768,0.071 0.312,0.2189 0.4753,0.3169 0.1012,0.061 0.2224,0.088 0.3168,0.1584 0.1195,0.09 0.2113,0.2112 0.3169,0.3168 0.1056,0.1056 0.2272,0.1974 0.3168,0.3169 0.071,0.094 0.088,0.2223 0.1584,0.3168 0.09,0.1195 0.24,0.1888 0.3169,0.3168 0.086,0.1432 0.084,0.3259 0.1584,0.4753 0.085,0.1703 0.2317,0.305 0.3168,0.4753 0.075,0.1493 0.084,0.3259 0.1584,0.4752 0.085,0.1703 0.2317,0.305 0.3169,0.4753 0.075,0.1493 0.072,0.332 0.1584,0.4752 0.077,0.1281 0.24,0.1888 0.3168,0.3169 0.086,0.1432 0.1056,0.3168 0.1584,0.4752 0.053,0.1584 0.1057,0.3169 0.1585,0.4753 0.053,0.1584 0.1256,0.3115 0.1584,0.4752 0.021,0.1036 -0.026,0.2144 0,0.3169 0.029,0.1145 0.1145,0.2072 0.1584,0.3168 0.062,0.155 0.096,0.3202 0.1584,0.4753 0.1748,0.437 0.4589,0.8303 0.6337,1.2673 0.062,0.1551 0.084,0.3259 0.1584,0.4753 0.085,0.1703 0.2317,0.3049 0.3168,0.4752 0.075,0.1494 0.093,0.3218 0.1585,0.4753 0.093,0.217 0.2339,0.4125 0.3168,0.6336 0.076,0.2039 0.09,0.4272 0.1584,0.6337 0.09,0.2698 0.2479,0.5162 0.3169,0.7921 0.091,0.3623 0.09,0.7419 0.1584,1.1089 0.2947,1.572 0.3866,1.2568 0.4752,2.8516 0.026,0.4745 -0.052,0.9534 0,1.4257 0.3646,3.2811 0.2113,-0.211 0.6337,2.5347 0.048,0.3132 -0.026,0.6348 0,0.9506 0.027,0.3201 0.1318,0.6304 0.1584,0.9505 0.026,0.3157 -0.062,0.6398 0,0.9505 0.046,0.2315 0.2656,0.4031 0.3169,0.6337 0,2.0007 -0.1181,-0.3139 0.3168,1.4257 0.1615,0.646 -0.2177,0.6405 0.1584,1.2674 0.061,0.1012 0.2334,0.075 0.3169,0.1584 0.083,0.083 0.087,0.2224 0.1584,0.3168 0.09,0.1195 0.2112,0.2112 0.3168,0.3169 0.1056,0.1056 0.2112,0.2112 0.3169,0.3168 0.1056,0.1056 0.1887,0.24 0.3168,0.3168 0.1432,0.086 0.3363,0.066 0.4752,0.1585 0.1865,0.1242 0.2808,0.3641 0.4753,0.4752 0.189,0.108 0.4298,0.082 0.6337,0.1584 1.1382,0.4269 0.1698,0.3428 1.7426,0.7921 0.359,0.1026 0.7438,0.08 1.1089,0.1584 0.7518,0.1611 1.4661,0.4726 2.2179,0.6337 0.3651,0.078 0.7499,0.056 1.1089,0.1584 0.3867,0.1105 0.7203,0.3717 1.1089,0.4753 0.4114,0.1097 0.8499,0.075 1.2674,0.1584 0.9575,0.1915 1.3817,0.5011 2.3763,0.6337 0.3664,0.049 0.7403,-0.028 1.1089,0 0.9637,0.074 0.8889,0.1551 1.7426,0.4752 0.1563,0.059 0.3259,0.084 0.4752,0.1585 0.1336,0.067 0.1926,0.2339 0.3169,0.3168 0.098,0.065 0.2333,0.075 0.3168,0.1584 0.037,0.037 -0.017,0.1083 0,0.1584 0.037,0.112 0.093,0.2186 0.1584,0.3169 0.1933,0.2898 0.202,0.016 0.3169,0.4752 0.026,0.1025 -0.021,0.2133 0,0.3169 -0.036,0.3181 0.2478,0.5162 0.3168,0.7921 0.064,0.2561 -0.043,0.5316 0,0.792 -0.055,0.3224 0.2611,0.5133 0.3169,0.7921 0.031,0.1554 -0.031,0.32 0,0.4753 0.023,0.1158 0.1297,0.2023 0.1584,0.3168 0.026,0.1025 -0.026,0.2144 0,0.3169 0.029,0.1145 0.1297,0.2023 0.1584,0.3168 0.026,0.1025 0,0.2112 0,0.3168 0,0.102 -0.027,1.0018 0,1.109 0.029,0.1145 0.1352,0.201 0.1584,0.3168 0.052,0.2589 0,0.5281 0,0.7921 0,0.5281 0,1.0561 0,1.5842 0,0.264 0,0.5281 0,0.7921 0,0.053 0,0.1056 0,0.1584 0,0.053 0.024,0.1112 0,0.1584 -0.033,0.067 -0.125,0.092 -0.1584,0.1584 -0.024,0.047 0.024,0.1112 0,0.1585 -0.033,0.067 -0.1348,0.088 -0.1584,0.1584 -0.033,0.1002 0.033,0.2166 0,0.3168 -0.01,0.02 -0.4481,0.4617 -0.4753,0.4753 -0.047,0.024 -0.1112,-0.024 -0.1584,0 -0.067,0.033 -0.096,0.117 -0.1584,0.1584 -0.098,0.066 -0.2186,0.093 -0.3169,0.1584 -0.062,0.041 -0.096,0.117 -0.1584,0.1584 -0.1965,0.131 -0.4312,0.1954 -0.6337,0.3169 -0.1632,0.098 -0.3049,0.2317 -0.4752,0.3168 -0.2987,0.1494 -0.6726,0.1316 -0.9505,0.3168 -0.1864,0.1243 -0.2808,0.3641 -0.4753,0.4753 -0.189,0.108 -0.4298,0.082 -0.6337,0.1584 -0.2211,0.083 -0.4272,0.2022 -0.6336,0.3168 -0.2692,0.1496 -0.4934,0.4006 -0.7921,0.4753 -0.3586,0.09 -0.7402,-0.026 -1.1089,0 -2.7472,0.1962 0.6611,0.096 -2.3763,0.4753 -0.064,0.01 -2.4968,-0.01 -2.5347,0 -0.3464,0.074 -0.6069,0.3893 -0.9505,0.4752 -0.3074,0.077 -0.6337,0 -0.9505,0 -0.2641,0 -0.5281,0 -0.7921,0 -0.1849,0 -0.827,0.031 -0.9506,0 -0.1145,-0.029 -0.2155,-0.098 -0.3168,-0.1584 -0.3922,-0.2353 -0.4893,-0.4094 -0.9505,-0.4753 -0.2091,-0.03 -0.4225,0 -0.6337,0 -0.3168,0 -0.6336,0 -0.9505,0 -0.9505,0 -1.901,0 -2.8515,0 -0.4753,0 -0.9534,0.053 -1.4258,0 -0.9677,-0.1075 -1.8832,-0.5317 -2.8515,-0.6336 -3.6489,-0.3841 0.3773,0.4061 -3.01,-0.1585 -0.4802,-0.08 -0.9518,-0.2053 -1.4257,-0.3168 -0.4239,-0.1 -0.8363,-0.2552 -1.2674,-0.3168 -0.3136,-0.045 -0.6337,0 -0.9505,0 -0.6337,0 -1.2674,0 -1.901,0 -0.5281,0 -1.0562,0 -1.5842,0 -0.2112,0 -0.4253,-0.035 -0.6337,0 -0.3912,0.065 -0.4725,0.4419 -0.7921,0.6336 -0.091,0.054 -0.2166,-0.033 -0.3168,0 -0.071,0.024 -0.086,0.1404 -0.1584,0.1585 -0.2522,0.096 -0.536,-0.064 -0.7921,0 -0.1146,0.029 -0.2011,0.1352 -0.3169,0.1584 -0.2589,0.052 -0.528,0 -0.7921,0 -0.1584,0 -0.3168,0 -0.4752,0 -0.1056,0 -0.2144,0.026 -0.3169,0 -0.1145,-0.029 -0.2022,-0.1298 -0.3168,-0.1584 -0.1024,-0.026 -0.2133,0.021 -0.3168,0 -0.3182,0.036 -0.5162,-0.2479 -0.7921,-0.3169 -0.1537,-0.038 -0.3169,0 -0.4753,0 -0.4752,0 -0.9505,0 -1.4257,0 -0.1585,0 -0.319,0.026 -0.4753,0 -0.1647,-0.028 -0.3147,-0.1125 -0.4753,-0.1584 -0.014,0 -1.2644,-0.3156 -1.2673,-0.3168 -0.1984,-0.085 -1.0116,-0.7272 -1.1089,-0.7921 -0.9128,-0.6085 -0.6365,-0.2927 -1.4258,-0.9505 -0.1147,-0.096 -0.24,-0.1888 -0.3168,-0.3169 -0.086,-0.1432 -0.084,-0.3259 -0.1585,-0.4752 -0.073,-0.1456 -0.5936,-0.5135 -0.6336,-0.6337 -0.033,-0.1002 0.026,-0.2144 0,-0.3168 -0.029,-0.1146 -0.1298,-0.2023 -0.1584,-0.3169 -0.026,-0.1024 0.033,-0.2166 0,-0.3168 -0.024,-0.071 -0.1404,-0.086 -0.1585,-0.1584 -0.038,-0.1537 0.031,-0.3199 0,-0.4753 -0.023,-0.1158 -0.1297,-0.2023 -0.1584,-0.3168 -0.026,-0.1025 0.021,-0.2133 0,-0.3169 -0.033,-0.1637 -0.1257,-0.3115 -0.1584,-0.4752 -0.021,-0.1036 0,-0.2112 0,-0.3169 0,-0.2112 0,-0.4224 0,-0.6336 0,-0.25 0,-0.5421 0,-0.7921 0,-0.1584 -0.022,-0.3184 0,-0.4753 0.031,-0.2155 0.1276,-0.4181 0.1584,-0.6336 0.022,-0.1569 -0.02,-0.3181 0,-0.4753 0.067,-0.5344 0.2755,-1.0473 0.3169,-1.5842 0.032,-0.4212 -0.044,-0.8472 0,-1.2673 0.3811,-3.6213 0.3028,0.1344 0.4752,-3.4852 0.1081,-2.2694 -0.2142,-0.8859 0.3168,-3.01 0.093,-0.373 0.2304,-0.7343 0.3169,-1.1089 0.204,-0.8842 0.04,-0.9594 0.4752,-1.7426 1.0004,-1.8007 0.036,-0.036 0.7921,-0.7921 0.083,-0.083 0.075,-0.2334 0.1584,-0.3169 0.084,-0.083 0.2334,-0.075 0.3169,-0.1584 0.083,-0.083 0.093,-0.2186 0.1584,-0.3168 0.041,-0.062 0.1056,-0.1056 0.1584,-0.1584 0.053,-0.053 0.096,-0.117 0.1584,-0.1585 0.098,-0.066 0.2334,-0.075 0.3169,-0.1584 0.083,-0.083 0.087,-0.2224 0.1584,-0.3168 0.09,-0.1195 0.2112,-0.2112 0.3168,-0.3169 0.1056,-0.1056 0.2002,-0.2235 0.3169,-0.3168 0.1486,-0.1189 0.3406,-0.1822 0.4752,-0.3168 0.1867,-0.1867 0.3169,-0.4225 0.4753,-0.6337 0.3631,-0.4841 0.9837,-1.3013 1.2673,-1.7426 0.7808,-1.2146 0.4697,-1.0706 1.4258,-2.2179 0.239,-0.2868 0.5556,-0.5031 0.7921,-0.7921 0.2411,-0.2947 0.3471,-0.6997 0.6337,-0.9505 0.1638,-0.1433 0.4315,-0.078 0.6336,-0.1584 0.069,-0.028 0.1057,-0.1056 0.1585,-0.1584 0.1056,-0.1056 0.2112,-0.2112 0.3168,-0.3168 0.1056,-0.1057 0.234,-0.1926 0.3168,-0.3169 0.065,-0.098 0.075,-0.2333 0.1585,-0.3168 0.083,-0.083 0.243,-0.066 0.3168,-0.1584 0.1475,-0.1844 0.1953,-0.4312 0.3168,-0.6337 0.049,-0.082 0.7275,-0.7436 0.7921,-0.7921 0.094,-0.071 0.2156,-0.098 0.3169,-0.1584 0.1632,-0.098 0.3119,-0.2189 0.4752,-0.3169 0.3038,-0.1822 0.643,-0.2995 0.9505,-0.4752 0.1653,-0.094 0.312,-0.2189 0.4753,-0.3169 0.1012,-0.061 0.2156,-0.098 0.3168,-0.1584 0.1633,-0.098 0.31,-0.2223 0.4753,-0.3168 0.205,-0.1172 0.4166,-0.2238 0.6336,-0.3168 0.6307,-0.2703 0.3651,-0.01 0.9506,-0.4753 0.1166,-0.093 0.1973,-0.2272 0.3168,-0.3168 0.4626,-0.347 0.2179,0.079 0.6337,-0.4753 0.071,-0.094 0.093,-0.2186 0.1584,-0.3168 0.041,-0.062 0.1056,-0.1056 0.1584,-0.1584 0.1584,-0.1585 0.3168,-0.3169 0.4753,-0.4753 0.053,-0.053 0.125,-0.092 0.1584,-0.1584 0.024,-0.047 -0.037,-0.1211 0,-0.1584 0.037,-0.037 0.1112,0.024 0.1584,0 0.067,-0.033 0.1056,-0.1057 0.1584,-0.1585 0.053,-0.053 0.117,-0.096 0.1584,-0.1584 0.065,-0.098 0.093,-0.2186 0.1585,-0.3168 0.1452,-0.218 0.2444,-0.1629 0.4752,-0.3169 0.062,-0.041 0.092,-0.125 0.1584,-0.1584 0.048,-0.024 0.5243,0 0.6337,0 0.1056,0 0.2112,0 0.3168,0 0.1057,0 0.2144,-0.026 0.3169,0 0.1145,0.029 0.2023,0.1298 0.3168,0.1584 0.1025,0.026 0.2144,-0.026 0.3169,0 0.2069,0.052 0.6704,0.4023 0.792,0.4753 0.1013,0.061 0.2156,0.098 0.3169,0.1584 0.1632,0.098 0.3168,0.2112 0.4752,0.3169 0.1585,0.1056 0.329,0.1949 0.4753,0.3168 0.1721,0.1434 0.3168,0.3168 0.4753,0.4753 2.2039,2.2039 -0.6844,-0.7322 1.5841,1.7426 0.011,0.013 1.8969,1.8957 1.9011,1.901 0.3568,0.446 0.6211,0.9591 0.9505,1.4257 0.3045,0.4315 0.6513,0.8322 0.9505,1.2674 0.5272,0.7669 1.0577,1.676 1.4258,2.5347 0.1315,0.307 0.1852,0.6435 0.3168,0.9505 0.029,0.069 0.1056,0.1056 0.1584,0.1584 0.053,0.053 0.092,0.125 0.1584,0.1584 0.047,0.024 0.1211,-0.037 0.1584,0 0.037,0.037 0,0.1057 0,0.1585 0,0.1833 -0.035,0.6506 0,0.7921 0.2586,1.0342 0.085,-0.5986 0.3169,0.792 0.026,0.1563 -0.026,0.319 0,0.4753 0.027,0.1647 0.1348,0.3099 0.1584,0.4753 0.03,0.2091 -0.03,0.4245 0,0.6336 0.024,0.1653 0.131,0.3106 0.1584,0.4753 0.026,0.1562 -0.031,0.3199 0,0.4752 0.023,0.1158 0.1298,0.2023 0.1584,0.3169 0.026,0.1024 0,0.2112 0,0.3168 0,0.1584 0,0.3169 0,0.4753 0,0.1056 -0.026,0.2143 0,0.3168 0.029,0.1146 0.1298,0.2023 0.1585,0.3168 0.026,0.1025 -0.026,0.2144 0,0.3169 0.029,0.1145 0.1297,0.2023 0.1584,0.3168 0.026,0.1025 -0.026,0.2144 0,0.3169 0.017,0.069 0.4285,0.8881 0.4752,0.9505 0.09,0.1195 0.24,0.1887 0.3169,0.3168 0.6872,1.1455 -0.2958,-0.185 0.1584,0.9505 0.056,0.1387 0.2614,0.1782 0.3168,0.3169 0.059,0.147 -0.031,0.3199 0,0.4752 0.023,0.1158 0.1146,0.2072 0.1584,0.3168 0.062,0.1551 0.1057,0.3169 0.1585,0.4753 0.1056,0.1584 0.2316,0.305 0.3168,0.4753 0.075,0.1493 0.084,0.3259 0.1584,0.4752 0.3823,0.5735 0.2317,0.305 0.4753,0.7921 0.053,0.1056 0.1056,0.2112 0.1584,0.3168 0.053,0.1057 0.075,0.2334 0.1584,0.3169 0.083,0.083 0.2334,0.075 0.3168,0.1584 0.167,0.167 0.1499,0.4667 0.3169,0.6337 0.083,0.083 0.2333,0.075 0.3168,0.1584 0.083,0.083 0.075,0.2333 0.1584,0.3168 0.083,0.083 0.2334,0.075 0.3169,0.1584 0.083,0.083 0.075,0.2334 0.1584,0.3169 0.1391,0.3407 0.5744,0.2575 0.7921,0.4752 0.1346,0.1347 0.1822,0.3407 0.3168,0.4753 0.1347,0.1346 0.3266,0.1979 0.4753,0.3168 0.3258,0.2607 0.6222,0.7043 0.9505,0.9505 0.1889,0.1417 0.4372,0.1859 0.6337,0.3169 0.062,0.041 0.096,0.117 0.1584,0.1584 0.098,0.065 0.2186,0.093 0.3168,0.1584 0.065,0.043 0.4319,0.4102 0.4753,0.4753 0.065,0.098 0.093,0.2186 0.1584,0.3168 0.041,0.062 0.096,0.117 0.1584,0.1584 0.098,0.065 0.2514,0.06 0.3169,0.1585 0.058,0.088 -0.026,0.2143 0,0.3168 0.057,0.2291 0.2595,0.4046 0.3168,0.6337 0.051,0.2049 -0.051,0.4287 0,0.6336 0.029,0.1146 0.1211,0.2049 0.1584,0.3169 0.02,0.059 0.021,0.9095 0,0.9505 -0.033,0.067 -0.125,0.092 -0.1584,0.1584 -0.024,0.047 0,0.1056 0,0.1584 -0.053,0.1056 -0.093,0.2186 -0.1584,0.3169 -0.042,0.062 -0.117,0.096 -0.1584,0.1584 -0.066,0.098 -0.088,0.2224 -0.1585,0.3168 -0.09,0.1195 -0.2272,0.1974 -0.3168,0.3169 -0.347,0.4626 0.079,0.2179 -0.4753,0.6336 -0.3243,0.2433 -0.7613,0.2667 -1.1089,0.4753 -0.1633,0.098 -0.2946,0.2566 -0.4752,0.3168 -0.1503,0.05 -0.319,-0.026 -0.4753,0 -0.1647,0.028 -0.3168,0.1056 -0.4753,0.1584 -0.2112,0 -0.4245,-0.03 -0.6336,0 -0.1653,0.024 -0.3115,0.1257 -0.4753,0.1585 -0.2589,0.052 -0.5316,-0.043 -0.7921,0 -0.3294,0.055 -0.6294,0.225 -0.9505,0.3168 -0.2093,0.06 -0.4298,0.082 -0.6337,0.1584 -0.2211,0.083 -0.4166,0.2238 -0.6336,0.3169 -0.9598,0.4113 0.045,-0.1812 -1.2674,0.4752 -0.2754,0.1377 -0.4972,0.3868 -0.7921,0.4753 -0.2529,0.076 -0.5291,-0.024 -0.7921,0 -0.3199,0.029 -0.6406,0.074 -0.9505,0.1584 -1.0929,0.2981 -0.4651,0.3735 -1.5842,0.4752 -0.3155,0.029 -0.6388,-0.057 -0.9505,0 -2.7989,0.5089 1.4183,0.1879 -1.7426,0.4753 -0.2629,0.024 -0.5281,0 -0.7921,0 -0.5809,0 -1.1617,0 -1.7426,0 -1.901,0 -3.802,0 -5.7031,0 -1.2673,0 -2.5347,0 -3.802,0 -0.4225,0 -0.8449,0 -1.2674,0 -0.4752,0 -0.9511,0.025 -1.4257,0 -2.84,-0.1495 -0.3659,-0.046 -3.01,-0.6337 -0.4668,-0.1037 -0.9534,-0.084 -1.4257,-0.1584 -2.6332,-0.4158 -0.5545,-0.1459 -3.01,-0.7921 -2.5756,-0.6778 -0.62,0.1005 -2.8515,-0.7921 -3.2872,-1.4088 0.8266,0.3179 -2.0595,-0.7921 -0.3753,-0.1443 -0.731,-0.3378 -1.1089,-0.4752 -0.9544,-0.3471 -0.3395,0.081 -1.2673,-0.4753 -0.064,-0.038 -0.1057,-0.1056 -0.1585,-0.1584 -0.6082,-0.6082 -0.034,0.01 -0.6336,-0.7921 -0.09,-0.1195 -0.2501,-0.1832 -0.3169,-0.3168 -0.024,-0.048 0,-0.404 0,-0.4753 0,-0.3168 0,-0.6337 0,-0.9505 0,-0.7921 0,-1.5842 0,-2.3763 0,-0.1056 0,-0.2112 0,-0.3168 0,-0.1584 -0.038,-0.3216 0,-0.4753 0.018,-0.072 0.117,-0.096 0.1584,-0.1584 0.066,-0.098 0.093,-0.2186 0.1585,-0.3168 0.041,-0.062 0.117,-0.096 0.1584,-0.1585 0.053,-0.1056 0.1056,-0.2112 0.1584,-0.3168 0,-0.053 -0.024,-0.1112 0,-0.1584 0.033,-0.067 0.117,-0.096 0.1584,-0.1584 0.131,-0.1965 0.1859,-0.4372 0.3169,-0.6337 0.041,-0.062 0.1169,-0.096 0.1584,-0.1584 0.065,-0.098 0.098,-0.2156 0.1584,-0.3169 0.098,-0.1632 0.2189,-0.312 0.3168,-0.4752 0.061,-0.1013 0.075,-0.2334 0.1584,-0.3169 0.1347,-0.1346 0.329,-0.1949 0.4753,-0.3168 0.1721,-0.1434 0.3003,-0.3353 0.4753,-0.4752 0.092,-0.074 0.2185,-0.093 0.3168,-0.1585 0.2197,-0.1464 0.4044,-0.3442 0.6337,-0.4752 0.145,-0.083 0.332,-0.072 0.4752,-0.1584 0.1281,-0.077 0.2002,-0.2236 0.3169,-0.3169 0.1486,-0.1189 0.3168,-0.2112 0.4752,-0.3168 0.1584,-0.1056 0.305,-0.2317 0.4753,-0.3168 0.1493,-0.075 0.332,-0.072 0.4752,-0.1585 0.1281,-0.077 0.2113,-0.2112 0.3169,-0.3168 0.3168,-0.3168 0.6103,-0.6589 0.9505,-0.9505 0.8373,-0.7177 0.4869,-0.217 1.2673,-1.1089 0.1739,-0.1987 0.3014,-0.435 0.4753,-0.6337 0.3934,-0.4496 0.8449,-0.8449 1.2673,-1.2674 0.2113,-0.2112 0.4754,-0.3803 0.6337,-0.6336 0.1154,-0.1847 0.032,-0.4565 0.1584,-0.6337 0.1535,-0.2149 0.4619,-0.2748 0.6337,-0.4753 0.01,-0.01 0.615,-1.2346 0.6337,-1.2673 0.094,-0.1653 0.2317,-0.305 0.3168,-0.4753 0.075,-0.1493 0.072,-0.332 0.1584,-0.4752 0.077,-0.1281 0.2273,-0.1974 0.3169,-0.3169 0.071,-0.094 0.087,-0.2223 0.1584,-0.3168 0.09,-0.1195 0.2272,-0.1974 0.3168,-0.3168 0.071,-0.095 0.1056,-0.2113 0.1584,-0.3169 0.1057,-0.2112 0.2113,-0.4224 0.3169,-0.6337 0.053,-0.1056 0.093,-0.2185 0.1584,-0.3168 0.3022,-0.4533 0.03,0.2426 0.3168,-0.4752 0.062,-0.1551 0.058,-0.3417 0.1585,-0.4753 0.071,-0.094 0.2333,-0.075 0.3168,-0.1584 0.083,-0.083 0.098,-0.2156 0.1584,-0.3169 0.098,-0.1632 0.1979,-0.3265 0.3168,-0.4752 0.1867,-0.2333 0.4545,-0.3947 0.6337,-0.6337 0.071,-0.094 0.088,-0.2224 0.1584,-0.3168 0.09,-0.1195 0.2113,-0.2113 0.3169,-0.3169 0.1056,-0.1056 0.1973,-0.2272 0.3168,-0.3168 0.095,-0.071 0.2224,-0.088 0.3168,-0.1584 0.1004,-0.075 0.8753,-0.8502 0.9506,-0.9505 0.1417,-0.189 0.1751,-0.4448 0.3168,-0.6337 0.09,-0.1195 0.2272,-0.1974 0.3168,-0.3168 0.3751,-0.5001 -0.119,-0.1978 0.4753,-0.7921 0.083,-0.083 0.2333,-0.075 0.3168,-0.1585 0.084,-0.083 0.075,-0.2333 0.1584,-0.3168 0.084,-0.083 0.2334,-0.075 0.3169,-0.1584 0.3848,-0.3848 -0.047,-0.2326 0.3168,-0.4753 0.098,-0.066 0.246,-0.064 0.3169,-0.1584 0.1002,-0.1336 0.058,-0.3417 0.1584,-0.4752 0.071,-0.094 0.2224,-0.088 0.3168,-0.1585 0.1195,-0.09 0.2112,-0.2112 0.3169,-0.3168 0.1056,-0.1056 0.2112,-0.2112 0.3168,-0.3168 0.2112,-0.2113 0.4224,-0.4225 0.6337,-0.6337 0.1584,-0.1584 0.3318,-0.3032 0.4752,-0.4753 0.1219,-0.1462 0.195,-0.329 0.3169,-0.4752 1.1289,-1.129 -0.09,0.1522 0.792,-0.9505 0.093,-0.1167 0.2113,-0.2113 0.3169,-0.3169 0.1056,-0.1056 0.2112,-0.2112 0.3168,-0.3168 0.053,-0.053 0.096,-0.117 0.1584,-0.1584 0.098,-0.066 0.2334,-0.075 0.3169,-0.1584 0.032,-0.032 -0.031,-0.4125 0,-0.4753 0.033,-0.067 0.1056,-0.1056 0.1584,-0.1584 0.053,-0.053 0.092,-0.125 0.1584,-0.1584 0.094,-0.047 0.2422,0.075 0.3169,0 0.037,-0.037 -0.037,-0.1211 0,-0.1585 0.037,-0.037 0.1056,0 0.1584,0 0.053,0 0.1056,0 0.1584,0 0.4752,0 0.9505,0 1.4258,0 0.4224,0 0.8449,0 1.2673,0 0.1584,0 0.3199,-0.031 0.4753,0 0.1157,0.023 0.2072,0.1146 0.3168,0.1585 0.155,0.062 0.3321,0.072 0.4753,0.1584 0.128,0.077 0.2002,0.2235 0.3168,0.3168 0.9857,0.7886 -0.08,-0.2485 1.1089,0.7921 0.2248,0.1967 0.4089,0.437 0.6337,0.6337 0.6801,0.5951 0.6648,0.3557 1.2673,1.1089 0.4248,0.5309 0.7449,1.1705 1.109,1.7426 0.2044,0.3213 0.4513,0.6162 0.6337,0.9505 0.3949,0.7241 0.2808,0.9664 0.6336,1.7426 0.1274,0.2803 0.3609,0.5062 0.4753,0.7921 0.1,0.25 0.088,0.5324 0.1584,0.7921 0.088,0.3222 0.229,0.6283 0.3168,0.9505 0.071,0.2598 0.088,0.5324 0.1585,0.7921 0.088,0.3222 0.225,0.6294 0.3168,0.9505 0.014,0.051 -0.017,0.1084 0,0.1585 0.037,0.112 0.1146,0.2072 0.1584,0.3168 0.062,0.155 0.084,0.3259 0.1584,0.4753 0.033,0.067 0.125,0.092 0.1584,0.1584 0.075,0.1493 0.072,0.332 0.1585,0.4752 0.077,0.1281 0.2235,0.2002 0.3168,0.3169 0.3184,0.398 0.4737,0.8693 0.7921,1.2673 0.093,0.1166 0.2235,0.2002 0.3168,0.3168 0.119,0.1487 0.195,0.329 0.3169,0.4753 0.1434,0.1721 0.3318,0.3031 0.4752,0.4753 0.2438,0.2925 0.4225,0.6336 0.6337,0.9505 0.1056,0.1584 0.1822,0.3406 0.3168,0.4752 0.8234,0.8234 0.1651,-0.1501 0.7921,0.6337 1.003,1.2538 -0.5458,-0.452 0.7921,1.1089 0.3805,0.4439 0.6726,0.553 0.9505,1.109 0.6926,1.3852 -0.629,-0.1538 0.7921,1.2673 0.4225,0.4225 0.8178,0.8739 1.2674,1.2674 0.1987,0.1738 0.447,0.2885 0.6337,0.4752 0.1866,0.1867 0.2747,0.4619 0.4752,0.6337 0.1793,0.1537 0.4312,0.1953 0.6337,0.3168 0.064,0.038 0.1056,0.1056 0.1584,0.1584 0.1056,0.1057 0.25,0.1833 0.3168,0.3169 0.047,0.094 -0.021,0.2133 0,0.3168 0.033,0.1638 0.093,0.3218 0.1585,0.4753 -0.2434,0.5423 0.3375,0.5167 0.4752,0.7921 0.2576,0.5152 0.04,0.3768 0.3168,0.7921 0.042,0.062 0.1251,0.092 0.1585,0.1584 0.024,0.047 -0.017,0.1083 0,0.1584 0.037,0.112 0.121,0.2048 0.1584,0.3168 0.017,0.05 -0.017,0.1084 0,0.1585 0.037,0.112 0.1211,0.2048 0.1584,0.3168 0.05,0.1503 -0.038,0.3216 0,0.4752 0.029,0.1146 0.1353,0.2011 0.1584,0.3169 0.031,0.1553 -0.031,0.3199 0,0.4752 0.023,0.1158 0.1146,0.2072 0.1584,0.3169 0.4595,1.1486 -0.011,-0.054 0.1585,0.7921 0.066,0.3275 0.2619,0.621 0.3168,0.9505 0.052,0.3125 -0.062,0.6398 0,0.9505 0.023,0.1158 0.1353,0.201 0.1584,0.3168 0.031,0.1554 -0.026,0.319 0,0.4753 0.027,0.1647 0.1257,0.3115 0.1584,0.4752 0.082,0.412 -0.082,0.3802 0,0.7921 0.023,0.1158 0.1298,0.2023 0.1585,0.3169 0.026,0.1024 -0.021,0.2132 0,0.3168 0.033,0.1638 0.1256,0.3115 0.1584,0.4753 0.021,0.1035 -0.033,0.2166 0,0.3168 0.024,0.071 0.1348,0.088 0.1584,0.1584 0.023,0.068 0,1.047 0,1.109 0,0.792 0,1.5841 0,2.3762 0,0.3169 0,0.6337 0,0.9505 0,0.1057 0,0.2113 0,0.3169 0,0.1056 0.026,0.2144 0,0.3168 -0.029,0.1146 -0.1211,0.2048 -0.1584,0.3169 -0.017,0.05 0.017,0.1083 0,0.1584 -0.037,0.112 -0.1211,0.2048 -0.1584,0.3168 -0.017,0.05 0,0.1056 0,0.1584 -0.053,0.1056 -0.1211,0.2048 -0.1585,0.3169 -0.017,0.05 0.037,0.121 0,0.1584 -0.037,0.037 -0.121,-0.037 -0.1584,0 -0.3848,0.3847 0.047,0.2326 -0.3168,0.4752 -0.098,0.066 -0.2112,0.1057 -0.3169,0.1585 -0.1056,0.053 -0.201,0.1352 -0.3168,0.1584 -0.1553,0.031 -0.319,-0.026 -0.4753,0 -1.5782,0.263 0.8556,0.071 -1.1089,0.3168 -0.2096,0.026 -0.4224,0 -0.6337,0 -0.264,0 -0.528,0 -0.792,0 -1.3202,0 -2.6404,0 -3.9605,0 -1.5842,0 -3.1684,0 -4.7526,0 -0.6336,0 -1.2673,0 -1.901,0 -0.6337,0 -1.2694,0.051 -1.901,0 -0.6924,-0.055 -1.3724,-0.215 -2.0595,-0.3168 -0.7387,-0.1095 -1.478,-0.2148 -2.2178,-0.3169 -0.7916,-0.1091 -1.5906,-0.1713 -2.3763,-0.3168 -2.4522,-0.4541 -1.3858,-0.5775 -3.9605,-0.7921 -0.5788,-0.048 -1.1641,0.053 -1.7426,0 -0.5879,-0.053 -1.1636,-0.201 -1.7426,-0.3168 -0.4774,-0.095 -0.9505,-0.2113 -1.4257,-0.3169 -0.4753,-0.1056 -0.9535,-0.1987 -1.4258,-0.3168 -0.373,-0.093 -0.7415,-0.2038 -1.1089,-0.3168 -0.3192,-0.098 -0.6211,-0.262 -0.9505,-0.3169 -0.7921,-0.132 -0.8802,0.088 -1.5842,0 -0.2161,-0.027 -0.4173,-0.1344 -0.6337,-0.1584 -0.2624,-0.029 -0.5281,0 -0.7921,0 -0.3168,0 -0.6337,0 -0.9505,0 -1.1617,0 -2.3235,0 -3.4852,0 -0.4225,0 -0.8449,0 -1.2674,0 -0.2112,0 -0.4245,0.03 -0.6336,0 -0.1654,-0.024 -0.31,-0.1348 -0.4753,-0.1584 -0.2091,-0.03 -0.4241,0.026 -0.6337,0 -0.216,-0.027 -0.4181,-0.1276 -0.6336,-0.1584 -0.366,-0.052 -0.7416,0.041 -1.109,0 -0.2676,-0.03 -0.5245,-0.1287 -0.7921,-0.1585 -0.3149,-0.035 -0.6336,0 -0.9505,0 -0.1056,0 -0.2144,0.026 -0.3168,0 -0.1146,-0.029 -0.2023,-0.1297 -0.3169,-0.1584 -0.1024,-0.026 -0.2112,0 -0.3168,0 -0.053,0 -0.1112,0.024 -0.1584,0 -0.067,-0.033 -0.092,-0.125 -0.1584,-0.1584 -0.1268,-0.063 -0.3486,0.063 -0.4753,0 -0.067,-0.033 -0.092,-0.125 -0.1584,-0.1584 -0.047,-0.024 -0.1112,0.024 -0.1584,0 -0.067,-0.033 -0.096,-0.117 -0.1584,-0.1584 -0.098,-0.065 -0.2334,-0.075 -0.3169,-0.1584 -0.167,-0.167 -0.1498,-0.4667 -0.3168,-0.6337 -0.8096,-0.8096 0.2209,0.6642 -0.6337,-0.4753 -0.1592,-0.2123 -0.2255,-0.5639 -0.3168,-0.7921 -0.044,-0.1096 -0.1146,-0.2072 -0.1584,-0.3168 -0.1004,-0.2508 -0.2835,-0.8753 -0.3169,-1.1089 -0.022,-0.1569 0,-0.3169 0,-0.4753 0,-0.1584 0,-0.3168 0,-0.4752 0,-0.1585 0,-0.3169 0,-0.4753 0,-0.1584 -0.05,-0.325 0,-0.4753 0.2378,-0.7133 0.3092,-0.2513 0.6337,-0.7921 0.086,-0.1431 0.084,-0.3258 0.1584,-0.4752 0.033,-0.067 0.1056,-0.1056 0.1584,-0.1584 0.1056,-0.1056 0.2113,-0.2113 0.3169,-0.3169 0.053,-0.053 0.117,-0.096 0.1584,-0.1584 0.065,-0.098 0.098,-0.2156 0.1584,-0.3168 0.098,-0.1633 0.2189,-0.312 0.3168,-0.4753 0.061,-0.1012 0.1056,-0.2112 0.1585,-0.3168 0.053,-0.1056 0.121,-0.2048 0.1584,-0.3168 0.069,-0.2066 0.099,-0.4244 0.1584,-0.6337 0.092,-0.3211 0.2619,-0.6211 0.3168,-0.9505 0.026,-0.1563 -0.026,-0.319 0,-0.4753 0.044,-0.2619 0.3167,-0.871 0.4753,-1.1089 0.1243,-0.1864 0.3408,-0.296 0.4752,-0.4753 0.1417,-0.1889 0.1752,-0.4447 0.3169,-0.6337 0.09,-0.1194 0.2272,-0.1973 0.3168,-0.3168 0.071,-0.094 0.085,-0.2246 0.1584,-0.3168 0.14,-0.175 0.3451,-0.293 0.4753,-0.4753 0.1373,-0.1921 0.1997,-0.4286 0.3168,-0.6337 0.5097,-0.8919 0.155,-0.032 0.6337,-1.1089 0.4655,-1.0473 0.2635,-0.6306 0.4753,-1.901 0.097,-0.5824 0.2633,-1.1546 0.3168,-1.7426 0.053,-0.5785 -0.061,-1.1649 0,-1.7426 0.075,-0.7129 0.4267,-1.528 0.6337,-2.2179 0.062,-0.2085 0.061,-0.4389 0.1584,-0.6337 0.067,-0.1335 0.2272,-0.1973 0.3168,-0.3168 0.071,-0.094 0.1056,-0.2112 0.1584,-0.3168 0.1057,-0.1056 0.2273,-0.1974 0.3169,-0.3169 0.071,-0.094 0.098,-0.2155 0.1584,-0.3168 0.098,-0.1633 0.2189,-0.312 0.3168,-0.4753 0.087,-0.145 0.2298,-0.4886 0.3169,-0.6336 0.098,-0.1633 0.2112,-0.3169 0.3168,-0.4753 0.1056,-0.1584 0.195,-0.329 0.3168,-0.4752 0.1435,-0.1722 0.3451,-0.293 0.4753,-0.4753 0.7747,-1.0846 -0.1147,-0.2109 0.6337,-1.1089 0.1434,-0.1721 0.3168,-0.3169 0.4752,-0.4753 0.3169,-0.3168 0.6337,-0.6337 0.9505,-0.9505 0.8449,-0.8449 1.6898,-1.6898 2.5347,-2.5347 0.2113,-0.2112 0.437,-0.4089 0.6337,-0.6337 0.7815,-0.8931 0.1449,-0.4237 1.1089,-1.2673 1.7453,-1.5271 -0.5403,0.6987 1.2674,-1.1089 0.2112,-0.2113 0.4224,-0.4225 0.6337,-0.6337 0.2112,-0.2112 0.3947,-0.4545 0.6336,-0.6337 0.189,-0.1417 0.4312,-0.1953 0.6337,-0.3168 0.1864,-0.1119 0.2942,-0.3545 0.4753,-0.4753 0.098,-0.066 0.2186,-0.093 0.3168,-0.1584 0.062,-0.041 0.096,-0.117 0.1584,-0.1584 0.098,-0.066 0.2048,-0.1211 0.3169,-0.1584 0.05,-0.017 0.121,0.037 0.1584,0 0.037,-0.037 -0.024,-0.1112 0,-0.1585 0.033,-0.065 0.4081,-0.4305 0.4752,-0.4752 0.098,-0.065 0.2186,-0.093 0.3169,-0.1584 0.053,-0.053 0.1056,-0.1056 0.1584,-0.1585 0,-0.053 -0.037,-0.121 0,-0.1584 0.037,-0.037 0.1112,0.024 0.1584,0 0.067,-0.033 0.092,-0.125 0.1584,-0.1584 0.047,-0.024 0.1112,0.024 0.1585,0 0.067,-0.033 0.096,-0.117 0.1584,-0.1584 0.098,-0.065 0.2186,-0.093 0.3168,-0.1584 0.062,-0.041 0.1056,-0.1056 0.1584,-0.1584 0.2113,-0.2113 0.4004,-0.4471 0.6337,-0.6337 0.2974,-0.2379 0.6532,-0.3958 0.9505,-0.6337 0.4912,-0.3929 0.142,-0.3086 0.7921,-0.6337 0.3979,-0.1989 0.9018,-0.2011 1.2674,-0.4752 0.1194,-0.09 0.1832,-0.2501 0.3168,-0.3169 0.094,-0.047 0.2112,0 0.3168,0 0.109,0 0.8583,0.031 0.9505,0 0.1121,-0.037 0.2023,-0.1297 0.3169,-0.1584 0.1072,-0.027 1.007,0 1.1089,0 0.7393,0 1.4786,0 2.2179,0 0.4224,0 0.8449,0 1.2673,0 0.2112,0 0.4241,-0.026 0.6337,0 0.4321,0.054 0.8353,0.2628 1.2673,0.3169 0.2096,0.026 0.4246,-0.03 0.6337,0 0.3715,0.053 0.7895,0.3383 1.1089,0.4752 0.1535,0.066 0.3303,0.076 0.4753,0.1584 0.4679,-0.037 0.5108,0.4461 0.7921,0.6337 0.3145,0.2097 0.4053,0.095 0.6337,0.4753 0.086,0.1432 0.072,0.332 0.1584,0.4752 0.077,0.1281 0.2272,0.1974 0.3168,0.3169 0.071,0.094 0.1056,0.2112 0.1584,0.3168 0.1057,0.1584 0.1979,0.3266 0.3169,0.4752 0.093,0.1167 0.24,0.1888 0.3168,0.3169 0.086,0.1432 0.072,0.332 0.1584,0.4752 0.077,0.1281 0.2236,0.2002 0.3169,0.3169 0.1189,0.1486 0.1979,0.3266 0.3168,0.4752 0.093,0.1167 0.2235,0.2002 0.3168,0.3169 0.9615,1.2018 -0.2275,-0.2208 0.4753,0.9505 0.077,0.1281 0.2235,0.2002 0.3168,0.3168 0.119,0.1487 0.2113,0.3169 0.3169,0.4753 0.1056,0.1584 0.2317,0.3049 0.3168,0.4752 0.075,0.1494 0.084,0.3259 0.1584,0.4753 0.1703,0.3406 0.4488,0.6176 0.6337,0.9505 0.172,0.3097 0.3287,0.628 0.4753,0.9505 0.1176,0.2589 0.2112,0.5281 0.3168,0.7921 0.1056,0.264 0.242,0.5177 0.3168,0.7921 0.085,0.3099 0.074,0.6406 0.1585,0.9505 0.075,0.2744 0.242,0.5177 0.3168,0.7921 0.084,0.3099 0.086,0.6375 0.1584,0.9505 0.086,0.3746 0.2625,0.7284 0.3168,1.1089 0.052,0.366 -0.025,0.7401 0,1.109 0.028,0.4248 0.1258,0.8428 0.1585,1.2673 0.014,0.1798 -0.017,1.643 0,1.7426 0.055,0.3295 0.2619,0.6211 0.3168,0.9505 0.096,0.573 -0.1039,1.1711 0,1.7426 0.417,2.2937 0.3168,-0.3725 0.3168,1.9011 0,1.9428 -0.043,-0.4775 0.1585,1.7426 0.024,0.2629 -0.047,0.5323 0,0.7921 0.06,0.3285 0.2571,0.6219 0.3168,0.9505 0.047,0.2597 -0.029,0.5296 0,0.7921 0.023,0.208 0.2244,0.8778 0.3168,1.1089 0.044,0.1096 0.1298,0.2023 0.1585,0.3168 0.026,0.1025 -0.026,0.2144 0,0.3169 -0.095,0.2867 0.2566,0.2946 0.3168,0.4752 0.1255,0.3765 -0.1875,0.2877 0.1584,0.6337 0.083,0.083 0.2513,0.06 0.3168,0.1584 0.059,0.088 -0.033,0.2167 0,0.3169 0.024,0.071 0.117,0.096 0.1585,0.1584 0.065,0.098 0.075,0.2333 0.1584,0.3168 0.083,0.084 0.246,0.064 0.3168,0.1584 0.1002,0.1336 0.072,0.3321 0.1584,0.4753 0.047,0.079 0.7144,0.7299 0.7921,0.7921 0.1487,0.1189 0.305,0.2317 0.4753,0.3168 0.3195,0.1598 0.5152,0.1092 0.7921,0.3169 0.1792,0.1344 0.2888,0.3509 0.4752,0.4752 0.1965,0.131 0.4372,0.1858 0.6337,0.3168 0.3941,0.2627 0.018,0.036 0.1584,0.3169 0.1752,0.3503 0.098,0.049 0.3169,0.1584 0.6593,0.3297 -0.1694,-0.011 0.1584,0.3168 0.037,0.037 0.1211,-0.037 0.1584,0 0.037,0.037 -0.024,0.1112 0,0.1585 0.067,0.1335 0.25,0.1832 0.3168,0.3168 0.024,0.047 -0.024,0.1112 0,0.1584 0.033,0.067 0.1251,0.092 0.1585,0.1584 0.024,0.047 0,0.1056 0,0.1584 0.053,0.1057 0.093,0.2186 0.1584,0.3169 0.041,0.062 0.1056,0.1056 0.1584,0.1584 0.1584,0.1584 0.3168,0.3168 0.4753,0.4753 0.053,0.053 0.1348,0.088 0.1584,0.1584 0.067,0.2004 -0.051,0.4287 0,0.6337 0.057,0.2291 0.2595,0.4045 0.3168,0.6336 0.026,0.1025 -0.026,0.2144 0,0.3169 0.029,0.1145 0.1298,0.2022 0.1584,0.3168 0.026,0.1025 0,0.2112 0,0.3168 0.053,0.1057 0.1298,0.2023 0.1584,0.3169 0.03,0.1204 0,0.6594 0,0.7921 0,0.4224 0,0.8449 0,1.2673 0,0.3912 0.071,0.6066 -0.1584,0.9505 -0.041,0.062 -0.1056,0.1056 -0.1584,0.1584 -0.053,0.1057 -0.093,0.2186 -0.1584,0.3169 -0.1243,0.1864 -0.3408,0.296 -0.4753,0.4752 -0.071,0.094 -0.075,0.2334 -0.1584,0.3169 -0.083,0.083 -0.2224,0.088 -0.3168,0.1584 -0.1195,0.09 -0.1974,0.2272 -0.3169,0.3168 -0.183,0.1373 -0.9107,0.4423 -1.1089,0.4753 -0.1563,0.026 -0.3199,-0.031 -0.4752,0 -0.1158,0.023 -0.2113,0.1056 -0.3169,0.1584 -0.2112,0.053 -0.4176,0.1314 -0.6337,0.1584 -0.2095,0.026 -0.4224,0 -0.6336,0 -0.2113,0 -0.4225,0 -0.6337,0 -0.8977,0 -1.7954,0 -2.6931,0 -1.5314,0 -3.0628,0 -4.5942,0 -0.4752,0 -0.9505,0 -1.4257,0 -0.4753,0 -0.9534,0.053 -1.4258,0 -0.4839,-0.054 -0.9411,-0.2707 -1.4258,-0.3168 -0.6308,-0.06 -1.2673,0 -1.901,0 -1.2145,0 -2.4291,0 -3.6436,0 -0.5809,0 -1.1617,0 -1.7426,0 -0.5281,0 -1.0588,-0.053 -1.5842,0 -0.5358,0.054 -1.0483,0.2632 -1.5842,0.3168 -0.5254,0.053 -1.0561,0 -1.5842,0 -0.4752,0 -0.9505,0 -1.4257,0 -3.2212,0 -6.4424,0 -9.6636,0 -0.8449,0 -1.6898,0 -2.5347,0 -0.3168,0 -0.6336,0 -0.9505,0 -0.1056,0 -0.2133,0.021 -0.3168,0 -0.1638,-0.033 -0.3115,-0.1256 -0.4753,-0.1584 -0.1035,-0.021 -0.2112,0 -0.3168,0 -0.053,0 -0.1112,0.024 -0.1584,0 -0.067,-0.033 -0.092,-0.125 -0.1585,-0.1584 -0.048,-0.024 -0.4039,0 -0.4752,0 -0.3697,0 -0.7393,0 -1.1089,0 -0.4225,0 -0.8449,0 -1.2674,0 -0.2112,0 -0.4224,0 -0.6337,0 -0.1584,0 -0.319,0.026 -0.4752,0 -0.1647,-0.027 -0.31,-0.1348 -0.4753,-0.1584 -0.2091,-0.03 -0.4245,0.03 -0.6336,0 -0.1654,-0.024 -0.3106,-0.131 -0.4753,-0.1584 -0.1563,-0.026 -0.325,0.05 -0.4753,0 -0.7471,-0.2491 -0.2583,-0.2251 -0.6336,-0.4753 -0.098,-0.065 -0.2186,-0.093 -0.3169,-0.1584 -0.1553,-0.1036 -0.2618,-0.3104 -0.3168,-0.4753 -0.017,-0.05 0.013,-0.1072 0,-0.1584 -0.04,-0.162 -0.1257,-0.3115 -0.1584,-0.4753 -0.041,-0.2071 0.041,-0.4265 0,-0.6336 -0.033,-0.1638 -0.1257,-0.3115 -0.1584,-0.4753 -0.021,-0.1035 0.021,-0.2133 0,-0.3168 -0.033,-0.1638 -0.1057,-0.3169 -0.1585,-0.4753 -0.053,-0.1584 -0.1056,-0.3168 -0.1584,-0.4752 -0.1056,-0.3169 -0.1928,-0.6405 -0.3168,-0.9505 -0.044,-0.1097 -0.1353,-0.2011 -0.1584,-0.3169 -0.042,-0.2079 0,-0.6986 0,-0.9505 0,-0.5312 -0.088,-1.0913 0.1584,-1.5842 0.085,-0.1703 0.2112,-0.3168 0.3168,-0.4752 0.1056,-0.1585 0.2112,-0.3169 0.3169,-0.4753 0.2112,-0.3168 0.3899,-0.658 0.6336,-0.9505 0.1435,-0.1721 0.3409,-0.296 0.4753,-0.4753 0.1847,-0.2463 0.3099,-0.5323 0.4752,-0.792 0,-0.01 1.2664,-1.8993 1.2674,-1.9011 0.1362,-0.2496 0.2196,-0.5248 0.3168,-0.7921 0.2713,-0.7461 0.4034,-1.1107 0.4753,-1.901 0.024,-0.2629 -0.047,-0.5323 0,-0.7921 0.06,-0.3286 0.2571,-0.6219 0.3168,-0.9505 0.047,-0.2598 0,-0.5281 0,-0.7921 0,-0.3168 -0.029,-0.635 0,-0.9505 0.024,-0.2682 0.1341,-0.5239 0.1584,-0.7921 0.029,-0.3155 -0.062,-0.6398 0,-0.9505 0.046,-0.2316 0.2422,-0.4096 0.3169,-0.6337 0.3558,-1.0675 -0.091,-0.5457 0.4752,-1.5842 0.4917,-0.9013 0.6885,-0.9466 1.2674,-1.7426 0.4479,-0.6159 0.8449,-1.2673 1.2673,-1.901 0.2113,-0.3168 0.4052,-0.6459 0.6337,-0.9505 0.2475,-0.3299 0.5691,-0.6036 0.7921,-0.9505 0,-0.01 1.2586,-2.5192 1.2673,-2.5347 0.2443,-0.4342 0.5925,-0.811 0.7921,-1.2674 0.4219,-0.9641 0.2612,-1.5355 0.4753,-2.5347 0.3533,-1.6489 0.2476,-0.2674 0.7921,-1.901 0.5206,-1.5617 -0.3204,-0.3745 0.6337,-1.901 0.7921,-1.2673 0,0.2376 0.4752,-0.4753 0.1539,-0.2308 0.099,-0.3299 0.3169,-0.4752 0.098,-0.065 0.2333,-0.075 0.3168,-0.1584 0.01,-0.01 0.2972,-0.6042 0.3168,-0.6337 0.1615,-0.2423 0.2188,-0.1245 0.4753,-0.3168 0.1195,-0.09 0.2112,-0.2113 0.3168,-0.3169 0.2112,-0.2112 0.4225,-0.4224 0.6337,-0.6337 0.1056,-0.1056 0.2235,-0.2002 0.3168,-0.3168 0.119,-0.1487 0.1822,-0.3406 0.3169,-0.4752 0.2692,-0.2693 0.6531,-0.3958 0.9505,-0.6337 0.1166,-0.093 0.1887,-0.24 0.3168,-0.3169 0.1432,-0.086 0.3321,-0.072 0.4753,-0.1584 0.128,-0.077 0.1925,-0.234 0.3168,-0.3168 0.044,-0.029 0.1145,0.029 0.1584,0 0.1243,-0.083 0.1926,-0.234 0.3169,-0.3169 0.044,-0.029 0.1112,0.024 0.1584,0 0.067,-0.033 0.096,-0.1169 0.1584,-0.1584 0.029,-0.02 0.6235,-0.3067 0.6337,-0.3168 0.084,-0.084 0.053,-0.264 0.1584,-0.3168 0.1417,-0.071 0.3282,0.059 0.4753,0 0.7467,-0.2987 -0.091,-0.3304 0.6336,-0.4753 0.2292,-0.046 0.7211,0.057 0.9505,0 0.1146,-0.029 0.2049,-0.1211 0.3169,-0.1584 0.089,-0.03 0.3711,0 0.4752,0 0.3697,0 0.7393,0 1.109,0 1.1089,0 2.2178,0 3.3268,0 0.4224,0 0.8449,0 1.2673,0 0.1584,0 0.3199,-0.031 0.4753,0 0.1157,0.023 0.201,0.1352 0.3168,0.1584 0.1553,0.031 0.319,-0.026 0.4753,0 0.1647,0.027 0.3115,0.1257 0.4752,0.1584 0.1036,0.021 0.2133,-0.021 0.3168,0 0.1638,0.033 0.3116,0.1257 0.4753,0.1584 0.1036,0.021 0.2133,-0.021 0.3168,0 0.1638,0.033 0.3169,0.1056 0.4753,0.1585 0.1584,0.053 0.3202,0.096 0.4752,0.1584 0.2193,0.088 0.4225,0.2112 0.6337,0.3168 0.1056,0.053 0.2072,0.1146 0.3169,0.1584 0.155,0.062 0.332,0.072 0.4752,0.1584 0.1281,0.077 0.1974,0.2273 0.3169,0.3169 0.094,0.071 0.2246,0.085 0.3168,0.1584 0.1749,0.14 0.3168,0.3168 0.4752,0.4753 0.2113,0.2112 0.4471,0.4004 0.6337,0.6336 0.4288,0.536 0.2808,0.4284 0.4753,1.109 0.151,0.5285 0.3968,1.035 0.4752,1.5842 0.022,0.1568 0,0.3168 0,0.4752 0,0.2112 0,0.4225 0,0.6337 0,0.2112 -0.023,0.4237 0,0.6337 0.03,0.2676 0.1251,0.5249 0.1585,0.792 0.039,0.3144 0,0.6337 0,0.9506 0,0.1584 -0.026,0.319 0,0.4752 0.055,0.3294 0.2619,0.6211 0.3168,0.9505 0.026,0.1563 -0.026,0.319 0,0.4753 0.055,0.3294 0.2619,0.6211 0.3168,0.9505 0.1553,0.9314 -0.2137,0.02 0.1584,0.9505 0.044,0.1096 0.1146,0.2072 0.1585,0.3168 0.124,0.3101 0.1928,0.6405 0.3168,0.9506 0.044,0.1096 0.139,0.2003 0.1584,0.3168 0.035,0.2083 -0.078,0.4375 0,0.6337 0.044,0.1096 0.2334,0.075 0.3169,0.1584 0.1867,0.1867 0.3168,0.4224 0.4752,0.6337 0.1584,0.2112 0.3168,0.4224 0.4753,0.6336 0.1584,0.2113 0.2885,0.447 0.4752,0.6337 0.1867,0.1867 0.435,0.3014 0.6337,0.4753 0.2248,0.1967 0.4224,0.4224 0.6337,0.6336 0.6659,0.666 1.294,1.3444 2.0594,1.9011 2.5639,1.8646 -0.582,-0.4039 1.901,0.9505 0.7762,0.4234 0.7731,0.7452 1.4258,1.2673 0.2974,0.2379 0.6426,0.4097 0.9505,0.6337 0.2735,0.1989 0.5187,0.4348 0.7921,0.6337 0.6159,0.4479 1.2851,0.8194 1.901,1.2673 0.2735,0.1989 0.5187,0.4348 0.7921,0.6337 0.308,0.224 0.6532,0.3958 0.9505,0.6337 0.2333,0.1866 0.4225,0.4224 0.6337,0.6336 0.2112,0.2113 0.4225,0.4225 0.6337,0.6337 0.2112,0.2112 0.4224,0.4225 0.6337,0.6337 0.2112,0.2112 0.4753,0.3804 0.6336,0.6337 0.1154,0.1846 0.073,0.4335 0.1585,0.6336 0.075,0.175 0.2418,0.3003 0.3168,0.4753 0.086,0.2001 0.082,0.4298 0.1584,0.6337 0.083,0.2211 0.252,0.4066 0.3168,0.6336 0.044,0.1524 -0.031,0.32 0,0.4753 0.023,0.1158 0.1298,0.2023 0.1585,0.3168 0.026,0.1025 -0.021,0.2133 0,0.3169 0.033,0.1637 0.1256,0.3115 0.1584,0.4752 0.021,0.1036 0,0.2113 0,0.3169 0,0.2112 0,0.4224 0,0.6336 0,0.053 -0.017,0.1084 0,0.1585 0.037,0.112 0.1211,0.2048 0.1584,0.3168 0.031,0.092 0,0.8415 0,0.9505 0,0.1584 0.059,0.3282 0,0.4753 -0.071,0.1767 -0.2189,0.312 -0.3168,0.4752 -0.1215,0.2025 -0.1752,0.4448 -0.3169,0.6337 -0.09,0.1195 -0.24,0.1888 -0.3168,0.3168 -0.086,0.1432 -0.058,0.3417 -0.1584,0.4753 -0.071,0.094 -0.2334,0.075 -0.3169,0.1584 -0.037,0.037 0.024,0.1112 0,0.1584 -0.042,0.085 -0.2745,0.2323 -0.3168,0.3169 -0.024,0.047 0.037,0.121 0,0.1584 -0.037,0.037 -0.1112,-0.024 -0.1584,0 -0.6593,0.3296 0.1693,-0.011 -0.1584,0.3168 -0.037,0.037 -0.1112,-0.024 -0.1585,0 -0.042,0.021 -0.4542,0.4332 -0.4752,0.4753 -0.024,0.047 0.024,0.1112 0,0.1584 -0.021,0.042 -0.4332,0.4542 -0.4753,0.4752 -0.047,0.024 -0.1211,-0.037 -0.1584,0 -0.075,0.075 0.047,0.2224 0,0.3169 -0.067,0.1336 -0.25,0.1832 -0.3168,0.3168 -0.021,0.042 0,0.5509 0,0.6337"
       id="path5202"
       inkscape:connector-curvature="0" />
    <path
       inkscape:connector-curvature="0"
       id="path4186-0-4-7"
       style="fill:#000000;fill-opacity:1;fill-rule:evenodd;stroke:none"
       d="m 1642.5691,1257.3646 c 0,1.3833 -1.1214,2.5046 -2.5047,2.5046 -1.3822,0 -2.5047,-1.1213 -2.5047,-2.5046 0,-1.3833 1.1225,-2.5047 2.5047,-2.5047 1.3833,0 2.5047,1.1214 2.5047,2.5047" />
  </g>
</svg>
